<svg width="50" height="28" viewBox="0 0 50 28" fill="none" xmlns="http://www.w3.org/2000/svg">
<g clip-path="url(#clip0_3071_703)">
<path d="M1.34008 2.6593C1.07512 2.37495 0.930877 1.99886 0.937734 1.61026C0.94459 1.22166 1.10201 0.850885 1.37684 0.576059C1.65167 0.301233 2.02244 0.143809 2.41104 0.136952C2.79964 0.130096 3.17573 0.274342 3.46008 0.539302L25.2601 20.3493L46.5601 1.0593C46.6974 0.911929 46.863 0.793724 47.047 0.71174C47.231 0.629757 47.4296 0.585673 47.631 0.582119C47.8324 0.578566 48.0325 0.615615 48.2193 0.691057C48.4061 0.766499 48.5757 0.878788 48.7182 1.02123C48.8606 1.16366 48.9729 1.33333 49.0483 1.52011C49.1238 1.70688 49.1608 1.90694 49.1573 2.10835C49.1537 2.30975 49.1096 2.50838 49.0276 2.69238C48.9457 2.87638 48.8275 3.04198 48.6801 3.1793C48.6801 3.1793 27.5 28 25.2601 28C23.0202 28 1.34008 2.6693 1.34008 2.6693V2.6593Z" fill="#41545A"/>
</g>
<defs>
<clipPath id="clip0_3071_703">
<rect width="50" height="28" fill="white"/>
</clipPath>
</defs>
</svg>
