<svg width="173" height="67" viewBox="0 0 173 67" fill="none" xmlns="http://www.w3.org/2000/svg">
<g clip-path="url(#clip0_2112_135)">
<path d="M2.97945 3.01495C5.30196 2.8304 7.5672 2.60958 9.83721 2.48497C10.9889 2.42187 12.1502 2.55595 13.3067 2.54964C14.7781 2.54175 16.2496 2.4755 17.721 2.44396C18.4687 2.42818 19.2179 2.45973 19.964 2.42503C22.0288 2.32881 24.092 2.2184 26.1552 2.09852C27.6442 2.01177 29.13 1.87927 30.6189 1.80199C32.3258 1.71366 34.0359 1.68369 35.7428 1.59536C37.0106 1.53069 38.2752 1.37926 39.5431 1.3351C40.4466 1.30355 41.3534 1.41081 42.2585 1.41554C43.1875 1.42027 44.1181 1.32879 45.0455 1.36033C46.9417 1.42658 48.8347 1.55435 50.7293 1.63952C51.3672 1.66791 52.0083 1.63006 52.6478 1.64741C53.5831 1.67264 54.5185 1.75624 55.4539 1.75151C58.5193 1.73574 61.5878 1.74047 64.6516 1.63952C66.5128 1.57801 68.3661 1.32248 70.2257 1.18367C71.029 1.12374 71.8387 1.16159 72.6436 1.11585C73.9974 1.04014 75.3479 0.912375 76.7017 0.84455C77.4636 0.806694 78.2288 0.863478 78.9923 0.841395C80.4495 0.798807 81.9066 0.721518 83.3653 0.678931C84.0271 0.660003 84.6905 0.683663 85.3538 0.704168C86.7982 0.74991 88.2426 0.803539 89.687 0.858746C90.9851 0.907643 92.2832 0.947076 93.5796 1.01648C94.4768 1.0638 95.3708 1.20102 96.268 1.2168C97.6011 1.23888 98.9357 1.17106 100.27 1.17737C101.128 1.1821 101.985 1.26254 102.844 1.28778C103.127 1.29566 103.412 1.22311 103.697 1.20891C105.164 1.13951 106.633 1.10481 108.097 1.00386C109.29 0.921839 110.478 0.762529 111.668 0.633188C113.366 0.450219 115.061 0.232548 116.763 0.0905886C117.662 0.014877 118.57 0.0763927 119.476 0.0621968C120.549 0.0464235 121.623 -0.0103601 122.697 -0.000896198C123.858 0.0101451 125.018 0.0795473 126.177 0.122135C128.234 0.197847 130.293 0.265672 132.35 0.347692C133.743 0.402899 135.137 0.469146 136.53 0.544858C137.074 0.574827 137.613 0.674199 138.158 0.688395C140.48 0.751487 142.803 0.781457 145.125 0.847704C146.554 0.888715 147.982 1.03698 149.409 1.02121C150.884 1.00544 152.358 0.835086 153.833 0.759374C155.398 0.678931 156.97 0.686817 158.529 0.551167C160.439 0.385548 162.331 0.316146 164.24 0.598487C164.928 0.701013 165.655 0.521198 166.363 0.540126C167.962 0.581136 169.561 0.655271 171.159 0.738869C171.952 0.779879 173.073 1.97865 172.882 2.70421C172.784 3.08435 173.339 3.62064 172.637 3.84935C172.739 4.80363 171.982 4.56861 171.398 4.70111C171.398 5.86675 171.377 7.05763 171.404 8.24693C171.431 9.41258 171.49 10.5782 171.567 11.7423C171.626 12.6414 171.756 13.5357 171.813 14.4348C171.855 15.0988 171.813 15.7692 171.835 16.4348C171.874 17.5768 171.921 18.7172 171.987 19.8576C172.095 21.7331 172.24 23.6053 172.335 25.4808C172.43 27.3546 172.481 29.2317 172.558 31.1071C172.625 32.7286 172.734 34.3501 172.76 35.9731C172.779 37.1829 172.667 38.3928 172.658 39.6041C172.64 41.9133 172.644 44.2241 172.658 46.5349C172.664 47.3772 172.85 48.2353 172.745 49.0602C172.547 50.6154 172.243 52.1628 171.885 53.6896C171.713 54.4247 171.446 55.207 170.988 55.7843C170.638 56.2244 169.931 56.4105 169.354 56.6282C169.26 56.6629 168.878 56.2985 168.845 56.0856C168.643 54.8411 168.347 53.5997 168.644 52.3205C168.729 51.9562 168.651 51.5555 168.66 51.1722C168.71 49.1533 168.77 47.1343 168.811 45.1153C168.88 41.8786 168.958 38.642 168.994 35.4053C169.018 33.2854 168.988 31.1655 168.964 29.0455C168.948 27.6796 168.896 26.3136 168.873 24.9476C168.853 23.629 168.861 22.3104 168.834 20.9917C168.805 19.5769 168.695 18.162 168.719 16.7471C168.757 14.378 168.858 12.0089 168.958 9.64129C169.028 8.01191 169.142 6.38569 169.244 4.6254C167.703 4.50867 166.123 4.37145 164.542 4.27523C163.438 4.20898 162.331 4.15693 161.225 4.17113C159.348 4.19479 157.471 4.25472 155.595 4.33832C154.471 4.3888 153.351 4.55599 152.226 4.59543C151.393 4.6254 150.554 4.49921 149.719 4.50867C148.335 4.52445 146.95 4.63644 145.567 4.62382C144.493 4.61435 143.421 4.44085 142.348 4.40615C140.459 4.34463 138.57 4.34463 136.681 4.29573C135.701 4.2705 134.721 4.18848 133.742 4.15062C132.286 4.09226 130.83 4.05756 129.377 3.9992C128.58 3.96607 127.783 3.87301 126.986 3.86355C125.999 3.85251 125.013 3.93295 124.028 3.91087C123.223 3.89352 122.42 3.72948 121.617 3.72632C120.548 3.72317 119.476 3.77522 118.411 3.86986C117.134 3.985 115.866 4.19163 114.59 4.3194C113.353 4.44243 112.109 4.5071 110.87 4.60962C109.53 4.72161 108.192 4.86673 106.851 4.95821C106.471 4.98345 106.078 4.81783 105.696 4.83833C104.526 4.90143 103.36 5.05916 102.189 5.09386C100.701 5.1396 99.2109 5.12225 97.722 5.09386C96.5591 5.07178 95.3963 5.00553 94.235 4.93771C93.0054 4.86515 91.7789 4.75158 90.5492 4.68533C89.0364 4.60174 87.5236 4.49448 86.0092 4.4929C83.4433 4.48975 80.879 4.55599 78.3131 4.60331C76.156 4.64275 73.9974 4.66325 71.8419 4.75474C70.609 4.80837 69.3826 5.02919 68.1497 5.10017C66.8405 5.17588 65.5266 5.15695 64.2142 5.19008C63.7433 5.20112 63.2724 5.26421 62.8016 5.26737C61.3285 5.27525 59.8539 5.24686 58.3809 5.26894C56.6135 5.29576 54.8478 5.39986 53.0804 5.39355C52.0862 5.3904 51.0952 5.21058 50.101 5.14749C48.7409 5.06231 47.3808 4.98818 46.0191 4.95663C44.1054 4.91247 42.1901 4.86042 40.278 4.91089C38.4582 4.95979 36.6415 5.13645 34.8233 5.25317C34.5592 5.27052 34.2936 5.26106 34.0311 5.27683C32.7283 5.35412 31.4254 5.43141 30.1226 5.51974C29.0138 5.59387 27.9083 5.69482 26.7995 5.75791C25.7178 5.82101 24.6345 5.87779 23.5512 5.88883C21.6757 5.90934 19.7938 5.98032 17.923 5.87464C15.0295 5.70902 12.1438 5.40933 9.255 5.17273C7.62128 5.03865 5.98598 4.92666 4.35227 4.78471C3.89095 4.74527 3.4344 4.63959 3.02081 4.57334C3.02081 5.40775 2.99217 6.2248 3.02558 7.0387C3.1258 9.50248 3.25942 11.9663 3.36441 14.43C3.42009 15.7313 3.41054 17.0358 3.49008 18.3355C3.58394 19.8576 3.77005 21.3734 3.85914 22.8955C3.91004 23.7536 3.83687 24.6196 3.84482 25.4824C3.848 25.7868 3.95776 26.0912 3.96413 26.3972C4.0039 28.4351 4.01662 30.4746 4.06594 32.5125C4.1057 34.1261 4.22819 35.7381 4.23615 37.3517C4.24569 39.2193 4.16297 41.0868 4.13275 42.956C4.12798 43.2067 4.22501 43.4591 4.22978 43.7115C4.25842 45.18 4.28069 46.6501 4.28864 48.1185C4.29819 49.6596 4.27273 51.2006 4.29501 52.7401C4.30932 53.7638 4.37932 54.7875 4.43181 55.8096C4.49226 56.9847 4.60361 58.1582 4.60998 59.3333C4.61316 59.9138 4.40318 60.4942 4.33477 61.0794C4.30614 61.3207 4.39681 61.5747 4.43022 61.8144C6.82909 61.9785 9.1516 62.1693 11.4789 62.2861C13.593 62.3933 15.7135 62.3996 17.8292 62.4895C19.3054 62.5526 20.7785 62.753 22.2547 62.7671C24.827 62.7908 27.4008 62.6867 29.9731 62.6977C31.1789 62.7041 32.3831 62.8776 33.5889 62.9312C34.0756 62.9533 34.5672 62.8318 35.0587 62.8129C36.6813 62.7482 38.3023 62.6804 39.9249 62.6536C40.7505 62.6394 41.5777 62.7246 42.4033 62.7388C43.6186 62.7593 44.8339 62.7577 46.0493 62.7656C46.8399 62.7719 47.6289 62.8003 48.4179 62.7845C49.5474 62.7624 50.6752 62.7056 51.8047 62.6741C52.1164 62.6662 52.4298 62.6883 52.74 62.7119C52.9452 62.7277 53.152 62.8003 53.3541 62.7924C54.8287 62.7324 56.3033 62.6457 57.7796 62.5921C59.294 62.5369 60.8084 62.4958 62.3228 62.4722C63.9151 62.4485 65.5075 62.4753 67.0982 62.4391C68.9308 62.3981 70.7617 62.3018 72.5927 62.2482C73.991 62.2072 75.3909 62.1883 76.7907 62.1741C78.5597 62.1567 80.3318 62.1914 82.0991 62.1331C83.4544 62.0889 84.805 61.9264 86.1587 61.8318C87.6779 61.7245 89.1987 61.6236 90.7194 61.5447C91.3653 61.5116 92.0143 61.551 92.6602 61.5368C94.4689 61.4943 96.2775 61.4185 98.0862 61.4012C98.8164 61.3949 99.5498 61.5778 100.278 61.5526C103.083 61.4564 105.883 61.2513 108.689 61.6252C109.524 61.7372 110.397 61.5368 111.253 61.5495C112.947 61.5747 114.643 61.6362 116.335 61.7088C118.192 61.7876 120.047 61.9107 121.903 61.9832C123.96 62.0637 126.018 62.1473 128.077 62.1583C129.629 62.1662 131.182 62.0637 132.735 62.01C134.246 61.9596 135.757 61.8933 137.27 61.8649C138.208 61.8476 139.149 61.9201 140.086 61.8902C140.754 61.8681 141.415 61.723 142.083 61.6709C142.43 61.6441 142.783 61.6946 143.132 61.7214C143.256 61.7308 143.397 61.8223 143.496 61.7861C144.961 61.2324 146.496 61.4627 148.001 61.3807C149.256 61.3129 150.515 61.3034 151.77 61.2482C152.676 61.2072 153.58 61.0952 154.487 61.0889C155.093 61.0857 155.697 61.2466 156.306 61.2734C157.383 61.3207 158.464 61.3255 159.542 61.3444C160.959 61.3696 162.377 61.3665 163.793 61.4248C164.685 61.4611 165.571 61.622 166.463 61.6583C166.998 61.6804 167.556 61.458 168.072 61.5416C169.433 61.7608 170.884 61.8144 171.81 63.1142C172.36 63.8886 171.807 65.9391 170.891 66.0843C169.82 66.253 168.703 66.3729 167.636 66.2562C166.888 66.1742 166.198 66.0054 165.461 66.2783C165.234 66.3619 164.89 66.3587 164.687 66.2436C163.855 65.7719 163.015 65.895 162.118 65.9849C161.3 66.0669 160.455 65.8256 159.622 65.8098C158.836 65.7956 158.047 65.9234 157.261 65.9171C156.882 65.9139 156.489 65.6268 156.133 65.6757C154.701 65.8713 153.295 65.7672 151.886 65.5243C151.765 65.5038 151.617 65.5417 151.501 65.5937C150.548 66.0212 149.56 65.7246 148.588 65.753C147.583 65.7814 146.579 65.8981 145.572 65.9297C144.793 65.9549 144.01 65.8808 143.23 65.9076C142.33 65.9391 141.433 66.059 140.533 66.0921C139.069 66.1458 137.602 66.1631 136.137 66.1884C134.123 66.2231 132.108 66.2909 130.094 66.2657C128.947 66.2515 127.805 66.0543 126.658 65.9896C125.832 65.9423 125.002 66.0038 124.175 65.9707C123.09 65.9265 122.008 65.8114 120.923 65.7735C119.975 65.7404 119.024 65.7704 118.074 65.7704C117.84 65.7704 117.605 65.7735 117.371 65.7578C116.833 65.7199 116.297 65.6552 115.76 65.6316C114.692 65.5843 113.625 65.5495 112.556 65.5212C111.342 65.4896 110.127 65.4896 108.913 65.4391C107.682 65.3887 106.45 65.2909 105.219 65.2167C104.955 65.201 104.677 65.1394 104.43 65.1994C103.412 65.4454 102.421 65.3476 101.385 65.2388C100.14 65.1079 98.8609 65.3335 97.5947 65.3666C96.4955 65.3966 95.3947 65.3508 94.2955 65.3808C93.4253 65.406 92.5568 65.4928 91.6882 65.559C91.5069 65.5732 91.3255 65.6363 91.1458 65.6363C89.9479 65.6316 88.7485 65.5637 87.5538 65.6174C85.6465 65.7026 83.7439 65.8776 81.8366 65.9912C80.8726 66.048 79.9054 66.0417 78.9414 66.0858C77.8009 66.1395 76.6619 66.2309 75.5213 66.2767C75.0154 66.2972 74.5032 66.2057 73.9974 66.2341C72.4161 66.324 70.8381 66.4849 69.2553 66.5417C68.2738 66.578 67.2812 66.3792 66.306 66.4565C64.5737 66.5953 62.8429 66.5858 61.109 66.6C60.3009 66.6064 59.496 66.7736 58.6879 66.7799C57.8257 66.7862 56.9619 66.6395 56.0997 66.6489C55.0466 66.6616 53.9951 66.7956 52.9405 66.8224C51.8874 66.8508 50.8311 66.8098 49.7764 66.8019C49.2006 66.7988 48.6263 66.7941 48.0505 66.8051C46.8844 66.8272 45.7184 66.8319 44.5556 66.8966C43.4261 66.9597 42.319 66.9423 41.1816 66.8477C39.4079 66.701 37.6008 66.9455 35.808 66.996C35.2894 67.0101 34.7692 66.906 34.249 66.8982C33.2007 66.8808 32.1508 66.8997 31.1009 66.8903C30.2674 66.8824 29.4322 66.8619 28.5986 66.8366C27.7508 66.8114 26.9029 66.7909 26.0566 66.742C24.7045 66.6631 23.3555 66.5306 22.0034 66.477C20.9535 66.436 19.9004 66.5149 18.8505 66.4754C17.8753 66.4376 16.9034 66.3067 15.9298 66.2294C14.8195 66.1426 13.7044 66.1 12.5972 65.9833C11.6905 65.8871 10.798 65.671 9.8913 65.5779C8.58847 65.4454 7.26814 65.4486 5.97326 65.2609C4.5877 65.0606 3.22283 64.7183 1.85637 64.4091C1.68616 64.3713 1.47936 64.1804 1.4205 64.0148C0.948045 62.6836 0.138348 61.4327 0.507404 59.8996C0.606031 59.491 0.451728 59.0273 0.451728 58.5904C0.451728 56.6866 0.483543 54.7827 0.469226 52.8789C0.459682 51.6628 0.375371 50.4467 0.35151 49.2305C0.338784 48.5886 0.384916 47.9466 0.407186 47.3031C0.411959 47.1737 0.446955 47.0428 0.445365 46.9135C0.427866 45.0491 0.411959 43.1847 0.383325 41.3218C0.364236 40.0805 0.345147 38.8391 0.294242 37.5978C0.270381 37.0299 0.130394 36.4653 0.117668 35.8974C0.108123 35.5062 0.283107 35.1119 0.276744 34.7207C0.265609 33.9904 0.136757 33.2601 0.139939 32.5298C0.14312 31.6576 0.262427 30.7869 0.276744 29.9146C0.287879 29.2853 0.206751 28.6544 0.174935 28.0234C0.109714 26.7158 0.0269946 25.4098 -0.0032298 24.1022C-0.0175466 23.4728 0.104942 22.8419 0.10017 22.211C0.0938066 21.2819 -4.82784e-05 20.3529 -0.0032298 19.4223C-0.00800208 18.0784 0.03813 16.7361 0.0556283 15.3922C0.0667637 14.4884 0.0397207 13.5846 0.0715359 12.6824C0.127213 11.0514 0.168572 9.41731 0.300605 7.79109C0.432639 6.17433 0.682388 4.56703 0.855781 2.95343C0.922593 2.33354 1.22802 2.02123 1.8516 1.96287C2.52131 1.90136 2.77583 2.31462 2.97786 3.01179L2.97945 3.01495Z" fill="#41545A"/>
</g>
<rect x="2" y="3" width="171" height="60" fill="#41545A"/>
<defs>
<clipPath id="clip0_2112_135">
<rect width="173" height="67" fill="white"/>
</clipPath>
</defs>
</svg>
