<svg width="147" height="53" viewBox="0 0 147 53" fill="none" xmlns="http://www.w3.org/2000/svg">
<g id="Group 130">
<path id="Vector" d="M8.8038 1.95504C6.88807 2.05299 4.97636 2.22659 3.01632 2.37167L3.01498 2.36919C2 2.5 1.78368 2.32331 1.21849 2.37167C1.07216 3.64016 0.866994 4.85534 0.755568 6.12632C0.644141 7.40474 0.609236 8.68935 0.562249 9.97149C0.535399 10.6808 0.558222 11.3913 0.548824 12.1018C0.534057 13.1582 0.495124 14.2135 0.499152 15.2699C0.501837 16.0015 0.581044 16.7318 0.586414 17.4622C0.590441 17.9582 0.487069 18.4542 0.499152 18.9489C0.524659 19.9769 0.594469 21.0036 0.649511 22.0315C0.676361 22.5275 0.744828 23.0235 0.73543 23.5182C0.723348 24.204 0.622661 24.8884 0.619976 25.5741C0.617291 26.1482 0.726033 26.7223 0.73543 27.2965C0.7408 27.604 0.593126 27.914 0.601181 28.2215C0.611921 28.6679 0.73006 29.1118 0.750198 29.5582C0.793157 30.534 0.809267 31.5099 0.825377 32.4858C0.849542 33.9502 0.862967 35.4158 0.877734 36.8815C0.879077 36.9832 0.849542 37.0861 0.845515 37.1878C0.82672 37.6937 0.787788 38.1983 0.798527 38.703C0.818665 39.659 0.889817 40.6151 0.897872 41.5711C0.909954 43.0677 0.883104 44.5644 0.883104 46.061C0.883104 46.4045 1.01333 46.7691 0.930092 47.0902C0.618634 48.2955 1.30196 49.2788 1.70068 50.3253C1.75035 50.4555 1.92488 50.6056 2.06852 50.6353C3.22172 50.8783 4.37358 51.1474 5.54289 51.3049C6.63568 51.4525 7.74995 51.45 8.84945 51.5541C9.61467 51.6273 10.3678 51.7972 11.133 51.8728C12.0674 51.9646 13.0085 51.9981 13.9455 52.0662C14.7671 52.127 15.5874 52.2299 16.4104 52.2597C17.2964 52.2907 18.1851 52.2287 19.0712 52.2609C20.2123 52.3031 21.3507 52.4072 22.4918 52.4692C23.206 52.5077 23.9216 52.5238 24.6371 52.5436C25.3406 52.5635 26.0454 52.5796 26.7489 52.5858C27.6349 52.5932 28.521 52.5784 29.4057 52.592C29.8447 52.5982 30.2837 52.68 30.7213 52.6689C32.2343 52.6292 33.7594 52.437 35.2562 52.5523C36.2161 52.6267 37.1505 52.6404 38.1037 52.5908C39.085 52.5399 40.0691 52.5362 41.0531 52.5188C41.5391 52.5102 42.0238 52.5139 42.5097 52.5164C43.3998 52.5226 44.2912 52.5548 45.1799 52.5325C46.07 52.5114 46.9574 52.406 47.8461 52.3961C48.5738 52.3886 49.3027 52.504 50.0304 52.499C50.7123 52.494 51.3916 52.3626 52.0736 52.3576C53.5369 52.3465 54.9976 52.3539 56.4596 52.2448C57.2825 52.184 58.1202 52.3403 58.9485 52.3118C60.2843 52.2671 61.6161 52.1406 62.9505 52.07C63.3774 52.0476 63.8097 52.1196 64.2366 52.1034C65.1992 52.0675 66.1604 51.9956 67.123 51.9534C67.9365 51.9187 68.7527 51.9236 69.5663 51.879C71.1759 51.7897 72.7816 51.6521 74.3912 51.5851C75.3994 51.543 76.4117 51.5963 77.4226 51.6C77.5743 51.6 77.7273 51.5504 77.8803 51.5393C78.6133 51.4872 79.3464 51.419 80.0807 51.3991C81.0084 51.3756 81.9374 51.4115 82.865 51.388C83.9336 51.3619 85.013 51.1846 86.0642 51.2875C86.9381 51.3731 87.7745 51.45 88.6337 51.2565C88.8418 51.2094 89.0767 51.2578 89.2996 51.2702C90.3387 51.3285 91.3778 51.4053 92.4168 51.445C93.4412 51.4847 94.4668 51.4847 95.4911 51.5095C96.3933 51.5318 97.2941 51.5591 98.1949 51.5963C98.6487 51.6149 99.1011 51.6657 99.5549 51.6955C99.7522 51.7079 99.9509 51.7054 100.148 51.7054C100.95 51.7054 101.753 51.6819 102.553 51.7079C103.468 51.7377 104.381 51.8282 105.297 51.8629C105.995 51.8889 106.696 51.8406 107.392 51.8778C108.36 51.9286 109.324 52.0836 110.292 52.0948C111.992 52.1146 113.693 52.0613 115.392 52.034C116.629 52.0142 117.866 52.0005 119.102 51.9584C119.861 51.9323 120.619 51.8381 121.378 51.8133C122.036 51.7922 122.697 51.8505 123.355 51.8307C124.204 51.8059 125.051 51.7141 125.9 51.6918C126.72 51.6695 127.554 51.9026 128.358 51.5665C128.456 51.5256 128.581 51.4959 128.683 51.512C129.872 51.7029 131.059 51.7848 132.267 51.631C132.568 51.5926 132.9 51.8183 133.219 51.8207C133.882 51.8257 134.548 51.7253 135.211 51.7364C135.915 51.7488 136.628 51.9385 137.318 51.8741C138.075 51.8034 138.784 51.7067 139.486 52.0774C139.658 52.1679 139.948 52.1704 140.14 52.1047C140.761 51.8902 141.344 52.0228 141.975 52.0873C142.876 52.1791 143.818 52.0848 144.722 51.9522C145.493 51.8384 145.496 50.3332 145.498 49.623V49.6173C145.5 48.5 144.96 47.8279 145.262 46.6276C145.564 45.4273 145.82 44.2109 145.988 42.9883C146.077 42.3398 145.919 41.6652 145.914 41.0031C145.902 39.1865 145.899 37.3699 145.914 35.5546C145.922 34.6023 146.016 33.6512 146 32.7002C145.979 31.4242 145.886 30.1496 145.829 28.8749C145.765 27.4005 145.722 25.9249 145.642 24.4519C145.561 22.9775 145.439 21.5057 145.348 20.0313C145.293 19.1348 145.252 18.2383 145.22 17.3406C145.201 16.8173 145.236 16.2903 145.201 15.7683C145.153 15.0615 145.043 14.3584 144.993 13.6516C144.929 12.7365 145.178 7.40102 145.155 6.48467C145.132 5.54973 145.5 1 144.949 0.58238C144.566 0.292613 142.25 0.458383 140.901 0.426143C140.304 0.411263 139.69 0.552621 139.109 0.472022C137.498 0.250066 135.901 0.304625 134.289 0.434823C132.973 0.541461 131.647 0.535261 130.326 0.5985C129.082 0.658019 127.837 0.791937 126.593 0.804336C125.388 0.816736 124.183 0.700178 122.977 0.667939C121.017 0.61586 119.057 0.5923 117.097 0.542701C116.638 0.531541 116.183 0.453423 115.724 0.429863C114.548 0.370344 113.372 0.318265 112.196 0.274866C110.46 0.210387 108.723 0.157068 106.987 0.0975491C106.008 0.0640697 105.03 0.00951072 104.05 0.000830879C103.143 -0.00660899 102.237 0.0380302 101.331 0.05043C100.567 0.0615898 99.8005 0.0132307 99.042 0.0727496C97.6056 0.184348 96.1745 0.355464 94.742 0.499302C93.7379 0.60098 92.735 0.726218 91.7281 0.790697C90.4931 0.870055 89.2526 0.897335 88.0148 0.951894C87.7745 0.963053 87.5342 1.02009 87.2952 1.01389C86.5703 0.994053 85.8467 0.930814 85.1231 0.927094C83.9967 0.922134 82.8704 0.975453 81.7454 0.958094C80.9882 0.945694 80.2337 0.837816 79.4766 0.800616C78.3824 0.746057 77.287 0.715058 76.1915 0.676619C74.9725 0.633219 73.7535 0.59106 72.5345 0.555101L72.4186 0.551738C71.8974 0.536572 71.3764 0.521409 70.8564 0.535261C69.6254 0.568741 68.3956 0.629499 67.1659 0.662979C66.5215 0.680339 65.8758 0.635699 65.2327 0.665459C64.0903 0.718778 62.9505 0.819216 61.808 0.878735C61.1287 0.914694 60.4454 0.884935 59.7675 0.932054C58.1981 1.04117 56.6341 1.24205 55.0634 1.29041C52.4777 1.36977 49.8881 1.36605 47.3011 1.37845C46.5117 1.38217 45.7223 1.31645 44.9329 1.29661C44.3932 1.28297 43.8522 1.31273 43.3139 1.29041C41.715 1.22345 40.1174 1.12301 38.5172 1.07093C37.7345 1.04613 36.9491 1.11805 36.1651 1.11433C35.4012 1.11061 34.636 1.02629 33.8735 1.05109C32.8035 1.08581 31.7362 1.20485 30.6663 1.25569C29.2258 1.32513 27.7826 1.34869 26.3421 1.41813C25.0855 1.47888 23.8316 1.58304 22.5751 1.65124C20.8339 1.74548 19.0927 1.83228 17.3501 1.90792C16.7205 1.9352 16.0882 1.9104 15.4572 1.9228C14.2154 1.9476 12.9736 1.99967 11.7318 2.00587C10.7558 2.01083 9.77577 1.90544 8.8038 1.95504Z" fill="#ECECEC"/>
</g>
</svg>
