<svg
    fill="none"
    xmlns="http://www.w3.org/2000/svg"
    viewBox="0 0 77 77"
>
<path
    d="M59.1 15.07c.43.47.88.91 1.27 1.4 1.41 1.73 2.88 3.43 4.17 5.24.96 1.34 1.64 2.88 2.52 4.28 1.34 2.13 1.89 4.54 2.4 6.91.43 2 .46 4.07.57 6.12.06 1.16 0 2.33-.13 3.49a27.09 27.09 0 0 1-.7 3.46c-.39 1.48-.73 2.98-1.32 4.37-.54 1.3-1.4 2.48-2.1 3.72-.23.4-.4.85-.66 1.24a31.9 31.9 0 0 1-15.87 12.07 37.56 37.56 0 0 1-8.69 1.81c-1.91.18-3.87.18-5.78-.03-2.56-.28-5.13-.7-7.61-1.33-1.93-.5-3.78-1.37-5.6-2.19-1.42-.63-2.75-1.42-4.1-2.19-.57-.32-1.1-.74-1.61-1.14-2.2-1.7-4.1-3.68-5.57-6.04-.55-.9-1.17-1.76-1.57-2.7a48.11 48.11 0 0 1-1.93-5.3 22.92 22.92 0 0 1-.65-8.62c.3-3.11.87-6.18 2.15-9.08.67-1.51 1.22-3.08 2-4.54a51.66 51.66 0 0 1 8.58-11.57 49.62 49.62 0 0 1 3.92-3.54 51.05 51.05 0 0 1 4.88-3.57 66.6 66.6 0 0 1 5.98-3.28c1.59-.77 3.22-1.5 4.91-2 3.2-.95 6.39-1.92 9.79-2.04 2.8-.1 5.52.15 8.16 1 1.11.37 2.15.96 3.2 1.49.87.44 1.72.93 2.56 1.43.22.12.38.34.56.53.28.3.48.67.06.96-.37.25-.8.47-1.3.14a23.26 23.26 0 0 0-7.23-3.37c-1.73-.43-3.58-.48-5.38-.55-2.61-.1-5.13.56-7.64 1.22-3.35.89-6.5 2.24-9.53 3.86-1.87 1-3.71 2.1-5.41 3.35a87.46 87.46 0 0 0-6.24 5.07c-1.1.97-2.06 2.1-2.95 3.27-1.63 2.14-3.2 4.34-4.74 6.56a29.44 29.44 0 0 0-3.65 7.84c-.96 2.95-1.57 6-1.5 9.12.06 3.22.37 6.4 1.78 9.35a52.95 52.95 0 0 0 3.1 5.65c.63 1 1.64 1.77 2.46 2.66a17.86 17.86 0 0 0 4.63 3.37 53.64 53.64 0 0 0 6.07 2.9c1.59.63 3.3.99 4.98 1.33 1.73.36 3.5.68 5.26.78 1.77.1 3.57 0 5.34-.15 2.8-.24 5.54-.8 8.14-1.86 1.8-.73 3.54-1.63 5.26-2.54 1.13-.6 2.18-1.34 3.24-2.05.4-.28.72-.67 1.08-1.01 1.4-1.35 2.84-2.63 4.03-4.2a26.6 26.6 0 0 0 3.86-6.45c.62-1.61 1.08-3.28 1.6-4.92.7-2.17.5-4.41.51-6.64.01-3-.42-5.94-1.39-8.78a33.8 33.8 0 0 0-2.4-5.43c-1.06-1.9-2.36-3.67-3.61-5.46-.62-.9-1.37-1.7-2.04-2.56-.16-.2-.24-.47-.36-.71l.25-.15Z"
    fill="#fff"
/>
</svg>