<svg width="86" height="82" viewBox="0 0 86 82" fill="none" xmlns="http://www.w3.org/2000/svg">
<path d="M10.6014 66.5499L10.638 66.6232L10.6415 66.6301L10.7193 66.7858C10.7858 66.8627 10.8482 66.936 10.908 67.0063C11.1668 67.3103 11.3771 67.5573 11.6556 67.7928L11.6573 67.7943C12.1299 68.1958 12.5968 68.5973 13.0611 68.9965C14.6759 70.3852 16.2592 71.7468 17.9418 72.9879L17.9422 72.9882C18.2197 73.1932 18.4945 73.3982 18.7675 73.6019C20.6469 75.004 22.4385 76.3406 24.417 77.1276L24.4172 77.1277C27.4598 78.3389 30.6538 79.1693 33.9099 80.0159C34.5161 80.1735 35.1244 80.3316 35.7343 80.4929L35.7376 80.4938C36.0088 80.5665 36.3472 80.5416 36.9282 80.4789C36.9475 80.4768 36.9672 80.4747 36.9872 80.4725C37.478 80.4191 38.1834 80.3423 38.8575 80.5316C41.6139 81.3039 44.2974 80.9765 47.2041 80.6219C47.9544 80.5303 48.7196 80.437 49.5048 80.3602C52.6669 80.049 55.5909 78.9369 58.6702 77.7656C59.1771 77.5728 59.6883 77.3784 60.2054 77.1857L60.2055 77.1856C64.5419 75.5702 68.2593 72.9313 71.8127 69.9595C74.8932 67.3828 77.3766 64.1794 79.6507 60.6811C82.342 56.5394 83.9315 52.1054 84.6234 47.2883L84.6235 47.2876C84.9257 45.1937 85.0017 43.0369 85.0018 40.8693C84.9983 38.7447 84.9551 36.6601 84.5851 34.6795C84.4027 33.7029 84.0791 32.7441 83.729 31.7069C83.6999 31.6206 83.6706 31.5337 83.6411 31.4462C83.2679 30.3373 82.8783 29.1376 82.7168 27.8838M10.6014 66.5499L52.4312 1.74485C55.2004 1.96265 57.9813 3.11426 60.8218 4.29053C60.9556 4.34597 61.0896 4.40145 61.2238 4.4569L61.2243 4.45714C66.9787 6.83167 71.7505 10.7286 76.0753 15.2939L76.0761 15.2947C76.9498 16.2149 77.7274 17.2741 78.2762 18.3726C78.6963 19.2137 79.1666 20.0197 79.6308 20.7978C79.7211 20.9491 79.8109 21.099 79.9001 21.2479C80.2751 21.8737 80.6396 22.482 80.9832 23.1042C81.8286 24.6353 82.4937 26.1594 82.7168 27.8838M10.6014 66.5499L10.5533 66.4835C10.1554 65.9342 9.71644 65.3743 9.29203 64.8329C9.03923 64.5105 8.79159 64.1946 8.56085 63.8915C7.91801 63.0469 7.34324 62.2238 6.90186 61.3561L6.90137 61.3552C5.21697 58.0527 3.60672 54.7351 2.52376 51.2936M10.6014 66.5499L2.52376 51.2936M82.7168 27.8838L83.7086 27.756L82.7168 27.8843C82.7168 27.8841 82.7168 27.884 82.7168 27.8838ZM2.52376 51.2936C1.61605 48.4077 1.24753 45.2727 1.01996 42.1356C0.915733 40.6987 1.22685 39.2257 1.56672 37.6166C1.63777 37.2803 1.71008 36.9379 1.78011 36.5887C1.78009 36.5888 1.78007 36.5889 1.78005 36.589L2.52376 51.2936ZM9.81789 17.7984L9.81766 17.7986C6.90346 21.075 4.81157 24.8303 3.57691 29.0245C2.85059 31.4921 2.29542 34.0272 1.78017 36.5884L9.81789 17.7984ZM9.81789 17.7984C10.2325 17.3319 10.6197 16.8714 10.9957 16.4241C11.9738 15.2608 12.8766 14.1869 13.9922 13.3295L13.993 13.3289M9.81789 17.7984L13.993 13.3289M13.993 13.3289C17.238 10.8296 20.5238 8.40281 24.0142 6.4002L24.0145 6.40004M13.993 13.3289L24.0145 6.40004M24.0145 6.40004C28.8878 3.60178 34.3471 2.47269 40.0682 1.34L24.0145 6.40004ZM10.3416 67.8818C10.2548 67.783 10.1692 67.6828 10.0836 67.5827C9.95183 67.4285 9.82018 67.2744 9.68452 67.1257C9.69493 67.117 9.70534 67.1092 9.71575 67.1014C9.72616 67.0936 9.73656 67.0858 9.74697 67.0771L9.7441 67.0714L10.3416 67.8818ZM40.0684 1.33996C42.1284 0.932526 44.145 0.942819 46.1914 1.10374C47.2165 1.18435 48.2382 1.30167 49.2793 1.42131L49.287 1.4222C50.3197 1.54087 51.3718 1.66179 52.4309 1.74483L40.0684 1.33996Z" fill="white" stroke="#41545A" stroke-width="2"/>
</svg>
