<svg
    fill="none"
    xmlns="http://www.w3.org/2000/svg"
    viewBox="0 0 730 881"
>
    <path
    d="M421.43 765.87c-3.38-6.7-7.44-12.93-11.56-19.16-6.96-10.52-14.84-20.37-22.31-30.5-5.96-8.1-12.72-15.6-18.94-23.48-7.04-8.92-14.59-17.4-21.83-26.14-7.8-9.43-16.05-18.45-24.1-27.65a951.29 951.29 0 0 0-28.06-30.8c-11.28-11.83-22.4-23.83-33.95-35.43-3.08-3.09-6.3-6.16-8.75-9.85-.67-1.01-1.36-2-.32-3.12 1.06-1.14 2.11.08 2.67.5 4.46 3.27 8.93 6.55 13.1 10.16a1313.2 1313.2 0 0 1 27.65 24.64c9.38 8.62 18.51 17.5 27.77 26.25 11.33 10.71 22.08 22.02 32.92 33.21 7.36 7.6 14.22 15.65 21.54 23.28 7.77 8.09 14.86 16.75 22.42 25 10.78 11.73 20.83 24.07 31.08 36.25a4139.09 4139.09 0 0 1 26.57 31.9c6 7.25 11.9 14.58 18.24 22.37 0-3.05-2.1-4.16-3.19-5.79-5.94-9.06-12.7-17.53-19.03-26.32-7.72-10.72-16.26-20.86-24.47-31.25-7.45-9.4-14.89-18.83-22.4-28.2-3.61-4.5-7.4-8.88-11.11-13.32-5.44-6.5-10.82-13.07-16.33-19.52-5.63-6.57-11.49-12.96-17.06-19.57a1173.66 1173.66 0 0 0-26.34-29.89c-6.91-7.67-13.43-15.71-20.63-23.1-5.82-5.99-11.5-12.1-17.22-18.17-6.73-7.12-13.6-14.11-19.93-21.63-1.67-1.97-3.29-4.2-5.4-5.84-1.12-.88-1.45-2.23-.81-3.1 1.03-1.4 1.94.03 2.87.65 7.04 4.59 12.86 10.6 18.93 16.27a1803.6 1803.6 0 0 1 28.85 27.61c11.2 10.99 22.32 22.01 33.1 33.4 8.73 9.25 18 18.02 26.42 27.54 9.26 10.48 19.08 20.4 28.13 31.08 5.1 6 11.01 11.46 16.03 17.5 7.88 9.46 16.8 17.96 24.49 27.55a74.64 74.64 0 0 0 11.18 11c-2.4-3.16-4.83-6.3-7.2-9.48a427.97 427.97 0 0 0-18.41-23.32c-6.34-7.4-12.39-15.1-19-22.29-7.32-7.95-14.1-16.39-21.2-24.54-10.82-12.4-21.9-24.55-32.92-36.76-11.55-12.8-23.54-25.2-35.16-37.94-6.48-7.11-12.88-14.31-19.38-21.41-1.17-1.27-3.06-3.24-1.62-4.78 1.48-1.59 3.5.09 4.95 1.26 11.45 9.14 21.89 19.38 32.6 29.33 11.69 10.87 22.7 22.41 33.57 34.05a2410.47 2410.47 0 0 1 33.49 36.51c6.5 7.25 12.92 14.61 19.76 21.58 7.29 7.45 14.06 15.4 22.4 22.59-1.76-4.7-4.53-8.24-7.2-11.75-8.7-11.4-17.37-22.85-26.55-33.88-9.4-11.3-19.4-22.1-29.12-33.12-4.78-5.42-9.4-10.97-14.35-16.24-5.61-6-11.74-11.53-17.2-17.65-5.52-6.2-11.21-12.21-16.81-18.3-4.55-4.96-9.17-9.86-13.34-15.15-.14-.18-.34-.34-.5-.5-1.46-1.4-2.85-3.46-1.7-5.01 1.25-1.66 3.58-.4 5.03.65 7.3 5.17 14.59 10.38 21.28 16.36 7.93 7.08 15.94 14.04 23.68 21.32a885.37 885.37 0 0 1 33.46 33.2c7.52 7.85 15.28 15.47 22.87 23.25 4.8 4.92 9.54 9.9 14.23 14.93 2.4 2.55 5.33 4.53 7.63 7.25-3.3-6.42-7.85-11.92-12.31-17.47-6.51-8.1-12.95-16.26-19.58-24.26-6.22-7.5-12.79-14.71-18.95-22.26-3.18-3.9-6.44-7.72-9.79-11.5-3.52-3.98-7.07-7.95-10.63-11.9-8.15-9.07-16.32-18.12-24.45-27.22-.76-.87-2.26-2.08-.69-3.24 1.17-.85 2.58.28 3.3 1.16 5.9 7.11 12.54 13.56 18.76 20.36 11.65 12.71 23.28 25.42 35.04 38.02a847.88 847.88 0 0 0 23.5 24.34c6.5 6.42 13.4 12.46 20.22 18.55 1.52 1.35 3.48 2.2 5.67 3.55-1.25-5.1-3.83-9.06-6.5-12.86a537.37 537.37 0 0 0-25.64-33.32c-6.53-7.84-12.97-15.8-19.66-23.5-7.3-8.4-14.88-16.54-22-25.09-3.39-4.08-7.46-7.67-9.95-12.47-.34-.66-1.13-1.43-.29-2.22.77-.74 1.74-.62 2.65-.26 2.77 1.12 4.75 3.36 6.88 5.25a846.47 846.47 0 0 1 40.19 38.6c9.05 9.2 18.17 18.3 27.5 27.26-2.13-4.96-5.7-8.89-8.85-13.08-4.17-5.58-8.62-10.96-13.05-16.34-5.94-7.22-11.97-14.34-17.96-21.51-6.4-7.67-12.96-15.2-18.77-23.34-.98-1.35-2.12-3.03-.46-4.36 1.34-1.07 2.77.22 3.94 1.07 8.9 6.55 16.89 14.13 24.75 21.84 5.88 5.76 11.6 11.67 17.43 17.5.44.44.77 1.15 1.73 1.02-1.48-3.48-4.48-5.64-6.8-8.34-3.65-4.26-7.26-8.55-10.92-12.82-.76-.9-1.63-1.71-1.85-2.93-.17-.98.02-1.94.78-2.6.93-.81 1.45.28 2.05.66 7.55 4.77 14.2 10.68 20.98 16.47 3.4 2.9 6.91 5.73 10.37 8.59l.65-.59L452 567.15c-5.84-7.95-12.4-15.28-18.78-22.78-2.06-2.41-4.15-4.77-6.3-7.09-.88-.95-1.2-1.9-.18-2.73.89-.74 1.72-.1 2.45.61 9.16 8.93 19.42 16.64 28.38 25.8 1.4 1.43 3.18 3 5.65 3.08-.12-1.63-1.63-2.76-1-4.52.81 1.52 1.43 3.02 2.32 4.32.77 1.11 1.78 2.25.61 3.4-1.36 1.37-2.39-.31-3.29-.97a219.8 219.8 0 0 1-19.05-16.24c-.68-.63-1.46-1.14-2.2-1.71-1 .94-.23 1.56.29 2.08 4.1 4.05 7.28 8.85 10.88 13.3 3.62 4.48 6.95 9.16 10.42 13.72.99 1.3 2.1 2.68 2.51 4.2.29 1.02 1.8 2.38.26 3.47-1.26.88-2.65 0-3.57-.7-3.9-2.93-7.95-5.75-11.4-9.15-4.9-4.81-10.75-8.41-16.02-12.86.83 2.86 3.15 4.77 5 6.81a369.66 369.66 0 0 1 20.83 24.9c.69.92 1.37 1.8.42 2.79-1.07 1.12-2.04.53-3.02-.38a699.87 699.87 0 0 1-28.01-27.55 206.89 206.89 0 0 0-18.1-16.64c-2.33-1.9-4.24-4.32-7.45-6.2 1.52 3.92 4.34 6.22 6.5 8.93 7.3 9.1 14.47 18.32 22.27 27a354.6 354.6 0 0 1 15.37 18.66c4.94 6.32 10.23 12.43 14.04 19.57.7 1.32 2.05 2.97.6 4.14-1.36 1.08-3.22 0-4.41-1.03-3.6-3.16-7.15-6.37-10.52-9.77-8.62-8.7-17.03-17.59-25.7-26.25a672.1 672.1 0 0 0-32.5-30.67c2.79 5.22 6.65 8.33 9.7 12 7.53 9.04 15.45 17.75 23.18 26.61 5.55 6.38 10.88 12.93 16.23 19.44 9.7 11.8 19.14 23.86 27.08 36.98.88 1.45 1.33 3.18 1.89 4.82.45 1.33.93 2.9-.29 3.9-1.52 1.25-3.35.87-4.88-.2-2.92-2.09-6-4.04-8.57-6.5-8.25-7.86-16.88-15.35-24.35-23.99a12.58 12.58 0 0 0-4.12-2.94c1.98 2.58 3.74 5.37 6 7.69 3.76 3.88 6.83 8.3 10.12 12.55 5.34 6.9 11.27 13.34 15.8 20.83 1.12 1.85 2.25 3.7 3.34 5.57.38.65.37 1.4-.07 2-.68.91-1.73.76-2.6.48-2.67-.87-4.32-3.12-6.15-4.99-7.6-7.72-15.34-15.26-22.72-23.2-10.69-11.49-22.33-22.07-33.08-33.5-9.1-9.68-18.82-18.65-28.57-27.62-11.14-10.24-22.39-20.38-35.2-28.74.93 1.24 1.34 2.62 2.52 3.88 8.86 9.43 17.29 19.3 26.33 28.55 6.18 6.33 12.1 12.89 18.14 19.33A977.75 977.75 0 0 1 401.09 634c8.84 10.03 17.6 20.15 26.18 30.4 4.92 5.88 9.45 12.09 14.14 18.17 3.17 4.12 6.29 8.3 9.47 12.42 2.67 3.43 4.53 7.31 6.6 11.1.64 1.2.19 2.09-.45 2.9-.71.9-1.47 0-2.2-.24-4.47-1.41-7.1-5.2-10.15-8.28A835.5 835.5 0 0 1 415 668.42c-8.92-10.05-18.05-19.94-27.15-29.83-8.82-9.6-18.33-18.6-27.15-28.22-8.49-9.24-17.85-17.55-26.8-26.3-6.4-6.23-12.98-12.3-20.32-17.6 3.1 3.6 6.07 7.31 9.35 10.75 8.87 9.34 17.32 19.1 26.37 28.22 9.34 9.44 17.87 19.6 26.97 29.24 7.36 7.78 14.01 16.25 21.3 24.1 4.8 5.17 9.32 10.55 13.82 15.93 7.55 9.04 15.5 17.7 22.77 27 3.96 5.06 8.3 9.92 12.29 14.99 7.12 9.04 15.06 17.5 20.85 27.57.74 1.3 2.2 2.08 2.66 3.64.33 1.06 1.43 2.23.1 3.12-1.19.77-2.53.3-3.52-.75-4.08-4.3-8.1-8.64-12.2-12.92-6.5-6.78-12.6-13.96-19-20.83-7.69-8.28-15.1-16.83-22.69-25.23-8.76-9.71-17.57-19.4-26.38-29.05-6.65-7.27-13.2-14.61-20.14-21.62-9.3-9.38-18.29-19.05-27.6-28.44-9.56-9.65-19.32-19.08-29-28.6-4.39-4.31-8.78-8.6-13.22-12.85-.43-.42-.88-1.22-2.27-.69 4.45 4.8 8.79 9.46 13.08 14.16 11.78 12.89 23.56 25.76 35.28 38.7 8.93 9.86 17.4 20.11 26.21 30.07 12.03 13.56 23.5 27.58 35.27 41.35 7.36 8.6 14.66 17.3 21.36 26.42 5.64 7.68 11.64 15.1 17.46 22.62 6.22 8 12.2 16.2 18.44 24.18a474.75 474.75 0 0 1 15.62 21.37c3.67 5.26 7.6 10.37 10.57 16.11.6 1.17 1.6 2.3.14 3.37-1.47 1.07-2.56.12-3.52-1.05-9.76-11.77-20-23.14-29.35-35.25-5.28-6.86-11.09-13.29-16.64-19.92-9.98-11.93-19.89-23.93-29.95-35.8-5.08-5.99-10.4-11.76-15.67-17.58-9.36-10.35-18.67-20.75-28.17-30.96-11.67-12.57-23.81-24.69-36-36.76-5.48-5.42-11.29-10.56-16.54-16.13-7.08-7.53-15.05-14.02-22.45-21.17-6.24-6.03-13.04-11.55-20.29-17.97 1.98 3.66 4.56 5.6 6.7 7.88 10.82 11.51 21.78 22.91 32.52 34.5 8.78 9.47 17.43 19.09 25.97 28.77 6.1 6.93 11.96 14.06 17.91 21.14 7.89 9.37 15.97 18.6 23.6 28.2 9.8 12.36 19.32 24.97 28.84 37.57a251.22 251.22 0 0 1 18.37 27.6c1.03 1.81 2 3.66 2.4 5.73.22 1.09.83 2.6-.51 3.15-1.1.47-2.48 1.1-3.73-.37-1.1-1.29-2.72-2.1-3.91-3.33a527.53 527.53 0 0 1-25.43-28.18c-7.85-9.3-15.86-18.46-23.76-27.73-8.53-10-16.95-20.08-25.54-30.02-6.16-7.13-12.5-14.1-18.82-21.07-5.53-6.09-11.18-12.05-16.73-18.12-7.41-8.11-14.91-16.13-22.9-23.69-7.04-6.64-13.35-14.06-21.28-20.1-.7 1.9.86 2.76 1.53 3.65 8.93 11.79 18 23.47 27.02 35.19 5.44 7.04 10.78 14.18 16.32 21.13 7.2 9.05 15.1 17.6 21.67 27.08 5.84 8.46 12.6 16.2 18.39 24.7 5.08 7.44 10.97 14.4 16.31 21.71 6.79 9.3 13.58 18.59 20.13 28.05 4.56 6.55 8.75 13.35 12.98 20.12 1.38 2.23 2.42 4.68 3.44 7.1.46 1.08.56 2.37-.5 3.26-1.25 1.04-1.89-.37-2.67-.87-4.59-2.86-7.82-7.17-11.36-11.08-6.47-7.18-12.46-14.77-18.59-22.24-7.34-8.97-14.6-18.03-21.95-26.99-6.35-7.72-12.8-15.36-19.2-23.04-6.86-8.25-13.66-16.55-20.59-24.74-6.03-7.12-12.22-14.12-18.33-21.17-.8-.93-1.57-1.89-2.36-2.83l-.67.6c1.62 2.03 3.23 4.06 4.85 6.07 5.48 6.8 10.7 13.77 15.87 20.79 7.73 10.46 16.07 20.46 23.66 31.01a1087.2 1087.2 0 0 1 15.33 21.94c5.8 8.5 11.6 17.02 16.96 25.82 2.8 4.61 5.98 9.12 6.81 14.66.18 1.18.87 2.5-.58 3.5-1.64 1.14-2.97.16-4.15-.63-4.38-2.92-8.1-6.64-11.8-10.36-13.4-13.45-25.95-27.68-38.62-41.8-11.61-12.92-23-26.06-35.19-38.48-3.18-3.25-6.33-6.52-10.32-10.28 1.74 5.24 5.23 8.28 7.7 11.93a980.63 980.63 0 0 0 19.31 27.05c13.01 17.82 26.12 35.58 38.22 54.04 4.74 7.25 9.07 14.79 13.4 22.29 1.38 2.38 3.05 5.67.5 7.63-2.02 1.53-4.43-.99-6.22-2.6-7.75-6.95-14.8-14.57-22.03-22.04-3.33-3.45-6.58-6.94-9.84-10.44-10.35-11.04-20.5-22.25-31.38-32.77-.8-.78-1.43-1.87-3.4-2.21 3.28 4.61 6.2 8.86 9.26 12.99 8.18 11.02 16.83 21.68 24.62 33.01 3.07 4.47 6.73 8.54 9.16 13.44.64 1.29 2 2.78.54 4.1-1.51 1.35-3.05.15-4.37-.8-5.54-3.92-10.02-9.02-15.03-13.54-4.48-4.04-8.77-8.3-12.98-12.62-6.63-6.83-13.12-13.78-19.67-20.68l-1.25 1.09c1.95 2.78 3.84 5.61 5.87 8.33 8.4 11.3 16.94 22.49 25.15 33.93.97 1.35 3.43 3.9.9 5.85-2.13 1.62-3.79-.73-5.26-2-5.96-5.12-11.84-10.35-17.73-15.55-.43-.38-.78-.87-1.67-.67 1.14 4.06 2.4 8.09 3.36 12.18.38 1.62 1.04 3.57-.7 4.93-1.7 1.33-3.56.95-5.26 0-5.48-3.04-10.86-6.23-15.16-10.96 6.18 2.68 11.74 6.6 18.24 9 .6-2.29-.08-4.53-.83-6.15-1.18-2.55-1.56-5.3-2.72-7.83-.74-1.6-1.13-3.57.6-4.8 1.65-1.16 3.44-.56 4.84.7 5.36 4.82 10.66 9.7 15.98 14.54.56.5.82 1.52 2.3 1.02-4.47-5.9-8.92-11.65-13.22-17.51-7.21-9.8-14.36-19.64-21.46-29.52-.84-1.19-1.69-2.93-.12-4.07 1.42-1.04 2.7-.1 3.94 1.04 10.74 9.72 20.75 20.19 31.08 30.32a512.63 512.63 0 0 0 20.11 18.48c-.96-3.48-3.43-6.1-5.3-8.97-1.52-2.32-3.47-4.46-5.19-6.71-6.2-8.1-12.56-16.1-18.43-24.41-5.2-7.36-11.34-14.1-15.23-22.33-.43-.9-1.6-1.64-.37-2.72 1.17-1.04 2.1-.65 3.38.16 4 2.53 7.19 5.98 10.49 9.21a844.62 844.62 0 0 1 22.53 23.24c6.85 7.27 13.28 14.94 20.29 22.03 6.53 6.63 12.62 13.78 20.17 19.42.72-.97.01-1.76-.38-2.52-4.99-9.47-10.64-18.56-16.67-27.4-7.45-10.92-14.8-21.92-22.69-32.5-5.25-7.04-10.14-14.33-15.63-21.2-6.3-7.84-11.85-16.3-17.63-24.56-3.05-4.36-5.96-8.83-8.9-13.27-.57-.86-.87-1.89-1.46-2.73-.69-1-.28-1.94.27-2.58.73-.81 1.65-.3 2.54.17 3.3 1.81 5.95 4.45 8.53 7.06 6.61 6.72 12.94 13.73 19.34 20.64 4.99 5.4 10.19 10.69 14.83 16.33 5.13 6.26 11.07 11.75 16.01 18.21 4.97 6.5 11.42 11.84 16.8 18.04 3.47 3.97 7.04 7.88 10.72 11.56 4.65 4.66 9.18 9.67 15.73 13.83-1.13-3.15-1.63-5.55-2.81-7.58-8.07-13.9-17.3-27.04-26.44-40.26-7.49-10.84-15.44-21.34-23.16-32-4.78-6.59-9.97-12.97-14.99-19.42-5.7-7.32-11.3-14.76-16.94-22.13-5.65-7.4-11.64-14.56-17.3-21.97-.9-1.17-2.54-2.55-1.04-3.87 1.38-1.23 2.86.2 3.9 1.32 6.37 6.85 12.85 13.6 19.03 20.62a3240.81 3240.81 0 0 1 34.58 39.91c6.19 7.27 11.88 14.97 18.12 22.2 5.43 6.28 10.46 12.86 15.7 19.3 5.97 7.34 12.3 14.4 18.1 21.87 6.44 8.27 13.7 15.83 20.17 24.03a6 6 0 0 0 3.1 2.3c-2.18-4.7-5.2-8.56-7.72-12.7-7.03-11.63-15.23-22.44-23.19-33.41-9.33-12.88-19.27-25.32-28.72-38.13-6.02-8.15-12.23-16.17-18.32-24.26-4.18-5.58-8.82-10.88-13.16-16.38a3344.5 3344.5 0 0 1-17.81-22.76c-6.49-8.33-13.06-16.6-19.36-25.09-3.09-4.17-6.7-7.98-9.08-12.67-.74-1.47-1.58-3.04-.29-4.54 1.5-1.74 3.23-.53 4.37.35 4.2 3.3 8.37 6.64 12.26 10.28a568.06 568.06 0 0 1 16.62 16.42c5.5 5.6 10.93 11.27 16.29 17.03 8.28 8.92 16.7 17.72 24.63 26.93 12.71 14.77 25.72 29.26 38.21 44.24 11.65 13.96 23.3 27.9 35.53 41.38 5.04 5.55 9.85 11.3 15.74 16.08l-.1.04ZM527.87 674.58c1.24 1.01.94 1.87-.14 2.85a7.4 7.4 0 0 0-2.46 4.2c2.75-1.76 5.07-3.32 7.46-4.77.98-.6 2.06-1.17 3.3-.93 1.77.37 2.68 1.06 1.06 2.77-3.37 3.58-6.7 7.18-10.04 10.76-.45.5-.88 1-1.15 1.72 4.6-2.46 8.88-5.34 13.14-8.3 4.8-3.35 9.89-6.3 14.9-9.35 1.66-1.02 3.79-1.8 5.1.02 1.25 1.75-.43 3.51-1.56 4.78a507.76 507.76 0 0 1-13.45 14.51c-4.91 5.13-10.63 9.45-15.03 15.1-.68.9-1.67 1.54-2.58 2.35.58.76 1.32.62 1.8.2 8.5-7.5 17.72-14.06 27.05-20.5 4.94-3.38 9.88-6.8 14.83-10.16 2.72-1.84 5.9-2.69 8.88-3.98 1.43-.62 2.52-.28 3.5.56 1.42 1.24.53 2.84-.1 3.85a58.89 58.89 0 0 1-8.52 10.66 488.98 488.98 0 0 0-16.59 17.04c4.09-2.92 8.15-5.8 12.07-8.97a231.46 231.46 0 0 1 16.32-11.79c3.83-2.57 7.3-5.72 11.69-7.4 1.2-.47 2.46-1.24 3.38.32.82 1.39-.03 2.52-.95 3.43-6.63 6.49-13.8 12.4-20.63 18.67-9.8 8.99-20.21 17.33-29.5 26.89-2.76 2.83-5.75 5.43-8.54 8.23a8.07 8.07 0 0 0-2.19 4c3.23-2.52 6.41-5.1 9.67-7.57 14.35-10.91 27.87-22.88 42.3-33.73 6.76-5.08 13.32-10.42 20.51-14.9.59-.37 1.13-.86 1.77-1.1 1.22-.48 2.36-.22 3.1.94.7 1.08-.18 1.8-.8 2.43a335.56 335.56 0 0 1-19.56 17.93c-8.38 7.17-16.68 14.45-25.18 21.48-8.2 6.76-15.68 14.27-23.66 21.24a42.97 42.97 0 0 0-5.51 5.77c3.12-1.05 5.36-3.4 7.84-5.33 10.87-8.45 21.64-17.01 32.55-25.42 12-9.27 23.96-18.62 36.2-27.55 7.47-5.44 15.44-10.2 23.19-15.26.38-.24.8-.5 1.23-.62 1.61-.43 3.47-2.1 4.83-.25 1.5 2.04-.85 3.07-1.97 4.25-5.95 6.3-13.1 11.2-19.76 16.68-9 7.41-18.1 14.68-27.3 21.81-8.03 6.22-15.37 13.2-23.2 19.59a314.66 314.66 0 0 0-17.06 15.38c-5 4.73-10.7 8.89-14.3 15.1 5.13-3.98 10.28-7.94 15.4-11.93 7.06-5.49 14.24-10.84 21.14-16.53 9.33-7.7 19.01-14.93 28.68-22.17 7.66-5.72 15.04-11.83 22.96-17.17 5.16-3.48 10.22-7.13 15.5-10.46 5.18-3.25 10.22-6.77 15.58-9.74 2.77-1.53 5.37-3.47 8.67-4.16 1.36-.28 2.27-.22 3.1.56 1.15 1.08.25 2.12-.32 3.15-2.77 4.95-7.28 8.28-11.34 12a555.97 555.97 0 0 1-25.9 22.26c-.3.25-.5.64-.58 1.13 7.63-4.26 14.81-9.2 22.59-13.11 1.84-.94 3.8-1.75 5.8-2.26 1.28-.34 3.05-.73 3.8.9.6 1.25-.18 2.46-1.12 3.46a130.9 130.9 0 0 1-13.5 12.66c-10.67 8.66-21.19 17.51-31.91 26.12-12.08 9.7-24.06 19.52-35.48 30-5.74 5.27-11.91 10.16-16.7 16.58 2.97-2.2 5.87-4.52 8.92-6.61 9-6.16 17.46-13.04 26.48-19.2 6.95-4.76 13.58-10.09 20.48-15 12.26-8.74 24.54-17.43 37.55-25.06 5.5-3.23 10.61-7.1 16.78-9.09 1.19-.38 2.42-1.47 3.42-.15 1.26 1.65-.11 2.75-1.24 3.84-6 5.84-12.67 10.88-19.25 16.03-9.61 7.49-19.2 15.01-28.7 22.64a488.57 488.57 0 0 0-22.8 19.58c-.67.6-1.62.97-1.72 2.5 5.76-3.13 10.94-6.69 16.17-10.18 10.2-6.8 20.46-13.5 30.5-20.54 4.2-2.94 8.63-5.33 13.16-7.63 1.37-.69 2.97-1.1 3.82-.07 1.04 1.25.2 2.6-.92 3.94-7.45 8.97-16.6 16.12-25.2 23.87-4.49 4.07-9.31 7.8-13 12.81 6.73-3.71 13.44-7.5 20.21-11.15 3.76-2.03 7.25-4.55 11.33-6 1.7-.59 3.68-1.34 4.85 0 1.5 1.75.37 4-.83 5.5-4.25 5.26-8.45 10.6-13.45 15.22-.72.66-1.82 1.09-1.97 2.86 2.64-1.75 4.9-3.41 7.34-4.82 3.87-2.24 7.7-4.58 11.96-6.1 1.16-.42 2.3-.91 3.22.18.93 1.12 1.25 2.35.43 3.86-1.45 2.65-2.82 5.34-4.9 7.58-.86.92-1.67 1.86-1.93 3.18 1.73.16 3.32-1.07 5.35-.39-2.5 1.31-4.8 2.44-7.01 3.73-.68.4-1.4.7-1.95.4-.88-.48-.62-1.52-.39-2.23.8-2.37 2.61-4.13 3.95-6.19 1.57-2.4 3.16-4.8 5.19-7.85-5 .92-8.4 3.52-11.96 5.54-4.76 2.69-9.3 5.74-13.87 8.76-1.26.83-2.54 1.18-3.42.02-.96-1.23.18-2.22 1.1-3.14 4.48-4.58 9.03-9.09 13.34-13.82 2.8-3.05 5.21-6.45 8.23-10.21-3.76.45-6.23 1.97-8.66 3.48-8.05 5.02-16.84 8.75-24.72 14.1-1.1.74-2.59.95-3.94 1.22-1.18.25-2.66 1.17-3.47-.44-.67-1.34.27-2.47 1.15-3.46 3.71-4.2 8.16-7.63 12.32-11.34 9.06-8.1 18.22-16.07 26.93-24.54.3-.29.53-.65 1.18-1.45-6.33 2-10.77 6-15.74 9.1-9.04 5.63-17.44 12.2-26.42 17.93-6.44 4.1-12.55 8.72-19.37 12.2-1.24.63-2.87 2.06-4.07.54-1.27-1.63-.1-3.33 1.16-4.63a285.1 285.1 0 0 1 26.92-23.95c7.24-5.73 14.3-11.7 21.56-17.41 6.98-5.51 14.1-10.83 21.15-16.26.74-.58 1.33-1.33 2.1-2.1-1.38-.71-2.46.23-3.2.68a825.66 825.66 0 0 0-53.34 35.65c-5.61 4.09-11.38 8.04-16.99 12.12-7.55 5.5-15 11.19-22.52 16.74a475.62 475.62 0 0 1-14.2 10.13c-1.15.78-2.8 1.78-4.1.28-1.17-1.34.39-2.25 1.04-3.2 2.58-3.8 5.88-7 9.24-10.07 9.1-8.33 18.01-16.92 27.62-24.63 7.78-6.24 15.02-13.12 23.23-18.89 5.03-3.53 9.56-7.9 14.36-11.85 6.47-5.33 12.99-10.6 19.3-16.12 2.45-2.15 4.38-4.86 6.38-7.15-3.87 1.07-7.61 3.45-11.32 5.79a711.27 711.27 0 0 0-22.1 14.42c-6.77 4.64-13.34 9.57-19.93 14.46a576.08 576.08 0 0 0-41.08 33.71c-7.3 6.53-14.93 12.7-22.06 19.45-.41.4-.83.87-1.35 1.1-.76.33-1.5 1.17-2.5.17-1.09-1.1-.03-1.87.48-2.37 2.79-2.85 5.62-5.68 8.63-8.31 6.5-5.72 13.07-11.36 19.67-16.95 6.35-5.36 12.77-10.6 19.2-15.87 5.84-4.8 11.56-9.79 17.4-14.61 7.8-6.45 15.68-12.83 23.42-19.37 10.53-8.89 21.25-17.57 31.2-27.13 2.65-2.53 5.66-4.69 8.04-8.6a59.25 59.25 0 0 0-12.5 6.34c-8.56 5.51-17.3 10.8-25.47 16.85-9.4 6.95-19.13 13.44-28.14 20.94-6.73 5.61-13.9 10.68-20.84 16.06a2465 2465 0 0 0-24.32 19.11c-6.34 5.07-12.68 10.14-19.45 14.65-.93.63-1.94 1.35-2.84.43-.96-1-1.1-2.42 0-3.5 3.63-3.54 6.51-7.74 10.34-11.16 6.98-6.25 13.53-12.99 20.57-19.15a1027.1 1027.1 0 0 1 20.18-17.29c4.3-3.56 8.82-6.87 12.98-10.64 4.45-4.02 9.53-7.32 14.14-11.17a609.9 609.9 0 0 1 21.09-16.8c.6-.46.96-1.28 1.57-2.12-2.38-.33-3.87 1.41-5.3 2.39-4.98 3.4-10.16 6.56-14.98 10.14-4.91 3.62-9.7 7.48-14.66 11.05-11.75 8.42-22.76 17.76-34.24 26.53-10.38 7.94-20.6 16.09-30.92 24.12-1.64 1.27-3.29 2.56-5.1 3.54-.9.48-2.45 1-3.15-.37-.54-1.04.05-2 .92-3.04 7.28-8.74 16-16.03 24.14-23.9 7.1-6.84 15.2-12.65 22.42-19.38 4.44-4.15 9.53-7.46 13.8-11.83 3.95-4.02 8.57-7.39 12.75-11.22-2.38.38-3.9 2.17-5.62 3.5a2271.72 2271.72 0 0 0-30.47 24.17c-10.73 8.62-21.13 17.7-32.75 25.17-1.2.76-2.52 2.5-4.13.6-1.6-1.9.22-2.9 1.2-4.13 9.6-12.02 21.13-22.12 32.5-32.39 8.85-8 18.11-15.53 26.33-24.34-3.93 2.71-7.94 5.31-11.75 8.17-9.67 7.27-19.38 14.52-28.86 22.05-6.9 5.48-13.47 11.41-20.19 17.13-1.5 1.29-3.06 2.5-4.54 3.82-1.02.9-2.3 1.2-3.13.27-.68-.79-.02-2.01.76-2.78 4.15-4.03 8.33-8.03 12.5-12.03 7.18-6.87 14.54-13.53 21.62-20.51 5.62-5.53 11.5-10.77 16.61-16.79 1.72-2.01 3.42-3.99 4.62-6.68-6.09 1.49-10.61 5.24-15.5 8.31-14.27 8.94-27.15 19.8-40.81 29.61-.57.4-1.08 1-1.7 1.2-.88.3-1.97.53-2.7-.2-.84-.86-.07-1.75.37-2.55 1.42-2.62 3.57-4.66 5.59-6.76 8.93-9.29 17.96-18.48 27-27.67 1.39-1.42 2.27-3.25 4.31-4.46-1.29-.57-2.07-.12-2.75.34-6.35 4.17-12.7 8.35-19 12.56-4.3 2.86-8.56 5.75-12.84 8.64-1.09.74-2.22.8-3.18-.16-1.23-1.23-.15-2.01.65-2.88a208.4 208.4 0 0 0 11.94-13.88c-2.09 1.3-4.2 2.53-6.25 3.9-1.16.76-2.37 1.45-3.5.39-1.22-1.13-.05-2.08.58-3.05a42.35 42.35 0 0 1 5.97-7.21l-.1-.1.05.06ZM42.67 871.06c12.97.82 25.96.47 38.94.95 5.2.2 10.56.13 15.77-.48 5.46-.64 10.9-.31 16.35-.52 13.25-.5 26.53-.23 39.78-.92 11.3-.59 22.62.06 33.86-.78 9.66-.72 19.31-.25 28.97-.95 9.83-.72 19.77-.77 29.64-1.2 15.86-.7 31.73-.66 47.56-1.69 6.86-.44 13.78-.05 20.63-.56 10.8-.79 21.64-.75 32.44-1.55 4.64-.36 9.6.2 14.26.05 7.6-.24 15.2.15 22.79-.56 2.74-.26 5.52-.42 8.28-.42 10.58.03 21.12-.9 31.67-1.1 6.88-.13 13.77-.54 20.67-.47 6.38.06 12.8-.08 19.21-.43 9.18-.5 18.42.08 27.61-.22 19.34-.62 38.7-.2 58.02-.8 15.1-.47 30.21-.04 45.3-1.15 7.45-.55 14.98.12 22.45-.16 9.88-.36 19.75-1.06 29.61-1.69 8.48-.53 16.95-1.76 25.41-1.6 10.04.18 19.98 2.05 29.77 4.32.96.22 3.04.14 2.65 2.1-.3 1.5-1.8 1.19-2.95 1.19-5.51-.01-10.79-1.61-16.16-2.5-8.29-1.36-16.6-1.4-24.88-.72-4.6.37-9.24.62-13.85.98-7.38.58-14.78.88-22.18 1.4-7.52.54-15.13-.06-22.68.19-12 .39-23.98.65-35.99.68-12.93.03-25.88.53-38.81.63-6.13.05-12.23.34-18.34.56-10.43.4-20.87.1-31.3.22-7.92.1-15.84.48-23.75.64-4.53.09-9.06-.13-13.59.02-10.28.33-20.54.59-30.81 1.3-8.5.58-17.07-.1-25.57.42-11.38.69-22.76.05-34.13.7-12.9.73-25.83.8-38.74 1.48-5.48.3-10.97.2-16.46.4-10.4.38-20.8.72-31.18 1-7.3.2-14.66-.19-21.91.5-11.53 1.1-23.12.8-34.63 1.83-6.42.58-12.94-.06-19.4.25-5.65.27-11.3 0-16.96.38-10 .66-20.1-.24-30.09.4-11.06.7-22.1.33-33.16.63-8.52.23-17.04.71-25.57.57-10.6-.18-21.2-.9-31.82-1.4-2.27-.1-4.62.33-6.8-.77-.45-.4-.45-.78 0-1.16l.07.01ZM37.16 23.16c3.38-1.72 7.14-1.4 10.69-1.63 15.6-.92 31.24-1.58 46.88-2.2 9.36-.38 18.74-.41 28.1-.76 14.68-.55 29.38-.98 44.04-1.57 18.48-.76 36.97-.82 55.45-1.43 13.17-.43 26.34.05 39.48-.64 10-.52 20.03-.2 30.01-.7 10.81-.55 21.67-.1 32.44-.8 10.82-.7 21.65.08 32.42-.76 8.56-.66 17.16-.86 25.69-.85 8.52.02 17.04-.74 25.56-.36 5.88.26 11.73-.78 17.64-.47 11.71.6 23.43-.31 35.15-.5 16.82-.25 33.63-.32 50.45-.4a4210 4210 0 0 1 55.84.2c10.19.1 20.4.2 30.6-.29 9.78-.46 19.56-1.53 29.3-2.54 7.68-.8 15.24.78 22.88.53 7.99-.27 15.94.02 23.78 1.8 1.13.25 2.16.43 2.99-1.24.78-1.56 3.13-1.08 4.7-1.19 3.81-.26 7.45 1.03 11.05 2.19 1.77.57 2.04 2.17 2.25 3.9 1.01 8.55-.1 17.1-.05 25.64 0 .82.53 2.14-1.04 2.1-1.16 0-1.4-.47-1.51-1.93-.39-4.77.71-9.43.55-14.2-.13-3.76-.86-7.47-.78-11.22.02-1.26-.64-1.57-1.6-1.86-1.95-.59-3.84-1.5-5.83-1.77-1.06-.14-2.84-2.29-3.74 1.1-.38 1.42-4.24 1.36-6.54.94-12.8-2.31-25.77-1.45-38.65-1.99-8.6-.35-17.25.7-25.87 1.73-9.4 1.12-18.97.72-28.43 1.15-7.77.35-15.58.39-23.26.13-12.8-.43-25.59-.29-38.36-.26-10.65.02-21.3-.26-31.98.45-10.94.73-21.98-.08-32.95.37-14.57.57-29.14 0-43.69.63-13.76.61-27.54 0-41.27.77-8.04.45-16.1.41-24.15.96-4.69.33-9.58.47-14.43.05-4.31-.36-8.85.07-13.28.22-8.72.29-17.44.8-26.17.85-15.44.09-30.88.5-46.32.7-15.66.2-31.31.43-46.98.65-11.41.16-22.8.9-34.22 1.16-13.88.3-27.75.76-41.6 1.43-6.38.3-12.79.01-19.17.2-11.92.38-23.82 1.06-35.74 1.33-10.1.22-20.18 1.13-30.32.38ZM40.62 870.9c-3.52-3.6-2.54-8.35-2.86-12.57a1306.37 1306.37 0 0 1-2.59-45.1 461.4 461.4 0 0 1-.13-31.17c.16-5.92.66-11.86.54-17.8-.33-14.74 1.55-29.47.36-44.18-.7-8.77-.46-17.53-.88-26.27-.5-10.31-.47-20.74-1.5-30.94-1.36-13.64-2.24-27.32-3.78-40.93-1-8.87-1.26-17.78-2.16-26.64-1.01-10.07-2.38-20.14-3.2-30.22-1.08-13.22-2.64-26.4-3.38-39.67-.63-11.37-1.47-22.76-2.13-34.13-.64-10.88-2.22-21.62-3.96-32.35-.76-4.6-1.47-9.2-2.2-13.8.8-.37 1.1.2 1.38.76 3.08 11 4.43 22.36 6.3 33.6.5 2.96.55 6.03.77 9.03.88 12.1 1.8 24.2 2.75 36.28.55 7.05 1.06 14.13 1.76 21.14 1.03 10.12 1.7 20.27 3.22 30.36 1.12 7.5 1.47 15.12 2.28 22.66 1.31 12.15 1.18 24.42 3.43 36.5.61 3.3.42 6.74.66 10.1.47 6.76 1.28 13.44 2.1 20.14.58 4.84.68 9.8.83 14.68.26 8.78.6 17.6 1.02 26.36.65 13.3.45 26.57.34 39.85-.09 12.31-.83 24.62-1.03 36.94-.2 13.43.23 26.83.86 40.25.26 5.53.61 11.1.56 16.71-.08 8 .92 16.04 2.02 23.98.27 2.04 2.22 3.82-.07 5.77-.32.46-.66.91-1.32.67ZM713.44 844.94c-.95-1.26-.25-2.14.1-3.1a36.8 36.8 0 0 0 2.26-12.64c.03-17.4.13-34.79.15-52.18 0-13.09.28-26.2-.3-39.27-.43-9.9-1.24-19.82-2.1-29.7-.97-10.96-1.23-21.94-2.05-32.9-.83-11.14-.22-22.29-.85-33.4-.48-8.79-.72-17.58-1.36-26.34-.66-9.2-2.55-18.31-3.22-27.51-.4-5.48-1.46-10.86-1.73-16.34-.48-9.44-1.76-18.82-2.45-28.25-.37-5.21-.28-10.48-.27-15.71 0-8.8.22-17.62-.23-26.35-.55-10.79-1.73-21.58-2.94-32.35-1.04-9.26-3.89-18.3-3.32-27.78.24-3.85-.54-7.76-.9-12.12 1.85.98 2.2 2.16 2.3 3.63.35 5.06.28 10.23 1.15 15.13 1.06 5.93 2.53 11.82 3.4 17.8a289.3 289.3 0 0 1 2.17 18c.75 9.38 1.39 18.8 1.7 28.22.34 9.9.09 19.83.36 29.75.17 6.06.58 12.15 1.4 18.16.87 6.12 1.03 12.3 1.94 18.4 1.15 7.73 1.64 15.54 2.55 23.3.7 6 1.68 12.02 1.77 18.12.1 7.55.71 15.09 1.18 22.63.44 6.95-.05 13.97.24 20.95.56 13.9 1.14 27.82 2.18 41.69.5 6.53.77 13.09 1.39 19.61 1.2 12.76 1.34 25.54 1.34 38.35 0 11.46.64 22.98-.22 34.39-.59 7.76-.04 15.48-.15 23.19-.06 4.95.04 9.97-.44 14.9-.36 3.72-1.47 7.45-5.08 9.74l.03-.02ZM185.62 622.36c1.87 3.74 3.78 7.47 5.61 11.23a17.13 17.13 0 0 1 1.33 3.6c.27 1.17.96 2.57-.65 3.41-1.3.68-2.34.86-3.88 0-4.92-2.76-8.19-7.27-12.2-10.98-2-1.83-3.68-3.96-5.83-5.73 1.42 4.57 4.09 8.5 5.35 13.05.48 1.71 1.26 3.64-.24 4.86-1.87 1.54-3.47-.06-4.9-1.35l-15.97-14.43c1.72 4.13 3.2 7.51 4.55 10.95.44 1.11 1.3 2.52-.3 3.4-1.29.7-2.54 1.34-4.23.38-4.8-2.75-8.65-6.67-12.88-10.1-3.31-2.7-6.12-6-10.03-8.36-.07 2.57 2.04 4 2.86 6.02 1.45 3.6 3.75 6.81 4.92 10.6.47 1.54.77 2.8-.5 3.79-1.42 1.12-2.63-.05-3.75-.85a407.26 407.26 0 0 1-22.38-17.36c-.13-.1-.43-.02-.89-.02l5.48 9.1c.78 1.3 1.23 2.8.05 3.86-1.17 1.06-2.74.46-3.87-.37-5.24-3.88-10.62-7.54-15.54-11.83-1.35-1.19-3.03-2-5.48-3.55 3.1 5.3 5.65 9.7 8.21 14.09l.19.3c1.07 1.58 1.5 3.83.45 4.94-1.53 1.61-3.28-.4-4.5-1.35-6.42-5.02-12.67-10.26-19.04-15.36a24.92 24.92 0 0 0-6.6-3.9c2.74 4.54 5.48 9.08 8.24 13.6.36.6.82 1.15 1.2 1.73 1.32 1.94 2.25 4.58.7 6.06-1.15 1.09-3.16-1.15-4.67-2.16-5.54-3.7-10.04-8.79-15.96-11.97-.78-.42-1.43-1.57-1.58.48-.09 1.26-.9.23-1.02-.08-.42-1.17-.7-2.39-1.13-4.07 8.34 3.14 13.76 9.86 21.73 14.13-3.76-5.9-7-11.18-10.5-16.3-.74-1.09-1.1-2.27-1.73-3.36-.7-1.19.31-1.95.96-2.75.71-.87 1.35-.34 2.16-.01 3.61 1.46 6.76 3.65 9.77 6 5.66 4.41 11.2 8.97 17.17 13.15-2.92-4.93-5.74-9.92-8.82-14.77-.98-1.55-1.68-3.13-.5-4.4 1.42-1.53 2.63.11 3.84 1a431.86 431.86 0 0 0 21.42 15.22c-1.65-2.67-3.3-5.35-4.98-8.01-.12-.18-.53-.22-.56-.38-.32-1.67-2.98-3.13-1.12-4.91 1.92-1.83 3.6.14 5.18 1.23 8.47 5.8 15.85 13.04 25.23 19.07a180.67 180.67 0 0 0-8.5-16.3c-.54-.9-.86-1.9-1.3-2.84-.58-1.23-.07-2.33.72-3.09.84-.8 1.68.08 2.49.54 5.47 3.08 9.66 7.73 14.41 11.68 3.64 3.02 7.06 6.28 11.31 9.09.22-3.8-1.61-6.75-3.26-9.43-2-3.22-3.81-6.57-6-9.68-.7-1.01-1-2.12-.14-2.83.89-.72 1.94-.1 2.8.7 5.38 5.03 10.8 10.02 16.2 15.01a94.76 94.76 0 0 0 7.1 6.09c-1.31-5.38-4.04-10.09-6.34-14.98-.69-1.48-1.77-3.12-.2-4.46 1.49-1.28 2.84.1 4 1.02 5.27 4.16 9.63 9.25 14.4 13.93 1.57 1.55 3.1 3.02 5.55 3.95-1.89-5.64-4.89-10.25-7.4-15.1-.74-1.43-1.9-3.06-.31-4.42 1.68-1.46 3.25-.05 4.61.95 5.97 4.38 11.74 9 17.06 14.15.4.4.84.9.95 1.42.14.77 1.39 1.64-.08 2.38-.99.5-1.43-.16-2.02-.77-4.88-5.13-10.7-9.17-16.41-13.55h-.01ZM61.73 595.32c2.88.48 2.77 4.69 6.22 4.82.77-4.87-3-8-4.57-11.9-.68-1.68-3.58-3.24-1.5-4.97 1.78-1.5 3.2 1.2 4.41 2.4 4.29 4.32 8.42 8.8 13.3 13.95-.61-5.29-2.68-9.07-4.3-12.99-1.08-2.63-3.41-6.05-1.06-7.86 2.64-2.03 4.67 1.82 6.77 3.45 6.02 4.62 10.8 10.58 16.98 16.14-.7-3.85-2.35-6.5-3.52-9.3-1.2-2.88-2.91-5.53-4.24-8.35-.57-1.22-1.87-2.65-.06-3.98 1.83-1.35 2.8.29 3.8 1.27 5.66 5.51 11.26 11.1 16.89 16.64.73.72 1.55 1.32 2.74 2.32-1.53-5.43-4.38-9.73-6.17-14.46-.59-1.56-2.15-3.35-.04-4.65 1.97-1.22 3.5.38 4.82 1.71 5.21 5.28 10.41 10.58 16.04 15.54-1.78-4.18-3.63-8.3-5.3-12.52-.56-1.42-1.58-3.15.02-4.47 1.62-1.34 2.88.26 3.92 1.1 5.16 4.2 10.21 8.53 15.25 12.86.9.76 1.79 1.47 3.41 1.8l-4.77-11.93c-.26-.63-.44-1.31-.69-1.96-.56-1.47-1.09-3.25.43-4.13 1.46-.84 3.12-.6 4.8.63 6.24 4.6 12.06 9.65 17.43 15.22.79.82 1.78.94 2.86 1.55.8-2.4-.54-4.4-.87-6.46-.22-1.32-1.25-2.52-1.46-3.85-.23-1.5-1.22-3.47.55-4.47 1.62-.9 2.99.35 4.22 1.57a182.32 182.32 0 0 0 17.94 15.67c1.36-3.2-1.2-5.19-1.61-7.62a28.38 28.38 0 0 0-1.75-5.65c-.53-1.34.15-2.34.84-3.07.97-1.01 1.96.02 2.77.65 4.5 3.43 8.25 7.76 13.07 10.79 1.07.66 2.26 1.14 3.26 1.9.68.51 1.7 1.23.9 2.3-.6.82-1.48 1.09-2.43.33-3.55-2.83-7.4-5.38-10.53-8.61-1.38-1.45-3.59-1.67-4.4-3.72.07 3.8 2.13 6.97 2.87 10.49.34 1.6 1.08 3.26-.44 4.56-1.82 1.55-3.38.1-4.72-.86-6.06-4.37-11.43-9.56-17.25-14.85.8 3.32 1.61 6.2 2.1 9.16.27 1.53.62 3.4-1.27 4.37-1.64.83-3.01.27-4.35-.9-5.23-4.58-10.5-9.1-15.8-13.6-1.23-1.06-2.6-1.95-4.34-3.23.48 4.5 2.97 7.7 4.15 11.36.54 1.66 1.12 3.23 1.17 5.03.09 2.77-1.04 3.36-3.5 2.43-3.26-1.25-5.55-3.82-8.2-5.89-3.17-2.48-6.21-5.13-10.13-8.4 2.11 4.84 3.81 8.7 5.46 12.57.36.84.85 1.59.75 2.62-.12 1.15.19 2.5-1.21 3-1.19.43-2.17-.04-3.15-.94a257.68 257.68 0 0 1-14.09-14.11 4.34 4.34 0 0 0-2.3-1.36c1.64 3.66 3.3 7.3 4.89 10.97.6 1.37 1.02 2.81 1.5 4.23.4 1.25.17 2.34-.97 3.1-1.29.85-2.38-.2-3.07-.81-2.96-2.67-5.7-5.6-8.59-8.34-3.29-3.09-6.67-6.08-9.81-8.93 1.88 4.2 4.25 8.62 5.72 13.43.5 1.64.8 3.25-.63 4.04-1.6.89-3.16.12-4.57-1.3-5.44-5.44-11.03-10.73-16.58-16.06-.58-.56-1.27-.99-2.31-1.78 1.78 5.08 3.37 9.7 5.04 14.28.7 1.89 1.15 3.98-.76 5-1.7.92-3.55-.03-4.94-1.55-2.42-2.63-4.93-5.19-7.71-8.09.48 2.56 2.03 4.3 1.8 6.64-.28 2.72-1.97 3.87-4.4 2.55-2.77-1.5-3.86-4.62-6.3-6.43.37-1.21.4-1.21 1.54-.07l.03-.02ZM535.2 650.52c1 .1 2.06 1.48 2.84.43.43-.57.05-2.03-.34-2.91a87.76 87.76 0 0 0-6.84-12.52c-.84-1.27-1.66-2.62-.39-3.73 1.16-1 2.36.04 3.4.91 6.2 5.1 12.45 10.13 18.67 15.18.9.73 1.81 1.42 3.37 2.64-.55-4.43-3.03-7.1-4.51-10.19-.74-1.56-1.83-2.96-2.5-4.55-.42-.96-1.48-2.22-.33-3.17 1.14-.95 2.58-.8 3.8.2 3 2.43 6 4.82 8.96 7.26 5.33 4.4 10.65 8.81 16.59 13.74-1.63-4.77-3.03-8.81-5.63-12.2-1.82-2.38-2.06-5.41-3.78-7.8-.54-.72.41-1.54.88-2.11.73-.88 1.8-.47 2.57 0 4.16 2.59 8.15 5.42 11.97 8.5 3.15 2.55 6.04 5.52 10.1 6.72.7.2 1.4.99 2.2.05.75-.88-.04-1.63-.31-2.26-2.31-5.2-5.9-9.64-8.93-14.41-.6-.95-1.43-1.82-.43-2.76.99-.92 1.73.05 2.67.62 8.03 4.93 14.58 11.91 22.9 16.43l.6.36c1.2.57 2.58 2.05 3.63.96.85-.87.16-2.64-.37-4a63.65 63.65 0 0 0-4.51-9.44c-.52-.87-1.61-1.78-.56-2.77 1.03-.96 2.18-.37 3.14.43 4.62 3.85 9.18 7.76 13.86 11.53 2.98 2.4 6 4.8 9.25 6.8 2.8 1.71 3.66 1.05 3.5-2.09a27.4 27.4 0 0 0-2.43-9.72c-.32-.73-.95-1.44-.96-2.17-.04-1.66-1.1-3.77.77-4.89 1.69-1.01 2.63.86 3.77 1.77 3.45 2.77 6.36 6.11 9.33 9.37.8.9 1.47 1.72 2.87 2.04-.36-1.67-.61-3.2-1.77-4.45-.48-.54-.65-1.46.04-1.89.7-.43 1.33.2 1.74.8 1.84 2.57 2.93 5.5 3.98 8.44.33.91 0 1.77-.9 1.94-1.05.2-1.97.22-3.14-.72-4.08-3.25-7.03-7.5-10.73-11.1-.87-.84-1.45-2.11-2.98-2.15.84 3.84 2.22 7.46 2.84 11.32.38 2.36.92 4.83-1.14 6.05-2.08 1.23-4.81.7-6.89-.77a174.97 174.97 0 0 1-16.6-13.12c-.65-.6-1.13-1.5-2.43-1.46 1.01 2.96 2.78 5.54 3.2 8.62.2 1.55.5 3-.85 4.21s-2.78.52-3.98-.05c-6.98-3.35-13.03-8.08-18.96-12.97-.5-.42-.82-1.18-2.12-1.03 1.61 2.9 3.2 5.63 4.67 8.41 1 1.9 2.55 4.02.6 6-1.9 1.92-4.22 1.3-6.49.18-5.46-2.72-9.74-7.09-14.75-10.41-1.45-.97-2.78-2.07-4.7-2.72 1.79 3.5 3.6 6.98 5.3 10.51.9 1.85 1.9 3.74 2.35 5.71.27 1.2 1.27 3.1-.22 3.89-1.52.79-3.44.6-4.97-.7-1.58-1.34-3.4-2.46-4.82-3.94-5.25-5.46-11.7-9.5-17.6-15.2 2.22 4.75 4.21 8.84 6.07 13 .62 1.38 1.18 3.08.13 4.34-1.34 1.63-2.46-.2-3.64-.7-5.42-2.21-8.8-7.11-13.53-10.26-2.29-1.52-4.77-3.04-6.53-5.4 1.4 3.1 2.89 6.17 4.18 9.32.57 1.39.9 2.92 1 4.43.06 1-.34 2.08-1.38 2.7-1.25.76-1.95-.15-2.74-.83l-1.85-1.57c-.18-.72.12-.89.75-.67h.03ZM462.71 489.63c-3.84.9-7.67 1.78-11.63 1.47-5.9-.46-11.78-.46-17.7-.3-5.43.13-10.88.4-16.47-.66-7.2-1.37-14.6-2.58-22.24-1.26-7.3 1.26-14.82 1.15-22.26 1.57-9.21.52-18.4 1.56-27.66 1.42-5.12-.08-10.25-.12-15.37.02-11.83.31-23.67.53-35.49 1.17-8.98.48-17.91.25-26.81-.69-2.85-.3-5.56-1.61-8.57-1.23-2.17.26-4.5-.5-6.4 1.28a.99.99 0 0 1-1.52-.27c-.37-.69.28-1.01.76-1.34 3.47-2.3 7.45-2.2 11.19-1.64 10.86 1.67 21.7 1.63 32.6.72 5.59-.47 11.23-.1 16.86-.22 3.38-.08 6.74-.37 10.11-.7 5.37-.51 10.67-.76 16.1-.06 4.33.56 8.82.22 13.21 0 8.2-.39 16.4-.9 24.6-1.48 7.33-.52 14.62-1.2 21.92-1.82 8-.67 15.73 1.5 23.58 2.33 4.56.48 9.05.14 13.58-.05 3.84-.16 7.69.3 11.53.43 5.37.18 10.8-.43 16.1 1.3h-.02ZM254.54 505.42c9.82-.44 19.57-1.26 29.3-2.69 5.06-.74 10.52.37 15.68 1.3 6.98 1.26 13.9 1.18 20.91.76 9.52-.58 19.08.46 28.59-.86 11.9-1.67 23.77.6 35.62.36 11.16-.22 22.36-.2 33.5-1.7 10.86-1.46 21.75-1.95 32.65.06 5.3.98 10.63.6 15.98-.07 1.16-.15 2.57-.55 3.85.78-2.7 2.3-6.06 1.5-8.9 1.83-8.61.97-17.18-.42-25.68-1.82-2.56-.43-4.98.26-7.3.69-7.7 1.45-15.5 1.43-23.23 1.92-9.28.59-18.62.85-27.91.64-5.55-.13-11.14-.99-16.7-.56-16.28 1.22-32.6 1.47-48.9 2.17-5.79.25-11.34-1-17-1.78a72.43 72.43 0 0 0-19.11.05c-3.37.43-6.81.24-10.23.3-3.23.06-6.44.1-9.66.14-1.22.22-2.2.19-1.46-1.5v-.02ZM262.54 464.18c3.63-2.08 7.84-1.91 11.62-1.8 8.86.24 17.74.55 26.6.42 7.68-.12 15.25.98 22.88 1.34 5 .23 10.04 0 15.04-.1 6.97-.13 13.88-.91 20.9.06 6.52.9 13.15.52 19.76.36 6.6-.15 13.2-.44 19.88.19 5.71.54 11.59-.24 17.23-2.03 7.84-2.5 15.86-2.46 23.87-.96 5.22.97 10.47.35 15.71.71 2.63.18 5.3.43 7.88.76 4.47.56 8.82-.25 13.23-.29.82 0 2.1-.47 1.96 1.16-.1 1.15-1.12 1.56-2 1.52-5.24-.21-10.45.47-15.71-.37-3.98-.63-8.15.04-12.2-.27-5.32-.4-10.6-1.43-15.92-1.77-3.5-.22-7.3-.47-10.53.61-10.25 3.4-20.74 3.43-31.31 3.34-8.92-.06-17.85-.02-26.76 0-4.93 0-9.78-.98-14.65-1.13-3.54-.1-7.2.25-10.74.68-9.03 1.1-17.94-.17-26.9-.73-6.14-.39-12.34-.01-18.5-.28-6.67-.3-13.33-.85-19.97-1.4-3.2-.28-6.25 1.37-9.45.58-.6-.33-1.43.05-1.92-.6ZM256.6 476.3c3.86-1.46 7.88-.27 11.79-.72 7.64-.87 15.27-2.08 22.94-2.58 6.12-.4 12.28.46 18.42 1.04 6.02.58 12.1.67 18.14.82 9.65.25 19.24 1.07 28.86 1.63 5.51.31 11.09-.74 16.64-.86 7.73-.16 15.43.38 23.13 1.34 6.78.84 13.68.5 20.52.9 7.03.43 13.98-.47 20.95-.91 6.3-.4 12.46-2.16 18.8-2.06 3.99.07 7.94.43 11.82 1.31 1.98.45 4.11-1.22 6.03.5.56.5 1.85.43 1.38 1.56-.3.7-1.22.26-1.9.26-6.25-.01-12.36-1.98-18.62-1.38-4.4.42-8.79.95-13.18 1.42-10.67 1.15-21.3 3-32.1 1.35-2.06-.31-4.2-.1-6.29-.1-7.24.03-14.33-1.56-21.52-1.97-4.9-.27-9.9.2-14.78.8-5.62.72-11.22.7-16.77.1-1.61-.17-3.22-.13-4.82-.3-11.05-1.2-22.18-.5-33.28-1.83-6.18-.74-12.62-1.29-18.95-1-7.54.35-15.06.87-22.56 1.9-4.34.6-8.8.02-13.18-.49-.8.36-1.54.6-1.46-.75l-.01.01ZM255.25 454.4c4.23.26 8.21-1.47 12.44-1.52 13.54-.15 27.03 1.12 40.59.8 12.66-.3 25.33-.24 38 .03 5.35.12 10.64 1.46 16.09 1.4 9.6-.1 19.08-1.72 28.64-2.19 12.44-.62 24.9-.95 37.37-.74 3.3.05 6.49 1.14 9.8.74.84-.1 1.56.38 1.62 1.01.07 1.11-.94 1.08-1.77 1.11-5.98.23-11.88-1.17-17.91-.65-14.04 1.2-28.21-.12-42.2 2.14-6.92 1.12-14.03 2.16-20.85 1.1-11.49-1.76-22.95-.93-34.4-1.1-8.96-.15-17.93.12-26.9.36-9.57.24-19.2-1.32-28.85-1.3-3.9 0-7.8 1-11.71.1-.47-.43-.46-.86.01-1.27l.03-.02ZM517.38 488.1c3.11-1.93 6.68-1.97 9.82-1.68 4.32.41 8.59-.04 12.76-.38 8.81-.71 17.56.78 26.32.05 7.5-.62 15.04-.66 22.56-1.06 7.17-.4 14.41-.61 21.69.24 4.52.54 9.36-.28 13.87-1.28 7.28-1.62 14.47-1.26 21.76-.54 6.17.63 12.37 1.07 18.57 1.28 3.63.12 7.22.69 10.83.9 4.33.25 8.44-1.73 13.2-.72-2.33 2.56-5.5 1.66-7.99 2.6-3.37 1.27-7.07.42-10.54.04-5.5-.59-11-.37-16.48-.87-5.1-.47-10.24-.61-15.31-1.25-5.92-.74-11.53 1.07-17.25 1.78-3.63.46-7.32.88-10.84.68-13.2-.77-26.28.6-39.43.97-12.14.35-24.32-.48-36.47-.52-5.68-.02-11.36-.61-17.05-.26l-.02.01ZM677.44 448.28c-5.36.38-10.72.48-16 1.38-7.06 1.2-14 .66-21.1 0-6.44-.6-13.1.28-19.67.87-11.69 1.04-23.4 3.05-35.15.92-3.57-.65-6.7.95-9.98 1.6-4.07.8-8.14.4-12.18.94-3.42.44-6.9.45-10.36.41a118.5 118.5 0 0 1-22.88-2.48c-4.46-.94-8.88 1.2-13.7-.72 3.86-1.87 7.57-3.27 11.45-2.7 9.69 1.43 19.37 3.4 29.17 2.77 7.8-.5 15.72.26 23.38-2.42 3.13-1.09 6.76 0 10.12.56 7.63 1.27 15.17.2 22.7-.78 6.27-.82 12.59-1.45 18.88-1.28 13.67.36 27.34 1.19 40.97-.73 2.4-.34 2.46-.04 4.38 1.69l-.03-.03ZM514.75 472.16c2.72-.59 5.44-.04 8.1.35 6.8.99 13.4-.8 20.1-1.18a335.4 335.4 0 0 1 33.52-.56c6.79.28 13.56.67 20.35.53 8.9-.18 17.8-.74 26.7-.87 3.48-.05 7.08.2 10.46.99 5.77 1.36 11.32-.28 16.95-.61 5.67-.34 11.32-.96 17.01-.91 1.86.01 3.72 0 5.5-.78.63-.28 1.56-.21 1.85.52.37.97-.33 1.38-1.21 1.74-2.95 1.23-6.12 1.34-9.18 1.27-8.7-.2-17.24 1.5-25.87 2-3.88.24-7.83-1.1-11.76-1.14-8-.06-16-.14-24.03.43-9.05.65-18.2-.13-27.3-.39-11.28-.32-22.66-1.04-33.91.5-8.76 1.2-17.38.4-26.02-.73-.54-.07-1.21-.13-1.26-1.19v.03ZM525.3 461.42h12.26c9.34-.05 18.69-.1 28.03-.17 9.57-.07 19.08-.9 28.63-1.39 5.66-.3 11.38.74 17.09.8 9.38.11 18.78.16 28.15-.24 5.81-.26 11.6-2.31 17.4-1.59 6.61.84 12.85-.4 19.2-1.6 1.18-.23 2.62-.45 3.48.95.39.63.7 1.25.06 1.92-.5.52-1.06 1.09-1.78.44-1.8-1.63-4.05-.8-5.7-.38-5.3 1.4-10.53 1.18-15.9.87-6.5-.38-12.83 1.56-19.28 2.17-.94.1-1.88.43-2.78.3-8.5-1.2-17.03.7-25.49-.06-5.93-.52-11.87-1.6-17.74-.51-5.46 1.01-11.06 1.13-16.38.94-9.38-.36-18.77.09-28.14-.45-6.1-.33-12.2.4-18.3-.45-.8-.12-1.63.08-2.84-1.55h.03ZM520.62 499.39c3.57-.94 6.49.42 9.41.29 11.2-.51 22.33-1.8 33.51-2.54 6.36-.41 12.87-1.01 19.26-.1 9.39 1.34 18.7.56 27.88-1.26 6.22-1.22 12.29-.6 18.44.04 9.54.97 19.1 1.87 28.68.37 1.25-.2 3.33-.66 3.5 1.15.13 1.41-1.72 1.22-3 1.48-10.84 2.14-21.63.67-32.34-.68-8.26-1.04-16.16.5-24.14 1.67a58.5 58.5 0 0 1-15.5.41c-7.92-.97-15.81-.66-23.7-.44-9.5.27-18.94 1.63-28.46 1.35-4.32-.12-8.7.26-13.51-1.73l-.03-.01ZM57.96 754.05c2.08-.68 3.23-.66 4.56-.33 11.53 2.8 23.18 4.47 34.94 1.66a108.5 108.5 0 0 0 14.64-4.55 25.23 25.23 0 0 1 15.98-.86c6.24 1.64 12.5 1.45 18.79 1.38 4.5-.05 9.1.38 13.44-.5 3.73-.77 7.52-1.1 11.2-2.02a16.1 16.1 0 0 1 5.86-.38c6.44.76 12.85 1.8 19.67 2.06-1.42 2.44-3.52 2.41-5.38 2.3-2.86-.19-5.73-.12-8.6-.83-7.12-1.79-14.08.16-21.12 1.18-9.52 1.36-19.12 1.09-28.72.35-3.82-.3-7.4-1.7-11.27-1.8-6.53-.15-12.34 2.49-18.26 4.41-11.25 3.64-22.41 2.84-33.72.96a94.32 94.32 0 0 1-12.01-3.01v-.02ZM535.52 565.79c4.62-.4 8.4-1.67 12.49-1.08 8.5 1.2 16.9 3.05 25.49 3.77 6.14.5 12.22-.1 18.22-1.07 9.77-1.6 19.46-1.3 29.23-.06 8.22 1.03 16.5.48 24.75.05 5.21-.27 10.43-1.15 15.6.3 1.27.35 2.52.75 2.56 2.43-6.65-.55-13.27-.18-19.9.02-9.23.29-18.44.74-27.73-.69-8.8-1.35-17.82-.72-26.68.73a67.15 67.15 0 0 1-21.46.1c-10.24-1.62-20.3-5.09-30.9-3.71-.28.04-.6-.27-1.65-.77l-.02-.02ZM64.46 670.76c15.82-2.5 31.14-6.02 47.09-1.92 6.94 1.78 14.45.57 21.52-1.26 6.13-1.59 12.02-1.65 18.16.24 6.44 2 13.25 1.34 19.9 1.22 8.62-.15 17.25-1.02 25.9-.72.47.01 1.06-.2 1.39.01 1.26.8 4.03-.29 3.74 2.08-.18 1.46-2.37.56-3.65.57-9.14.13-18.28-.06-27.4.76-8.9.79-17.65-.42-26.15-2.94-3.55-1.05-6.72-.05-9.94.66-9.43 2.12-18.82 2.72-28.36.59-8.46-1.89-16.97-1.62-25.49-.07-4.27.78-8.6 1.33-12.92 1.78a4.74 4.74 0 0 1-3.8-1ZM77.68 728.59c4.58.65 8.5.54 12.4.73 7.98.39 15.63-1.4 23.29-3.1a27.56 27.56 0 0 1 14.16.34c8.65 2.46 17.58 3.82 26.73 2.16 10.01-1.82 20.06-1.2 30.03.6 4.7.84 9.44.09 14.13.6.8.1 1.96-.17 2.08.84.14 1.25-1.07 1.16-2 1.31-6.22 1.1-12.34.7-18.57-.36-7.38-1.26-14.78-1.68-22.4-.63-8.88 1.24-17.92 1.76-26.85-1.54-6.94-2.57-14.27-2.25-21.6-.24-7.84 2.16-15.94 2.34-24.02 1.25-2.29-.31-4.85.61-7.4-1.97h.02ZM62.52 531.64c11.17.48 22.28-.03 33.35-1.65 7.53-1.1 14.94-2.77 22.41-4.19 6.23-1.18 12.44-.17 18.63.9a86.46 86.46 0 0 0 21.6.93c8.35-.67 16.67.47 25.01.49.44 0 .88.3 1.35.41.65.17 1.58.03 1.62.99.06 1.18-1.03 1.22-1.76 1.25-3.29.06-6.63.35-9.86-.05a77 77 0 0 0-17.05-.12c-7.2.7-14.48.23-21.47-1.31-9.38-2.08-18.38-1.02-27.57.8a158.93 158.93 0 0 1-34.94 3c-3.77-.1-7.58.78-11.37-.19-.35-.44-.44-.86.08-1.25l-.03-.01ZM79.5 706.65c8.87-.4 17.82-.3 26.63-1.3 7.02-.8 13.99-.95 21-.91 3.6.01 6.8 1.58 9.86 3.12 6.85 3.44 14.05 3.48 21.31 2.77 8.78-.85 17.5-2.63 26.27-2.8 5.11-.1 10.5-.13 15.58 1.47.71.22 2.13.31 1.75 1.72-.27 1.02-1.31.88-2.1.82-4.5-.42-9-1.13-13.52-1.26-4.06-.12-8.14.25-12.18.67-6.97.72-13.87 1.83-20.9 2.1-7.05.25-13.46-1.66-19.6-4.57-3.66-1.74-7.38-2.05-11.2-2.12-11.55-.18-23 1.72-34.56 1.8-3.04.02-6.07-.44-9.11-.16-.4-.82.26-1.04.77-1.34v-.01ZM77.38 686.77c9.89.12 19.53-2.86 29.39-2.56 6.34.2 12.67.76 19.04.76 15.09 0 30-3.2 45.12-2.46 6.05.3 12.1.86 18.1 1.65 2.91.4 6.03-1.62 8.62 1.18-1.95 2-4.84 1.55-7.33 1.43-6.02-.27-12.01-1.06-18.02-1.58a88.53 88.53 0 0 0-20.3.6c-4.72.68-9.53.83-14.3 1-7.33.3-14.66.63-22 .49-3.89-.08-7.79-.65-11.74-.66-8.9-.04-17.63 2.52-26.56 1.43-.5-.42-.48-.83-.01-1.26l-.01-.02ZM74.56 495.57c10.94.14 21.72-1.59 32.56-2.78 7.38-.82 14.9-1.19 22.29.43 8.86 1.93 17.59.93 26.36-.89a51.7 51.7 0 0 1 14.54-.83c7.63.6 15.34.53 23.01.46 2.43-.03 4.3.48 6.23 2.44-10.7-.2-20.94-.2-31.2-.82-4.99-.31-10.23.13-15.25 1.44a49.06 49.06 0 0 1-22.82.49c-8-1.68-16.13-.97-24.28-.23-9.42.86-18.83 2.45-28.36 1.55-.8-.08-1.64 0-2.46.01-.45-.3-.97-.58-.62-1.27ZM529.4 513.83c7.27-2.16 14.7-2.57 22.22-1.78 8.92.95 17.77.86 26.73-.08 11.97-1.26 23.96-2.92 36.1-.58 2.97.57 6.39.97 9.52-.37 5.03-2.17 10.36-1.2 15.57-1.39.75-.02 1.55.43 2.29.73.67.27 1.36.73 1.2 1.52-.21.96-1.11.57-1.76.56-3.31-.05-6.59-.42-9.96-.17-5.07.37-9.9 2.2-15.2 1.55-4.55-.56-9.16-1.46-13.82-1.15-6.97.47-13.97.62-20.9 1.4-9.57 1.07-19.12 1.68-28.68.23a66.24 66.24 0 0 0-20.08.22c-.57.1-1.17-.04-1.77-.06-.41-.4-1.12-.13-1.48-.64l.01.01ZM102.74 514.34c2.13-1.46 4.66-1 6.91-1.01 7-.04 13.94-.42 20.9-1.36 6.28-.84 12.73-1.22 19.06.03 9.44 1.87 18.72 1.18 27.93-1.31 7.03-1.92 14.1-2.72 21.22-.4.32.11.81-.03 1.02.16 1.13 1.03 4 1.03 3.2 2.98-.65 1.61-2.74.05-4.03-.38-7.07-2.39-14.08-1.39-21 .37-10.3 2.6-20.48 2.5-30.95.66a52.95 52.95 0 0 0-19.7.48c-5.26 1.1-10.47.52-15.69.75-2.9.13-5.86.58-8.74-.24-.45-.19-.48-.42-.12-.73h-.01ZM556.42 584.78c6.43.41 12.87-.46 19.31.23 5.51.59 11.05.99 16.59 1.07 8.68.13 17.3 1 26.05.26 10.28-.88 20.66-1.66 31.02.24 4 .73 8.22.16 12.33.17 1.57 0 3.17-.18 4.69.76-3.07.79-6.11 1.4-9.28 1.56-6.55.32-12.97-1-19.5-1.17-8-.23-15.95.75-23.93.79-8.81.05-17.61-.3-26.41-.9-9.39-.65-18.8-1.04-28.2-1.5-.41-.03-.85.28-1.28.42-.72-.48-2.46-.2-1.42-1.95l.03.02ZM43.4 453.52c4.42-.83 8.8-1.83 13.32-2.24 9.17-.81 18.32-1.62 27.5-1.98 3.75-.16 7.5-.64 11.21-.5 3.6.13 7.19.86 10.76 1.4.32.04.55.62.81.94-.44.33-.62.95-1.39.88-2.55-.22-5.1-.44-7.67-.51-8.43-.25-16.82.1-25.23 1.22-5.78.76-11.68.75-17.5 1.6-3.43.5-6.91.66-10.24 1.83-1.18.41-2.61 1.01-3.66 0-1.17-1.13-.76-2.58-.04-3.89 1.69-1.25 1.36.94 2.13 1.26v-.01ZM157.4 480.44c-2.15.95-4.32-.01-6.41-.2-9.35-.78-18.3 2.19-27.52 2.46-7.7.22-15.13-1.83-22.72-2.55-5.95-.56-11.9-1.15-17.82.31-.57.15-1.3-.32-1.95-.51-.83.07-1.9.85-2.16-.75 3.54-.58 7.11-.74 10.67-1.06a47.8 47.8 0 0 1 10.2.04c8.92 1.12 17.75 2.75 26.82 2.44 4.59-.16 8.94-1.4 13.47-1.77 5.87-.48 11.7-.73 17.43 1.03.23.13.31.25.23.38-.08.11-.15.18-.24.18ZM173.53 480.3c1.44-1.81 3.53-.86 5.26-1.02 6.73-.63 13.5-.93 20.25-1.36 3.16-.2 6.24.06 9.15 1.44-4.99.97-9.98.5-14.96 1.1-5.6.7-11.3.58-16.95.76-.8.02-1.6-.29-2.39-.44-.43.1-.56-.06-.38-.46l.02-.01Z"
    fill="#fff"
    />
    <path
    d="m535.2 650.52-.76.66c-3.27-4.4-6.41-8.9-9.86-13.17-1.57-1.96-3.7-3.46-5.62-5.22 3.5-.58 14.16 11.17 16.22 17.72l.01.01ZM79.5 706.65l-.77 1.34c-4.43 1.13-8.7-.35-12.9-1.17-2.54-.5-5.03-1.03-7.61-1.06-.7 0-1.67.06-1.7-.83-.02-1.04.97-1.27 1.82-1.11 2.05.36 4.09.8 6.14 1.24 4.96 1.06 9.92 1.91 15 1.59h.02ZM13.84 43.12c.13-5.12-.95-10.24.43-15.3.18-.66.55-1.41 1.35-1.24.77.15 1.86.66 1.48 1.6-1.9 4.8-.87 10.21-3.26 14.94ZM74.56 495.57l.62 1.27c-5.1 1.51-10.22.13-15.25-.35-2.88-.27-6.17.7-8.1-.93h22.73v.01ZM78.8 479.22c.51.87 1.52.28 2.17.74-7.41 2.43-14.78 1.2-22.14-.13 6.68.32 13.34-.14 19.99-.61h-.01ZM102.74 514.34l.11.73c-5.65 1.37-11.3.45-16.97.11-.47-.41-.47-.82.04-1.2 4.73-.34 9.51.53 14.23-.47.99-.21 1.8.3 2.59.83ZM556.42 584.78c-.54 1.38 1.17 1.14 1.41 1.95-6.25.45-12.5 1.28-18.82.44 5.7-1.59 11.62-1.5 17.42-2.4h-.01ZM157.4 480.44a2.01 2.01 0 0 1 0-.56c5.38-.08 10.77-.48 16.14.42l.38.45c-2.24 2.07-4.93.22-7.43.64-2.77.47-6.16.36-9.08-.96h-.01ZM77.38 686.77l.01 1.26c-6.24-.18-11.6-3.56-17.72-4.23l.25-1.02 17.44 3.98.02.01ZM262.54 464.18c.74-.13 1.48-.25 1.92.6-4.99 1.43-10.04 1.24-15.14.76 4.46 0 8.68-2.25 13.22-1.36ZM61.73 595.32c-.5.39-1.08-1.46-1.54.06-2.39-4.31-7-6.98-8.4-12.06 3 4.25 7.69 7.06 9.92 12h.02Z"
    fill="#fff"
    />
    <path
    d="M85.92 513.98c0 .4-.03.8-.04 1.2-4.08.46-8.03.02-11.83-1.6 4.03-1.07 7.9.52 11.87.4ZM36.5 22.96c-3.46 2.3-6.9.56-9.88 1.86-.57.25-1.2-.06-1.33-.75-.13-.73.51-1.08 1.04-1.12 3.2-.22 6.41-.78 10.17.03v-.02ZM255.25 454.4c0 .43 0 .85-.02 1.28-3.9 1.32-7.98 1.12-12.03 1.26 3.78-1.94 8.08-1.5 12.05-2.54ZM254.54 505.42c-.36 1.33.72 1.26 1.46 1.51-2.91 1.45-6.03-.5-8.98.74 2.12-2.37 4.87-2.12 7.52-2.25ZM62.52 531.64l-.08 1.25c-3.08 1.23-5.53-.42-8.21-1.1l.14-.88 8.14.73h.01ZM61.27 512.9c3.95-.31 7.94-.89 11.71.48l-.1.9c-3.87-.46-7.73-.93-11.6-1.38ZM76.03 729.96l-9.16-1.9.2-.89a19.4 19.4 0 0 1 9.3 1.8l-.33.99h-.01ZM55.7 726.31c3.26.52 6.82-.93 9.78 1.42-3.2-.99-6.61-.27-9.77-1.42ZM43.4 453.52c-.92-.06-.8-1.9-2.13-1.26.1-2.22.54-4.37 1.22-6.46l.91.05v7.67ZM529.4 513.83c.6-.08 1.11.1 1.48.64a11.7 11.7 0 0 1-9.61-.64h8.12ZM40.62 870.9l1.32-.65c.02.46.25.74.72.8v1.16c-2.16 1.12-4.2 1.4-6.27-.78 1.59-1.04 3.07.6 4.23-.52ZM256.6 476.3c.26.68.96.51 1.45.75-2.32 1.62-4.56.1-7.22.11 2.01-2.31 3.93-1.06 5.77-.87ZM14.15 445.88l-1.37-.76c-.19-.28-.59-.66-.51-.84.58-1.34-2.74-2.22-.65-3.21.86-.4 2.01 1.74 2.44 3.13.16.52.07 1.12.1 1.69v-.01ZM518.45 461.41c2.23.2 4.47.39 6.72.57-2.33.6-4.68 1.76-6.72-.57ZM459.42 556.8l-1.35-4.83c1.67 1.2 2.73 2.62 1.35 4.83ZM23.17 24.19c-1.32 1.3-2.73.8-4.48.72 1.52-2.23 3.08-.83 4.48-.72ZM527.98 674.68c-.02-.7-.1-1.4-.03-2.09.08-.6.4-1.2 1.16-.93.53.18 1.14.49 1.44.93.44.65-.32 1.1-.71 1.35-.56.37-1.32.45-2 .65l.11.1h.03ZM533.76 587.15a6.48 6.48 0 0 1 4.06.1c-1.54 1.04-2.63 1.27-4.06-.1Z"
    fill="#fff"
    />
</svg>