<svg width="1459" height="1021" viewBox="0 0 1459 1021" fill="none" xmlns="http://www.w3.org/2000/svg">
<g clip-path="url(#clip0_1965_114)">
<path d="M720.526 640.112C719.873 640.153 719.203 640.193 717.503 640.319C728.921 633.474 732.68 622.859 736.259 612.225C740.364 599.997 742.874 587.374 743.918 574.537C744.555 566.723 744.147 558.88 740.925 551.557C689.609 575.78 638.639 599.844 586.863 624.29C588.191 625.172 589.195 625.838 590.216 626.504C589.893 631.366 589.587 636.228 589.222 641.889C598.199 636.973 606.075 632.647 613.951 628.337C613.792 627.976 613.617 627.615 613.458 627.253C608.483 629.444 603.539 631.766 598.484 633.776C596.86 634.425 594.902 634.286 593.103 634.492C594.022 632.871 594.811 631.134 595.94 629.662C596.621 628.772 597.851 628.314 598.839 627.674C603.613 624.599 608.387 621.524 613.161 618.449C611.155 618.244 609.547 618.86 607.94 619.428C603.987 620.848 600.017 622.251 596.048 623.671C598.896 621.812 601.554 619.527 604.625 618.145C616.875 612.682 629.236 607.449 641.629 602.282C642.647 601.854 644.172 602.624 645.459 602.853C644.525 604.376 643.928 606.442 642.578 607.323C638.808 609.79 634.717 611.78 629.735 614.51C635.631 613.081 640.35 611.802 645.13 610.85C646.292 610.619 647.654 611.388 648.907 611.697C648.416 613.128 648.326 615.037 647.336 615.89C645.256 617.66 642.694 618.869 640.626 620.982C643.495 620.087 646.302 618.914 649.248 618.38C650.802 618.106 652.556 618.928 654.217 619.259C653.525 621.014 653.347 623.559 652.063 624.375C645.298 628.617 638.262 632.431 631.337 636.41C630.038 637.161 628.786 638.011 627.981 639.732C632.396 637.942 636.779 636.087 641.241 634.396C645.737 632.689 650.265 631.015 654.886 629.652C655.919 629.355 657.359 630.418 658.594 630.858C658.04 632.076 657.822 633.853 656.884 634.413C648.625 639.322 640.239 644 631.916 648.778C627.772 651.159 623.659 653.573 619.72 656.479C626.627 653.904 633.534 651.297 640.456 648.788C644.705 647.241 648.938 645.596 653.312 644.492C654.819 644.119 656.683 645.22 658.392 645.633C657.429 646.927 656.753 648.731 655.47 649.45C645.736 654.83 635.89 659.997 626.076 665.245C624.744 665.964 623.444 666.764 622.414 668.171C627.942 666.151 633.423 664.032 638.982 662.126C644.328 660.283 649.723 658.522 655.179 657.023C656.277 656.726 657.75 657.757 659.05 658.182C658.543 659.596 658.436 661.603 657.431 662.309C653.757 664.892 649.779 667.046 645.897 669.316C643.002 670.994 640.059 672.59 637.432 674.973C643.175 672.808 648.854 670.431 654.723 668.61C657.116 667.873 659.902 668.349 662.516 668.284C660.68 670.106 659.116 672.438 656.945 673.651C645.123 680.197 633.14 686.48 621.619 693.699C630.36 690.723 639.085 687.681 647.873 684.836C649.283 684.381 651.227 684.291 652.493 684.895C654.652 685.934 653.752 688.699 650.859 690.197C640.85 695.394 630.84 700.575 620.847 705.756C620.469 705.948 620.155 706.286 620.046 707.167C625.032 705.368 630.018 703.635 634.972 701.787C642.339 699.038 649.673 696.175 657.039 693.443C658.073 693.064 659.349 692.835 660.375 693.093C661.172 693.299 661.943 694.304 662.308 695.142C662.435 695.437 661.426 696.519 660.736 696.82C655.07 699.427 649.467 702.23 643.643 704.41C626.777 710.73 609.801 716.77 592.888 722.974C591.527 723.463 590.402 724.625 589.042 725.032C587.861 725.393 586.21 725.568 585.286 724.985C584.492 724.501 583.815 722.517 584.184 721.787C584.602 720.96 586.271 720.687 587.435 720.342C590.319 719.497 592.918 719.301 594.76 715.666C596.133 712.924 600.575 711.592 603.797 709.918C613.132 705.071 622.548 700.357 631.519 694.64C625.596 696.917 619.673 699.177 613.749 701.487C609.794 703.021 605.935 704.818 601.902 706.073C600.427 706.528 598.575 705.737 596.896 705.504C597.615 704.19 598.013 702.399 599.133 701.646C606.625 696.646 614.262 691.859 622.608 686.511C613.464 686.526 606.43 693.982 597.594 692.842C597.706 685.283 603.394 686.106 606.988 684.714C611.106 683.117 613.065 680.545 613.56 676.29C607.935 676.937 603.316 681.908 597.48 679.859C597.178 679.251 596.891 678.643 596.589 678.035C600.112 675.745 603.844 673.734 607.078 671.081C610.196 668.524 615.782 668.414 615.902 662.75C610.587 664.675 605.352 666.781 599.975 668.411C598.549 668.851 596.7 667.88 595.039 667.549C595.953 666.271 596.867 665.009 597.781 663.714C602.32 657.256 610.392 656.819 616.403 652.747C622.529 648.611 629.393 645.562 635.842 641.773C621.177 645.802 607.862 654.158 592.711 656.58C592.344 655.922 591.993 655.265 591.625 654.623C592.884 653.235 593.903 651.37 595.449 650.54C604.342 645.786 613.411 641.361 622.337 636.656C626.594 634.407 630.661 631.781 634.505 628.645C629.514 630.786 624.539 632.928 619.548 635.07C610.453 638.972 601.31 642.809 592.278 646.875C591.178 647.368 589.898 649.148 589.966 650.259C590.369 657.138 591.671 664.013 591.682 670.871C591.698 681.272 591.208 691.7 590.359 702.058C589.917 707.376 588.202 712.596 587.042 717.855C586.99 718.083 586.645 718.226 585.638 719.144C585.981 715.246 585.988 712.062 586.598 708.983C589.335 695.236 588.315 681.54 587.199 667.712C586.125 654.423 586.212 641.051 585.792 627.705C585.755 626.758 585.816 625.795 585.834 624.31C573.128 629.701 561.045 634.905 548.898 639.994C535.963 645.416 522.964 650.69 510.029 656.079C496.684 661.626 483.371 667.255 470.058 672.851C468.844 673.277 467.583 673.62 466.385 674.095C458.311 677.276 450.254 680.473 442.196 683.67C440.84 685.024 438.457 686.284 438.34 687.752C438.032 691.471 438.719 695.268 439.058 699.502C448.226 696.286 457.296 693.102 466.382 689.918C466.288 689.573 466.194 689.229 466.085 688.869C464.546 689.176 462.992 689.385 461.485 689.807C456.012 691.306 450.57 692.984 445.05 694.335C444.067 694.584 442.805 693.654 441.667 693.264C442.349 692.309 442.902 691.19 443.776 690.466C445.047 689.421 446.558 688.656 448.254 687.583C444.649 686.874 442.64 685.559 442.229 683.637C444.366 683.844 446.819 684.838 448.559 684.109C455.601 681.177 462.437 677.736 469.304 674.409C469.698 674.218 469.759 673.288 469.962 672.703C472.551 672.017 475.187 671.446 477.744 670.629C482.728 669.01 487.619 667.047 492.665 665.69C494.206 665.268 496.135 666.354 497.877 666.735C496.699 668.239 495.823 670.4 494.279 671.131C486.985 674.599 479.501 677.657 472.112 680.895C470.536 681.577 469.007 682.39 467.7 683.811C477.202 681.285 486.688 678.759 497.124 675.984C497.699 674.44 498.83 671.45 499.946 668.443C500.109 668.494 500.271 668.529 500.434 668.58C499.522 672.275 498.594 675.97 497.715 679.682C496.145 686.34 494.315 692.947 493.136 699.676C492.081 705.671 491.465 711.771 491.193 717.841C490.508 733.361 486.681 748.091 478.824 761.348C471.75 773.294 461.482 782.211 448.002 786.776C447.034 787.107 445.988 787.225 444.989 787.424C444.782 786.997 444.576 786.554 444.369 786.126C450.392 782.365 456.416 778.62 462.933 774.538C455.523 771.734 449.186 769.205 442.749 766.953C440.31 766.106 437.668 765.844 435.128 765.305C434.974 765.826 434.82 766.363 434.667 766.884C440.351 769.306 446.102 771.632 451.703 774.25C452.937 774.821 453.717 776.414 454.699 777.537C453.403 777.961 451.987 778.94 450.847 778.697C444.593 777.361 438.41 775.634 432.175 774.184C424.539 772.406 416.885 770.742 408.975 770.022C420.63 775.508 432.285 780.994 444.475 786.748C441.807 788.593 439.341 789.949 435.863 788.583C431.574 786.913 427.166 785.534 422.809 784.026L422.304 785.196C424.251 786.184 426.315 786.993 428.079 788.224C429.034 788.889 429.474 790.266 430.147 791.32C428.998 791.779 427.661 792.872 426.734 792.599C421.301 790.996 415.834 789.392 410.62 787.204C399.429 782.54 388.405 777.47 377.264 772.693C375.656 772.003 373.779 771.963 371.743 771.562C371.568 771.184 371.088 770.427 370.869 769.592C370.667 768.822 370.404 767.675 370.784 767.272C371.215 766.82 372.556 766.641 373.107 766.991C376.444 769.074 378.93 767.456 381.518 765.48C389.416 759.44 397.587 753.73 405.291 747.475C418.01 737.152 428.162 724.543 433.387 708.999C435.659 702.251 439.62 695.067 436.32 686.078C386.69 706.174 337.108 726.255 287.51 746.352C287.636 746.713 287.763 747.058 287.889 747.419C290.315 746.633 292.696 745.585 295.184 745.143C296.395 744.929 297.804 745.812 299.122 746.205C298.487 747.34 298.14 749.001 297.186 749.511C290.447 753.019 283.581 756.296 276.746 759.639C275.612 760.196 274.447 760.655 273.518 761.819C278.006 760.749 282.464 759.385 287.011 758.756C289.481 758.411 293.823 758.58 294.362 759.795C295.839 763.178 292.314 764.276 289.737 765.354C283.565 767.955 277.393 770.522 271.408 773.794C272.358 773.594 273.393 773.052 274.239 773.275C275.964 773.737 277.587 774.59 279.26 775.281C278.57 776.921 278.343 779.368 277.126 780.038C271.831 783.009 266.28 785.568 260.729 788.078C254.226 791.017 247.611 793.759 241.187 796.878C249 794.968 256.766 792.878 264.625 791.23C268.636 790.382 273.191 789.117 276.151 795.277C268.939 798.697 261.876 802.037 254.796 805.377C261.034 804.1 267.222 802.79 273.426 801.595C274.539 801.38 275.911 801.365 276.884 801.85C277.809 802.303 278.807 803.458 278.91 804.407C278.998 805.175 277.969 806.501 277.148 806.85C270.171 809.816 263.13 812.65 256.09 815.452C252.89 816.734 249.643 817.869 246.551 819.594C258.652 816.905 270.151 811.4 282.887 811.462C284.959 801.201 286.402 790.328 289.456 779.9C292.493 769.52 297.141 759.618 301.089 749.511L302.275 749.935C300.851 754.146 299.361 758.323 298.034 762.569C295.193 771.628 291.684 780.581 289.821 789.848C287.608 800.859 286.357 812.11 285.579 823.318C284.92 832.829 285.91 842.443 285.496 851.99C285.132 860.117 283.334 868.046 278.287 874.677C279.802 864.573 281.316 854.517 282.92 843.842C274.27 847.391 266.884 850.417 259.482 853.442C259.513 853.606 259.527 853.753 259.558 853.917C262.7 853.352 265.812 852.607 268.984 852.255C271.306 851.991 274.394 851.85 274.601 854.89C274.697 856.311 272.465 858.537 270.789 859.316C262.545 863.082 254.142 866.471 245.802 870.023C245.458 870.166 245.272 870.686 244.442 871.753C249.454 870.543 253.761 869.536 258.036 868.446C261.443 867.575 264.774 866.294 268.243 865.766C269.601 865.555 271.216 866.914 272.71 867.57C271.812 868.913 271.248 870.898 269.982 871.536C252.217 880.636 233.724 887.833 214.142 891.995C211.719 892.504 209.2 892.896 206.753 892.735C205.447 892.653 204.224 891.25 203.074 890.501C213.291 887.004 222.835 883.744 232.379 880.484C232.175 879.861 231.971 879.222 231.783 878.599C220.226 882.209 208.699 885.95 197.064 889.298C195.229 889.83 192.876 888.593 190.605 887.454C195.826 885.168 194.663 881.528 194.747 877.496C194.983 866.478 196.477 855.491 197.073 844.476C197.756 831.7 206.027 821.909 209.813 810.379C211.664 804.753 216.071 801.02 218.875 796.157C218.942 796.027 219.156 795.932 219.14 795.834C218.216 788.833 226.596 787.273 227.577 781.979C229.275 772.872 237.485 773.188 243.125 770.042C249.867 766.29 257.151 763.556 264.295 760.348C264.021 760.034 263.797 759.672 263.715 759.704C254.529 763.05 245.2 766.068 236.236 769.906C225.335 774.57 214.528 779.561 204.057 785.095C182.162 796.658 160.49 808.648 138.754 820.507C135.203 822.438 131.748 824.501 127.423 826.978C129.526 827.249 130.536 827.376 131.547 827.503C132.976 830.771 130.445 832.061 128.484 833.49C120.146 839.508 111.76 845.428 103.406 851.413C103.06 851.654 102.859 852.092 101.814 853.402C105.361 851.797 107.858 850.588 110.419 849.526C114.325 847.893 118.217 846.195 122.25 844.907C123.594 844.483 125.315 845.256 126.88 845.471C126.129 846.719 125.652 848.346 124.58 849.182C118.644 853.777 112.563 858.174 106.882 863.246C113.603 859.853 120.308 856.459 127.687 852.731C127.862 851.737 128.213 849.848 128.546 847.974C128.792 847.928 129.037 847.882 129.3 847.82C129.484 848.753 129.798 849.704 129.819 850.635C130.045 861.236 129.454 871.923 130.595 882.437C131.766 893.147 133.589 904.028 137.07 914.163C139.354 920.821 138.731 927.492 140.364 933.979C140.52 934.601 140.118 935.364 139.013 936.28C137.883 932.592 136.754 928.904 135.594 925.085C127.332 931.512 119.236 937.811 111.139 944.127L111.345 944.603C112.247 944.304 113.293 944.203 114.035 943.673C117.874 940.946 121.488 937.872 125.487 935.408C126.935 934.512 129.215 934.998 131.127 934.859C130.486 936.5 130.328 938.669 129.14 939.699C123.708 944.448 117.906 948.784 112.393 953.466C103.563 960.931 94.975 968.677 86.081 976.06C79.7612 981.304 73.1193 986.184 66.5581 991.147C65.7173 991.79 64.5555 991.988 63.5379 992.399C63.3136 992.054 63.0733 991.691 62.849 991.346C65.1926 989.367 67.5361 987.388 69.8799 985.393C77.1768 982.953 77.637 974.926 82.1069 970.067C77.0444 972.714 71.9984 975.344 66.6728 978.135C67.5622 980.122 68.7536 982.766 69.9448 985.426C67.9869 982.707 65.6182 980.195 64.1368 977.238C59.0396 967.066 59.6536 955.905 59.2685 944.976C59.183 942.689 60.1264 940.382 60.5962 938.086C61.1155 946.126 61.6349 954.166 62.1842 962.419C75.8519 950.688 88.9912 939.423 102.114 928.142C100.812 927.864 99.9091 928.212 99.1025 928.724C88.2858 935.789 77.5006 942.936 66.6034 949.902C65.5171 950.59 63.7421 950.209 62.2874 950.321C62.762 948.939 62.8346 947.062 63.7918 946.258C71.4972 939.905 79.4117 933.8 87.1975 927.546C91.9976 923.687 96.6854 919.681 101.933 915.338C100.726 915.208 100.368 915.057 100.204 915.169C88.8396 922.913 77.5557 930.772 66.0795 938.335C64.8446 939.152 62.4396 938.224 60.5797 938.102C58.2512 934.987 59.5953 931.983 60.1724 928.937C60.5804 928.958 60.9718 928.996 61.3798 929.017C61.1429 930.974 60.9058 932.946 60.5409 935.995C73.7825 925.679 86.4139 915.845 99.0456 905.994C98.8534 905.698 98.645 905.385 98.4528 905.089C92.8411 908.561 87.1973 911.985 81.6335 915.54C76.9093 918.55 72.3935 921.873 67.5736 924.703C65.616 925.854 63.0828 926.034 60.5432 926.721C60.477 925.495 60.3673 923.828 60.2212 921.165C61.0399 922.286 61.3286 922.697 61.8424 923.39C76.3659 912.42 91.005 901.354 105.644 890.287C105.371 889.892 105.099 889.48 104.826 889.085C103.543 889.853 102.275 890.67 100.976 891.404C91.2743 896.818 81.588 902.28 71.8061 907.562C70.4744 908.28 68.6324 908.028 66.8901 907.647C70.3627 901.584 78.5139 901.327 81.5125 895.307C81.2396 894.928 80.9505 894.549 80.6777 894.17C78.6399 895.205 76.6792 896.601 74.5166 897.178C73.124 897.553 71.403 896.764 69.839 896.483C70.5414 895.169 70.9068 893.377 72.0103 892.624C81.0209 886.353 90.1597 880.279 99.2506 874.123C99.6622 873.851 99.9135 873.348 99.7476 872.252C93.2181 875.99 86.7048 879.746 80.1592 883.468C74.0742 886.918 74.0746 886.886 70.1567 884.208C84.4604 873.839 98.5661 863.632 112.672 853.408C112.448 853.029 112.224 852.651 112.001 852.256C97.8436 860.063 83.6864 867.87 69.447 875.724C67.3462 871.387 70.624 870.432 72.7501 868.859C85.5889 859.419 98.4439 849.979 110.771 839.684C106.282 842.142 101.714 844.469 97.3371 847.108C88.1726 852.626 78.6706 857.715 70.0675 864.041C54.9546 875.134 40.3072 886.869 25.6922 898.622C20.2981 902.962 13.9014 905.233 9.76559 903.01C9.05197 902.625 8.53877 901.884 8.0225 901.387C8.24193 900.819 8.34625 900.314 8.46053 900.315C17.6889 900.105 22.7438 892.87 29.1893 888.019C41.0582 879.09 52.6223 869.732 64.7479 861.165C79.6908 850.609 94.7626 840.185 110.33 830.584C126.112 820.838 142.422 811.932 158.731 803.075C177.836 792.685 197.021 782.394 216.492 772.728C233.449 764.303 250.693 756.438 268.079 748.965C291.753 738.813 315.665 729.186 339.512 719.477C360.291 711.019 381.132 702.757 401.942 694.397C417.746 688.048 433.567 681.7 449.356 675.285C467.179 668.047 485.02 660.826 502.796 653.473C526.448 643.696 550.101 633.935 573.626 623.878C586.793 618.247 599.721 612.026 612.745 606.05C630.926 597.69 649.139 589.363 667.289 580.92C685.668 572.383 704.015 563.748 722.347 555.095C727.226 552.789 732.04 550.368 736.744 547.733C737.484 547.317 737.425 545.472 737.442 545.439C741.047 544.407 744.367 543.991 747.161 542.557C761.738 535.098 776.14 527.311 790.67 519.754C801.156 514.302 811.85 509.228 822.273 503.627C834.388 497.134 846.265 490.197 858.317 483.588C870.106 477.124 882.023 470.889 893.779 464.391C898.992 461.518 903.98 458.249 909.065 455.162C921.965 447.339 934.945 439.649 947.765 431.695C956.685 426.157 965.428 420.34 974.22 414.572C990.734 403.725 1007.41 393.125 1023.65 381.883C1038.56 371.555 1053.11 360.7 1067.52 349.68C1081.4 339.045 1094.92 327.916 1108.54 316.951C1117.65 309.62 1126.85 302.404 1135.68 294.743C1145.42 286.309 1154.73 277.38 1164.34 268.798C1172.33 261.665 1180.62 254.829 1188.54 247.63C1197.55 239.448 1206.31 231.002 1215.16 222.672C1228.1 210.523 1241.12 198.457 1253.94 186.208C1263.73 176.877 1273.3 167.315 1282.94 157.835C1291.29 149.612 1299.67 141.39 1307.93 133.068C1322.22 118.65 1336.62 104.315 1350.62 89.6322C1369.58 69.7212 1388.43 49.6946 1406.94 29.3697C1421.01 13.9366 1434.46 -2.05965 1448.31 -17.7242C1449.57 -19.1616 1451.63 -19.8867 1453.81 -20.3165C1398.15 47.0083 1337.6 109.602 1275.26 171.47C1276.67 171.096 1277.52 170.666 1278.34 170.709C1279.29 170.77 1280.59 171.015 1281 171.657C1281.36 172.216 1280.98 173.681 1280.43 174.328C1274.9 180.855 1269.3 187.316 1263.63 193.743C1262.07 195.52 1260.26 197.064 1258.64 198.808C1252.43 205.473 1246.25 212.172 1240.64 219.596C1243.06 217.847 1245.58 216.229 1247.88 214.331C1256.44 207.222 1264.86 199.964 1273.5 192.953C1274.66 192.02 1276.79 192.26 1278.46 191.97C1278.37 193.994 1279.07 196.632 1278.06 197.942C1273.08 204.443 1267.65 210.596 1262.83 217.426C1265.95 214.836 1269.03 212.23 1272.18 209.673C1273.21 208.853 1274.28 207.854 1275.49 207.543C1276.88 207.169 1278.43 207.466 1279.92 207.468C1279.46 208.85 1279.37 210.58 1278.46 211.548C1265.88 225.106 1253.19 238.565 1240.53 252.056C1240.18 252.411 1239.98 252.898 1240.19 253.799C1253.83 243.553 1267.44 233.306 1281.12 223.126C1281.54 222.821 1282.51 223.225 1284.68 223.465C1282.98 226.056 1282.04 228.2 1280.49 229.748C1272.33 237.826 1264.02 245.755 1256.1 254.064C1267.81 246.896 1277.84 237.275 1290.68 231.019C1292.31 236.101 1289.61 237.994 1287.41 240.007C1282.47 244.55 1277.44 248.977 1272.45 253.47L1273.14 254.377C1278.02 250.878 1282.8 247.232 1287.82 243.964C1289.71 242.731 1293.71 241.262 1294.08 241.79C1296.1 244.64 1293.36 246.467 1291.49 248.207C1285.24 254.006 1278.93 259.724 1272.88 265.771C1278.74 262.334 1284.59 258.897 1290.47 255.476C1291.09 255.109 1291.72 254.578 1292.39 254.488C1294.53 254.238 1297.7 253.2 1298.65 254.191C1301.1 256.786 1297.76 258.164 1296.21 259.663C1293.1 262.662 1289.83 265.511 1286.65 268.41C1286.97 268.789 1287.29 269.169 1287.61 269.548C1294.08 266.429 1300.56 263.31 1307.24 260.096C1304.32 253.936 1301.09 247.903 1298.51 241.584C1292.05 225.795 1284.09 210.509 1281.74 193.302C1281.39 190.701 1280.73 188.113 1280.7 185.516C1280.69 184.03 1281.62 182.539 1282.23 180.767C1283.23 187.034 1283.76 192.462 1285 197.702C1288.94 214.407 1296.47 229.687 1304.25 244.84C1309.24 254.57 1314.44 264.171 1319.41 273.9C1319.89 274.837 1319.51 276.204 1319.53 277.38C1318.38 276.891 1316.8 276.708 1316.16 275.851C1314.04 272.918 1312.25 269.744 1309.78 265.778C1307.74 268.757 1305.84 271.509 1303.95 274.277C1303.62 273.995 1303.3 273.714 1302.96 273.415L1305.41 273.446C1305.6 273.743 1305.81 274.023 1306 274.319C1300.69 278.269 1295.58 282.516 1290.05 286.136C1278.21 293.874 1266.18 301.316 1254.21 308.856C1252.88 309.704 1251.47 310.438 1249.28 310.508C1250.11 309.327 1250.91 308.128 1251.77 306.98C1259 297.339 1269.74 292.184 1279.2 285.396C1286.35 280.26 1293.32 274.862 1299.88 268.772C1293.74 271.65 1287.44 274.216 1281.52 277.473C1274.6 281.305 1267.99 285.712 1261.29 289.938C1257.71 292.212 1254.29 294.798 1250.63 296.923C1249.44 297.611 1247.68 297.262 1246.18 297.406C1246.73 296.025 1246.89 294.117 1247.89 293.329C1258.32 285.198 1268.9 277.281 1279.4 269.249C1281.68 267.498 1283.81 265.533 1285.54 263.024C1282.02 265.282 1278.43 267.441 1274.99 269.798C1265.33 276.453 1255.78 283.223 1246.09 289.845C1244.71 290.791 1242.91 291.144 1241.28 291.777C1240.88 291.265 1240.48 290.771 1240.06 290.275C1241.42 288.415 1242.55 286.29 1244.21 284.76C1250.38 279.138 1256.71 273.699 1262.49 267.502C1258.42 270.406 1254.35 273.31 1250.27 276.214C1248.47 277.482 1246.79 278.963 1244.85 279.951C1243.61 280.572 1242.02 280.438 1240.58 280.632C1240.89 279.068 1240.67 277.008 1241.61 276.007C1245.24 272.167 1249.22 268.657 1253.07 265.032C1255.03 263.179 1257.02 261.342 1258.45 258.878C1255.04 261.236 1251.63 263.609 1248.21 265.95C1247.12 266.688 1246.03 267.768 1244.83 267.933C1243.57 268.113 1241.91 267.7 1240.98 266.904C1240.52 266.523 1240.98 264.373 1241.64 263.516C1244.68 259.603 1247.94 255.856 1250.69 251.547C1244.94 255.785 1239.19 260.008 1233.98 263.845C1236.08 272.95 1238.24 281.729 1240.16 290.587C1242.07 299.494 1240.96 308.216 1237.8 316.748C1238.1 312.458 1238.51 308.185 1238.68 303.892C1239.06 293.659 1236.57 283.896 1233 274.446C1231.65 270.902 1232.27 265.946 1227.11 264.591C1226.92 264.539 1226.68 263.704 1226.82 263.363C1228.92 258.18 1225.04 254.31 1223.82 249.886C1222.74 245.938 1220.83 242.142 1220.27 238.15C1220.02 236.27 1221.75 233.76 1223.21 232.08C1231.03 223.149 1238.98 214.334 1247.01 205.585C1253.26 198.756 1259.7 192.094 1265.56 184.803C1261.05 188.404 1256.4 191.84 1252.06 195.622C1243.96 202.656 1235.98 209.855 1228.02 217.07C1222.07 222.449 1216.3 228.009 1210.37 233.405C1192.91 249.302 1175.5 265.281 1157.88 281.012C1145.1 292.412 1132.27 303.779 1118.96 314.551C1100.86 329.199 1082.33 343.302 1063.93 357.587C1055.44 364.175 1046.75 370.515 1038.39 377.252C1036.8 378.538 1036.64 381.459 1035.24 383.14C1029.42 390.153 1023.38 397 1016.52 404.948C1022.25 401.052 1026.96 397.813 1031.69 394.623C1034.37 392.828 1037.01 390.951 1039.83 389.419C1040.74 388.924 1042.19 389.448 1043.39 389.496C1043.26 390.735 1043.55 392.258 1042.94 393.148C1041.86 394.735 1040.21 395.938 1039.08 397.557C1044.46 395.388 1047.62 388.21 1056.53 391.457C1051.05 397.659 1046.26 403.085 1041.47 408.527C1041.54 408.659 1041.6 408.79 1041.66 408.922C1043.57 407.525 1045.44 406.014 1047.43 404.732C1049.41 403.467 1051.43 402.203 1053.61 401.43C1054.63 401.067 1056.49 401.434 1057.16 402.177C1057.71 402.788 1057.42 404.76 1056.81 405.634C1054.61 408.742 1051.98 411.533 1049.79 414.641C1048.54 416.405 1047.81 418.519 1047.41 420.8C1055.5 417.799 1060.71 410.745 1068.41 407.854C1068.84 408.268 1069.28 408.681 1069.71 409.095C1068.88 410.554 1068.35 412.344 1067.18 413.439C1060.14 420.111 1052.95 426.633 1045.97 433.55C1050.98 430.331 1056 427.112 1061 423.877C1064.92 421.346 1068.79 418.734 1072.82 416.368C1073.68 415.872 1075.12 416.364 1076.28 416.395C1076.07 417.552 1076.28 419.138 1075.6 419.783C1071.01 424.134 1066.22 428.286 1061.48 432.488C1060.44 433.422 1059.42 434.356 1058.38 435.29C1058.62 435.587 1058.84 435.884 1059.09 436.197C1066.58 430.74 1074.1 425.299 1081.7 419.761C1074.96 412.525 1067.92 405.905 1062.04 398.369C1056.34 391.063 1048.8 384.192 1050.27 372.797C1052.7 377.742 1054.11 382.707 1057.13 386.338C1065.24 396.025 1073.99 405.165 1082.6 414.433C1089.25 421.603 1096.13 428.564 1102.75 435.767C1104.62 437.799 1106.37 440.172 1107.35 442.716C1108.05 444.537 1108.13 447.363 1107.16 448.902C1104.51 453.081 1101.46 457.076 1098.02 460.609C1094.79 463.915 1090.79 466.445 1087.27 469.487C1074.02 480.946 1063.61 494.76 1054.33 509.518C1053.51 510.814 1051.27 512.631 1050.62 512.313C1049.11 511.575 1047.63 509.842 1047.13 508.203C1045.89 504.154 1045.29 499.918 1044.28 495.79C1040.55 480.656 1031.67 468.395 1022.45 456.229C1014.02 445.101 1005.93 433.7 998.128 422.155C995.595 418.417 994.363 413.78 992.349 409.101C973.7 420.852 954.46 432.971 935.104 445.153C937.429 447.273 937.748 449.154 935.119 451.718C930.821 455.893 927.007 460.564 922.255 464.537C926.365 462.303 930.396 459.871 934.633 457.916C936.193 457.201 938.279 457.603 940.125 457.496C939.403 459.054 939.068 461.058 937.879 462.121C932.661 466.758 927.201 471.114 922.094 476.03C926.499 473.685 930.842 471.16 935.374 469.094C936.787 468.459 938.771 469.088 940.485 469.142C939.894 470.67 939.706 472.643 938.615 473.658C934.187 477.783 929.47 481.577 924.913 485.553C924.038 486.325 923.452 487.429 923.447 489.159C933.038 484.79 942.629 480.436 952.22 476.066C950.751 470.79 948.634 465.163 947.694 459.354C946.831 454.037 943.438 448.573 946.413 443.108C946.87 443.081 947.312 443.037 947.769 443.01C948.302 446.087 948.933 449.132 949.352 452.223C950.905 463.705 955.788 474.054 960.54 484.384C965.532 495.191 971.081 505.761 976.615 516.297C979.262 521.343 982.533 526.054 985.345 531.021C986.192 532.501 986.43 534.333 986.869 535.726C960.137 542.428 936.955 555.052 914.297 568.809C912.224 570.073 910.775 572.341 908.796 573.835C907.659 574.686 906.04 574.91 904.629 575.415C904.415 574.237 904.054 573.073 904.037 571.897C903.823 562.914 904.443 553.826 903.298 544.962C901.973 534.707 899.488 524.569 896.822 514.558C894.717 506.678 891.547 499.078 888.934 491.321C887.974 488.468 887.276 485.536 886.791 483.849C889.6 482.48 891.846 481.789 893.626 480.457C900.813 475.109 907.871 469.581 914.945 464.086C915.687 463.507 916.268 462.747 916.464 461.427C907.606 467.292 898.731 473.14 889.872 479.005C898.355 469.282 910.005 463.485 920.173 454.746C885.05 474.274 850.584 493.419 815.822 512.739C827.031 517.371 828.189 527.884 830.827 537.519C833.809 548.399 834.584 559.479 833.969 570.722C833.164 585.342 828.12 598.227 818.575 609.325C814.747 613.783 810.79 618.159 806.655 622.336C805.828 623.175 803.953 622.971 802.561 623.248C802.465 621.826 801.929 620.252 802.37 619C802.81 617.732 804.21 616.802 804.868 615.08C800.31 616.623 795.751 618.182 791.012 619.788C791.76 620.026 792.475 620.263 793.711 620.671C792.654 621.588 791.796 622.345 790.904 623.134C791.032 623.331 791.127 623.561 791.288 623.726C792.207 624.669 793.159 625.595 794.095 626.521C793.022 627.39 792.059 628.684 790.83 629.044C781.718 631.656 772.56 634.055 763.434 636.553C752.734 639.488 742.065 642.604 731.303 645.309C727.945 646.149 724.134 646.721 720.877 645.978C715.993 644.839 720.093 642.099 720.625 640.064C722.009 640.359 723.518 641.146 724.73 640.818C727.663 640.038 730.471 638.751 733.375 637.661C732.042 634.607 732.477 632.441 736.421 631.788C738.826 631.394 741.172 630.542 743.5 629.787C756.78 625.48 770.045 621.157 783.309 616.833C771.841 618.567 760.495 620.988 749.117 623.327C744.598 624.249 740.05 625.009 735.516 625.85C734.106 626.338 733.282 628.238 732.053 629.823C728.883 633.931 726.452 638.946 720.64 640.179L720.526 640.112ZM392.327 761.697C402.299 763.358 412.271 765.002 423.27 766.822C415.107 762.8 407.87 759.231 400.859 755.779C398.108 757.753 395.273 759.791 392.472 761.83C389.607 763.753 386.741 765.677 383.563 767.808C391.617 770.098 399.248 772.267 406.895 774.437C405.217 772.816 403.053 772.185 401.371 770.906C397.926 768.299 391.655 768.335 392.343 761.681L392.327 761.697ZM799.921 521.651C802.301 520.603 804.636 519.359 807.111 518.59C808.373 518.197 809.918 518.707 811.321 518.806C810.619 520.054 810.238 521.829 809.169 522.469C794.426 531.379 779.571 540.123 764.781 548.951C764.057 549.383 763.589 550.209 762.993 550.855C766.103 550.257 768.731 549.066 771.343 547.809C783.302 542.065 795.214 536.254 807.237 530.674C808.813 529.943 810.979 530.427 813.854 530.317C810.397 539.025 802.362 540.427 796.871 544.684C791.133 549.135 784.495 552.399 778.259 556.191C778.386 556.437 778.514 556.684 778.658 556.93C794.73 550.079 810.802 543.211 826.906 536.343C826.467 534.949 826.016 533.164 825.319 531.457C823.672 527.387 822.404 523.044 820.033 519.422C818.447 516.985 814.652 513.59 812.882 514.106C808.162 515.5 804.006 518.779 799.631 521.304C798.664 521.618 797.632 521.818 796.728 522.28C780.096 530.872 763.463 539.464 746.878 548.154C745.908 548.664 745.321 549.931 744.558 550.852C745.786 550.606 747.174 550.64 748.242 550.065C759.915 543.762 771.539 537.377 783.164 530.976C788.771 527.895 794.33 524.748 799.921 521.634L799.921 521.651ZM747.732 558.142C751.155 554.772 754.577 551.402 757.983 548.033C757.904 547.852 757.824 547.688 757.745 547.507C753.93 549.647 750.115 551.787 746.267 553.943C746.735 555.631 747.11 556.974 747.485 558.318C747.606 562.973 748.265 567.701 747.734 572.282C746.563 582.31 744.805 592.281 743.292 602.157C748.43 600.033 753.912 597.8 759.362 595.501C771.51 590.363 772.859 589.531 774.85 585.703C768.845 587.995 763.478 590.197 757.969 592.038C756.444 592.541 754.557 591.93 752.844 591.827C753.808 590.451 754.486 588.532 755.801 587.782C765.57 582.238 775.467 576.893 785.348 571.531C789.048 569.52 792.843 567.673 796.59 565.745C790.303 567.07 784.351 569.069 778.636 571.626C776.206 572.722 774.396 575.132 772.107 576.655C770.559 577.68 768.691 578.212 766.967 578.974C766.794 575.837 764.886 578.246 763.907 578.184C763.042 578.124 762.112 579.419 761.213 579.424C759.907 579.408 758.609 578.771 757.324 578.412C758.023 577.359 758.466 575.895 759.436 575.303C762.184 573.64 765.14 572.305 768.016 570.856C770.431 569.645 771.791 568.029 770.272 565.43C764.246 565.501 759.676 571.828 752.344 569.27C753.624 567.507 754.297 565.882 755.5 565.016C758.812 562.641 762.285 560.464 765.805 558.402C773.635 553.797 781.529 549.325 789.391 544.786C788.405 544.055 787.896 544.212 787.404 544.435C777.383 549.207 767.346 553.98 757.342 558.785C753.958 560.424 750.656 561.934 747.667 558.141L747.732 558.142ZM1047.6 489.79C1048.6 494.881 1049.61 499.956 1050.72 505.57C1058.44 495.283 1065.65 485.658 1072.86 476.033C1066.35 480.278 1059.99 484.835 1053.84 489.657C1051.55 491.457 1049.68 492.103 1047.44 489.919C1049.85 486.52 1052.24 483.138 1054.4 480.095C1053.08 479.948 1051.55 479.782 1050 479.615C1050.47 478.184 1050.52 476.242 1051.51 475.389C1058.49 469.321 1065.75 463.566 1072.78 457.532C1079.23 451.996 1085.51 446.229 1091.85 440.577C1091.55 440.214 1091.26 439.851 1090.95 439.505C1083.21 444.926 1075.32 450.167 1067.77 455.852C1062.51 459.819 1057.81 464.528 1052.6 468.577C1051.32 469.573 1048.99 469.234 1047.14 469.521C1047.81 468.076 1048.19 466.383 1049.2 465.252C1052.68 461.361 1056.37 457.668 1060.37 453.473C1052.93 458.506 1047.14 465.716 1036.19 466.215C1041.22 455.812 1051.38 451.515 1056.92 443.306C1050.92 447.051 1045.17 451.045 1039.27 454.808C1038.27 455.448 1036.63 455.052 1035.27 455.133C1035.6 453.569 1035.48 451.69 1036.36 450.542C1037.73 448.714 1039.78 447.368 1042.1 445.307C1036.5 441.596 1034.2 448.931 1029.54 447.321C1027.03 441.656 1034.11 440.521 1035.74 435.953C1034.29 437.045 1033.27 437.783 1032.28 438.554C1029.85 440.467 1027.56 442.544 1024.99 444.227C1024.2 444.739 1022.69 444.181 1021.51 444.118C1021.64 442.993 1021.36 441.552 1021.96 440.809C1025.28 436.703 1028.58 432.532 1032.33 428.84C1034.91 426.292 1036.09 423.955 1034.01 420.076C1026.95 425.653 1020.01 431.166 1013.03 436.679C1015.22 439.646 1017.27 442.693 1019.6 445.53C1030.81 459.126 1041.07 473.298 1047.63 489.84L1047.6 489.79ZM491.034 692.824C488.367 694.521 486.305 696.259 483.941 697.241C473.977 701.378 463.919 705.301 453.809 709.337C454.2 709.408 454.493 709.526 454.755 709.48C462.674 708.159 470.565 706.56 478.529 705.615C481.407 705.276 484.478 706.49 487.476 706.985C486.336 710.661 482.874 710.699 480.055 711.464C471.585 713.725 463.069 715.757 454.551 717.887C459.902 718.297 465.198 717.825 470.471 717.924C472.316 717.947 475.241 719.029 475.731 720.341C476.741 723.097 473.733 723.386 471.867 723.787C464.728 725.314 457.56 726.644 450.421 728.171C449.209 728.433 448.122 729.219 446.988 729.777C449.504 730.968 451.9 731.308 454.296 731.648C461.223 732.634 468.152 733.537 475.044 734.702C476.038 734.877 476.837 736.275 477.724 737.119C476.848 737.941 476.1 739.042 475.065 739.503C474.063 739.963 472.759 739.816 471.583 739.867C464.018 740.196 456.438 740.493 447.747 740.857C449.277 741.252 449.782 741.34 450.253 741.509C457.649 744.198 465.111 746.774 472.39 749.723C473.722 750.263 474.397 752.394 475.375 753.794C473.603 754.474 471.69 755.968 470.094 755.671C464.473 754.669 458.991 753 453.423 751.722C451.469 751.273 449.429 751.214 447.424 750.977C447.402 751.401 447.364 751.825 447.342 752.249C455.724 755.751 464.105 759.253 472.844 762.906C473.49 762.212 474.594 761.377 475.229 760.275C481.472 749.397 486.057 737.992 487.474 725.338C488.651 714.789 490.482 704.296 492.23 693.802C492.796 690.364 494.03 687.032 495.228 682.671C488.101 685.831 482.141 688.467 475.852 691.261C480.805 692.14 485.505 687.121 491.051 692.791L491.034 692.824ZM981.231 533.565C971.569 515.025 962.688 497.964 953.744 480.772C946.21 486.507 938.659 492.273 931.092 498.024C931.316 498.337 931.541 498.65 931.766 498.963C934.725 497.367 937.574 495.477 940.691 494.275C943.497 493.2 946.572 490.152 950.255 494.673C938.161 503.322 926.265 511.81 914.385 520.298C915.749 520.887 916.764 520.687 917.683 520.291C929.997 514.943 942.279 509.513 954.657 504.28C955.675 503.852 957.248 504.705 958.567 504.966C957.98 506.216 957.698 507.813 956.741 508.617C954.876 510.21 952.609 511.325 950.534 512.67C946.402 515.362 942.269 518.069 938.137 520.777C938.313 521.089 938.488 521.402 938.68 521.714C939.83 521.223 940.979 520.682 942.144 520.239C945.803 518.832 949.431 517.326 953.152 516.132C953.972 515.865 955.63 516.441 956.014 517.132C956.429 517.872 956.099 519.402 955.534 520.195C954.719 521.361 953.467 522.259 952.281 523.094C948.706 525.629 945.066 528.081 941.443 530.566C943.598 530.594 945.321 529.897 947.028 529.167C952.693 526.724 958.293 524.133 964.052 521.935C965.381 521.43 967.215 522.318 968.829 522.551C967.93 523.911 967.335 525.765 966.084 526.566C961.015 529.768 955.769 532.673 950.556 535.612C945.096 538.679 939.605 541.663 933.11 545.255C934.76 545.178 935.2 545.249 935.577 545.123C947.192 540.795 958.792 536.402 970.455 532.172C971.816 531.683 973.544 531.901 975.044 532.116C976.967 532.385 978.838 532.98 981.263 533.549L981.231 533.565ZM812.694 608.271C831.03 590.165 832.266 567.19 827.776 542.526C819.501 547.37 811.441 552.085 803.397 556.801C805.978 556.752 808.39 555.786 810.875 555.556C812.543 555.397 814.311 556.285 816.037 556.715C815.168 558.239 814.668 560.372 813.368 561.172C807.032 565.076 800.505 568.668 793.977 572.243C791.906 573.377 789.61 574.115 787.411 575.035C787.569 575.429 787.744 575.823 787.902 576.217C793.284 574.096 798.651 571.976 804.033 569.872C809.218 567.831 814.325 565.56 819.636 563.945C821.226 563.459 823.381 564.808 825.285 565.306C824.417 566.781 823.871 568.668 822.618 569.616C820.227 571.447 817.451 572.784 814.771 574.236C808.606 577.604 802.408 580.906 796.227 584.241C796.942 584.511 797.482 584.371 798.007 584.23C803.611 582.652 809.2 580.975 814.867 579.609C815.817 579.376 817.077 580.453 818.198 580.908C817.531 581.961 817.105 583.393 816.151 583.985C813.55 585.618 810.774 586.987 807.998 588.291C801.016 591.6 794.004 594.81 787.007 598.069C788.405 598.511 789.55 598.346 790.649 598.001C797.206 595.944 803.716 593.74 810.32 591.88C811.5 591.552 813.055 592.551 814.438 592.928C813.657 593.996 813.131 595.573 812.08 596.066C806.676 598.627 801.192 601.024 795.644 603.289C786.748 606.932 777.789 610.412 768.861 613.974C783.404 613.177 797.211 607.195 812.71 608.271L812.694 608.271ZM264.401 834.938C264.308 834.594 264.23 834.25 264.137 833.906C247.257 838.74 230.41 843.622 213.5 848.324C212.238 848.668 210.633 847.766 209.2 847.438C209.952 846.108 210.402 844.056 211.519 843.548C222.817 838.448 234.211 833.546 245.62 828.726C253.27 825.491 260.998 822.469 268.68 819.349C265.677 819.214 262.927 819.702 260.304 820.567C242.168 826.625 224.128 832.897 205.93 838.742C201.831 840.062 200.466 842.151 200.317 846.15C200.093 852.303 199.281 858.432 198.991 864.601C198.721 870.476 198.794 876.372 198.707 883.326C218.642 875.691 237.593 868.45 256.527 861.194C256.369 860.751 256.228 860.308 256.07 859.882C248.6 861.78 241.067 863.514 233.644 865.625C224.549 868.221 215.595 871.292 206.484 873.823C204.698 874.323 202.49 873.316 200.47 872.996C200.413 872.261 200.357 871.542 200.301 870.806C209.593 866.841 218.885 862.859 228.177 858.894C221.85 859.549 215.905 860.911 209.899 861.979C208.966 862.147 207.79 860.907 206.72 860.306C207.452 859.237 207.962 857.644 208.963 857.183C216.403 853.798 223.985 850.71 231.457 847.391C233.394 846.534 235.11 845.167 237.101 843.935C237.132 844.033 237.353 844.673 237.589 845.394C246.597 841.883 255.508 838.402 264.418 834.922L264.401 834.938ZM102.988 919.727C103.181 919.958 103.374 920.189 103.567 920.42C112.588 914.606 121.626 908.793 129.824 903.508C128.739 888.455 127.683 873.795 126.624 859.282C119.211 864.463 111.535 869.836 103.842 875.193C110.024 873.067 115.759 870.232 121.62 867.694C122.736 867.218 124.345 867.858 125.715 867.99C125.175 869.355 125.006 871.084 124.032 871.986C122.181 873.71 119.896 874.955 117.788 876.398C118.582 876.881 119.007 876.821 119.432 876.745C121.576 876.38 123.556 872.159 125.552 875.744C126.159 876.829 123.279 879.863 121.963 881.986C121.846 882.18 121.405 882.158 121.191 882.335C116.77 885.904 112.365 889.49 107.944 893.076C111.305 892.024 114.056 890.083 117.077 888.766C118.653 888.083 121.483 887.678 122.403 888.555C124.613 890.673 122.147 891.981 120.596 893.317C115.858 897.404 111.185 901.542 105.621 906.42C107.8 905.827 108.786 905.317 109.749 905.378C111.103 905.46 113.402 905.701 113.558 906.324C113.9 907.651 113.291 909.325 112.735 910.738C112.448 911.47 111.479 911.915 110.835 912.511C108.224 914.911 105.614 917.311 102.988 919.711L102.988 919.727ZM414.518 748.669C417.466 744.052 420.561 745.969 422.529 746.598C425.347 744.51 427.457 742.937 429.748 741.235C426.45 739.887 423.965 738.86 421.366 737.798C424.609 731.814 429.877 737.497 433.701 734.622C430.526 733.88 427.759 733.225 424.991 732.57C424.999 731.949 425.007 731.313 425.015 730.692C433.791 726.165 444.105 726.638 454.277 722.765C450.081 722.713 447.01 722.837 443.944 722.57C442.133 722.417 440.031 722.08 438.722 721.019C438.075 720.488 438.938 718.115 439.047 717.202C437.11 716.736 435.27 716.305 432.617 715.668C427.092 729.102 417.281 740.555 406.097 750.898C413.81 752.987 420.954 754.905 428.57 756.977C423.691 754.107 419.234 751.471 414.517 748.701L414.518 748.669ZM1035.18 409.085C1034.71 408.606 1034.23 408.126 1033.76 407.647C1027.16 412.74 1020.63 417.948 1013.89 422.86C1012.74 423.694 1010.7 423.326 1009.07 423.501C1009.62 422.022 1009.81 420.212 1010.8 419.131C1014.98 414.562 1019.37 410.209 1023.69 405.773C1018.34 408.4 1013.62 411.851 1008.59 414.727C1006.88 415.701 1004.37 415.262 1002.21 415.463C1003.02 413.693 1003.44 411.56 1004.7 410.204C1009.76 404.683 1015.09 399.394 1020.33 394.007C1020.09 393.726 1019.86 393.446 1019.62 393.181C1018.85 393.661 1018.03 394.092 1017.28 394.621C1011.5 398.892 1005.97 403.574 999.882 407.318C996.887 409.175 996.573 410.771 998.011 413.255C1001.69 419.539 1005.55 425.727 1010.09 433.213C1019.03 424.623 1027.11 416.854 1035.2 409.085L1035.18 409.085ZM1267.68 203.951C1267.38 203.669 1267.09 203.404 1266.78 203.123C1265.35 204.133 1263.83 205.013 1262.51 206.155C1250.18 216.793 1237.86 227.464 1225.6 238.201C1224.97 238.748 1224.38 240.015 1224.59 240.703C1225.31 243.227 1226.37 245.657 1227.08 247.543C1240.6 233.034 1254.16 218.493 1267.7 203.934L1267.68 203.951ZM924.256 544.295C921.381 545.679 918.601 547.31 915.6 548.317C914.19 548.789 912.386 548.064 910.756 547.897C911.524 546.519 911.971 544.728 913.125 543.845C916.143 541.499 919.466 539.565 922.644 537.417C926.646 534.707 930.6 531.932 934.586 529.174C934.426 528.911 934.25 528.631 934.09 528.368C925.137 532.664 916.2 536.96 907.937 540.938C908.365 549.728 908.783 558.012 909.185 566.345C917.474 561.551 925.468 556.916 933.462 552.297C926.42 553.94 919.861 557.466 911.97 556.534C913.145 548.76 920.738 548.774 924.272 544.328L924.256 544.295ZM934.131 490.045C933.987 489.814 933.843 489.6 933.682 489.37C927.406 492.475 921.161 495.629 914.853 498.669C910.778 500.642 906.672 502.55 902.487 504.244C901.601 504.609 899.825 504.293 899.295 503.633C898.812 503.023 899.08 501.23 899.677 500.47C900.922 498.869 902.555 497.551 904.123 496.215C908.085 492.836 912.078 489.506 916.072 486.16C915.847 485.88 915.605 485.599 915.38 485.302C908.766 489.318 902.168 493.317 895.8 497.188C897.96 503.289 900.089 509.276 901.855 514.246C912.62 506.168 923.367 498.106 934.131 490.045ZM123.354 928.474C123.129 928.161 122.904 927.864 122.679 927.551C101.872 939.65 82.9393 954.516 63.4125 968.623C64.058 970.526 64.6407 972.231 64.9237 973.1C84.3784 958.241 103.866 943.349 123.337 928.474L123.354 928.474ZM261.151 797.358C261.089 797.112 261.01 796.866 260.948 796.637C258.327 797.274 255.691 797.845 253.102 798.579C245.253 800.799 237.419 803.052 229.601 805.37C228.175 805.793 226.802 807.213 225.497 807.099C216.396 806.315 211.237 810.12 209.739 818.886C226.794 811.736 243.964 804.555 261.135 797.358L261.151 797.358ZM1084.63 421.676C1076.13 431.121 1067.8 440.373 1061.44 447.428C1064.14 445.601 1069.36 442.091 1074.55 438.531C1077.93 436.206 1081.18 433.699 1084.65 431.539C1085.44 431.042 1086.92 431.649 1088.06 431.745C1087.82 432.852 1087.88 434.159 1087.28 435.017C1086.44 436.248 1085.1 437.145 1083.98 438.176C1084.17 438.44 1084.36 438.703 1084.56 438.983C1087.86 437 1091.17 435.017 1094.81 432.842C1091.7 429.439 1088.65 426.103 1084.61 421.676L1084.63 421.676ZM739.147 615.004C753.205 608.568 766.656 602.402 780.09 596.251C779.931 595.858 779.773 595.464 779.615 595.07C778.649 595.27 777.668 595.356 776.75 595.671C766.765 598.941 756.811 602.294 746.795 605.434C745.352 605.889 743.596 605.312 741.719 605.19C741.068 607.664 740.193 611.017 739.147 615.004ZM1072.49 469.023C1072.84 469.436 1073.18 469.848 1073.53 470.277C1081.36 464.84 1089.42 459.7 1096.93 453.851C1103.26 448.934 1103.54 446.015 1100.14 439.539C1100.03 439.309 1099.71 439.19 1100 439.406C1098.24 440.413 1096.59 441.356 1094.5 442.538C1098.82 444.682 1098.78 446.641 1096.22 448.797C1093.96 450.711 1091.64 452.527 1089.39 454.442C1083.73 459.286 1078.1 464.163 1072.45 469.023L1072.49 469.023ZM98.2482 936.927C99.1282 937.069 99.4853 937.236 99.6663 937.124C108.42 931.846 117.045 926.37 125.91 921.273C133.772 916.767 134.219 916.217 131.338 909.029C120.314 918.312 109.438 927.483 98.2482 936.927ZM217.783 801.189C232.625 794.778 247.154 788.511 261.668 782.244C258.3 782.545 255.137 783.452 252.022 784.507C243.724 787.309 235.552 790.505 227.146 792.897C222.508 794.21 219.41 796.474 217.767 801.205L217.783 801.189ZM248.294 832.94C248.292 833.07 248.29 833.201 248.289 833.315C259.525 830.583 270.777 827.85 282.013 825.118L282.095 818.571C270.768 823.393 259.539 828.166 248.31 832.94L248.294 832.94ZM905.427 528.856C906.002 531.198 906.593 533.541 907.183 535.965C916.173 530.036 924.866 524.3 933.544 518.563C933.415 518.382 933.287 518.201 933.142 518.02C924.002 521.595 914.863 525.154 905.411 528.856L905.427 528.856ZM203.022 832.337C213.55 827.441 222.682 823.196 231.831 818.951C231.688 818.59 231.53 818.213 231.387 817.852C223.374 820.167 215.343 822.499 207.329 824.815C207.155 824.421 206.98 824.027 206.822 823.633C205.695 826.215 204.585 828.781 203.038 832.338L203.022 832.337ZM435.374 711.963C445.254 707.94 454.872 704.011 464.49 700.099C456.735 701.324 449.228 703.581 441.569 704.971C437.281 705.749 435.186 707.421 435.374 711.963ZM807.158 549.925C807.013 549.76 806.868 549.595 806.707 549.429C796.119 553.884 785.515 558.323 774.958 562.876C774.235 563.194 773.925 564.48 773.425 565.306C774.351 565.661 775.565 566.574 776.156 566.272C786.527 560.916 796.834 555.412 807.141 549.941L807.158 549.925ZM254.213 843.987C254.341 844.201 254.468 844.431 254.596 844.645C263.589 842.39 272.566 840.136 281.87 837.803C281.949 836.678 282.069 834.948 282.227 832.713C272.61 836.593 263.403 840.298 254.213 843.987ZM1250.27 235.295C1250.08 235.08 1249.89 234.865 1249.69 234.651C1249.02 235.05 1248.3 235.384 1247.7 235.883C1242.64 240.081 1237.67 244.362 1232.52 248.461C1231.37 249.377 1229.71 249.667 1228.06 250.348C1228.74 252.006 1229.59 254.058 1230.45 256.175C1237.25 249.01 1243.75 242.152 1250.26 235.311L1250.27 235.295ZM226.306 784.347C226.595 784.775 226.883 785.219 227.188 785.648C239.121 780.736 251.07 775.824 263.002 770.913C259.324 771.291 255.865 772.309 252.486 773.54C245.81 775.954 239.15 778.418 232.537 781.012C230.354 781.867 228.378 783.23 226.322 784.363L226.306 784.347ZM904.141 523.321C910.473 518.469 916.54 513.827 922.607 509.168C922.496 508.97 922.4 508.773 922.288 508.576C915.912 511.859 909.551 515.143 902.961 518.538C903.287 519.848 903.707 521.536 904.141 523.321ZM469.001 768.556C468.957 768.164 468.913 767.772 468.869 767.379C460.999 764.717 453.13 762.07 445.26 759.408C451.597 763.21 458.036 766.655 464.643 769.71C465.698 770.197 467.526 768.979 469.001 768.556ZM617.376 679.26C621.123 677.381 624.738 675.565 628.435 673.717C626.712 669.156 623.863 672.419 622.096 672.674C619.25 673.079 616.421 674.725 617.392 679.277L617.376 679.26ZM893.24 491.653C898.141 487.633 902.909 483.708 907.677 479.801C907.5 479.57 907.324 479.339 907.147 479.108C902.015 482.113 896.882 485.135 891.651 488.204C892.159 489.337 892.525 490.109 893.224 491.653L893.24 491.653ZM641.233 667.494C641.011 666.985 640.789 666.476 640.566 665.983C636.597 667.37 632.628 668.773 628.233 670.302C629.101 671.39 629.869 672.657 630.066 672.562C633.825 670.96 637.521 669.21 641.233 667.494ZM445.09 745.69C445.129 745.167 445.184 744.662 445.224 744.14C440.277 744.078 435.684 740.575 430.587 742.062C430.531 742.567 430.476 743.073 430.421 743.578C435.31 744.277 440.184 744.991 445.073 745.689L445.09 745.69ZM435.471 734.089C435.465 734.596 435.442 735.118 435.419 735.624L452.692 735.841C452.694 735.661 452.696 735.498 452.699 735.319C446.956 734.903 441.214 734.488 435.488 734.073L435.471 734.089ZM1036.25 422.21C1036.71 422.265 1037.17 422.32 1037.62 422.375C1039.08 420.646 1040.53 418.917 1041.98 417.188L1041.25 415.905C1039.51 416.798 1037.56 417.475 1036.12 418.731C1035.57 419.214 1036.17 421.017 1036.25 422.227L1036.25 422.21ZM430.677 764.76L431.285 763.118C427.238 761.614 423.175 760.11 419.128 758.622C418.976 759.012 418.84 759.402 418.689 759.792C422.685 761.442 426.681 763.109 430.693 764.76L430.677 764.76ZM786.672 583.124C786.368 582.598 786.065 582.072 785.761 581.545C782.919 582.947 780.093 584.348 777.25 585.733C777.489 586.209 777.728 586.686 777.983 587.163C780.891 585.811 783.781 584.46 786.689 583.108L786.672 583.124Z" fill="white"/>
<path d="M1138.85 321.97C1143.75 318.161 1148.68 314.402 1153.54 310.545C1157.7 307.25 1161.74 303.806 1165.9 300.495C1166.68 299.868 1167.71 299.211 1168.63 299.19C1169.82 299.172 1171.46 299.471 1172.06 300.262C1172.56 300.921 1172.21 302.844 1171.54 303.636C1167.93 307.884 1164.11 311.951 1160.36 316.084C1159.09 317.489 1157.88 318.959 1156.7 320.316C1158.12 323.208 1159.37 322.375 1161.12 320.813C1165.28 317.093 1169.57 313.473 1174.03 310.084C1175 309.345 1176.87 309.76 1178.33 309.632C1178 310.999 1178.11 312.764 1177.26 313.635C1173.06 317.991 1168.55 322.033 1164.3 326.339C1162.81 327.839 1161.82 329.819 1160.59 331.583C1161.01 331.931 1161.43 332.263 1161.84 332.611C1164.73 329.986 1167.62 327.344 1170.54 324.769C1171.96 323.513 1173.3 321.995 1174.98 321.265C1176.55 320.582 1178.51 320.803 1180.31 320.613C1179.54 322.204 1179.11 324.109 1177.95 325.303C1172.65 330.771 1167.22 336.108 1161.7 341.329C1159.07 343.81 1156.09 345.928 1153.28 348.228C1153.62 348.608 1153.94 348.987 1154.28 349.367C1157.89 346.833 1161.67 344.529 1165.07 341.73C1170.5 337.259 1175.64 332.425 1180.99 327.839C1181.94 327.018 1183.26 326.3 1184.49 326.136C1186.76 325.854 1188.51 326.513 1187.01 329.368C1186.34 330.633 1185.65 331.98 1184.66 332.963C1177.16 340.364 1169.57 347.665 1162.03 355.033C1161.78 355.274 1161.76 355.748 1161.37 356.902C1168.18 351.387 1174.39 346.371 1180.59 341.354C1183.1 339.328 1185.44 337.039 1188.16 335.359C1189.33 334.639 1191.26 335.137 1192.85 335.075C1192.39 336.473 1192.35 338.285 1191.42 339.188C1181.31 349.054 1171.05 358.771 1160.85 368.538C1155.94 373.244 1151.08 378 1146.2 382.723C1146.48 383.069 1146.76 383.416 1147.04 383.762C1163.42 370.546 1179.8 357.314 1196.16 344.097C1196.75 344.611 1197.31 345.108 1197.89 345.621C1196.71 347.501 1195.85 349.727 1194.29 351.226C1187.83 357.48 1181.17 363.536 1174.58 369.658C1174.81 369.938 1175.03 370.235 1175.26 370.515C1177.68 368.619 1180.14 366.772 1182.51 364.826C1187.64 360.613 1192.63 356.201 1197.92 352.235C1199.32 351.175 1202.71 350.466 1203.41 351.226C1205.5 353.506 1203.05 354.52 1201.32 356.115C1192.25 364.475 1183.6 373.265 1174.59 381.692C1163.13 392.455 1151.45 402.987 1139.92 413.668C1139.08 414.441 1138.73 415.858 1137.81 416.434C1136.74 417.09 1135.29 417.153 1134.01 417.464C1134.09 416.191 1133.66 414.373 1134.33 413.728C1138.46 409.829 1142.84 406.177 1147.13 402.459C1149.09 400.753 1151.09 399.097 1152.54 396.698C1149.54 398.816 1146.66 401.131 1143.48 402.936C1142.08 403.735 1140.11 403.498 1138.39 403.737C1138.79 402.142 1138.73 400.166 1139.68 399.018C1142.68 395.382 1145.96 391.962 1149.34 388.69C1150.47 387.61 1152.25 387.24 1153.75 386.541L1151.99 384.657C1145.11 389.387 1138.22 394.118 1131.5 398.736C1132.18 403.072 1132.89 407.603 1133.6 412.135C1133.13 412.195 1132.65 412.254 1132.16 412.313C1124.29 382.97 1113.82 354.198 1111.73 323.555C1112.2 323.365 1112.68 323.159 1113.14 322.969C1113.88 323.974 1114.6 324.963 1115.45 326.133C1115.45 326.133 1115.88 325.975 1116.01 325.699C1119.9 317.469 1127.1 312.302 1133.58 306.391C1142.28 298.45 1150.68 290.163 1159.34 282.173C1160.16 281.4 1161.89 281.601 1163.19 281.34C1162.76 282.673 1162.74 284.404 1161.85 285.274C1154.14 292.836 1146.28 300.215 1138.48 307.677C1137.9 308.225 1137.46 308.905 1137.59 310.197C1143.12 305.482 1148.67 300.784 1154.18 296.053C1156.76 293.848 1159.08 291.298 1161.89 289.488C1163.37 288.543 1165.67 288.882 1167.6 288.645C1166.99 290.238 1166.79 292.227 1165.7 293.373C1157.94 301.456 1150.01 309.39 1142.06 317.291C1140.77 318.581 1139.08 319.458 1137.56 320.533L1138.87 321.921L1138.85 321.97ZM1120.95 353.83C1127.74 345.914 1134.5 338.129 1141.1 330.211C1141.78 329.403 1141.47 327.766 1141.71 325.712C1134.42 331.172 1128.45 336.192 1121.92 340.338C1117.41 343.188 1118.13 346.43 1119.42 350.235C1119.83 351.448 1120.42 352.615 1120.95 353.846L1120.95 353.83ZM1127.75 383.928C1134.77 376.488 1141.77 369.049 1148.77 361.626C1147.4 361.772 1146.51 362.43 1145.65 363.122C1140.77 367.077 1136.17 371.493 1130.9 374.872C1127 377.37 1125.23 379.618 1127.75 383.944L1127.75 383.928ZM1145.9 376.792C1145.8 376.644 1145.71 376.495 1145.61 376.347C1140.06 380.474 1134.5 384.6 1128.62 388.968C1128.86 389.526 1129.52 391.134 1130.28 392.908C1135.56 387.471 1140.72 382.131 1145.9 376.792ZM1117.49 336.135C1122.71 330.698 1127.41 325.761 1132.12 320.84C1131.94 320.658 1131.78 320.476 1131.61 320.295C1126.69 323.972 1121.77 327.649 1116.36 331.712C1116.53 332.4 1116.93 333.94 1117.49 336.152L1117.49 336.135ZM1122.52 365.051C1127.18 359.542 1131.52 354.404 1135.86 349.266C1135.75 349.199 1135.65 349.116 1135.54 349.05C1131.05 352.455 1126.59 355.86 1121.79 359.507C1121.94 360.652 1122.21 362.614 1122.54 365.051L1122.52 365.051ZM1146.29 331.893C1146.71 332.192 1147.11 332.491 1147.53 332.79C1150.57 330.053 1153.61 327.315 1157.21 324.078C1155.49 323.501 1154.08 322.716 1153.81 322.99C1151.2 325.864 1148.77 328.903 1146.29 331.893Z" fill="white"/>
<path d="M1349.54 124.53C1341.48 130.747 1333.45 136.982 1325.34 143.134C1323.49 144.531 1321.55 145.976 1319.4 146.749C1318.15 147.191 1316.45 146.32 1314.95 146.04C1315.36 144.739 1315.42 143.156 1316.24 142.203C1319.24 138.632 1322.5 135.277 1325.23 131.18C1323.07 132.524 1320.9 133.869 1318.26 135.517C1321.54 131.966 1324.31 128.915 1327.14 125.93C1335.44 117.168 1343.72 108.389 1352.15 99.7594C1353.35 98.5497 1355.41 98.2001 1357.08 97.4374C1356.75 99.3763 1357.08 101.846 1355.98 103.155C1348.29 112.447 1340.32 121.507 1332.43 130.65C1331.95 131.215 1331.52 131.814 1331.23 132.627C1344.65 123.848 1355.7 111.626 1370.7 104.94C1369.08 114.897 1360.03 119.012 1355.27 127.263C1356.93 126.762 1358.87 126.672 1360.17 125.708C1364.06 122.851 1367.63 119.548 1371.47 116.609C1372.84 115.564 1374.66 115.097 1376.61 114.208C1378.44 119.782 1374.3 121.853 1372.08 124.421C1367.1 130.204 1361.58 135.507 1356.34 141.058C1355.69 141.752 1355.39 142.777 1355.4 144.181C1359.67 140.741 1363.93 137.316 1368.2 133.892C1370.39 132.14 1372.59 130.371 1374.8 128.668C1377.3 126.724 1379.61 126.524 1381.7 130.029C1374.72 138.791 1367.64 147.699 1360.55 156.607C1360.79 156.904 1361.05 157.217 1361.31 157.515C1362.3 156.743 1363.35 156.038 1364.28 155.201C1372.09 148.098 1379.82 140.896 1387.75 133.909C1388.77 132.992 1390.71 133.114 1392.22 132.741C1392.15 134.553 1392.8 136.945 1391.89 138.076C1386.68 144.575 1381.07 150.742 1375.65 157.091C1374.77 158.125 1374.23 159.441 1374.02 161.071C1380.66 155.652 1387.33 150.249 1393.98 144.83C1396.19 143.029 1398.74 139.73 1401.41 142.131C1404.35 144.781 1400.21 146.851 1398.95 149.04C1398.24 150.288 1397.03 151.253 1396.02 152.334C1387 161.985 1377.96 171.62 1369.57 181.997C1373.14 178.989 1376.78 176.063 1380.25 172.938C1389.99 164.129 1399.63 155.188 1409.44 146.445C1410.41 145.592 1412.33 145.796 1413.81 145.52C1413.57 147.216 1413.92 149.392 1413.01 150.539C1409.46 154.953 1405.52 159.05 1401.71 163.248C1401.99 163.513 1402.26 163.761 1402.54 164.026C1403.53 162.928 1404.44 161.747 1405.53 160.732C1407.71 158.702 1409.4 156.095 1413.43 157.452C1415.02 157.978 1417.48 155.837 1419.58 155.015C1420.57 154.635 1421.65 154.502 1422.79 154.728C1411.03 162.141 1401.86 172.051 1392.76 182.077C1389.53 185.628 1385.75 188.699 1382.75 192.401C1380.71 194.923 1379 198.02 1378.12 201.127C1376.7 206.123 1375.82 211.32 1375.26 216.489C1374.89 219.897 1372.92 222.142 1370.23 222.141C1367.53 222.14 1363.69 220.981 1362.35 218.972C1358.11 212.698 1355.35 205.429 1351.05 199.219C1345.97 191.857 1339.9 185.183 1334.24 178.222C1328.61 171.293 1322.96 164.364 1317.29 157.467C1315.32 155.075 1313.18 152.843 1311.25 150.435C1310.59 149.61 1310.3 148.513 1310.63 146.868C1314.17 149.737 1317.71 152.606 1321.04 155.31C1330.58 145.224 1340.28 134.994 1349.98 124.764C1349.83 124.664 1349.67 124.564 1349.53 124.48L1349.54 124.53ZM1378.29 164.276C1378.14 164.078 1377.98 163.896 1377.84 163.699C1374.16 166.69 1370.49 169.746 1366.77 172.671C1363.67 175.114 1360.6 177.688 1357.21 179.654C1355.96 180.373 1353.8 179.513 1352.05 179.376C1352.51 177.994 1352.61 176.33 1353.47 175.28C1355.6 172.677 1358.08 170.373 1360.36 167.904C1363.57 164.434 1366.73 160.914 1369.93 157.411C1369.67 157.163 1369.4 156.898 1369.14 156.65C1364.61 160.887 1360.15 165.207 1355.54 169.362C1352.5 172.083 1349.35 174.705 1346.04 177.08C1345.28 177.626 1343.18 177.371 1342.55 176.693C1341.92 176 1341.94 174.138 1342.41 173.132C1343.34 171.2 1344.7 169.438 1346.04 167.724C1352.6 159.381 1359.18 151.103 1365.77 142.793C1365.67 142.71 1365.58 142.628 1365.5 142.561C1354.66 151.291 1343.8 160.021 1332.78 168.896C1339.28 176.832 1346.39 185.51 1353.11 193.726C1361.63 183.759 1369.98 174.018 1378.32 164.293L1378.29 164.276ZM1355.9 197.582C1357.85 201.134 1360.02 205.08 1362.29 209.223C1364.43 206.54 1366.5 203.937 1368.76 201.075C1365.07 199.575 1365.56 197.394 1367.42 195.049C1368.41 193.788 1369.46 192.544 1370.5 191.316C1374.06 187.197 1377.62 183.078 1381.19 178.975C1372.54 184.794 1365.58 192.642 1355.89 197.582L1355.9 197.582ZM1330.21 166.039C1336.26 155.746 1345.6 148.206 1352.24 138.525C1343.22 145.628 1334.2 152.732 1325.19 159.836C1327.04 162.129 1328.78 164.274 1330.21 166.039ZM1363.34 211.229C1363.99 212.641 1364.43 214.328 1365.44 215.517C1366.3 216.524 1367.83 216.951 1369.06 217.636C1369.61 216.582 1370.42 215.596 1370.68 214.472C1371.56 210.597 1372.23 206.67 1373.09 202.191C1369.67 205.365 1366.68 208.136 1363.34 211.245L1363.34 211.229Z" fill="white"/>
<path d="M667.715 683.339C665.657 671.671 663.038 659.261 661.399 646.749C659.759 634.286 659.118 621.689 657.969 609.166C657.725 606.534 657.104 603.93 656.958 601.3C656.891 600.107 657.511 598.874 657.82 597.653C658.754 598.693 660.245 599.594 660.508 600.773C661.372 604.768 661.892 608.857 662.363 612.928C664.025 627.498 665.343 642.129 667.299 656.653C668.33 664.292 670.457 671.781 672.076 679.345C672.708 682.324 673.389 685.305 673.857 688.315C674.341 691.375 672.394 692.999 670.062 691.452C667.909 690.004 666.77 687.034 665.199 684.728C666.12 684.234 667.04 683.739 667.731 683.356L667.715 683.339Z" fill="white"/>
<path d="M1210.76 352.298C1210.01 351.668 1209.07 351.167 1208.54 350.392C1199.61 337.511 1190.6 324.694 1181.89 311.652C1175.1 301.459 1171.21 290.274 1171.98 277.793C1172.03 276.96 1172.35 276.148 1173.5 275.199C1173.93 277.458 1174.83 279.755 1174.69 281.958C1173.76 295.27 1181.62 304.987 1188.3 315.015C1195.67 326.08 1203.8 336.633 1211.45 347.523C1212.21 348.61 1211.89 350.451 1212.07 351.939C1211.64 352.048 1211.2 352.157 1210.77 352.282L1210.76 352.298Z" fill="white"/>
<path d="M1369.41 89.5581C1370.63 92.6922 1371.47 96.0338 1373.12 98.9283C1381.2 113.089 1394.38 121.991 1407.1 131.344C1413.68 136.194 1420.31 141.013 1424.76 148.107C1425.42 149.144 1425.85 150.325 1426.72 152.132C1411.53 139.515 1396.67 127.849 1382.71 115.214C1377.32 110.346 1373.7 103.41 1369.77 97.0901C1368.56 95.148 1368.99 92.1816 1368.68 89.6958C1368.92 89.6499 1369.18 89.6205 1369.43 89.5746L1369.41 89.5581Z" fill="white"/>
</g>
<defs>
<clipPath id="clip0_1965_114">
<rect width="1445.05" height="1046.97" fill="white" transform="translate(13.6421 -45.0469) rotate(0.720729)"/>
</clipPath>
</defs>
</svg>
