<svg width="265" height="205" viewBox="0 0 265 205" fill="none" xmlns="http://www.w3.org/2000/svg">
<path d="M96.6754 104.794C97.0665 105.255 97.4575 105.724 97.8557 106.179C99.0644 107.579 100.344 108.922 101.467 110.385C103.501 113.036 105.442 115.757 107.433 118.45C108.819 120.326 109.623 122.521 110.732 124.532C112.466 127.687 113.462 131.047 114.294 134.451C115.495 139.368 116.178 144.377 115.758 149.486C115.573 151.724 115.687 153.998 115.467 156.229C115.339 157.508 114.791 158.744 114.486 160.016C114.265 160.911 114.215 161.849 113.945 162.723C113.348 164.698 112.786 166.695 111.976 168.585C111.165 170.489 110.284 172.436 109.047 174.07C107.831 175.69 107.106 177.608 105.776 179.1C103.714 181.417 102.036 184.06 99.5407 186.007C98.1614 187.08 97.0309 188.472 95.6516 189.545C94.0235 190.817 92.2744 191.925 90.5467 193.062C89.3949 193.823 88.2502 194.654 86.9989 195.222C84.1052 196.537 81.1901 197.83 78.204 198.924C74.5495 200.26 70.7458 201.07 66.8638 201.447C65.3494 201.589 63.8065 201.511 62.3206 201.781C59.3415 202.328 56.3909 201.987 53.4474 201.695C50.703 201.425 47.9586 201.034 45.2782 200.416C42.0148 199.663 38.7371 198.825 35.6159 197.624C32.4022 196.38 29.2881 194.817 26.3233 193.069C25.0862 192.345 23.6997 191.741 22.6475 190.533C21.6379 189.375 20.0382 188.742 18.7584 187.797C18.1398 187.335 17.6919 186.646 17.116 186.113C13.2127 182.504 10.4114 178.092 8.15046 173.359C6.54363 169.999 5.19987 166.503 4.63819 162.765C4.36801 160.989 3.80633 159.22 3.785 157.444C3.74945 153.806 3.785 150.146 4.18315 146.537C4.55998 143.148 5.37761 139.787 6.16681 136.462C6.55074 134.827 7.26884 133.264 7.92295 131.701C9.01787 129.079 10.0488 126.415 11.3641 123.9C12.6155 121.498 14.1939 119.274 15.6158 116.965C16.1206 116.148 16.533 115.274 17.0947 114.506C17.8057 113.54 18.6588 112.673 19.4054 111.728C20.4008 110.464 21.2895 109.121 22.3346 107.899C23.7708 106.222 25.2781 104.602 26.8068 103.01C27.9941 101.774 29.2028 100.559 30.4897 99.429C31.9899 98.1074 33.5469 96.8427 35.1395 95.6348C37.1943 94.0788 39.2277 92.4801 41.4033 91.1087C44.3468 89.2614 47.3969 87.5632 50.4542 85.9006C52.3027 84.8916 54.2295 84.0319 56.1492 83.1722C57.1232 82.7387 58.1542 82.4403 59.1709 82.0993C60.6 81.609 62.0148 81.0761 63.4652 80.6569C65.2214 80.1453 67.0202 79.7687 68.7834 79.2643C71.8762 78.3761 75.0259 77.9853 78.2396 77.8787C80.8275 77.7935 83.3871 77.7508 85.9324 78.305C87.9801 78.7456 90.0348 79.1577 92.0896 79.5982C92.3526 79.655 92.6015 79.7971 92.8432 79.925C96.1209 81.6303 99.4056 83.3285 102.676 85.0479C103.401 85.4316 103.899 86.8385 103.558 87.3572C103.096 88.0606 101.709 88.1743 100.913 87.6982C99.7042 86.9735 98.4316 86.3482 97.2016 85.659C96.3057 85.1616 95.4668 84.5577 94.5425 84.1243C93.1774 83.4777 91.7554 82.9377 90.3619 82.3622C87.6743 81.2466 84.802 80.934 81.9651 80.7066C79.5691 80.5077 77.0878 80.6072 74.7131 80.9979C71.0373 81.6019 67.3686 82.3977 63.7923 83.4279C60.9199 84.2593 58.1542 85.4956 55.3884 86.6751C53.1702 87.6201 51.0301 88.7427 48.8616 89.8085C45.9323 91.2509 43.1879 92.9916 40.5786 94.9527C38.5594 96.4661 36.4975 97.9227 34.5494 99.5214C32.6795 101.056 30.8594 102.669 29.153 104.381C27.3613 106.186 25.7261 108.14 24.0268 110.037C23.0385 111.139 21.9792 112.19 21.0904 113.37C19.6756 115.252 18.3531 117.206 17.052 119.167C15.7722 121.093 14.4782 123.011 13.3478 125.022C12.4022 126.706 11.6414 128.497 10.8949 130.28C10.1128 132.156 9.31648 134.046 8.7548 135.993C7.91584 138.87 7.16219 141.784 6.57207 144.718C5.9464 147.823 5.61224 150.992 5.86819 154.168C6.09571 156.96 6.50097 159.731 6.82092 162.517C7.21196 165.906 8.49174 169.032 9.84972 172.088C10.9091 174.468 12.3026 176.749 13.8241 178.866C15.3528 180.99 17.2084 182.88 18.9504 184.842C21.2042 187.378 24.1121 189.048 26.9632 190.789C28.8828 191.954 30.8025 193.162 32.843 194.071C35.3599 195.201 37.9835 196.082 40.5928 196.999C42.1854 197.56 43.8065 198.136 45.4631 198.413C48.4208 198.91 51.414 199.294 54.4073 199.535C56.9597 199.741 59.5548 199.919 62.0859 199.67C65.8328 199.301 69.5868 198.732 73.2555 197.88C76.2701 197.176 79.2136 196.075 82.0789 194.895C84.2687 193.993 86.3021 192.7 88.3924 191.556C89.1959 191.115 89.9779 190.632 90.7316 190.107C91.5492 189.538 92.2886 188.856 93.1134 188.295C95.0331 186.966 96.5972 185.261 98.3178 183.712C100.095 182.106 101.638 180.379 102.982 178.433C104.255 176.578 105.726 174.844 106.835 172.905C108.236 170.453 109.544 167.917 110.568 165.295C111.5 162.9 111.855 160.279 112.722 157.856C113.369 156.044 113.32 154.246 113.334 152.413C113.355 149.379 113.369 146.345 113.334 143.311C113.27 139.013 112.367 134.827 111.144 130.742C109.992 126.891 108.414 123.182 106.26 119.757C104.347 116.716 102.427 113.682 100.401 110.726C99.3416 109.177 98.0192 107.806 96.8532 106.321C96.5759 105.966 96.4764 105.469 96.2915 105.035C96.4266 104.957 96.5546 104.886 96.6897 104.808L96.6754 104.794Z" fill="white"/>
<path d="M226.21 6.35842C228.969 6.35842 231.72 6.33 234.479 6.36552C236.008 6.38684 237.536 6.49342 239.065 6.58579C241.361 6.72079 243.665 6.79895 245.947 7.03342C248.18 7.26789 250.398 7.68 252.63 7.99263C254.166 8.20579 255.709 8.3479 257.245 8.56105C257.785 8.63211 258.311 8.83816 258.852 8.93763C259.804 9.12237 260.764 9.25027 261.717 9.44921C261.887 9.48474 262.015 9.74764 262.165 9.90395C262.008 10.0105 261.845 10.2237 261.703 10.2095C260.06 10.0532 258.425 9.8329 256.775 9.69079C255.453 9.57711 254.116 9.52737 252.787 9.46342C249.715 9.32842 246.644 9.10816 243.572 9.08685C239.299 9.06553 235.026 9.1579 230.753 9.27158C228.471 9.33553 226.189 9.46342 223.921 9.6979C221.752 9.91816 219.598 10.2663 217.451 10.6216C214.799 11.0621 212.14 11.4884 209.516 12.0711C207.227 12.5755 204.952 13.2079 202.719 13.9326C198.972 15.1476 195.261 16.4621 191.55 17.7695C189.772 18.3948 188.002 19.0627 186.267 19.7874C184.994 20.3203 183.771 20.9669 182.527 21.5708C181.475 22.0753 180.408 22.5656 179.37 23.0984C177.316 24.1642 175.232 25.1803 173.242 26.3527C170.568 27.9229 167.959 29.5998 165.343 31.2553C162.875 32.8114 160.387 34.3319 157.991 35.9945C156.178 37.2522 154.5 38.7087 152.758 40.073C151.272 41.2382 149.758 42.3822 148.293 43.583C146.729 44.869 145.193 46.1906 143.665 47.5193C141.98 48.983 140.295 50.4467 138.659 51.9601C136.74 53.7364 134.848 55.5482 132.986 57.3814C130.71 59.6196 128.485 61.9004 126.231 64.1598C124.994 65.3962 123.828 66.7177 122.484 67.8333C120.991 69.0696 119.377 70.1922 117.728 71.2083C116.064 72.2314 114.336 73.1764 112.53 73.9225C111.748 74.2422 110.668 74.1356 109.829 73.8799C109.509 73.7804 109.374 72.7288 109.359 72.1106C109.352 71.8264 109.779 71.4214 110.099 71.2651C112.125 70.2988 114.308 69.5954 116.178 68.3946C118.24 67.0659 120.053 65.3322 121.915 63.7051C123.131 62.6464 124.262 61.4954 125.399 60.3514C126.679 59.0654 127.916 57.7296 129.196 56.4435C129.751 55.8822 130.376 55.3919 130.952 54.8519C132.566 53.3385 134.144 51.7896 135.78 50.2974C138.105 48.1801 140.422 46.0556 142.819 44.0164C145.627 41.629 148.471 39.2772 151.372 37.0035C153.654 35.2129 156.007 33.5077 158.396 31.8735C160.543 30.4027 162.797 29.0811 165.001 27.6885C167.127 26.3385 169.21 24.9245 171.365 23.6384C172.758 22.8071 174.251 22.1463 175.695 21.4145C177.195 20.6542 178.688 19.8655 180.209 19.1479C181.866 18.3592 183.544 17.6132 185.222 16.8813C186.985 16.1069 188.748 15.3253 190.54 14.6361C192.033 14.0605 193.583 13.6058 195.104 13.1013C195.496 12.9734 195.887 12.8384 196.285 12.7176C198.027 12.1847 199.761 11.6447 201.503 11.1403C202.826 10.7566 204.155 10.38 205.499 10.0887C209.282 9.25027 213.064 8.36921 216.875 7.67289C219.57 7.18263 222.314 6.95526 225.037 6.62842C225.414 6.58579 225.805 6.62842 226.189 6.62842C226.189 6.55026 226.189 6.4721 226.189 6.39395L226.21 6.35842Z" fill="white"/>
<path d="M94.9758 102.783C95.4451 103.465 95.8361 104.041 96.2271 104.609C95.0114 104.268 94.5492 103.487 94.9758 102.783Z" fill="white"/>
</svg>
