<svg
    fill="none"
    xmlns="http://www.w3.org/2000/svg"
    viewBox="0 0 582 866"
>
    <path
    d="M443.91 6.05c-2.14.8-3.12 1.45-4.17 1.5-8.96.4-17.96.53-26.9 1.05-8.96.52-17.86 1.5-26.81 2.08-6.54.41-13.13.44-19.7.74-19.27.88-38.54 1.84-57.83 2.72-14.91.68-29.81 1.34-44.72 1.86-15.17.54-30.33.9-45.5 1.32-16.22.45-32.45.97-48.68 1.27-28.71.55-57.43.94-86.15 1.42-10.67.18-21.34.28-31.99.6-9.64.3-19.27.75-28.9 1.29-5.42.3-8.18 2.39-8.24 6.68-.2 14.75-.42 29.51-.05 44.26.23 8.77 1.35 17.51 2.36 26.25 1.1 9.58 2.66 19.11 3.83 28.7.7 5.84.94 11.74 1.54 17.6.52 5.12 1.33 10.2 1.9 15.33.86 7.7 1.7 15.42 2.43 23.13 1.15 12.17 2.33 24.36 3.24 36.54.99 13.09 1.78 26.18 2.45 39.27.69 13.73 1.27 27.46 1.63 41.2.5 19.24.87 38.47 1.1 57.71.11 9.88-.19 19.77-.25 29.65-.04 6.8-.12 13.62.02 20.43.18 9.25.57 18.5.83 27.74.29 10.07.42 20.14.84 30.2.26 6.25.97 12.5 1.4 18.75.38 5.43.7 10.88.96 16.3.33 6.9.36 13.8.91 20.7.47 5.76 1.57 11.5 2.27 17.25.65 5.37 1.08 10.77 1.7 16.14 1.02 8.62 2.17 17.24 3.18 25.86.9 7.9 1.6 15.82 2.58 23.7 1.15 9.17 2.56 18.31 3.81 27.47.93 6.7 1.76 13.42 2.69 20.12.9 6.5 1.9 13 2.8 19.5 1.01 7.26 1.92 14.5 2.9 21.75.83 6.06 1.76 12.12 2.58 18.2 1.34 9.86 2.6 19.73 3.96 29.6 1.52 10.98 3.16 21.93 4.66 32.92 1.01 7.44 1.78 14.9 2.78 22.36.92 6.9 2.15 13.78 2.99 20.7.85 7.01 1.43 14.05 2.01 21.08.18 2.14 1.35 3.47 4 3.8 12.7 1.56 25.33 3.52 38.1 4.48 17.32 1.3 34.72 1.97 52.08 2.65 11.77.47 23.58.54 35.36.7 19.7.25 39.39.66 59.08.57 14.88-.06 29.77-.8 44.66-1.19 10.91-.28 21.83-.3 32.71-.8 12.77-.6 25.52-1.6 38.28-2.45 9.83-.64 19.68-1.23 29.5-1.95 10.83-.8 21.63-1.8 32.46-2.56 11.09-.77 22.2-1.3 33.3-2 12.44-.79 24.84-1.74 37.27-2.47 10.09-.59 20.19-.89 30.27-1.43 4.81-.27 9.62-.75 14.4-1.34.87-.1 2.16-1.05 2.25-1.7 2-15.32 3.09-30.64 1.67-46.07-.84-9.19-.2-18.46-.75-27.68-.5-8.33-1.78-16.62-2.57-24.94-.46-4.92-.54-9.86-.92-14.8-1.03-13.15-2.16-26.3-3.2-39.46-.35-4.39-.51-8.78-.87-13.17-.73-8.67-1.58-17.32-2.31-25.98-.63-7.47-1.14-14.96-1.75-22.42-.96-11.56-1.94-23.1-2.92-34.66-.38-4.6-.71-9.22-1.15-13.82-1.03-10.75-2.24-21.5-3.1-32.27-.59-7.13-.66-14.28-1.04-21.43-.76-14.37-1.44-28.75-2.42-43.11-.9-13.51-2-27.02-3.24-40.52-1.15-12.53-2.66-25.02-3.94-37.54-.91-8.97-1.56-17.96-2.59-26.91-1.09-9.38-2.6-18.73-3.75-28.11-.8-6.59-1.27-13.2-1.9-19.8-.79-8.22-1.73-16.44-2.36-24.68-.37-5-.16-10.02-.41-15.04-.65-12.7-1.42-25.39-2.11-38.1-.55-10.38-.97-20.77-1.6-31.15-.39-6.51-1.2-13.01-1.58-19.54-.24-4.1.06-8.21-.1-12.31-.38-10.15-1.08-20.3-1.3-30.46-.17-7.45.38-14.91.34-22.38-.06-10.17-.51-20.34-.56-30.51-.04-7.81.72-15.64.29-23.43-.35-6.05-1.68-12.11-3.13-18.08a86.56 86.56 0 0 0-4.72-13.45c-1.06-2.5-3.29-4.67-4.38-7.16-.76-1.76-1.25-3.97 1.45-5.34 8.6 8.85 13.27 18.68 14.23 29.45 1.07 12.05 1.54 24.14 2.12 36.21.34 7.08.52 14.15.55 21.23.05 10.62-.24 21.23-.13 31.85.07 6.99.58 13.98.88 20.95.5 11.89 1 23.76 1.52 35.65.32 7.28.68 14.55 1.02 21.82.6 12.38 1.12 24.76 1.8 37.14.3 5.45.98 10.9 1.37 16.34.61 8.49 1.07 16.98 1.73 25.46.75 9.8 1.52 19.6 2.48 29.37 1.29 13.22 2.67 26.44 4.17 39.66 1.54 13.73 3.33 27.44 4.83 41.18.71 6.62.97 13.27 1.56 19.89.7 7.73 1.66 15.44 2.34 23.15.44 5.1.65 10.22.9 15.33.37 8.5.53 17 1.07 25.5.46 7.39 1.55 14.74 1.99 22.11.47 8.24.32 16.51.8 24.75.36 6.04 1.32 12.07 2.02 18.1.48 4.14 1.09 8.29 1.43 12.44.88 10.65 1.53 21.32 2.51 31.97.88 9.49 2.13 18.94 3.11 28.41.43 4.13.7 8.27.9 12.42.34 7.3.34 14.62.92 21.9.75 9.2 2 18.38 2.92 27.57.46 4.58.77 9.17 1.04 13.76.35 5.9.44 11.8.87 17.7.7 9.5 1.72 18.97 2.35 28.46.49 7.46.64 14.9.88 22.37.3 9.6.95 19.22.68 28.83-.22 8.3-1.43 16.6-2.4 24.9-.42 3.5-2.75 5.02-8.16 5.4-9.98.73-19.98 1.39-29.99 1.9-14.6.76-29.22 1.25-43.82 2.09-11.52.67-23 1.68-34.48 2.52-14.74 1.1-29.45 2.27-44.2 3.23-15.2.99-30.42 1.82-45.63 2.6-18.14.93-36.28 2.17-54.43 2.51-30.54.57-61.11.79-91.65.66-19.94-.09-39.87-.99-59.78-1.64-11.73-.38-23.5-.57-35.15-1.63-12.47-1.14-24.81-3.22-37.22-4.9-.53-.07-1.07-.12-1.6-.16-6.66-.7-8.75-3.08-9.17-8.44-.66-8.32-2.02-16.6-3.02-24.9-.85-7.08-1.57-14.19-2.42-21.27-1.69-14.1-3.33-28.18-5.18-42.27-1.4-10.63-3.24-21.23-4.7-31.85-1.34-9.9-2.3-19.82-3.62-29.7-1.05-7.77-2.48-15.5-3.6-23.25-.98-6.68-1.72-13.38-2.63-20.07-1.17-8.51-2.44-17.01-3.64-25.51-.71-5.17-1.4-10.35-2.06-15.52-1.22-9.5-2.43-18.99-3.61-28.49a930.36 930.36 0 0 1-2.07-18.07c-1.18-11.3-2.39-22.61-3.4-33.93-.66-7.37-.99-14.75-1.45-22.12-.72-11.48-1.61-22.96-2.1-34.46-.38-9.21-.23-18.43-.41-27.66-.21-10.68-.57-21.37-.78-32.06-.22-11.82-.45-23.65-.48-35.48-.01-7.8.47-15.62.4-23.41-.05-8.97-.55-17.94-.71-26.9-.15-8.6.03-17.19-.24-25.77-.24-7.6-1.02-15.18-1.3-22.78-.39-10.48-.31-20.96-.88-31.44-.43-8.16-1.64-16.3-2.32-24.47-.4-4.89-.33-9.8-.65-14.7-.2-2.76-.86-5.5-1.15-8.25-.78-7.17-1.42-14.35-2.2-21.53a3749.93 3749.93 0 0 0-3.54-31.69c-.64-5.53-1.45-11.04-2.12-16.56-.7-5.64-1.33-11.3-1.92-16.96-1.1-10.67-2.31-21.33-3.2-32.02-.56-6.95-.64-13.93-.93-20.9-.2-4.4-.72-8.82-.53-13.2.24-5.34.61-10.72 1.81-15.97 1.29-5.63 5-7.58 13.22-7.77 22.8-.5 45.6-.95 68.4-1.3 20.62-.3 41.23-.41 61.85-.67 12.15-.16 24.3-.37 36.43-.66a9973.92 9973.92 0 0 0 94.14-2.77c14.7-.53 29.4-1.17 44.1-1.8 8.99-.37 17.97-.78 26.93-1.25 11.15-.6 22.3-1.38 33.44-1.87 7.65-.33 15.35-.15 23-.47 6.08-.25 12.14-.93 18.22-1.38 3.89-.29 7.77-.54 11.67-.74.54-.02 1.1.36 2.87.98l-.06-.08Z"
    fill="#fff"
    />
    <path
    d="M467.52 7c-6.86 0-13.72.04-20.57-.03-1.25-.01-2.47-.52-3.71-.8l.3-1c7.35-.26 14.69-.58 22.04-.68.86-.02 1.75 1.14 2.63 1.74l-.68.76-.01.02Z"
    fill="#fff"
    />
</svg>