<svg width="39" height="35" viewBox="0 0 39 35" fill="none" xmlns="http://www.w3.org/2000/svg">
<path fill-rule="evenodd" clip-rule="evenodd" d="M29.1011 16.8651L21.26 2.43991L20.12 0.34991C19.72 -0.380089 18.38 0.159912 18.09 0.709911C17.31 2.13991 16.5325 3.56991 15.755 4.99991C15.0074 6.37485 14.2599 7.74979 13.5101 9.12473C13.3917 9.23538 13.3131 9.35986 13.2956 9.48971C12.554 10.8495 11.8145 12.2072 11.075 13.5649C10.2975 14.9924 9.52 16.4199 8.73999 17.8499L8.07846 19.0742C8.03782 19.1317 8.00701 19.1909 7.98802 19.2508C6.85034 21.3454 5.71267 23.4377 4.57499 25.5299L4.5465 25.5823C3.391 27.7074 2.2355 29.8324 1.08 31.9599L0.0799972 33.7999C-0.270001 34.4499 0.559993 34.7099 1.01999 34.7099H19.02C19.0779 34.7099 19.134 34.7065 19.1882 34.6999H37.02C37.64 34.6999 38.48 34.1099 38.11 33.4399C36.8005 31.0358 35.491 28.6292 34.1815 26.2227L34.1597 26.1826C32.8565 23.7876 31.5532 21.3925 30.25 18.9999L29.2163 17.0957C29.2006 17.027 29.1695 16.958 29.12 16.8899C29.1138 16.8815 29.1075 16.8732 29.1011 16.8651ZM14.6143 11.137C13.9033 12.4409 13.1941 13.7429 12.485 15.0449C11.7885 16.3237 11.092 17.6024 10.3937 18.883C11.8182 19.8612 13.121 21.0223 14.08 22.4699C14.85 23.6299 15.37 24.9299 15.78 26.2499C15.8633 26.5217 15.9432 26.795 16.0231 27.0684L16.0239 27.0707C16.3083 28.0433 16.5932 29.0173 17.03 29.9299C17.339 30.5663 17.7224 31.1432 18.1675 31.6663C18.3307 30.3435 18.6216 29.0338 19 27.7599L19.0051 27.7431C19.0452 27.6116 19.0863 27.4804 19.1286 27.3496C19.9412 24.6958 20.309 21.9147 19.55 19.1999C18.6945 16.1253 16.7414 13.4883 14.6143 11.137ZM22.1582 21.3378C22.1195 20.4993 21.9995 19.6592 21.78 18.8199C20.8101 15.0858 18.288 11.9443 15.6827 9.19477C16.3991 7.88083 17.1135 6.56689 17.8279 5.25294L17.8603 5.1934C18.2587 4.46059 18.6572 3.72778 19.0559 2.99497L26 15.7699L26.7772 17.1948C24.9252 18.2535 23.3963 19.6788 22.1582 21.3378ZM21.12 27.8643C21.1274 27.8465 21.1341 27.8284 21.14 27.8099V27.7999C21.2085 27.584 21.2747 27.3676 21.3382 27.1507C22.4529 23.7365 24.459 20.5058 27.525 18.5935C28.6914 20.7353 29.8578 22.8789 31.0242 25.0225L31.0731 25.1125C32.3754 27.5058 33.6777 29.8991 34.98 32.2899L35.436 33.1299H20.2337C20.303 31.3496 20.6305 29.5763 21.12 27.8643ZM15.13 31.0799C15.5299 31.8419 16.0378 32.522 16.6238 33.1299H2.65432C3.65057 31.2962 4.64682 29.464 5.64308 27.6318L5.67697 27.5695C6.83464 25.4405 7.99232 23.3114 9.15 21.1799L9.43409 20.6572C10.5268 21.4975 11.4944 22.471 12.23 23.6599C12.96 24.8299 13.39 26.1399 13.78 27.4499C14.15 28.6899 14.52 29.9299 15.13 31.0799Z" fill="#41545A"/>
</svg>
