<svg width="23" height="32" viewBox="0 0 23 32" fill="none" xmlns="http://www.w3.org/2000/svg">
<path d="M0.605047 3.19877C0.712004 4.60167 0.818961 6.00906 0.925918 7.41196C1.01829 7.41196 1.11066 7.41196 1.20303 7.40746C1.20303 6.25636 1.14469 5.10077 1.21762 3.95418C1.34888 1.80936 1.8545 1.39569 4.70831 1C4.89791 1.84084 5.21392 2.68617 5.2674 3.545C5.53965 8.06394 5.78274 12.5874 5.95776 17.1108C6.04041 19.3006 5.98693 21.4994 5.92373 23.6936C5.87511 25.4742 5.73898 27.2593 5.598 29.0354C5.56882 29.3907 5.40353 29.7819 5.16531 30.0696C4.99515 30.281 4.56246 30.5013 4.3291 30.4428C4.07629 30.3799 3.84293 30.0247 3.74569 29.7549C3.61443 29.3952 3.62901 28.995 3.5415 28.316C2.98241 29.5975 2.59348 30.5597 2.13162 31.4995C2.0198 31.7243 1.6892 31.9402 1.42181 31.9986C1.30027 32.0256 0.935641 31.6524 0.916194 31.4455C0.687695 28.7567 0.454334 26.0633 0.318207 23.3654C0.157772 20.2089 0.0556762 17.0524 0.00219765 13.8959C-0.0221108 12.421 0.162633 10.9462 0.191803 9.47134C0.225835 7.39397 0.201527 5.3166 0.201527 3.23924C0.337654 3.23025 0.473781 3.21676 0.609908 3.20776L0.605047 3.19877ZM0.736312 22.8978C0.862715 22.9023 0.984258 22.9113 1.11066 22.9158C1.24679 21.2835 1.43153 19.6513 1.50446 18.0191C1.57252 16.4588 1.51904 14.8941 1.51904 13.3338C1.41695 13.3338 1.30999 13.3338 1.2079 13.3338C1.05232 16.5218 0.896747 19.7098 0.736312 22.8978ZM4.12977 5.0648L3.74569 5.08279C3.88668 6.9758 4.03253 8.86431 4.12977 10.1638V5.0648Z" fill="white"/>
<path d="M19.9547 26.2921C19.9547 27.5545 19.9974 28.817 19.9262 30.0748C19.9073 30.3939 19.5135 30.6946 19.2906 31C19.1104 30.6992 18.7688 30.3984 18.7688 30.0976C18.7688 27.9875 18.8589 25.8774 18.8874 23.7627C18.9111 21.7848 18.8922 19.8114 18.8922 17.8334C18.6977 17.8334 18.4984 17.8334 18.304 17.8289C18.1996 19.424 18.1142 21.0237 17.9909 22.6188C17.8391 24.5922 17.6968 26.5701 17.4644 28.539C17.4312 28.8306 16.9141 29.0676 16.62 29.332C16.4066 29.0129 16.0081 28.6894 16.0081 28.3703C15.9891 25.7908 15.9986 23.2113 16.0888 20.6317C16.2216 16.767 16.3591 12.8977 16.6153 9.03749C16.7718 6.68583 17.156 4.34328 17.4549 1.84578C17.7347 1.80932 18.1569 1.75463 18.802 1.6726C19.0013 6.59924 19.1957 11.4211 19.3902 16.2474C19.5705 16.2474 19.7507 16.2474 19.931 16.2474C19.931 13.718 19.9405 11.1841 19.931 8.65466C19.9215 6.79976 19.9879 4.93575 19.8408 3.08997C19.7223 1.60423 20.5524 0.783887 21.8663 0C21.9802 0.323581 22.1557 0.606145 22.1699 0.893267C22.3786 4.91752 22.611 8.94178 22.7439 12.966C22.8909 17.2865 22.9953 21.6116 23 25.9366C23 27.1489 22.6774 28.384 22.3217 29.5644C22.1841 30.0156 21.5438 30.3346 21.1311 30.7129C20.8465 30.2571 20.3816 29.8196 20.3247 29.3411C20.1966 28.3384 20.2867 27.3084 20.2867 26.2921C20.1776 26.2921 20.0733 26.2921 19.9642 26.2921H19.9547ZM21.4631 26.1827C21.6196 26.1827 21.7809 26.1873 21.9375 26.1919V13.1666C21.7809 13.1666 21.6196 13.1666 21.4631 13.1666V26.1873V26.1827Z" fill="white"/>
</svg>
