<svg width="29" height="35" viewBox="0 0 29 35" fill="none" xmlns="http://www.w3.org/2000/svg">
<path d="M3.10878 24.0559C2.17752 26.4662 2.65627 29.1379 1.30857 31.4095C1.09544 31.3966 0.882297 31.3837 0.669158 31.3708C0.669158 30.2899 0.551112 29.1928 0.688832 28.128C1.52827 21.5842 2.10211 15.0308 1.97094 8.42254C1.92176 5.93475 2.01685 3.44374 2.12834 0.959185C2.14146 0.662329 2.67266 0.384832 2.9645 0.0976562C3.28257 0.449366 3.82689 0.772036 3.87936 1.15924C4.18431 3.48246 4.44008 5.81537 4.59747 8.15472C4.94505 13.3594 5.22049 18.5673 5.78777 23.7881C5.8304 22.8523 5.93861 21.9166 5.90254 20.9841C5.70579 15.7665 5.47954 10.5522 5.24017 5.33782C5.20738 4.65053 4.86635 3.94065 4.9844 3.29854C5.08277 2.76291 5.64349 2.30794 6.00091 1.81749C6.17142 1.89815 6.34193 1.98205 6.51244 2.06272L7.48304 8.36769C7.74537 6.74466 8.14541 4.80864 8.64055 4.80864C9.01764 4.80864 9.31276 5.94121 9.52262 6.86082C9.98496 8.90654 10.5588 12.3268 10.7031 17.6703C10.6867 17.083 10.6572 16.1569 10.5981 15.0211C10.4112 11.5169 10.1719 10.5167 10.4539 8.86782C10.585 8.1031 10.8638 6.98343 11.5458 5.66694C13.5231 11.1878 13.1984 16.9959 14.0674 22.6716C14.1953 20.8227 14.3723 18.9738 14.4314 17.1249C14.4937 15.1954 14.3986 13.2626 14.4674 11.333C14.4937 10.5747 14.7789 9.82615 15.3134 9.09047C16.9431 12.2946 16.3529 15.7568 17.0153 19.0577C17.2251 16.699 17.4186 14.3403 17.6711 11.9848C17.6973 11.7525 18.1006 11.5589 18.5663 11.1297C19.914 13.8982 19.4877 16.7119 20.009 19.3998C20.1402 17.6832 20.2648 15.9666 20.4091 14.25C20.4386 13.895 20.455 13.5046 20.619 13.2077C20.7796 12.9206 21.1206 12.7302 21.383 12.4979C21.583 12.7721 21.924 13.027 21.9568 13.3207C22.1667 15.105 22.3044 16.8991 22.4782 18.8319C22.6552 17.88 22.7372 17.0314 22.9832 16.2279C23.1602 15.6536 23.5537 15.147 23.8521 14.6113C24.2095 14.7275 28.0985 16.0408 28.5576 17.7058C28.6133 17.9058 28.7215 18.3059 28.5379 18.677C28.4789 18.7931 28.3182 19.061 27.0426 19.6127C26.2622 19.9515 26.0851 19.8096 25.9573 20.0935C25.0654 22.107 24.4948 20.8066 23.9177 19.916C23.5078 20.8744 23.111 21.7972 22.6356 22.8975C21.9962 22.449 21.5961 22.165 21.1797 21.8746C20.2451 25.1981 20.0779 25.3304 18.6581 24.214C17.9498 25.0981 17.2415 25.9758 16.5365 26.8534C16.143 26.4275 15.7528 26.0016 15.4446 25.6692C14.8511 26.0177 13.969 26.8825 13.546 26.7018C12.8837 26.4178 12.5361 25.4305 11.959 24.6012C11.795 26.1694 11.7557 27.6859 11.4343 29.1412C11.3031 29.7413 10.6211 30.6029 10.0997 30.6706C9.76199 30.7126 9.54885 30.6577 9.41441 30.5383C8.97501 30.1511 9.17832 29.2315 9.21439 29.0444C9.42752 27.9667 9.21439 23.6009 8.2733 13.7756C8.2733 13.7692 8.05688 24.114 8.4602 27.4601C8.50611 27.8473 8.69302 29.2315 8.43069 31.0127C8.35199 31.5515 8.25362 31.9839 8.18804 32.2388C8.09295 32.6905 7.86013 33.1616 7.55518 33.5101C7.26662 33.8392 6.80428 34.0199 6.41735 34.2684C6.30258 34.0909 6.12551 33.7973 5.96156 33.4198C5.35493 32.0226 5.55168 30.9352 5.57135 28.7862C5.57791 28.2119 5.59758 25.7209 5.37133 25.6983C5.26312 25.6886 5.0631 26.2371 4.65649 28.5507C4.24989 33.5779 3.70557 34.6943 3.26617 34.7266C2.87924 34.7524 2.45952 33.9457 2.29557 33.4585C2.03653 32.6809 2.30541 32.1646 2.44313 30.5448C2.62676 28.3797 2.8858 26.221 3.11206 24.0591L3.10878 24.0559Z" fill="white"/>
</svg>
