<svg
    fill="none"
    xmlns="http://www.w3.org/2000/svg"
    viewBox="0 0 100 57"
>
    <g clip-path="url(#a)" fill="#fff">
    <path
        d="M99.05 13.52c-.09.2-.16.3-.17.4-.04.87-.06 1.74-.12 2.61-.06.87-.17 1.73-.24 2.6-.05.63-.05 1.27-.08 1.9l-.32 5.6c-.08 1.44-.15 2.88-.21 4.33-.06 1.46-.1 2.93-.15 4.4-.06 1.57-.12 3.14-.15 4.71l-.16 8.34-.07 3.1a90.7 90.7 0 0 1-.15 2.8c-.04.52-.28.78-.77.8-1.7 0-3.4.03-5.1 0-1-.03-2.01-.14-3.02-.23-1.1-.11-2.2-.26-3.3-.37-.68-.07-1.36-.1-2.03-.15-.6-.05-1.18-.13-1.77-.19l-2.66-.23c-1.4-.11-2.8-.23-4.21-.32a224.67 224.67 0 0 0-9.27-.4l-6.64-.1-3.42.03H52.7l-3.2-.09c-1.15-.02-2.31-.04-3.47-.08-.72-.02-1.44-.09-2.16-.13l-1.88-.1c-.8-.03-1.59-.03-2.38-.08-.67-.05-1.33-.16-1.99-.22-.62-.07-1.24-.1-1.86-.17l-2.98-.3c-.9-.1-1.82-.16-2.73-.25l-3.16-.37c-.77-.1-1.54-.17-2.32-.26l-2.24-.28-2.5-.28-2.1-.24-3.41-.39-3.8-.45c-.85-.1-1.7-.17-2.57-.27l-2.38-.29c-.8-.08-1.62-.14-2.43-.2-.24-.01-.4-.12-.44-.38-.18-1.23-.4-2.45-.51-3.69-.15-1.67-.23-3.36-.3-5.04-.06-1.14-.07-2.28-.09-3.42-.03-1.9-.07-3.81-.06-5.72 0-1.44.09-2.88.13-4.32.04-1.06.04-2.11.1-3.17.06-1.23.18-2.47.28-3.7l.22-2.86c.1-1.04.21-2.09.3-3.14.09-1.07.15-2.15.23-3.22.09-1.2.2-2.4.28-3.6.07-.98.1-1.96.17-2.94.03-.46.08-.93.15-1.4.01-.08.12-.2.2-.2 1.76-.2 3.53-.3 5.3-.17 1.06.08 2.13.02 3.19.07.96.05 1.91.17 2.87.25.57.04 1.14.05 1.7.09l4.55.3 1.52.1c1 .06 2 .15 2.99.22.86.06 1.72.1 2.58.17l4 .28 1.58.1c1.24.1 2.48.23 3.72.31.82.06 1.65.06 2.47.1a229.03 229.03 0 0 1 9.63.55c1.44.1 2.88.26 4.32.38 1.04.09 2.07.15 3.1.25 1.08.1 2.16.25 3.24.36.76.08 1.52.13 2.28.19l2.84.23c.58.03 1.15.01 1.73.04l4.39.2 3.59.15c.75.04 1.5.12 2.25.16.47.02.94 0 1.42 0 1.16.04 2.33.11 3.5.13.86.02 1.72-.03 2.58-.03 1.17 0 2.34.05 3.51.05.9 0 1.8-.07 2.7-.02a13.77 13.77 0 0 1 3.63.76c.3.1.54.31.83.42.2.07.46.12.61-.14a5.95 5.95 0 0 0-3.39-1.38c-1.39-.1-2.78-.15-4.17-.2-.81-.04-1.63-.05-2.44-.06-1.23 0-2.45.03-3.67.02-.8-.01-1.61-.06-2.41-.09l-4.1-.15-2.52-.1c-1.43-.05-2.85-.1-4.28-.17-.63-.03-1.25-.1-1.88-.13-.98-.06-1.96-.1-2.93-.17a188.84 188.84 0 0 1-7.95-.64c-1.58-.15-3.16-.33-4.75-.47-.76-.07-1.52-.1-2.29-.15l-2.66-.23c-.59-.04-1.18-.06-1.77-.08l-2.93-.1c-.85-.05-1.7-.16-2.55-.2-.95-.05-1.9-.03-2.85-.08-.7-.03-1.39-.13-2.08-.2-.48-.04-.96-.1-1.44-.13-1.22-.09-2.45-.15-3.68-.25-1.1-.08-2.18-.2-3.27-.3-.48-.04-.95-.06-1.43-.08-.84-.04-1.68-.04-2.52-.1-1.06-.07-2.12-.19-3.18-.27-.52-.05-1.05-.08-1.58-.1l-2.04-.09c-1.1-.07-2.18-.17-3.28-.23-.86-.04-1.71-.06-2.57-.08-1.11-.03-2.22-.1-3.32-.07-.96.02-1.92.14-2.87.23-.4.04-.58.27-.62.8-.09.96-.16 1.93-.22 2.9-.09 1.4-.15 2.82-.24 4.24-.08 1.11-.2 2.22-.3 3.34l-.37 4.27-.3 4.42c-.1 1.75-.24 3.51-.28 5.27-.07 2.95-.1 5.91-.08 8.87.01 1.93.11 3.86.19 5.78.04 1.14.07 2.28.19 3.4.13 1.21.37 2.4.56 3.6l.02.16c.08.65.35.85.97.89.96.06 1.91.2 2.87.3.81.07 1.63.14 2.45.23 1.62.16 3.24.32 4.87.5 1.22.13 2.44.31 3.66.45 1.14.13 2.29.23 3.43.35.89.1 1.78.24 2.67.35.77.1 1.54.17 2.31.26l2.94.35 1.79.2a830.9 830.9 0 0 0 5.36.55l3.9.33c.86.06 1.7.1 2.55.14 1.33.07 2.65.15 3.97.2 1.06.04 2.13.02 3.19.04l3.69.08c1.36.02 2.72.04 4.09.04.9 0 1.8-.04 2.7-.04 1.03 0 2.06.06 3.1.07.98.02 1.97 0 2.96.03.87.02 1.75.1 2.62.12 1.2.04 2.42.03 3.62.09.94.04 1.88.16 2.82.22.56.04 1.13.03 1.7.06.31.02.63.09.94.12l2.48.2 3.65.35 1.9.2 1.96.2c1.23.1 2.46.22 3.69.3.8.06 1.6.06 2.4.1.51.01 1.02.06 1.53.04.61-.02 1.23-.06 1.84-.17.64-.13.87-.49.9-1.28l.14-6.62c.04-2 .05-4 .08-5.99a275.88 275.88 0 0 1 .23-8.35l.16-4.29.2-4.26.15-2.61c.07-1.08.16-2.16.22-3.24.04-.74.02-1.48.05-2.22.03-.6.11-1.18.16-1.77.04-.37.06-.75.09-1.13 0-.05-.04-.1-.12-.27h.01Z"
    />
    <path
        d="M98.94 11.24v1.99c.01.12.07.24.1.36l.11-.03c.04-.71.07-1.42.08-2.13 0-.09-.13-.17-.2-.26l-.08.07Z"
    />
    </g>
    <defs>
    <clipPath id="a">
        <path
        fill="#fff"
        transform="matrix(0 -1 -1 0 99.67 56.48)"
        d="M0 0h56.31v99.57H0z"
        />
    </clipPath>
    </defs>
</svg>