<svg width="1045" height="105" viewBox="0 0 1045 105" fill="none" xmlns="http://www.w3.org/2000/svg">
<g filter="url(#filter0_d_2564_1239)">
<path d="M4 0.998264C4 0.998264 32.5 -1.00174 39.5 0.998264C46.5 2.99826 84.5 0.998264 84.5 0.998264H966.5C966.5 0.998264 1006.5 0.998264 1011 3.5C1015.5 6.00174 1039 0.998264 1039 0.998264V14.5V47C1039 47 1041.5 73.5 1039 79.5C1036.5 85.5 1039 94.9983 1039 94.9983H226C226 94.9983 116.5 92.5 99.5 94.9983C82.5 97.4965 33 94.9983 33 94.9983H4V88V70V34V0.998264Z" fill="white"/>
</g>
<defs>
<filter id="filter0_d_2564_1239" x="0" y="0.109375" width="1044.11" height="104" filterUnits="userSpaceOnUse" color-interpolation-filters="sRGB">
<feFlood flood-opacity="0" result="BackgroundImageFix"/>
<feColorMatrix in="SourceAlpha" type="matrix" values="0 0 0 0 0 0 0 0 0 0 0 0 0 0 0 0 0 0 127 0" result="hardAlpha"/>
<feOffset dy="4"/>
<feGaussianBlur stdDeviation="2"/>
<feComposite in2="hardAlpha" operator="out"/>
<feColorMatrix type="matrix" values="0 0 0 0 0 0 0 0 0 0 0 0 0 0 0 0 0 0 0.25 0"/>
<feBlend mode="normal" in2="BackgroundImageFix" result="effect1_dropShadow_2564_1239"/>
<feBlend mode="normal" in="SourceGraphic" in2="effect1_dropShadow_2564_1239" result="shape"/>
</filter>
</defs>
</svg>
