<svg fill="none" xmlns="http://www.w3.org/2000/svg" viewBox="0 0 864 534">
  <path d="M255.34 146.42c.54-.72 1.23-1.4 1.57-2.2.4-.92.13-1.96 1.94-1.45.59.17 1.85-2.28 2.89-3.44.82-.91 1.8-1.7 2.67-2.55.2-.2.31-.48.51-.67 1.48-1.44 3.03-2.83 4.42-4.34.46-.5.56-1.34.78-2.04.31-.96.58-1.92.87-2.89l.7.1.51 1.38c1.46-1.53 3.2-2.66 3.15-5.07 0-.5.06-2.52 1.94-1.3.2.13 1.6-1.37 2.3-2.23 3.3-3.96 6.42-8.06 9.8-11.93 4.8-5.47 9.67-10.9 14.74-16.13 4.16-4.31 8.7-8.27 13.01-12.43 4.55-4.4 8.96-8.94 13.6-13.25 6.44-6 13.08-11.78 19.52-17.76 2.66-2.46 5.1-5.17 7.51-7.88 1.8-2.03 3.34-4.3 5.12-6.35.44-.51 1.36-.62 2.07-.9l.25 2.37c3.8-1.9 8.26-3.8 12.36-6.27 3-1.82 5.45-4.55 8.29-6.66 3.78-2.8 7.47-5.85 11.62-7.96 4.48-2.28 9.44-3.59 14.77-5.53-.22 1.13-.13 2.42-.7 3.3-2.4 3.84-4.95 7.6-7.54 11.3-.78 1.13-1.84 2.05-2.63 3.21 4.89-3.03 8.86-7.63 15.31-8.23-.06-.66-.24-1.36-.15-2.02.09-.78.4-1.55.63-2.3.68.3 1.7.42 1.97.93 1.58 2.97 2.99 6.05 4.43 9.1.23.49.23 1.19.59 1.52 4.45 4.1 6.53 9.68 9.22 14.86a663.23 663.23 0 0 1 10.8 21.86c1.96 4.12 3.55 8.42 5.4 12.6 1.58 3.61 3.29 7.17 4.92 10.75 2.53 5.54 5.12 11.05 7.54 16.63 4.03 9.27 7.99 18.57 11.93 27.87a926.7 926.7 0 0 1 8.14 19.63c2.8 7.05 5.36 14.18 8.13 21.24 3.1 7.86 6.41 15.62 9.43 23.5 3.64 9.54 7.07 19.16 10.59 28.74 4.11 11.2 8.3 22.37 12.33 33.6 3 8.4 5.8 16.86 8.72 25.28 2.5 7.2 5.11 14.35 7.57 21.57 3.55 10.42 7 20.87 10.5 31.31 3.29 9.82 6.62 19.63 9.88 29.47 2.15 6.48 4.16 13 6.27 19.5.5 1.5 1.1 2.98 2.09 4.34-.36-1.06-.75-2.1-1.07-3.18-2.67-9.22-5.24-18.46-8.03-27.64-4.3-14.17-8.65-28.33-13.21-42.43-5.21-16.13-10.57-32.2-16.05-48.26-3.68-10.79-7.67-21.47-11.54-32.2-2.57-7.1-5.1-14.22-7.79-21.28a8950.9 8950.9 0 0 0-18.14-47.4c-3.04-7.88-6.15-15.72-9.28-23.55-4.82-12.1-9.64-24.18-14.58-36.22-2.71-6.62-5.71-13.13-8.49-19.71-1.74-4.13-3.23-8.35-5-12.47-5.52-12.92-11.12-25.82-16.7-38.72-1.34-3.1-2.76-6.18-4-9.32a6.22 6.22 0 0 1-.08-3.42c3.38 1.64 3.66 5.4 5.6 8.01l2.73-1c-.14-5-4.44-7.23-7.02-10.62-2.85-3.74-5.77-7.42-8.5-11.23-.48-.65-.24-1.8-.38-3.17l28.01 24.26 2.13-2.85c-1.99-.82-4.27-1.56-6.3-2.73-.78-.44-1.51-2.08-1.27-2.87.38-1.24 1.42-.64 2.54-.14 3.9 1.79 8.07 2.98 11.89 4.92 3.13 1.58 5.89 3.88 8.8 5.89 2.84 1.95 5.71 3.88 8.49 5.92 2.52 1.86 4.94 3.86 7.42 5.79 4.3 3.31 8.69 6.52 12.88 9.95 4 3.26 7.78 6.8 11.72 10.13 2.4 2.03 5 3.85 7.36 5.93 3.9 3.43 7.64 7.04 11.54 10.48 2.6 2.3 5.4 4.38 8.06 6.6 3.52 2.95 7.01 5.94 10.52 8.93 3.36 2.84 6.72 5.67 10.04 8.54 1.56 1.33 3.06 2.75 4.98 3.75-1.1-1.46-2.08-3.02-3.33-4.35-2.36-2.53-4.92-4.87-7.32-7.36-4.08-4.22-8-8.58-12.16-12.71-4.38-4.33-8.96-8.45-13.42-12.7-1.75-1.66-3.33-3.49-5.1-5.12-3.4-3.16-6.9-6.24-10.34-9.36-2.26-2.04-4.38-4.24-6.75-6.12-8.33-6.6-16.75-13.06-25.1-19.63-1.6-1.26-3.02-2.78-4.51-4.17l.38-.67c1.5.88 3.1 1.66 4.51 2.67 3.83 2.75 7.62 5.54 11.35 8.41 5.1 3.92 10.24 7.8 15.18 11.92 4.25 3.56 8.2 7.47 12.34 11.16 4.35 3.88 8.85 7.6 13.15 11.55 2.91 2.67 5.58 5.63 8.39 8.42 3.35 3.3 6.77 6.56 10.13 9.87 1.03 1 1.96 2.13 2.96 3.17 2.79 2.9 5.62 5.75 8.38 8.66 1.96 2.04 3.8 4.18 5.73 6.23 3.24 3.44 6.57 6.8 9.75 10.29 2.68 2.93 5.07 6.14 7.84 8.97 2.91 2.98 6.16 5.6 9.21 8.46 3.35 3.14 6.54 6.47 9.96 9.52 3.22 2.88 6.7 5.42 9.95 8.26 2 1.76 3.68 3.87 5.65 5.66 2.9 2.65 5.96 5.1 8.86 7.75 3.02 2.76 5.88 5.71 8.9 8.48 3.47 3.19 7.07 6.22 10.52 9.41 2.36 2.19 4.52 4.57 6.86 6.8 1.38 1.3 2.96 2.41 4.36 3.7 2.32 2.11 4.6 4.28 6.83 6.49 3.7 3.67 7.3 7.43 11.03 11.07 1.49 1.45 3.32 2.53 4.8 3.97 3.06 2.96 5.95 6.09 8.98 9.07 4.08 4 8.2 7.95 12.34 11.9 5.18 4.97 10.38 9.9 15.54 14.87 1.05 1.02 2 2.14 3.01 3.18 4.62 4.7 9.26 9.39 13.86 14.1 4.35 4.46 8.65 8.97 13 13.44 2.45 2.5 5.06 4.87 7.47 7.42 3.62 3.86 7.06 7.88 10.68 11.74 4.04 4.3 8.24 8.46 12.29 12.77 2.34 2.48 4.47 5.17 6.8 7.68 3.93 4.25 7.98 8.4 11.9 12.66 2.78 3.02 5.49 6.11 8.14 9.22 3.45 4.04 6.7 8.25 10.24 12.2 3.41 3.8 7.24 7.23 10.62 11.04 2.92 3.3 5.47 6.94 8.21 10.4 2.15 2.7 4.4 5.33 6.5 8.05 3.3 4.25 6.52 8.58 9.8 12.9.31-.25.63-.38.66-.56.45-3.4 1.05-6.8 1.24-10.22.11-1.92-.38-3.89-.71-5.8-.41-2.31.43-4.54 2.19-5.34 1.56-.72 2.53-.1 2.6 1.62.17 4.78.43 9.56.49 14.33.03 2.1-.6 4.21-.52 6.3.11 3.43.55 6.86.85 10.28l-1.02-.29c0 2.54.07 5.1-.03 7.65-.04 1.37.26 3.19-1.9 3.32-2.1.14-2.73-1.24-2.9-3.1-.09-.94-.6-1.83-.8-2.76-.2-.94-.28-1.91-.41-2.87l.92-.38.9 1.63c.33-.27.56-.37.56-.48.06-3.6-.1-7.2-2.29-10.26-.79-1.1-2.1-1.83-3.07-2.82-5.22-5.4-10.49-10.75-15.58-16.26-3.44-3.71-6.6-7.66-9.95-11.45-1.37-1.55-2.96-2.92-4.38-4.44-2.8-2.97-5.6-5.96-8.35-8.99-4.7-5.19-9.37-10.38-14.02-15.6-3.26-3.66-6.38-7.45-9.72-11.04-3.21-3.46-6.68-6.67-9.92-10.1-2.28-2.4-4.38-4.96-6.52-7.47-2.77-3.25-5.42-6.61-8.28-9.77-2.08-2.28-4.49-4.27-6.65-6.49-3.42-3.48-6.74-7.05-10.14-10.56-3.15-3.26-6.38-6.44-9.49-9.73-2.14-2.28-4.05-4.79-6.23-7.03-2.64-2.7-5.5-5.17-8.17-7.85-2.33-2.33-4.5-4.82-6.79-7.2-3.86-4.01-7.7-8.06-11.66-11.99-3.43-3.4-7.05-6.6-10.47-9.99-3.5-3.47-6.8-7.16-10.33-10.6-2.62-2.57-5.53-4.83-8.18-7.38-3.47-3.33-6.73-6.9-10.22-10.22-3.56-3.36-7.33-6.5-10.92-9.82-1.96-1.82-3.68-3.9-5.62-5.74-3.81-3.63-7.72-7.16-11.58-10.74-4.32-4-8.61-8.03-12.94-12.02-3.16-2.92-6.38-5.8-9.8-8.5 2.38 2.97 4.73 5.97 7.16 8.9 4.06 4.9 8.23 9.73 12.26 14.65 4.24 5.19 8.31 10.5 12.57 15.67 5.3 6.42 10.75 12.71 16.04 19.14 3.66 4.45 7.1 9.1 10.75 13.56 2.1 2.58 4.5 4.94 6.65 7.5 2.33 2.77 4.52 5.66 6.8 8.48 3.43 4.27 7 8.43 10.3 12.8 5.25 6.98 10.36 14.07 15.47 21.16 1.87 2.6 3.57 5.32 5.33 8 .14.22.07.57.18 1.63l-5.58-5.89-.5.42 7.77 12.06c-.55.5-1.02.9-1.56 1.37l3.68 5.2c2.35 3.28 4.72 6.54 7.05 9.83.31.45.68.98.71 1.48.03.58-.3 1.16-.47 1.75-.55-.25-1.28-.36-1.6-.78-6.96-9.14-13.82-18.35-20.8-27.47a1915 1915 0 0 0-18.22-23.34 1335.01 1335.01 0 0 0-16.1-20.07 867.16 867.16 0 0 0-14.88-17.62c-6.1-7.05-12.22-14.08-18.5-20.96-5-5.47-10.29-10.7-15.41-16.06-2.17-2.26-4.25-4.61-6.8-6.56 1.65 2.09 3.32 4.17 4.95 6.27 5.6 7.17 11.19 14.34 16.78 21.53 5.29 6.8 10.59 13.57 15.84 20.41 6.31 8.24 12.66 16.44 18.82 24.8 6.78 9.21 13.49 18.5 20.02 27.91 6.86 9.86 13.6 19.8 20.12 29.88 2.96 4.57 5.27 9.57 7.78 14.42.27.53-.1 1.4-.16 2.1-.8-.16-1.9-.07-2.35-.55a104.87 104.87 0 0 1-5.94-7.07c-3.33-4.31-6.56-8.7-9.82-13.05-4.46-5.96-8.92-11.93-13.4-17.89-6.67-8.87-13.34-17.75-20.05-26.61-2.61-3.45-5.3-6.83-8-10.22a3.47 3.47 0 0 0-1.98-1.28c2.6 3.5 5.2 6.98 7.78 10.5 4.59 6.26 9.2 12.51 13.71 18.83 3.6 5.05 7.08 10.18 10.6 15.27 5.96 8.61 12 17.17 17.85 25.86 3.45 5.13 6.64 10.44 9.83 15.74.34.55-.07 1.55-.13 2.34-.65-.29-1.55-.39-1.9-.88-3.63-5.05-7.16-10.16-10.73-15.24-3.62-5.13-7.25-10.23-10.87-15.35-3.81-5.39-7.6-10.8-11.43-16.18a776.64 776.64 0 0 0-8.69-11.87c-5.01-6.73-10.01-13.49-15.11-20.17-4.41-5.77-8.92-11.47-13.45-17.16-3.04-3.83-6.2-7.57-9.3-11.35-3.69-4.49-7.3-9.04-11.07-13.46a320.32 320.32 0 0 0-12.85-14.26c36.96 48.45 73.45 97.2 105.31 149.45.63-2.87 1.42-5.68 1.86-8.55.62-4.12 1-8.28 1.46-12.42.08-.72-.07-1.46.08-2.15.18-.81.57-1.59.86-2.38.6.75 1.68 1.47 1.72 2.24.08 1.68-.37 3.37-.6 5.05-.88 6.57-1.72 13.14-2.67 19.7-.39 2.7-.94 5.36-1.53 8.02-.77 3.46-1.48 6.96-2.55 10.33-1.44 4.53-3.2 8.95-4.84 13.42-.59 1.6-1.02 3.29-1.81 4.79-4.34 8.17-8.74 16.33-13.19 24.45-1.08 2-2.58 3.76-3.6 5.76-.44.86-.56 2.3-.15 3.1 5.56 10.62 11.27 21.15 16.88 31.73 1.06 2 1.83 4.14 2.8 6.18 2.58 5.45 5.19 10.88 7.8 16.31 2.8 5.82 5.64 11.62 8.42 17.44 1 2.1 1.86 4.26 2.77 6.39l.03-.03c-1.12.71-1.98.51-2.57-.7-2.08-4.27-4.1-8.56-6.27-12.77-2.1-4.07-4.43-8.01-6.55-12.07-3.33-6.36-6.52-12.8-9.86-19.16-3.11-5.93-6.37-11.78-9.51-17.7-2.41-4.55-4.73-9.15-7.16-13.87-7.83 10.67-16.13 20.45-25.52 29.21l-.91-.74c1.75-2.29 3.43-4.63 5.28-6.84 3.52-4.22 7.24-8.26 10.65-12.56 2.89-3.65 5.46-7.54 8.17-11.32 1.34-1.87-.3-3.28-1-4.58-2.43-4.65-5.24-9.1-7.78-13.7-1.88-3.4-3.54-6.9-5.33-10.33-3.2-6.16-6.36-12.33-9.69-18.4-1.88-3.45-4.13-6.7-6.09-10.11-1.48-2.58-2.72-5.28-4.16-7.88-3.76-6.78-7.58-13.5-11.33-20.28-1.5-2.7-2.79-5.54-4.3-8.23-2.55-4.5-5.15-8.99-7.82-13.42-1.78-2.95-3.74-5.8-5.6-8.7-.3-.48-.64-1.01-.72-1.55-.7-4.26-3.98-7.06-5.95-10.6-3.49-6.27-6.9-12.59-10.52-18.77-1.96-3.35-4.35-6.43-6.4-9.72-2.17-3.48-4.13-7.1-6.27-10.6-2.88-4.74-5.74-9.5-8.77-14.15-3.18-4.85-6.55-9.57-9.85-14.35a1.8 1.8 0 0 0-1.1-.75c.63 1.2 1.18 2.46 1.91 3.62 2.73 4.3 5.57 8.54 8.29 12.87 3.25 5.16 6.41 10.4 9.61 15.59 3.86 6.24 7.85 12.41 11.54 18.75 7.8 13.4 15.48 26.85 23.13 40.32a562.8 562.8 0 0 1 10.92 19.96A1685.1 1685.1 0 0 1 656.13 372c3.25 6.62 6.29 13.36 9.44 20.03 2.71 5.76 5.51 11.5 8.2 17.28 1.71 3.71 3.33 7.47 4.84 11.28.24.6-.29 1.51-.47 2.28-.63-.5-1.54-.85-1.87-1.5-5.31-10.75-10.46-21.59-15.82-32.31-5.3-10.6-10.74-21.13-16.21-31.64-4.95-9.5-10.03-18.91-15.1-28.35-4.76-8.89-9.47-17.82-14.4-26.63-5.68-10.15-11.58-20.16-17.37-30.25-4.12-7.15-8.12-14.38-12.35-21.47-3.1-5.19-6.5-10.2-9.77-15.29-2.4-3.72-4.85-7.42-7.26-11.13l-.6.34 4.21 7.58c4.83 8.75 9.68 17.5 14.49 26.26 3.98 7.26 8 14.5 11.87 21.8 5.16 9.75 10.21 19.54 15.3 29.32 6.4 12.27 12.84 24.51 19.1 36.85 3.26 6.45 6.16 13.07 9.22 19.62 3.86 8.24 7.78 16.45 11.56 24.73a355.2 355.2 0 0 1 6.73 15.74 66.47 66.47 0 0 1 2.83 8.9c.26 1.08-.34 2.36-.54 3.55-1.03-.63-2.51-.99-3.04-1.9a980.8 980.8 0 0 1-13.4-23.78 997.82 997.82 0 0 1-11.3-21.6c-2.3-4.5-4.36-9.13-6.67-13.62-3.46-6.68-7.07-13.27-10.55-19.95-3.25-6.23-6.34-12.56-9.65-18.77-2.5-4.72-5.24-9.32-8.07-13.88 21.22 45.27 39.9 91.57 57.2 138.43l-1.05.8c-.67-.58-1.65-1.03-1.96-1.78-1.81-4.29-3.42-8.68-5.19-13-4.46-10.94-8.84-21.93-13.46-32.8-3.7-8.71-7.73-17.3-11.62-25.94-4.26-9.45-8.46-18.94-12.83-28.34-3.6-7.73-7.37-15.36-11.11-23.01-4.08-8.35-8.14-16.71-12.33-25-4-7.88-8.16-15.67-12.25-23.5-1-1.92-2.02-3.84-3.43-5.6 1.49 3.71 2.96 7.43 4.46 11.14 4.92 12.16 9.81 24.33 14.82 36.46 2.03 4.93 4.4 9.7 6.49 14.6 4 9.4 7.93 18.8 11.8 28.25a797.34 797.34 0 0 1 7.77 19.73c1.59 4.17 2.9 8.44 4.46 12.63 1.53 4.13 3.32 8.16 4.8 12.3 3.27 9.19 6.5 18.4 9.57 27.64 3.1 9.3 6.03 18.67 8.95 28.03.38 1.22.3 2.56.44 3.86l-.85.39c-.72-.74-1.77-1.35-2.11-2.23a853.46 853.46 0 0 1-6.6-17.85c-3.06-8.46-6.05-16.94-9.12-25.4-2.97-8.17-6.02-16.31-9-24.47-2.7-7.38-5.26-14.81-8.06-22.15-3.83-10.07-7.84-20.1-11.77-30.13-.06-.14-.23-.22-.57-.55 7.08 20.33 14.19 40.35 21.01 60.47 6.79 20 13.17 40.14 18.48 60.59l-1.06.58c-.6-.66-1.47-1.23-1.73-2-2.35-7.02-4.56-14.08-6.9-21.1-1.61-4.87-3.4-9.68-5-14.54-3.23-9.76-6.38-19.55-9.6-29.32-2.91-8.77-5.91-17.5-8.85-26.27-1.8-5.4-3.5-10.84-5.41-16.21-1.8-5.08-3.88-10.05-5.73-15.1-1.92-5.28-3.56-10.67-5.59-15.91-2.94-7.58-6.1-15.05-9.2-22.56-3.37-8.18-6.67-16.39-10.18-24.5-2.8-6.49-5.9-12.84-8.84-19.25-.56-1.21-1.07-2.45-2.13-3.48 7.67 23.39 15.57 46.71 22.93 70.2a2925.46 2925.46 0 0 1 21.35 71.19c6.8 23.78 13.01 47.74 18.38 71.71-1.9 1.29-2.8.54-3.25-.75-1.7-4.92-3.3-9.89-5-14.82a263.9 263.9 0 0 0-5.27-14.38l1.66 23.72-.72.19c-.29-.53-.74-1.03-.84-1.58-1.04-6.05-1.92-12.11-3.06-18.13-1.51-8-3.45-15.93-4.79-23.96-1.87-11.2-5.44-21.95-8.36-32.87a508.5 508.5 0 0 0-6.4-22.47c-2.48-7.85-5.36-15.58-8.03-23.37-.45-1.3-.64-2.7-1.1-4-.68-1.94-1.51-3.83-2.22-5.77-2.62-7.22-5.26-14.43-7.8-21.7-1.53-4.37-2.81-8.83-4.36-13.2-.84-2.35-2.13-4.52-3.01-6.86-2.53-6.72-4.93-13.5-7.46-20.22-1.17-3.1-2.57-6.13-3.73-9.24-1.26-3.38-2.25-6.87-3.6-10.21-1.22-3.03-2.79-5.92-4.16-8.9-.3-.63-.47-1.32-.64-2.01-.15-.62.03-1.43-.32-1.84-2.37-2.8-3.2-6.13-4.1-9.62-.85-3.3-2.89-6.27-4.26-9.45-1.73-3.99-3.25-8.06-4.97-12.04-1.41-3.26-3.07-6.42-4.45-9.7-1.24-2.97-2.17-6.06-3.39-9.05-.97-2.38-2.11-4.7-3.25-7.01-6.68-13.6-13.43-27.17-20.04-40.8-4.43-9.13-8.49-18.44-13.07-27.5-5.7-11.27-11.73-22.4-17.67-33.56-3.77-7.08-7.64-14.1-11.48-21.15a2.32 2.32 0 0 0-1.15-1.04c1.04 2.36 2.04 4.74 3.14 7.07 3.66 7.8 7.42 15.55 11.02 23.38 4.11 8.93 8.2 17.86 12.12 26.88 5.2 11.98 10.25 24.05 15.32 36.1 4.1 9.7 8.18 19.41 12.18 29.16 4.65 11.34 9.2 22.71 13.78 34.06 3.77 9.35 7.57 18.7 11.28 28.06 1.54 3.87 2.81 7.86 4.32 11.75 2.04 5.2 4.33 10.3 6.27 15.53 4.3 11.56 8.45 23.18 12.65 34.77 3.03 8.4 6.12 16.79 9.06 25.22 1.91 5.5 3.6 11.06 5.41 16.6 2.61 7.95 5.31 15.87 7.86 23.85 1.95 6.1 3.65 12.28 5.55 18.4 2.6 8.39 5.41 16.72 7.9 25.15 2.56 8.7 4.8 17.49 7.28 26.21 1.62 5.7 3.49 11.32 5.12 17 .48 1.72 1.55 3.5.59 5.33l-.84.23c-.85-2.34-1.8-4.65-2.55-7.02-1.74-5.44-3.39-10.9-5.07-16.35-2.25-7.3-4.5-14.61-6.78-21.9-1.4-4.51-2.9-8.98-4.31-13.5-2.08-6.57-4.07-13.17-6.19-19.74-2.4-7.42-4.9-14.81-7.32-22.23-3.24-9.87-6.4-19.77-9.68-29.64-2.68-8.07-5.47-16.11-8.22-24.16-3.26-9.5-6.47-19.01-9.86-28.46-2.62-7.32-5.5-14.55-8.25-21.84-4.06-10.73-8.05-21.5-12.15-32.22-3-7.8-6.05-15.57-9.2-23.3a5991.45 5991.45 0 0 0-16.19-39.29c-1.6-3.87-3.38-7.68-5.04-11.54-.43-1-.73-2.04-1.16-3.22-.15-.1-1.06-.53-1.01-.7.77-2.96-1.03-5.3-2.03-7.68a1777.02 1777.02 0 0 0-16-36.86c-4.07-9.13-8.43-18.12-12.66-27.17-2.07-4.42-4.14-8.86-6.23-13.27-.2-.41-.5-.75-1.12-.96 1.96 4.64 3.9 9.28 5.87 13.92 2.6 6.14 5.16 12.3 7.86 18.4 4.14 9.36 8.41 18.66 12.57 28.02.51 1.15.56 2.5.98 3.7.24.7.79 1.28 1.34 2.12.08.63 0 1.7.34 2.6 3.6 9.38 7.24 18.75 10.93 28.1 4.77 12.04 9.64 24.04 14.37 36.08 3.32 8.47 6.6 16.96 9.72 25.5 3.78 10.32 7.35 20.72 11.05 31.08 3.73 10.46 7.6 20.87 11.2 31.38 3.42 9.97 6.55 20.04 9.82 30.05 4.06 12.45 8.26 24.88 12.2 37.37 2.97 9.4 5.64 18.89 8.42 28.34 2.01 6.85 4.07 13.69 5.93 20.58 1.39 5.11 2.53 10.29 3.72 15.45.36 1.59-.23 2.02-2.58 1.87a17554.58 17554.58 0 0 1-17.66-52.43c-2.74-8.23-5.43-16.47-8.17-24.7a7835.36 7835.36 0 0 0-12.3-36.22c-2.66-7.81-5.3-15.62-8.05-23.41a4487.2 4487.2 0 0 0-13.37-37.53c-2.78-7.7-5.72-15.35-8.61-23-4.25-11.2-8.46-22.39-12.79-33.55-3.07-7.94-6.24-15.83-9.47-23.7-3.77-9.18-7.68-18.28-11.5-27.43-2.71-6.53-5.29-13.13-8.11-19.6-3.68-8.46-7.52-16.84-11.33-25.24-2.28-5.04-4.61-10.06-6.98-15.06-4.5-9.5-9.05-18.97-14.1-28.24 1.18 3.23 2.33 6.47 3.55 9.7 2.8 7.38 5.52 14.78 8.5 22.09 2.05 5 4.61 9.77 6.72 14.74 5.13 12.11 10.18 24.25 15.16 36.41 4.31 10.5 8.56 21.02 12.7 31.58 3.5 8.98 6.85 18.03 10.18 27.08 2.8 7.59 5.52 15.19 8.2 22.8 2.6 7.36 5.1 14.75 7.7 22.1 2.54 7.2 5.25 14.33 7.7 21.55 2.9 8.59 5.61 17.24 8.41 25.86 2.14 6.57 4.34 13.13 6.45 19.71 2.43 7.6 4.8 15.2 7.2 22.8 2.25 7.18 4.6 14.35 6.72 21.58 2.3 7.87 4.35 15.82 6.59 23.71 1.53 5.4 3.3 10.74 4.8 16.16a1714.1 1714.1 0 0 1 7.82 29.01c1.85 7.15 3.59 14.33 5.11 21.55.46 2.15 1.68 4.5-.23 7.22-.76-1-1.63-1.74-1.96-2.66a858.98 858.98 0 0 1-6.76-19.65c-3.57-10.9-7.04-21.84-10.57-32.75-5.2-16-10.43-31.98-15.61-47.98-2.97-9.18-5.8-18.4-8.82-27.54-3.08-9.3-6.4-18.52-9.5-27.82-2.27-6.86-4.23-13.83-6.53-20.68-2.6-7.78-5.45-15.48-8.13-23.23-2.05-5.95-3.98-11.94-6.03-17.9-1.58-4.63-3.25-9.23-4.76-13.48 11.45 42.6 23.33 85.47 34.43 128.54 11.12 43.14 22.48 86.26 31.47 129.85-2.43 1.1-2.88-.34-3.17-1.55-1.25-5.16-2.38-10.35-3.59-15.52-1.87-8.05-3.8-16.1-5.67-24.14-2.53-10.96-4.96-21.93-7.58-32.86-2.17-8.98-4.56-17.9-6.88-26.85-3.08-11.91-6.1-23.83-9.3-35.7-1.69-6.29-3.75-12.48-5.5-18.75-2-7.2-3.78-14.44-5.75-21.64a61 61 0 0 0-3.38-9.44c.34 1.76.63 3.55 1.03 5.3 1.81 7.94 3.82 15.84 5.45 23.8 2.23 10.86 4.18 21.77 6.28 32.65 1.56 8.13 3.27 16.25 4.74 24.4 1.02 5.64 1.73 11.34 2.6 17.01.64 4.22 1.32 8.44 1.98 12.67 1.13 7.28 2.28 14.56 3.38 21.84.82 5.51 1.72 11.02 2.34 16.55.81 7.3 1.5 14.61 2.05 21.92.46 6.22.65 12.47.91 18.7.03.7-.13 1.45-.4 2.1-.67 1.52-1.8 1.75-2.65.3a17.65 17.65 0 0 1-2.17-5.01c-2.5-10.97-4.94-21.95-7.24-32.96-2.27-10.85-4.32-21.75-6.56-32.62-1.68-8.18-3.52-16.33-5.24-24.5-1.71-8.13-3.3-16.28-5.04-24.4-1.78-8.27-3.64-16.54-5.52-24.79-3.5-15.38-7.04-30.76-10.56-46.15l-5.24-22.81c-1.23-5.36-2.34-10.74-3.64-16.07-1.84-7.53-3.83-15.02-5.7-22.54-1.9-7.75-3.67-15.52-5.63-23.26-1.95-7.72-4.07-15.38-6.08-23.08-.79-3.04-1.44-6.11-2.17-9.17a2.24 2.24 0 0 0-.98-1.44c.17.95.3 1.9.5 2.84 1.9 9.06 3.84 18.12 5.72 27.2 2.37 11.42 4.67 22.87 7.06 34.31.9 4.26 1.97 8.49 2.88 12.73 1.83 8.51 3.65 17.02 5.37 25.56a1696 1696 0 0 1 5.15 26.37c2.25 12.1 4.4 24.24 6.63 36.36 1.76 9.58 3.65 19.14 5.33 28.73 1.28 7.32 2.3 14.68 3.48 22.02l5.81 36.55c.14.88.29 1.8.19 2.66-.08.66-.54 1.28-.84 1.91-.57-.46-1.56-.86-1.65-1.4-.77-4.64-1.36-9.3-2.05-13.93-.82-5.58-1.68-11.14-2.57-16.7-.9-5.65-1.85-11.27-2.8-16.9-1.19-7.1-2.37-14.2-3.6-21.3-1.38-8.02-2.8-16.03-4.24-24.04a2208.53 2208.53 0 0 0-8.81-46.2c-2.37-11.67-4.8-23.33-7.23-35-2.65-12.75-5.25-25.53-8-38.26-1.36-6.3-3.02-12.53-4.55-18.78-1.92-7.88-3.77-15.77-5.76-23.63-1.91-7.59-3.95-15.14-5.93-22.7-2.15-8.15-4.2-16.33-6.47-24.45-3.19-11.38-6.5-22.72-9.88-34.04-2.95-9.82-6.08-19.59-9.14-29.37-.11-.35-.36-.65-.92-.85l4.28 19.46c1.27 5.82 2.48 11.66 3.79 17.48 1.4 6.18 2.81 12.35 4.32 18.5 2.06 8.34 4.14 16.69 6.35 25 1.85 7 3.97 13.92 5.87 20.9 1.4 5.1 2.57 10.26 3.95 15.36 1.47 5.44 3.14 10.82 4.58 16.26 1.18 4.48 2.13 9.03 3.22 13.54.96 3.98 2 7.94 2.95 11.92 1.66 6.97 3.3 13.94 4.9 20.91 2.75 12 5.58 23.98 8.18 36.01 2 9.31 3.65 18.7 5.52 28.04 2.22 11.13 4.61 22.23 6.71 33.38 1.82 9.66 3.34 19.38 5 29.07.87 5.02 1.85 10.03 2.64 15.06 1.48 9.22 2.88 18.45 4.28 27.69 1.29 8.46 2.6 16.92 3.75 25.4A739.4 739.4 0 0 1 501 445.1c.45 4.34.72 8.7.94 13.06.03.82-.57 1.67-.88 2.5-.66-.7-1.73-1.32-1.92-2.12-.97-4.4-1.73-8.84-2.55-13.27-1.07-5.77-2.16-11.54-3.16-17.32-1.11-6.44-2.1-12.9-3.2-19.34-.98-5.65-2.04-11.3-3.06-16.94-1.27-7.14-2.5-14.28-3.8-21.41-1.25-6.89-2.6-13.76-3.86-20.65-.86-4.67-1.65-9.35-2.5-14.01a4.2 4.2 0 0 0-1.04-2.23c.36 2.8.69 5.6 1.1 8.4.93 6.31 1.94 12.62 2.85 18.93.88 6.06 1.79 12.13 2.43 18.23.53 5.1.65 10.26 1.1 15.38.4 4.47 1.18 8.9 1.47 13.39.32 5.08.37 10.18.34 15.27 0 .82-1.03 1.64-1.59 2.45-.6-.6-1.31-1.15-1.8-1.84-.53-.75-.84-1.66-1.29-2.56.35 5.86.9 11.64.97 17.43.06 5.07-.38 10.14-.68 15.22-.02.36-.91 1.04-1.11.94-.82-.38-1.81-.83-2.2-1.56a19.34 19.34 0 0 1-1.9-4.93c-2.06-9.38-4.02-18.77-5.98-28.17-1.3-6.27-2.66-12.52-3.8-18.82-1.3-7.22-2.33-14.5-3.6-21.73-1.26-7.22-2.7-14.41-4.02-21.63-1.29-7.07-2.48-14.16-3.76-21.23-1.66-9.19-3.38-18.36-5.07-27.53-1.57-8.5-3.1-17-4.73-25.49-1.25-6.47-2.64-12.92-3.9-19.4-1.3-6.77-2.48-13.58-3.82-20.35-1.52-7.74-3.18-15.46-4.73-23.2-2.07-10.33-4.06-20.68-6.13-31.01-1.1-5.51-2.29-11.02-3.42-16.53-1.63-7.94-3.27-15.9-4.88-23.85-1.6-7.89-3.13-15.79-4.77-23.67-1.79-8.66-3.42-17.37-5.61-25.92-1.18-4.6-3.4-8.92-5.14-13.37-.2.04-.4.08-.61.1-.16.4-.5.8-.46 1.18.64 5.77 1.15 11.57 2.06 17.3 1.23 7.75 2.76 15.44 4.21 23.16 1.73 9.25 3.42 18.52 5.28 27.74a2020.2 2020.2 0 0 0 7 33.27c1.72 7.87 3.68 15.7 5.46 23.55 2.14 9.41 4.2 18.83 6.3 28.26 1.44 6.36 3 12.69 4.35 19.07 1.3 6.08 2.37 12.2 3.6 18.3 1.3 6.48 2.76 12.93 4.02 19.42 1.78 9.2 3.42 18.4 5.14 27.6 1.98 10.54 4.02 21.07 5.99 31.61 1.01 5.45 1.9 10.92 2.88 16.38.96 5.38 1.96 10.75 2.89 16.13 1.16 6.75 2.26 13.5 3.4 20.26.92 5.53 1.94 11.05 2.77 16.6.8 5.34 1.48 10.7 2.03 16.06.07.66-.95 1.44-1.46 2.16-.47-.63-1.21-1.2-1.34-1.9a3092.06 3092.06 0 0 1-5.81-31.91c-1.57-8.94-2.95-17.9-4.58-26.84-1.05-5.77-2.4-11.5-3.56-17.25a7772.21 7772.21 0 0 1-8.05-40.84c-.95-4.91-1.6-9.88-2.6-14.79-1.32-6.53-2.95-13-4.26-19.54-1.44-7.17-2.59-14.41-4-21.6-1.5-7.68-3.22-15.32-4.74-23-1.27-6.39-2.33-12.82-3.58-19.2a3106.5 3106.5 0 0 0-6.43-32c-1.52-7.32-3-14.64-4.85-21.87a3736.24 3736.24 0 0 0-12.2-46.06c-2.38-8.82-4.9-17.61-7.38-26.4-.17-.6-.6-1.13-1.06-1.97-1.23 2.77-2.39 5.27-3.4 7.81-.26.67-.2 1.57 0 2.29 2.71 9.45 5.6 18.84 8.18 28.32a555.89 555.89 0 0 1 6.46 25.71c2.84 12.73 5.33 25.53 8.02 38.3 1.72 8.18 3.67 16.33 5.28 24.55 1.66 8.53 3 17.11 4.5 25.67 1.37 7.85 2.85 15.66 4.1 23.52 1.2 7.54 2.13 15.11 3.24 22.66.62 4.29 1.38 8.56 2.01 12.85.62 4.2 1.14 8.42 1.71 12.63.67 4.95 1.37 9.9 2.02 14.85.55 4.23 1.06 8.48 1.58 12.72.81 6.77 1.67 13.56 2.42 20.34.57 5.2 1.01 10.42 1.48 15.63.67 7.33 1.34 14.66 1.94 22 .15 1.83.16 3.7 0 5.53-.09.88-.72 1.7-1.1 2.56l-.88-.05c-.46-1.13-1.15-2.22-1.34-3.4-1.38-8.79-2.65-17.6-3.97-26.4l-4.34-28.74c-1.5-9.88-2.92-19.78-4.5-29.64-1.18-7.38-2.64-14.7-3.84-22.08-1.4-8.75-2.63-17.53-4.03-26.28-.73-4.61-1.64-9.18-2.47-13.77-1.44-7.98-2.87-15.95-4.33-23.92-1.75-9.47-3.57-18.92-5.27-28.4-.95-5.33-1.63-10.71-2.64-16.04-1.5-7.9-3.24-15.78-4.8-23.68-1.05-5.38-1.9-10.8-2.97-16.17-1.86-9.46-3.84-18.91-5.74-28.37-1.09-5.4-2.11-10.8-3.28-16.76-.55 1.08-.91 1.73-1.22 2.42-2.88 6.4-6 12.71-8.6 19.22-4.21 10.5-7.35 21.37-10.06 32.36-1.74 7.04-3.92 13.97-5.84 20.96-1.94 7.08-3.8 14.17-5.68 21.26-1.8 6.79-3.63 13.55-5.38 20.35-3.63 14.1-7.3 28.18-10.78 42.32a1382.3 1382.3 0 0 0-7.46 32.49c-1.93 8.77-3.62 17.6-5.49 26.39-2.04 9.6-4.26 19.18-6.26 28.8-1.93 9.3-3.71 18.65-5.46 28-1.23 6.62-2.3 13.28-3.42 19.92-.05.3.03.62.41.98.67-2.94 1.43-5.88 2.01-8.84 1.62-8.2 3.17-16.43 4.73-24.65 1.23-6.51 2.33-13.04 3.67-19.52 1.7-8.12 3.62-16.19 5.4-24.29 1.02-4.62 1.86-9.28 2.95-13.9 1.55-6.6 3.21-13.18 4.88-19.76 2.9-11.5 5.74-23 8.81-34.45 2.14-7.95 4.56-15.82 6.95-23.7 3.18-10.54 6.31-21.1 9.7-31.58 2.9-8.98 6.14-17.87 9.25-26.78 1.93-5.53 3.68-11.15 5.9-16.56 3.59-8.75 7.47-17.4 11.36-26.02.36-.8 1.7-1.17 2.56-1.72.38 1.07 1.23 2.22 1.07 3.2-.57 3.54-1.85 7-2.17 10.55-.3 3.3.05 6.71.46 10.03.82 6.54 1.82 13.06 2.83 19.58 1.28 8.21 2.55 16.43 3.96 24.61 1.34 7.78 2.95 15.51 4.26 23.3 1.15 6.85 2.04 13.73 3.05 20.6.55 3.75 1.14 7.49 1.57 11.24.14 1.26-.17 2.57-.27 3.85l-1.14.22c-.52-1.28-1.31-2.5-1.54-3.83-1.25-7.63-2.35-15.28-3.53-22.93-1.22-7.88-2.47-15.76-3.7-23.63l-2.86-18.24c0 3.92.1 7.83-.06 11.75-.03 1.12-.76 2.22-1.17 3.32-.67-.77-1.74-1.44-1.95-2.32-1.45-5.85-2.73-11.74-3.86-16.78l-2.62 17.6-.62.23c-.42-.52-1.2-1.06-1.19-1.56.19-4.1-.3-8.5 1.02-12.23 2.11-6.01 1.36-12.04 1.83-18.07.08-.97.05-1.98.36-2.89.21-.64.9-1.13 1.38-1.69.37.7 1.01 1.37 1.06 2.08.29 4.2.23 8.44.69 12.62.56 5.24 1.51 10.45 2.7 15.62-.78-11.93-1.3-23.87-4.15-35.52l-.76-.06c-.77 3.34-1.5 6.69-2.32 10.01-.42 1.73-1.02 3.42-1.48 5.14-.2.76-.66 1.77-.36 2.31 1.72 3.2.02 6.13-.68 9-1.8 7.24-3.97 14.38-6 21.57-2.97 10.52-6.1 20.99-8.88 31.55-2.38 9.04-4.39 18.17-6.53 27.26-2.9 12.33-5.87 24.64-8.65 37-1.98 8.75-3.67 17.58-5.57 26.36-2.01 9.33-4.2 18.63-6.14 27.97-1.82 8.75-3.4 17.55-5.1 26.32-1.89 9.66-3.97 19.27-5.65 28.96a986.75 986.75 0 0 0-5.14 32.97c-.44 3.16.05 6.43-.02 9.64-.05 2.51 1.15 3.34 3.48 3.12.46-.04.94.31 1.83.63-5.25.83-6.35 0-6.6-4.73-.1-1.62-.03-3.24-.03-5.23-1.83 3.01-.5 7.07-3.65 8.96l-1.16-.31c.32-3.4.54-6.83.98-10.2.68-5.28 1.46-10.54 2.27-15.79.92-5.96 1.92-11.92 2.9-17.88.98-6.04 1.94-12.07 2.98-18.1.78-4.51 1.67-9.01 2.54-13.52 1.26-6.55 2.48-13.1 3.86-19.64 2.12-10.12 4.37-20.21 6.52-30.32.71-3.31 1.3-6.65 1.95-9.96l-.6-.14c-1 4.15-2.03 8.3-2.96 12.46a2932.74 2932.74 0 0 0-13.06 61.37c-1.65 8.2-3.05 16.45-4.62 24.68-1.25 6.55-2.5 13.1-3.94 19.62A632.53 632.53 0 0 1 309.5 470c-.22.88-1.43 1.53-2.18 2.28-.53-.98-1.55-1.98-1.5-2.93.31-6.8.8-13.6 1.32-20.4.27-3.45.74-6.87.76-10.38-.88 3.9-1.69 7.83-2.7 11.7-.21.75-1.24 1.29-1.9 1.93-.32-.8-1.01-1.65-.91-2.39 1.38-10.15 2.76-20.3 4.36-30.4 1.21-7.62 2.76-15.17 4.13-22.75 1.24-6.82 2.38-13.66 3.7-20.47 1.33-6.95 2.81-13.89 4.23-20.83.8-3.85 1.56-7.68 2.35-11.53l-.87-.19-30.04 132.34c3.68.12 7.01.18 10.35.33 5.99.26 11.98.64 17.97.84 7.81.25 15.62.36 23.43.56 5.88.15 11.77.39 17.66.48 6.1.1 12.22-.02 18.32.07 4.17.07 8.35.41 12.53.49 3.19.06 6.38-.1 9.57-.15 4.8-.08 9.6-.25 14.4-.18 5.55.08 11.1.47 16.63.6 4.09.09 8.17-.07 12.26-.04 3.87.03 7.74.16 11.62.22 1.2.02 2.4-.1 3.62-.04.98.03 1.96.23 3.16.38.04-.2.08-.75.29-1.22.18-.38.57-.65.86-.98l.84.93c.31.37.6 1.09.92 1.1 1.93.05 3.86-.16 5.8-.1 2.7.07 5.41.3 8.16.46.2 2.18-1.17 2.19-2.64 2.17-1.38-.01-2.74.07-4.12.12-.08 0-.16.04-.24.04-2.34-.25-4.68-.56-7.03-.71-1.31-.09-2.65.2-3.98.18-3.08-.02-6.16-.23-9.24-.18-3.3.05-6.6.33-9.9.46-3.03.12-6.07.23-9.1.24-4.18.01-8.37-.09-12.55-.08-5.91 0-11.84.07-17.75.1-8.74.03-17.47.1-26.21.07-10.97-.04-21.92-.22-32.89-.25-6.5-.02-13.02.17-19.52.17-2.83 0-5.66-.31-8.48-.47-4.91-.27-9.81-.56-14.73-.79-2.5-.12-5.01-.05-7.5-.22-1.7-.12-2.97-.1-4.4 1.4-1.69 1.74-2.02-.48-2.54-1.95a351.63 351.63 0 0 1-47.78-5.47c-.95 3.43-1.77 6.77-2.84 10.03-.3.87-1.34 1.48-2.04 2.21l-1.07-.61 2.37-11.93c-.1-.04-.48-.1-.75-.3-.52-.4-.98-.88-1.47-1.32.62-.24 1.28-.43 1.85-.75.58-.34 1.45-.7 1.59-1.23 1.78-6.54 3.32-13.15 5.19-19.66 2.88-10.03 5.98-19.99 8.94-29.99 2.53-8.56 4.92-17.17 7.54-25.7 1.7-5.54 3.72-10.98 5.52-16.5 2.15-6.56 4.22-13.15 6.29-19.74 2.98-9.5 6-19 8.88-28.53 3.27-10.81 6.27-21.72 9.64-32.5 4.26-13.68 8.73-27.3 13.21-40.92 1.93-5.84 4.1-11.61 6.19-17.41 3.96-11.02 7.94-22.03 11.58-33.2-1.53 3.23-3.07 6.45-4.57 9.7-3.93 8.46-7.91 16.9-11.74 25.4-3.77 8.37-7.35 16.82-11.06 25.21-3.28 7.44-6.67 14.82-9.93 22.28-1.75 3.97-3.28 8.04-4.95 12.06-2.56 6.14-5.22 12.25-7.74 18.42-3.2 7.8-6.25 15.63-9.44 23.44-2.23 5.5-4.62 10.93-6.87 16.42-1.79 4.39-3.48 8.81-5.19 13.22-2.59 6.69-5.14 13.38-7.72 20.07-3.3 8.54-6.68 17.08-9.92 25.65-2.75 7.27-5.26 14.63-8.06 21.89-2.16 5.63-4.6 11.16-6.92 16.72-.6 1.45-1.45 2.4-3.6 1.15.62-3.12 1.04-6.47 1.97-9.67 3.6-12.3 7.32-24.57 11.08-36.82 2.7-8.82 5.47-17.63 8.37-26.4 2.3-6.94 4.87-13.8 7.27-20.7 2.3-6.62 4.5-13.26 6.83-19.86 2.24-6.35 4.57-12.68 6.9-19 2.75-7.44 5.5-14.9 8.33-22.31 3.53-9.25 7.1-18.47 10.75-27.67 2.54-6.42 5.25-12.78 7.84-19.18 2.5-6.2 4.9-12.45 7.43-18.63 1.88-4.6 3.92-9.14 5.87-13.71 2.6-6.13 5.15-12.3 7.8-18.4 2.72-6.25 5.55-12.45 8.27-18.69 3.02-6.9 5.91-13.85 8.98-20.74 2.35-5.29 4.9-10.48 7.32-15.73 3.57-7.71 7.06-15.46 10.67-23.15 3.5-7.44 7.1-14.82 10.65-22.24.23-.48.34-1.02.17-1.68-1.8 3.33-3.67 6.64-5.4 10.02a1477.3 1477.3 0 0 0-8.85 17.5c-3.8 7.65-7.52 15.32-11.34 22.95-2.64 5.29-5.52 10.46-8.03 15.8A2828.47 2828.47 0 0 0 297 206.38c-3.86 8.55-7.57 17.18-11.29 25.8-4.65 10.78-9.34 21.56-13.83 32.42-2.92 7.06-5.5 14.26-8.25 21.38-4.94 12.84-9.97 25.63-14.8 38.5-3.52 9.39-6.8 18.88-10.12 28.33-2.67 7.63-5.29 15.28-7.86 22.95-2.84 8.45-5.54 16.96-8.4 25.41-2.2 6.54-4.6 13.02-6.78 19.57-1.73 5.19-3.22 10.46-4.87 15.68a19.7 19.7 0 0 1-1.44 3.59c-.28.5-1.05.74-1.6 1.1-.3-.6-.72-1.17-.88-1.81-.1-.4.15-.93.28-1.38 1.6-5.49 3.15-10.98 4.8-16.44 2.7-8.95 5.38-17.9 8.21-26.81 2.97-9.34 6.11-18.62 9.2-27.93 1.44-4.32 2.95-8.6 4.1-13.06-1.67 3.56-3.37 7.12-5.03 10.69-2.95 6.3-5.92 12.59-8.82 18.9-4.76 10.38-9.48 20.76-14.23 31.14-3.4 7.45-6.8 14.9-10.29 22.32-1.13 2.4-2.49 4.69-3.8 7-.36.63-.81 1.36-1.4 1.62-.83.36-1.9.58-2.74.37-.43-.11-.92-1.34-.83-2 .62-4.62.97-9.34 2.17-13.82 3.47-12.97 7.14-25.88 11.03-38.72a840.99 840.99 0 0 1 10.11-30.93c3.2-9.27 6.73-18.44 10.1-27.65 1.54-4.2 3.03-8.42 4.33-12.7-1.34 2.17-2.83 4.28-4.02 6.53-2.84 5.38-5.5 10.88-8.33 16.27a1174.7 1174.7 0 0 1-9.76 18.05c-2.97 5.42-6.01 10.78-9.02 16.18-2.56 4.58-5.14 9.15-7.6 13.78-.7 1.33-.98 2.88-1.62 4.25-.33.7-1.02 1.22-1.54 1.83l-.54-.36c.98-2.27 1.9-4.58 2.97-6.82 1.36-2.88 2.87-5.7 4.27-8.56.78-1.57 1.48-3.2 2.24-4.78 2.2-4.58 4.3-9.2 6.64-13.72 2.51-4.88 5.28-9.64 7.86-14.5 2.14-4.02 4.13-8.11 6.25-12.15 2.38-4.53 4.86-9.01 7.23-13.54 1.99-3.78 3.82-7.65 5.86-11.4 1.95-3.57 4.19-6.99 6.12-10.56 1.84-3.4 3.58-6.86 5.12-10.4 3.63-8.41 7.09-16.89 10.64-25.32 2.5-5.96 4.97-11.94 7.57-17.86 2.2-5 4.64-9.9 6.9-14.88 2.35-5.19 4.58-10.43 6.93-15.62 1.96-4.32 4-8.6 6-12.92 1.86-4 3.66-8.03 5.59-12 4.24-8.75 8.57-17.46 12.83-26.2a44.16 44.16 0 0 0 3-7.65c-.36.5-.78.97-1.07 1.5-3.7 6.81-7.42 13.6-11.03 20.43-1.8 3.41-3.35 6.95-5.08 10.4-1.97 3.93-4.06 7.8-6 11.74a2584.5 2584.5 0 0 0-10.23 20.98c-4.72 9.78-9.52 19.51-14.07 29.36-4.16 9.03-8 18.2-12.04 27.28a3301.08 3301.08 0 0 1-13.67 30.35c-.37.8-1.39 1.3-2.1 1.94-.09-1.01-.53-2.17-.2-3.02 2.68-7.05 5.38-14.1 8.32-21.04 3.18-7.47 6.61-14.84 9.94-22.25 2.33-5.14 4.62-10.3 7-15.41 4.07-8.72 8.2-17.4 12.3-26.1 2.98-6.29 5.88-12.6 8.96-18.83 3.44-6.98 7.04-13.87 10.6-20.8 3.92-7.65 7.8-15.33 11.81-22.94 3.16-5.98 6.54-11.86 9.71-17.84 3.05-5.74 5.86-11.58 8.94-17.3 2.98-5.5 6.12-10.92 9.27-16.34 4.69-8.08 9.35-16.17 14.2-24.15 5.77-9.5 11.73-18.91 17.6-28.36a45.71 45.71 0 0 0 3.83-7.18c-2.58 2.23-5.27 4.35-7.72 6.71-5.02 4.84-9.84 9.9-14.9 14.7-5.38 5.13-11.09 9.92-16.38 15.14a365.13 365.13 0 0 0-17.07 17.89c-10.09 11.36-19.94 22.94-29.88 34.44-8.53 9.86-17.2 19.6-25.54 29.61-7.53 9.06-14.66 18.46-22.04 27.65-3.65 4.55-7.62 8.84-11.14 13.49-5.25 6.93-10.17 14.12-15.32 21.12-4.02 5.46-8.25 10.74-12.27 16.2-2.48 3.36-4.58 7-7.1 10.32-6.58 8.7-13.36 17.24-19.93 25.94-3.6 4.75-6.9 9.75-10.46 14.54-2.54 3.42-5.47 6.56-7.95 10.03a1022.64 1022.64 0 0 0-16.96 24.36c-2.99 4.45-6.62 8.38-9.12 13.29-2.43 4.8-6.42 8.8-9.6 13.22-2.9 4.06-5.61 8.25-8.48 12.34-1.43 2.04-3.07 3.93-4.53 5.93-3.38 4.63-6.77 9.26-10.06 13.95-2.65 3.8-5.12 7.74-7.76 11.54-2.39 3.44-4.92 6.77-7.37 10.16-1.92 2.66-3.77 5.35-5.7 7.99-3.46 4.71-7 9.37-10.42 14.1-1.98 2.73-3.75 5.6-5.74 8.32-4 5.49-8.08 10.9-12.13 16.35a100.63 100.63 0 0 1-7.5 9.29c0-.46-.18-1.05.03-1.38 2.42-3.8 4.95-7.55 7.35-11.38 1.5-2.4 2.73-4.95 4.26-7.33 2.59-4 5.28-7.94 7.96-11.88 2.08-3.05 4.2-6.07 6.33-9.07 2.24-3.16 4.54-6.27 6.76-9.44 3.58-5.06 7.1-10.16 10.67-15.24 3.38-4.8 6.83-9.58 10.19-14.39 2.5-3.57 4.84-7.24 7.39-10.77 2.41-3.35 5.07-6.53 7.5-9.88 4.36-6 8.63-12.06 12.95-18.07 4.08-5.67 8.22-11.3 12.27-16.97 4.3-6.04 8.48-12.2 12.85-18.2 4.44-6.08 9.05-12.04 13.55-18.08 1.35-1.81 2.58-3.7 3.88-5.55 4.84-6.87 9.68-13.75 14.55-20.59 3.7-5.18 7.38-10.39 11.2-15.48 1.66-2.21 3.72-4.11 5.5-6.25.9-1.1 1.5-2.46 2.36-3.59 3.83-4.99 7.76-9.9 11.57-14.91 1.78-2.34 3.32-4.87 5.02-7.27a913.1 913.1 0 0 1 8.68-12.02c1.99-2.68 4.04-5.33 6.15-7.92 2.33-2.86 4.81-5.6 7.15-8.46.95-1.17 1.6-2.6 2.52-3.8 1.91-2.47 3.93-4.86 5.9-7.28 2.5-3.08 5.01-6.14 7.48-9.23 1.64-2.06 3.12-4.25 4.86-6.22 1.45-1.65 3.23-3.02 4.76-4.6.46-.48.55-1.29.8-1.95.7-1.75 1.1-2.07 1.9-2.05l4.28-6.48.83 1.97 3.4-4.42 3.05-4.15-.14.16Zm307.17 188.92 3.03 9.94.79-.25c-1.15-3.22-2.3-6.42-3.47-9.63-.01-.04-.28 0-.44 0l-2.47-10.15c-.29.08-.59.15-.87.24l3.42 9.85h.01Zm9.97 30.2c.08.8 0 1.63.25 2.37 1.05 3.2 2.2 6.36 3.31 9.54.04-1.44-.32-2.77-.78-4.06-.92-2.61-1.88-5.2-2.82-7.8l-4-13.76-.65.2c.82 2.54 1.62 5.08 2.48 7.6.7 1.99 1.47 3.95 2.21 5.92Zm-230.37-30.48c-.43.84-1.06 1.65-1.25 2.54a2874.53 2874.53 0 0 0-6.83 31.9c-.97 4.7-1.68 9.46-2.51 14.2l.44.08c3.37-16.25 6.74-32.5 10.08-48.78l1.95-8c-.32-.06-.66-.11-.98-.18l-.9 8.23Zm-11.08-82.1c-1.77 4.45-3.68 8.84-5.28 13.36-2.06 5.84-3.84 11.76-5.8 17.64-2.95 8.85-6.07 17.65-8.92 26.55-2.27 7.1-4.22 14.32-6.36 21.46-3.43 11.49-6.98 22.94-10.34 34.44a2156.74 2156.74 0 0 0-9.08 32.32c-1.53 5.57-2.88 11.2-4.32 16.8-1.02 3.96-2.17 7.89-3.04 11.89-.75 3.39-1.17 6.84-1.74 10.27 1.52-4.53 2.8-9.1 4-13.69 2.2-8.3 4.27-16.62 6.53-24.9 2-7.36 4.17-14.67 6.27-22 1.6-5.58 3.18-11.15 4.84-16.7 2.39-7.96 4.89-15.87 7.26-23.83 2.28-7.6 4.39-15.26 6.69-22.85a1238 1238 0 0 1 7.1-22.51c3.43-10.62 6.96-21.19 10.4-31.8.7-2.11 1.22-4.29 1.82-6.43l3.19-7.83-.87-.3-2.34 8.1v.02Zm317.28-9.8 4.96 7.33.72-.53-5.72-6.77c-3.15-4.37-6.2-8.8-9.45-13.08-3.87-5.1-7.92-10.05-11.87-15.07-3.5-4.45-6.9-8.94-10.45-13.34-3.53-4.4-7.22-8.7-10.75-13.11-.5-.62-.49-1.65-.72-2.5.89.37 2 .53 2.62 1.17 1.69 1.74 3.13 3.7 4.73 5.54 5.52 6.36 11.12 12.66 16.57 19.08 4.34 5.1 8.48 10.37 12.73 15.54 5.54 6.74 11.21 13.38 16.61 20.21 5.69 7.2 11.1 14.6 16.67 21.9 1.52 2 3.16 3.92 4.75 5.88l.48-.36c-3-4.25-5.85-8.59-9-12.72-6.26-8.21-12.65-16.31-19.02-24.44-4.68-5.99-9.33-12-14.12-17.9-5.51-6.78-11.17-13.44-16.74-20.18-.54-.66-.77-1.55-1.14-2.34l1.06-.78c5.7 5.27 10.17 11.68 15.2 17.55 5.1 5.94 9.96 12.08 15.37 18.68-.2-.97-.18-1.23-.3-1.4-3.83-5.12-7.59-10.29-11.52-15.33-6.94-8.9-14-17.7-20.97-26.56-2.78-3.53-5.31-7.27-8.27-10.63-3.14-3.56-6.61-6.84-10.02-10.16-1.87-1.8-3.9-3.45-5.85-5.16a44.43 44.43 0 0 0 5.2 6.29c3.08 3.25 6.2 6.47 9.22 9.76.39.43.35 1.24.51 1.87-.7-.11-1.48-.1-2.1-.38-.56-.25-.97-.84-1.42-1.3-4.29-4.45-8.53-8.95-12.86-13.35-5.95-6.05-11.99-12.02-17.95-18.06-9.7-9.82-19.34-19.74-29.12-29.48-5.29-5.27-10.84-10.28-16.24-15.43-5.68-5.4-11.3-10.85-17-16.23-2.77-2.62-5.66-5.12-8.49-7.68 3.62 4.58 7.6 8.77 11.56 13 8.9 9.48 17.82 18.97 26.7 28.5 4.12 4.42 8.27 8.82 12.22 13.4 5.6 6.49 11 13.12 16.5 19.68 4.25 5.08 8.58 10.08 12.74 15.24 2.22 2.74 3.91 5.94 6.25 8.55 4.88 5.45 10.16 10.54 15.08 15.95 6.78 7.47 13.43 15.05 20.04 22.68 5.22 6.05 10.24 12.28 15.4 18.37 2.34 2.75 4.8 5.37 7.2 8.06v.03ZM366.41 41.93l-.06-.06c-1.34 1.9-2.57 3.9-4.04 5.68-3.28 3.99-6.95 7.67-9.99 11.84a209.05 209.05 0 0 0-10.02 15.45 353.11 353.11 0 0 0-9.13 16.26 820.74 820.74 0 0 0-10.32 20.13 411.76 411.76 0 0 0-8.22 17.36c-1.39 3.15-2.26 6.52-3.38 9.8-1.17 3.42-2.32 6.86-3.56 10.26-1.25 3.4-2.7 6.71-3.9 10.12-.98 2.74-1.62 5.6-2.6 8.34-1.78 4.92-3.76 9.76-5.52 14.7-.84 2.34-1.28 4.82-2.05 7.19-2.23 6.93-5.18 13.6-7.17 20.63-.92 3.24-2.44 6.3-3.54 9.5a925.62 925.62 0 0 0-5.38 16.24c-.5 1.57-.89 3.2-1.32 4.78 6.19-12.82 11.95-25.75 17.7-38.69 3.74-8.46 7.41-16.95 11.22-25.39 4.96-10.99 9.92-21.98 15.05-32.9 4.1-8.72 8.46-17.3 12.68-25.96 3.02-6.2 5.96-12.44 9-18.62a930.6 930.6 0 0 1 8.42-16.61c1.48-2.85 3.18-5.58 4.69-8.4 2.5-4.69 4.9-9.43 7.46-14.06.36-.64 1.52-.84 2.3-1.24.02.85.34 1.83 0 2.52-2.85 6.02-5.79 12.02-8.77 17.98-3.09 6.2-6.31 12.32-9.35 18.54-.92 1.9-1.42 3.99-2.12 6l-4.55 6.9.82.47 3.68-7.41 39.12-71.66c-2.98 2.59-6.05 5.27-9.16 7.91-.36.3-1.08.63-1.38.46-.44-.24-.68-.89-.91-1.4-.19-.42-.29-.9-.32-1.36-.04-.62.05-1.23.08-1.84.63.03 1.25.08 1.79.12l1.01-3.66c-2.09 1.1-4.1 1.57-5.25 2.83-3.84 4.27-7.38 8.83-11.03 13.29-.83 1.03-1.62 2.1-2.44 3.15l.63.47c1.75-2.04 3.37-4.24 5.31-6.08 1.38-1.3 2-3.69 4.52-3.55v-.03Zm256.2 193.2c-.05 1.63 2.52 5.7 4.57 6.63l-4.61-6.61c-1.1-1.38-2.24-2.72-3.28-4.12-5.98-8.05-11.91-16.13-17.9-24.17-4.44-5.99-8.96-11.91-13.4-17.9-.72-.98-1.1-2.21-1.64-3.32l.81-.68c.91.5 2.04.82 2.7 1.56 3.09 3.4 6.07 6.9 9.04 10.39 6.12 7.22 12.27 14.4 18.3 21.71 3.32 4.04 6.37 8.31 9.62 12.42 4.2 5.31 8.51 10.55 12.68 15.88 3.57 4.57 7.03 9.22 10.48 13.88 6.35 8.58 12.7 17.15 18.95 25.8 3.53 4.9 6.84 9.96 10.3 14.91 4.02 5.74 8.12 11.42 12.15 17.15 2.02 2.87 3.96 5.8 5.95 8.7l.57-.45c-68.1-101.78-145.34-196-233.15-281.48a35.97 35.97 0 0 0 3.91 5.1c4.81 5.48 9.71 10.88 14.44 16.43 6.71 7.89 13.29 15.9 19.93 23.83 6.54 7.8 13.23 15.47 19.63 23.38a2689.23 2689.23 0 0 1 28.99 36.49c8.05 10.3 15.9 20.76 23.81 31.17 1.86 2.45 3.66 4.96 5.34 7.52.33.5-.04 1.43-.09 2.17-.6-.24-1.36-.32-1.75-.75a42.68 42.68 0 0 1-3.1-3.74c-6.37-8.46-12.65-16.99-19.09-25.39-4.38-5.71-8.97-11.27-13.46-16.9l-21.3-26.62c-2.51-3.15-5.02-6.3-7.64-9.37-2.04-2.4-4.24-4.65-6.38-6.97 1.32 2.4 3.06 4.46 4.66 6.62 5.67 7.62 11.27 15.27 16.92 22.91 3.54 4.8 7.18 9.53 10.63 14.39 5.6 7.89 11.2 15.78 16.62 23.8 5.49 8.12 11.08 16.2 16.04 24.62a228.57 228.57 0 0 0 16.75 24.77c5.11 6.54 10.3 13.02 15.44 19.55 1.05 1.33 2.01 2.76 3.01 4.15a44.71 44.71 0 0 0-4.02-7.65c-2.65-4.31-5.37-8.6-7.95-12.94-.52-.89-.59-2.04-.86-3.07l.68-.5c.8.5 1.81.83 2.36 1.53 1.98 2.52 3.78 5.19 5.67 7.76 3.12 4.23 6.37 8.37 9.39 12.68 6.52 9.32 13 18.67 19.38 28.1a588.29 588.29 0 0 1 12.99 19.98c4.17 6.76 8.05 13.7 12.1 20.53 3.78 6.38 7.68 12.68 11.4 19.09 3.43 5.9 6.48 12.04 10.09 17.84 4.5 7.23 9.36 14.24 14.16 21.27 1.26 1.85 2.88 3.47 4.34 5.19l.62-.4c-3-6.58-5.75-13.31-9.07-19.74a605.26 605.26 0 0 0-14.64-26.59 1364.24 1364.24 0 0 0-21.52-35.88c-6.73-10.8-13.82-21.4-20.83-32.04A615.17 615.17 0 0 0 618.91 238c-8.67-12.08-17.54-24.02-26.28-36.07-1.1-1.52-1.94-3.25-2.9-4.88l.89-.73c.79.55 1.7.99 2.34 1.67.77.81 1.27 1.86 1.97 2.75 8.5 11.02 17 22.03 25.56 33 .49.63 1.4.93 2.12 1.4Zm-311.7 58.19.54.2c1.47-3.92 2.95-7.82 4.4-11.75 3.4-9.3 6.78-18.6 10.17-27.91 2.64-7.28 5.26-14.55 7.92-21.82 3-8.26 5.98-16.53 9.09-24.75 2.72-7.2 5.65-14.31 8.41-21.5 2.46-6.42 4.72-12.9 7.22-19.3 2.98-7.6 6.11-15.14 9.2-22.7 1.65-4.03 3.24-8.08 5.05-12.04 2.8-6.14 5.91-12.13 8.63-18.3 3.84-8.72 7.36-17.57 11.18-26.3 1.92-4.38 4.2-8.62 6.28-12.94.9-1.87 2.33-3.76 2.41-5.7.14-3-.7-6.06-1.06-9.09-.44-3.73-.97-7.47-1.14-11.22-.05-.95 1.18-1.93 1.77-2.93.26-.45.4-.98.59-1.48l-.86-.44c-1.81 3.17-3.88 6.23-5.39 9.54-1.8 3.93-3 8.13-4.69 12.12-1.19 2.82-2.96 5.38-4.13 8.2-3.36 8.14-6.46 16.37-9.81 24.5-4.8 11.64-9.67 23.25-14.6 34.83-3.19 7.53-6.58 14.97-9.81 22.48-2.57 5.95-5 11.97-7.52 17.95-4.05 9.65-8.19 19.29-12.2 28.97-3.18 7.7-6.2 15.47-9.35 23.2-2.36 5.8-4.92 11.53-7.2 17.37-3.62 9.28-7.08 18.63-10.62 27.95-3.1 8.17-6.23 16.35-9.31 24.54-2.18 5.76-4.37 11.52-6.44 17.32-1.68 4.7-3.22 9.43-4.8 14.16-3.27 9.67-6.57 19.33-9.75 29.02-2.15 6.56-4.54 13.08-6.08 19.8a713.85 713.85 0 0 0-6.5 33.13c-1.36 7.53-2.32 15.12-3.38 22.68-.2 1.44-.03 2.92-.03 4.38l.65.07c.63-1.2 1.37-2.37 1.87-3.63 3.36-8.44 6.79-16.85 9.98-25.35 2.67-7.12 5.07-14.34 7.56-21.53 3.25-9.35 6.57-18.67 9.7-28.05 5.1-15.44 10.14-30.91 15.08-46.41 1.68-5.27 2.92-10.68 4.42-16 2.51-8.96 4.94-17.95 7.66-26.86 2.95-9.68 6.2-19.29 9.32-28.91 2.1-6.48 4.12-12.99 6.36-19.42 1.76-5.08 3.85-10.04 5.7-15.1 3.01-8.21 5.89-16.47 8.93-24.68 1.74-4.66 3.69-9.24 5.55-13.85 2.78-6.89 5.4-13.85 8.4-20.64 3.1-6.98 6.5-13.81 9.85-20.66.85-1.74 2-3.31 3-4.98l.69.34c-.18.83-.23 1.72-.56 2.47-1.72 3.84-3.5 7.66-5.26 11.5-2.18 4.71-4.44 9.4-6.51 14.17-1.97 4.55-3.75 9.17-5.6 13.78-2.9 7.34-5.9 14.63-8.65 22.02-3.41 9.16-6.66 18.38-9.9 27.6-3.45 9.84-6.9 19.68-10.17 29.58-3.5 10.6-6.81 21.25-10.13 31.9-2.12 6.79-4.09 13.63-6.13 20.44v.03Zm-95.06 152.12.55.26c.19-.34.42-.67.56-1.03 3.8-9.99 7.63-19.97 11.41-29.98 3.31-8.79 6.54-17.62 9.89-26.39a3116.39 3116.39 0 0 1 19.22-48.13c2.59-6.32 5.36-12.56 7.96-18.88 3.14-7.63 6.12-15.34 9.29-22.96 3.75-9.05 7.55-18.08 11.47-27.06 3.75-8.6 7.64-17.15 11.56-25.69 4.13-9.01 8.34-17.99 12.57-26.96 4.94-10.5 9.99-20.95 14.86-31.49 4.4-9.49 8.62-19.05 12.9-28.58 2.52-5.59 5.07-11.15 7.5-16.79 1.94-4.53 3.6-9.2 5.6-13.71 2.96-6.67 6.09-13.26 9.21-19.86 3.85-8.15 7.59-16.36 11.7-24.38 4-7.79 7.36-15.91 12.37-23.18 2.28-3.31 4.16-6.91 6.35-10.3 1.03-1.6 2.05-3.37 4.46-3.23.4.02.91-.62 1.24-1.07a80.77 80.77 0 0 0 3.16-4.61c.44-.72.9-1.6.88-2.4-.08-2.13-.42-4.26-.74-7.13-6.54 5.9-12.44 11.59-16.6 18.93l-2.4-1.73L405 18.62l-.47-.51c-7.38 2.76-13.23 7.93-19.65 12.72 2.63.3 2.21 1.54 1.4 3.03-2.7 5.03-5.4 10.06-8.03 15.12-3.3 6.3-6.52 12.6-9.76 18.91-2.43 4.71-4.92 9.4-7.25 14.15-2.69 5.5-5.19 11.09-7.87 16.59-3.1 6.37-6.44 12.64-9.49 19.04-3.38 7.1-6.55 14.3-9.82 21.45-3.48 7.6-7 15.2-10.46 22.84-4.12 9.06-8.25 18.1-12.24 27.2a3548.87 3548.87 0 0 0-15.4 35.64c-3.64 8.56-7.15 17.18-10.68 25.78-3.51 8.52-7.08 17.01-10.47 25.58-4 10.12-7.85 20.31-11.8 30.46-1.84 4.72-3.82 9.38-5.62 14.1-1.24 3.3-2.22 6.68-3.4 9.99-2.17 6.14-4.43 12.25-6.58 18.4-1.9 5.44-3.67 10.94-5.54 16.39-2.25 6.56-4.6 13.07-6.78 19.66a3458.15 3458.15 0 0 0-10.33 32.01c-3 9.42-5.92 18.85-8.87 28.27h-.04ZM474.5 72.11l-.64.43c2.18 3.48 4.36 6.98 6.56 10.46 2.88 4.57 5.84 9.09 8.65 13.72 2.24 3.7 4.25 7.52 6.4 11.28 4.74 8.25 9.57 16.44 14.21 24.74 5.18 9.28 10.29 18.6 15.27 28 4.67 8.78 9.07 17.72 13.7 26.53 4.88 9.26 9.9 18.43 14.8 27.66.95 1.78 1.63 3.7 2.31 5.6.15.42-.22 1.01-.35 1.51-.56-.16-1.25-.18-1.65-.53-.47-.39-.73-1.05-1.01-1.62-5.21-10.08-10.35-20.2-15.62-30.25a759.94 759.94 0 0 0-11.68-21.45c-3.7-6.51-7.65-12.89-11.5-19.32l-5.68-9.5c-.32.56-.32.96-.17 1.29 2.9 5.9 5.88 11.77 8.67 17.74 2.55 5.46 4.93 11.01 7.32 16.56 2.73 6.32 5.48 12.62 8.04 19 1.76 4.38 3.18 8.88 4.8 13.3 1.62 4.46 3.41 8.85 4.91 13.34.46 1.36 1.02 3.28-1.75 3.9l-23.9-48.3-.59.25c1.75 4.36 3.43 8.75 5.26 13.07 1.5 3.56 3.22 7.02 4.78 10.56 1.77 4.01 3.43 8.06 5.16 12.08 1.17 2.66 2.47 5.26 3.56 7.97 1.73 4.31 3.24 8.7 5 13 1.9 4.63 4.07 9.14 6.01 13.75 1.5 3.57 2.8 7.22 4.22 10.84 2.25 5.75 4.56 11.48 6.8 17.24.88 2.25 1.62 4.56 2.48 6.81 1.67 4.35 3.44 8.67 5.08 13.02 1.05 2.78 1.9 5.63 2.92 8.42.71 1.98 1.58 3.9 2.29 5.88 1.49 4.18 2.86 8.4 4.37 12.59 2.04 5.6 4.25 11.14 6.22 16.76 1.86 5.3 3.53 10.67 5.26 16.01 2.18 6.73 4.4 13.45 6.49 20.21.84 2.7 1.28 5.53 2.03 8.26 1.76 6.38 3.67 12.7 5.36 19.1 1.03 3.9 1.59 7.93 2.71 11.8 1.38 4.77 3.13 9.44 4.74 14.15 1.44 4.25 2.9 8.49 4.36 12.73 0-2.15-.42-4.18-.95-6.18-1.47-5.54-3.02-11.06-4.5-16.61-2.73-10.26-5.32-20.55-8.18-30.77-2.68-9.57-5.65-19.08-8.51-28.6-1.74-5.75-3.54-11.49-5.3-17.23-2.75-9.01-5.45-18.05-8.27-27.04-3-9.58-6.07-19.13-9.21-28.68-3.67-11.13-7.44-22.23-11.14-33.36-.8-2.43-1.56-4.9-2.21-7.38-.58-2.2.5-3.97 1.69-3.18 1.84 1.22 3.85 2.66 4.9 4.5 2.95 5.15 5.45 10.56 8.13 15.88-.34-2.08-1.16-3.94-1.94-5.82-1.96-4.68-3.62-9.5-5.9-14.01-3.88-7.7-8.18-15.19-12.22-22.8-.53-1-.55-2.26-.8-3.4l.78-.65c1.03.8 2.34 1.4 3.05 2.42 2.16 3.11 4.1 6.38 6.12 9.59 6.99 11.06 14.12 22.03 20.91 33.2 4.88 8.03 9.35 16.3 13.93 24.51 4.72 8.44 9.43 16.88 14.01 25.39a2786.5 2786.5 0 0 1 18.3 34.47c4.42 8.5 8.56 17.15 12.98 25.65 5.88 11.31 11.87 22.56 17.86 33.8 1.73 3.24 3.62 6.38 5.44 9.57a45.69 45.69 0 0 0-2.37-7.54c-2.15-5.27-4.38-10.5-6.6-15.74-1.6-3.78-3.12-7.6-4.9-11.3-4.49-9.41-9.11-18.75-13.68-28.12-2.9-5.94-5.66-11.95-8.7-17.81-6.6-12.69-13.33-25.3-20-37.93-5.04-9.52-10-19.07-15.12-28.54-3.9-7.21-8.02-14.3-12-21.47-4.87-8.8-9.74-17.6-14.56-26.44-1.41-2.6-2.68-5.29-3.88-8-.22-.5.21-1.29.34-1.95.58.13 1.28.09 1.7.4.75.56 1.33 1.34 2.33 2.41-.31-.87-.4-1.32-.62-1.7-4.56-7.76-9.12-15.52-13.7-23.28-6.25-10.6-12.5-21.23-18.8-31.81a455.36 455.36 0 0 0-7.7-12.32c-1.55-2.43-3.23-4.77-4.88-7.15-1.58-2.3-3.33-4.49-4.75-6.88-1.92-3.24-3.39-6.75-5.4-9.94-3.75-5.93-7.75-11.7-11.62-17.54-2.58-3.9-5.05-7.87-7.69-11.72-1.95-2.86-4.12-5.57-6.14-8.38-2.18-3.02-4.3-6.08-6.44-9.13l.01.02ZM261.7 398.03c-.25-.05-.5-.1-.74-.17-7.47 24.8-14.92 49.62-22.45 74.65l47.97 3.48c5.67-39.09 13.12-77.74 21.58-116.2 8.44-38.37 18.25-76.39 28.72-114.26-.85 1.78-1.41 3.65-2.06 5.48-2.62 7.47-5.38 14.88-7.87 22.4-2.75 8.32-5.3 16.7-7.9 25.08-2.18 6.97-4.34 13.95-6.48 20.93-2.1 6.84-4.17 13.69-6.25 20.53-1.84 6.07-3.75 12.11-5.48 18.2-1.79 6.32-3.32 12.7-5.11 19.02-1.78 6.26-3.87 12.44-5.59 18.72-3.19 11.6-6.18 23.25-9.29 34.88a2157.6 2157.6 0 0 1-7.52 27.46c-.2.7-1.26 1.14-1.92 1.7-.34-.7-1.02-1.43-.96-2.12.2-2.67.66-5.3.93-7.96.08-.68 0-1.87-.33-2.01-1.86-.73-1.2-2.22-.98-3.32 1.1-5.43 2.23-10.87 3.57-16.26 2.12-8.56 4.42-17.07 6.6-25.6 2.53-9.98 5.02-19.95 7.5-29.93.88-3.5 1.68-7 2.51-10.5a46.57 46.57 0 0 0-3.72 8.12c-3.25 9.36-6.36 18.75-9.62 28.11-3.06 8.82-6.13 17.64-9.43 26.36A93.12 93.12 0 0 1 262 436.2c-.57 1.05-2.1 1.58-3.19 2.34-.7-1.21-1.81-2.35-2-3.64-.26-1.8.1-3.71.32-5.56.9-7.38 1.76-14.76 2.78-22.12.43-3.1 1.2-6.14 1.81-9.2l-.02.01Zm264.52 64.62c.26 0 .5-.03.77-.03-.37-6.35-.6-12.72-1.16-19.05-.59-6.6-1.46-13.16-2.3-19.73a895.81 895.81 0 0 0-2.74-19.97c-1-6.67-2.16-13.33-3.22-20-1.2-7.64-2.24-15.31-3.57-22.93-1.46-8.4-3.19-16.75-4.75-25.12-1.38-7.43-2.58-14.88-4.07-22.27-1.6-7.96-3.5-15.86-5.21-23.78-1.4-6.53-2.62-13.1-4.11-19.6-2.18-9.49-4.3-19-6.85-28.4a2227.89 2227.89 0 0 0-13.38-47.12c-3.12-10.53-6.58-20.96-9.95-31.41-3.22-10-6.5-19.99-9.8-29.96-4.34-13.06-8.73-26.1-13.1-39.15l-2.17-6.53c-.3 1.17-.11 2.18.08 3.2 1.6 8.28 2.94 16.62 4.87 24.83 1.99 8.44 4.64 16.73 6.85 25.13 1.96 7.47 3.68 15 5.57 22.5 2.05 8.08 4.23 16.13 6.27 24.22 3.25 12.87 6.44 25.75 9.66 38.62 1.96 7.87 4.03 15.72 5.93 23.6 1.11 4.6 1.95 9.26 3 13.87 1.08 4.64 2.32 9.23 3.39 13.86 1.98 8.58 3.86 17.2 5.85 25.8 1.4 6.09 3 12.14 4.35 18.24 1.3 5.88 2.32 11.83 3.56 17.72 1.4 6.68 2.96 13.33 4.34 20 1.77 8.52 3.34 17.08 5.13 25.6 2.47 11.75 5.07 23.47 7.6 35.22 3.07 14.22 6.11 28.43 9.16 42.65Zm86.24-245.93-.5.4c.48.7.95 1.43 1.46 2.12 3.67 4.95 7.36 9.87 11 14.84 2.67 3.62 5.27 7.3 7.9 10.94 4.67 6.48 9.42 12.91 14.02 19.44a2402 2402 0 0 1 33.1 48.58c3.18 4.79 6.25 9.65 9.32 14.5 4 6.35 8 12.68 11.9 19.08 2.56 4.2 5.16 8.39 7.4 12.76 1.27 2.52 3.48 4.91 2.53 9.06-1.63-1.47-3.08-2.37-3.97-3.66-2.84-4.1-5.43-8.39-8.22-12.54-4.7-7.03-9.56-13.95-14.2-21.01-4.98-7.56-9.75-15.28-14.68-22.88-5.5-8.47-11.06-16.91-16.63-25.35-.5-.75-1.23-1.36-1.84-2.02.4 1.53 1.2 2.76 1.98 4.02 4.64 7.48 9.36 14.91 13.9 22.45 3.49 5.8 6.79 11.72 10.11 17.6 3.69 6.53 7.37 13.05 10.94 19.63 2.43 4.51 4.83 9.06 6.9 13.75 2.14 4.83 3.94 9.83 5.75 14.8.27.73-.23 1.76-.37 2.64-1.08-.35-2.49-.39-3.16-1.12-2.62-2.81-5-5.85-7.47-8.8 2.47 5.77 5.26 11.43 7.8 17.19 1.91 4.33 3.56 8.79 5.22 13.23.22.6-.11 1.42-.19 2.15-.76-.23-1.59-.34-2.27-.72a4.1 4.1 0 0 1-1.32-1.41 1746.43 1746.43 0 0 1-12.52-19.81c1.76 4.8 4 9.3 6.07 13.9 1.9 4.24 3.72 8.56 5.4 12.9.32.79-.16 1.88-.27 2.84-.83-.44-1.92-.67-2.45-1.34a44.51 44.51 0 0 1-3.6-5.44c-6.88-12.06-13.7-24.15-20.58-36.22-3.93-6.88-7.93-13.72-11.9-20.58-4.25-7.34-8.46-14.7-12.78-22a990.36 990.36 0 0 0-12.5-20.65c-3.88-6.24-7.95-12.36-11.98-18.51-2.62-4-5.27-7.96-7.98-11.9-3.28-4.8-6.62-9.55-9.94-14.33l-11.46-16.48-.7.47c1.4 2.1 2.88 4.15 4.21 6.28 4.66 7.55 9.24 15.15 13.9 22.7 5.1 8.31 10.37 16.53 15.38 24.9 4.62 7.74 9.02 15.62 13.47 23.46 6.08 10.7 12.2 21.39 18.14 32.17 3.34 6.05 6.34 12.3 9.52 18.45 3.55 6.87 7.22 13.67 10.64 20.6 2.74 5.56 5.22 11.25 7.73 16.92.7 1.6 1.9 3.4-.61 4.65l6.96 12.67c1.2-1.87 2.08-3.2 2.9-4.56 3.34-5.7 6.66-11.41 10-17.1.94-1.59 2.23-3 2.93-4.66 2.04-4.89 3.88-9.86 5.75-14.81a70.09 70.09 0 0 0 2.1-6.18c.96-3.5 1.9-7.01 2.6-10.57.3-1.48.58-3.47-.14-4.55-3.33-5-7.07-9.7-10.55-14.61-2.08-2.94-3.87-6.1-5.9-9.07-2.79-4.09-5.73-8.07-8.54-12.14-3.5-5.1-6.86-10.31-10.41-15.37-3.93-5.59-8.01-11.05-12-16.6-4.96-6.86-9.84-13.77-14.84-20.61-4.83-6.63-9.72-13.22-14.67-19.76-3.76-4.95-7.66-9.78-11.5-14.66-3.8-4.81-7.6-9.63-11.44-14.4-1.56-1.95-3.25-3.79-4.87-5.66l.01-.01ZM187.74 443.14l1.03.3c1.18-2.17 2.52-4.27 3.52-6.53 2.07-4.73 3.85-9.59 5.94-14.32 2.31-5.22 4.93-10.31 7.24-15.53 2.8-6.31 5.44-12.7 8.14-19.05 3.9-9.21 7.8-18.41 11.65-27.65 2.66-6.38 5.13-12.84 7.8-19.22 4.28-10.22 8.77-20.35 12.97-30.6 4.34-10.6 8.43-21.31 12.65-31.97 1.68-4.25 3.49-8.44 5.07-12.72 2.02-5.44 3.87-10.94 5.8-16.41.75-2.13 1.54-4.24 2.27-6.38 1.21-3.5 2.4-6.99 3.56-10.49 1.38-4.18 2.74-8.37 4.1-12.56a4.18 4.18 0 0 0-1.54 1.91c-2.23 4.46-4.33 9-6.7 13.38-2.66 4.96-5.61 9.75-8.34 14.67-2.8 5.05-5.38 10.24-8.27 15.24-2.56 4.46-5.55 8.68-8.1 13.14-2.4 4.2-4.16 8.81-6.78 12.87-3.53 5.47-6.1 11.3-8.36 17.36-3.17 8.49-6.48 16.9-9.7 25.37-3.2 8.43-6.5 16.84-9.51 25.33-2.6 7.34-5 14.76-7.26 22.21-3.96 13-7.87 26-11.56 39.06-2.11 7.45-3.76 15.04-5.62 22.57v.02Zm225.95-327.51-.23.2c.95 5.2 1.8 10.43 2.87 15.6 2.53 12.2 5.21 24.34 7.72 36.53 2.04 9.92 3.89 19.87 5.9 29.8 1.38 6.85 2.95 13.68 4.3 20.55 1 5.04 1.72 10.13 2.68 15.19 1.38 7.32 2.84 14.64 4.3 21.95 2.25 11.19 4.6 22.36 6.78 33.56 1.14 5.86 1.94 11.79 3.05 17.65 2.52 13.45 5.19 26.86 7.71 40.32 1.71 9.08 3.3 18.18 4.9 27.27 1.65 9.39 3.17 18.8 4.86 28.17 1.59 8.8 3.24 17.6 5.03 26.38 1.46 7.15 3.17 14.24 4.77 21.35l.6-.03c.15-.93.4-1.86.39-2.78-.06-2.1-.32-4.2-.37-6.31-.1-3.77.1-7.56-.18-11.32-.46-6.28-1.18-12.54-1.83-18.8-.48-4.66-.79-9.36-1.6-13.96-1.78-10.06-3.84-20.08-5.76-30.12-1.51-7.9-2.98-15.82-4.5-23.7-1.58-8.14-3.2-16.27-4.82-24.39-1.46-7.36-2.89-14.72-4.4-22.06-1.4-6.76-2.97-13.5-4.34-20.27-1-4.9-1.7-9.85-2.73-14.74-1.79-8.58-3.78-17.12-5.6-25.7-2.01-9.47-3.93-18.96-5.9-28.42-1.47-7.04-2.92-14.08-4.43-21.1-1.42-6.61-2.82-13.23-4.42-19.79-2.03-8.34-4.22-16.65-6.44-24.95a296.8 296.8 0 0 0-3.91-13.11c-1.4-4.35-2.93-8.65-4.4-12.97ZM409.26 67l-.4.1c.38 2.43.64 4.89 1.17 7.28 4.04 18.15 7.96 36.33 12.24 54.43 3.27 13.77 6.98 27.44 10.56 41.14 1.53 5.83 3.35 11.6 4.87 17.44 2.37 9.18 4.6 18.39 6.9 27.59.99 3.99 2.03 7.95 2.96 11.95 1.9 8.13 3.74 16.27 5.57 24.41 1.1 4.95 2.16 9.9 3.17 14.87.8 3.94 1.43 7.92 2.26 11.86.83 3.97 1.93 7.9 2.7 11.87 1.13 6 2 12.05 3.1 18.06.86 4.75 1.93 9.49 2.78 14.24.9 5.07 1.64 10.16 2.47 15.24.63 3.9 1.33 7.79 1.9 11.7.94 6.4 1.81 12.79 2.7 19.19.77 5.58 1.54 11.17 2.27 16.76.56 4.32.95 8.68 1.66 12.99.74 4.6 1.72 9.17 2.68 13.73.56 2.7 1.3 5.35 2.08 8.6 0-3.06.14-5.49-.02-7.9-.43-6.13-.94-12.25-1.53-18.38-.49-5.23-1.11-10.45-1.7-15.67-.53-4.65-1.07-9.3-1.64-13.94-.45-3.75-.93-7.49-1.45-11.23-1-7.12-2.02-14.23-3.05-21.34-.44-3.02-.83-6.05-1.37-9.06-1.12-6.25-2.35-12.48-3.48-18.72-1.44-7.91-2.8-15.84-4.25-23.75-1.15-6.24-2.35-12.47-3.6-18.7-2.15-10.63-4.27-21.27-6.55-31.87-1.6-7.41-3.48-14.75-5.17-22.14-.97-4.22-1.64-8.5-2.67-12.71-2.48-10.08-5.1-20.12-7.64-30.18-1.69-6.7-3.2-13.44-5.07-20.09-2.58-9.17-5.38-18.28-8.14-27.4a3963.8 3963.8 0 0 0-8-25.93c-1.71-5.51-3.42-11.02-5.24-16.5-.9-2.7-2-5.3-3.03-7.93l-.04-.01ZM557.9 417.06c-9-36.44-19.53-72.37-30.55-108.14-11.05-35.86-23.2-71.36-35.55-106.8-3.94-11.27-38.12-100.12-41.5-103.93 37.24 105.85 73.94 211.89 107.6 318.87Zm-87.03-374.2-.4.48 8.18 7.38c4.9 4.4 9.87 8.73 14.66 13.24 5.58 5.25 10.97 10.7 16.51 15.98 5.57 5.32 11.23 10.54 16.82 15.84 6.78 6.4 13.51 12.87 20.28 19.3l18.17 17.2c9.25 8.76 18.38 17.64 27.77 26.24 7.66 7 15.65 13.66 23.5 20.47.2.19.47.32.7.47l.44-.41c-3-3.6-5.89-7.3-9-10.8-7.22-8.11-14.43-16.26-21.9-24.16a594.77 594.77 0 0 0-19.8-19.81c-5.5-5.3-11.26-10.36-16.9-15.54-4.77-4.37-9.43-8.85-14.31-13.07a1465.77 1465.77 0 0 0-24.37-20.54c-6.08-5.03-12.3-9.87-18.47-14.8l-12.32-9.8c-3.2-2.55-6.37-5.12-9.57-7.67h.01Zm-107.92 182.2-.43-.21c-1.63 4.94-3.33 9.86-4.86 14.82-2.8 9.06-5.53 18.14-8.26 27.23-2.37 7.86-4.86 15.68-7.02 23.6-3.1 11.32-6 22.68-8.88 34.06-2.89 11.45-5.6 22.96-8.4 34.44-1.27 5.24-2.65 10.46-3.8 15.73a858.54 858.54 0 0 0-4.7 22.68c-1.03 5.36-1.84 10.76-2.66 16.16-.64 4.26-1.13 8.55-1.71 12.82-.57 4.14-1.22 8.27-1.73 12.42-.62 5.04-1.18 10.09-1.69 15.14-.37 3.65-.6 7.3-.9 10.96a12.3 12.3 0 0 0 1.6-4.28c1.95-9.44 3.9-18.89 5.83-28.34 1.04-5.14 2-10.3 3-15.45 1.5-7.82 2.9-15.67 4.51-23.47 1.48-7.17 3.21-14.28 4.76-21.43 1.42-6.59 2.63-13.21 4.1-19.8 1.28-5.81 2.83-11.56 4.18-17.37 1.29-5.56 2.38-11.17 3.7-16.73 1.8-7.68 3.75-15.33 5.6-23.01 1.43-6.02 2.72-12.07 4.2-18.06 1.65-6.63 3.4-13.23 5.17-19.83 2.01-7.52 4.12-15 6.12-22.52.84-3.17 1.52-6.39 2.27-9.58v.01Zm-70.5 229.35c19.3-90.37 43.47-179.56 65.86-269.18-28.97 88-51 177.7-65.87 269.18ZM526.9 140.25c-.2.16-.41.3-.6.47 1.52 2.6 3.08 5.18 4.55 7.81 3.47 6.18 6.88 12.4 10.38 18.56a550.4 550.4 0 0 0 8.3 14.11 943.44 943.44 0 0 0 11.54 18.44c1.53 2.37 2.18 5.1 4.33 7.31 2.3 2.36 3.34 5.9 5.18 8.76 2.35 3.67 4.91 7.2 7.45 10.74 2.5 3.5 3.83 7.67 6.74 10.94.93 1.05 1.14 2.69 1.93 3.9 2.3 3.5 4.79 6.87 7.06 10.4 6.54 10.19 13.04 20.41 19.5 30.66 4.66 7.4 9.3 14.81 13.83 22.3 2.89 4.76 5.55 9.67 8.34 14.5 4 6.89 8.08 13.72 12.04 20.64 2.43 4.24 4.64 8.61 7.04 12.89 3.58 6.39 7.26 12.74 10.87 19.12 1.48 2.64 2.9 5.32 4.34 7.98.38-.64.27-1.02.09-1.35-7.3-13.72-14.51-27.5-21.99-41.12-5.77-10.52-11.86-20.87-17.86-31.25-4.47-7.7-8.97-15.4-13.58-23.01-6.1-10.1-12.26-20.17-18.5-30.18-6.44-10.32-13.03-20.54-19.47-30.86-.55-.89-.54-2.12-.78-3.2.25-.16.5-.3.75-.47.76.48 1.72.8 2.25 1.46 2.8 3.52 5.47 7.14 8.2 10.72 1.16 1.5 2.34 2.97 3.51 4.45l.3-.28-65.74-94.44Zm-88.55 252.49c.09-.2.28-.41.26-.6-.75-6.66-1.55-13.31-2.27-19.98-.88-8.27-1.56-16.57-2.57-24.82-.94-7.59-2.27-15.13-3.32-22.7-1.39-10.08-2.51-20.2-4.03-30.26-1.77-11.63-3.81-23.23-5.78-34.83-1.76-10.38-3.47-20.77-5.45-31.11-2.3-11.97-4.78-23.9-7.3-35.83-1.8-8.5-3.77-17-5.75-25.47-1.73-7.37-3.57-14.72-5.39-22.07-1.37-5.54-2.79-11.1-4.18-16.64 7.96 43.93 16.21 87.78 24.12 131.7a4225.85 4225.85 0 0 1 21.67 132.6h-.01ZM307.5 141.55a1654.58 1654.58 0 0 0-61.94 132.74 4.3 4.3 0 0 0 1.56-1.59c2.22-4.17 4.36-8.39 6.6-12.56 2.76-5.16 5.52-10.33 8.43-15.41 2.9-5.07 6.02-9.97 8.5-15.3 1.95-4.18 4.94-7.89 7.06-12.02 2.8-5.44 5.25-11.06 7.71-16.67 1.46-3.33 2.68-6.77 3.95-10.18 2.56-6.9 5.07-13.83 7.66-20.72.7-1.85 1.98-3.54 2.36-5.44 1.14-5.68 3.77-10.79 5.8-16.12.84-2.22 1.55-4.49 2.33-6.73h-.02Zm189.62 295.3c.24-.01.47-.03.71-.06-1.74-12.49-3.39-24.99-5.25-37.46a2130.55 2130.55 0 0 0-12.72-75.04 2564.57 2564.57 0 0 0-7.35-37.38c-2.53-12.46-5.1-24.91-7.85-37.32-2.75-12.38-5.7-24.7-8.63-37.04-2.9-12.26-5.88-24.49-8.84-36.74l-.84.2a5144.22 5144.22 0 0 1 50.78 260.84h-.01Zm37.64-228.18c-17.14-45.16-36.6-89.19-64.18-129.73.07.92-.02 1.43.15 1.81 3.86 8.4 7.6 16.87 11.7 25.16 4.42 9 9.16 17.83 13.77 26.73 5.88 11.37 11.76 22.72 17.6 34.1 2.94 5.7 5.8 11.44 8.67 17.19l12.28 24.73v.01Zm-88.44-72.78c.15-.7.23-.87.2-1.01-1.97-9.64-3.66-19.34-6.03-28.87-2.93-11.79-6.42-23.44-9.7-35.14-2.9-10.39-5.86-20.76-8.74-31.15-1.6-5.8-3.1-11.64-4.75-17.93-4.05 4.63-7.88 8.91-10.58 14.07-.18.33-.05.91.1 1.3 1.08 2.95 2.25 5.85 3.29 8.8 2.72 7.72 5.4 15.45 8.08 23.2 1.36 3.95 2.66 7.93 4 11.89-.58-4.65-1.56-9.18-2.56-13.7-1.02-4.65-2.18-9.27-3.08-13.95-.78-3.95-1.35-7.94-1.86-11.93-.08-.57.69-1.24 1.06-1.88.64.42 1.54.7 1.84 1.29.82 1.55 1.47 3.2 2.03 4.87 2.15 6.4 4.28 12.82 6.34 19.26 2.34 7.32 4.69 14.65 6.86 22.03 2.09 7.1 3.95 14.26 5.92 21.38 1.45 5.25 2.95 10.5 4.4 15.75 1.03 3.74 2.03 7.48 3.17 11.7l.01.02Zm-83.95-17.77c-31.8 56.53-52.26 117.6-71.93 178.98a3352.83 3352.83 0 0 1 71.93-178.98Zm353.1 174.6c-.1-.47-.1-.64-.17-.75-3.71-5.33-7.35-10.7-11.17-15.97a478.5 478.5 0 0 0-10.71-14.11c-3.5-4.44-7.01-8.87-10.73-13.11-2.42-2.75-3.72-6.24-6.5-8.78-2.73-2.5-4.96-5.51-7.31-8.39-4.14-5.05-8.2-10.17-12.3-15.25-2.18-2.69-4.48-5.3-6.6-8.03-3.77-4.84-7.33-9.85-11.18-14.63-6.53-8.1-13.2-16.07-19.84-24.08-.23-.28-.62-.43-.96-.58-1.12-.5-2.5-.69-3.34-1.48-4.88-4.59-9.65-9.31-14.44-14-3.3-3.23-6.56-6.5-9.83-9.74 21.2 24.35 42.77 48.34 63.51 73.02 20.87 24.83 40.92 50.36 61.57 75.89Zm-62.89 25.77c-18.07-36.9-41.8-71.27-68.86-103.46l-1.13.83 70 102.63ZM381.5 170.14l6.57-27.4-.62-.2c-1.84 3.7-3.99 7.3-5.45 11.14-3.16 8.29-5.97 16.7-8.93 25.07-2.74 7.78-5.6 15.52-8.18 23.35-3.2 9.75-6.26 19.56-9.23 29.38-2.84 9.36-5.61 18.75-8.17 28.18-3.89 14.23-7.57 28.54-11.3 42.8-.5 1.92-.81 3.9-1.21 5.84 2.59-8.18 4.96-16.4 7.27-24.62 1.87-6.64 3.55-13.33 5.51-19.95 2.32-7.74 4.87-15.42 7.3-23.12 2.53-8.03 4.93-16.1 7.56-24.1 3.3-10.05 6.73-20.06 10.2-30.05 1.77-5.09 3.75-10.1 5.6-15.17.54-1.48 1.3-2.18 3.08-1.15Zm189.1 24.93c-23.72-37.97-50.37-73.68-78.3-108.47a171.1 171.1 0 0 0 7.9 12.35c5.66 8.04 11.46 15.99 17.14 24 4.81 6.78 9.51 13.64 14.31 20.41 5.23 7.37 10.57 14.68 15.78 22.04 5.3 7.5 9.82 15.56 16.25 22.22 2.35 2.44 4.6 4.96 6.9 7.44h.02Zm127.58 195.2c-7.67-16.62-15.05-33.43-24.86-48.97-9.73-15.41-19.89-30.56-29.86-45.82l-.58.37c18 31.7 34.16 64.48 55.3 94.41ZM404.87 38.38c-1.55 1.6-1.63 1.62-.86 5.33a70.43 70.43 0 0 0 2.3 9.09c1.86 5.31 4.1 10.49 6.02 15.79 2.12 5.86 4.05 11.8 6.03 17.72 2.23 6.7 4.56 13.4 6.63 20.15 2.19 7.15 4.14 14.37 6.15 21.57 2.08 7.42 4.11 14.85 6.18 22.27.6 2.17 1.27 4.32 1.85 6.5.58 2.16 1.09 4.32 1.63 6.49-7.72-42.8-20.67-84.07-35.94-124.91h.01Zm64.06 311.82c1.09-8.38-26.39-142.37-30.1-147.8l30.1 147.8Zm221.67 42.8c-13.94-34.84-34.9-65.6-55.92-96.32 19.5 31.61 37.7 63.96 55.92 96.31ZM359.32 116.4l.09.09c2.42-3.87 4.92-7.68 7.26-11.6 2.35-3.95 4.4-8.08 6.84-11.96 6.05-9.6 11.97-19.26 15.6-30.1.3-.9.38-1.86.66-3.3-.75.6-1.09.81-1.35 1.1-.44.47-.77 1.05-1.26 1.47-4.3 3.64-5.76 9.07-8.34 13.74-4.36 7.88-8.19 16.09-12.1 24.22-2.59 5.39-4.95 10.9-7.4 16.34Zm43.04-66.5c-.23.07-.48.12-.7.18 0 1.3-.08 2.6 0 3.89.41 5.93 2.14 11.63 2.93 17.52.86 6.46 2.16 12.9 3.7 19.24 1.4 5.75 3.3 11.4 5.12 17.04 1.06 3.32 2.37 6.56 3.58 9.83l.55-.15c-5.06-22.51-10.12-45.03-15.2-67.53l.02-.01Zm209.7 289.79c-2.8-10-44.6-94.14-49.85-98.1l49.85 98.1Zm-51.63-225.01c-27.25-26.36-55.58-51.5-86.82-73.16 29.41 23.8 59.05 47.34 86.82 73.16Zm-154.78 19.98L398 86.46c-1.08 2.45-2.37 5.3-3.59 8.17-.2.49-.22 1.16-.07 1.66 1.47 5.15 3 10.3 4.5 15.45 2.28 7.7 4.58 15.4 6.8 22.92Zm205.12 106.4c12.56 23.25 28.57 44.17 43.37 66.6-1.16-4.55-33.25-53.72-43.38-66.6Zm26.44 15.1 58.23 87.28c-18.1-30-37.58-59.08-58.23-87.27ZM420.77 23.42c-.21.09-.43.17-.64.27l16.94 61.29c.58-1.8 1.15-3.52.8-5.04-.72-3.2-1.9-6.3-2.93-9.43-1.64-4.94-3.12-9.95-5.08-14.76-1.68-4.13-.55-8.76-2.82-12.74-.98-1.71-1.39-3.75-1.98-5.66-1.45-4.64-2.86-9.29-4.28-13.92l-.01-.01Zm-52.25 199.15-.91-.24-14.5 54.13 1.14.3 14.26-54.19Zm197.9-107.4-.27.34 33.86 32.4c-1.9-2.7-4-5.22-6.13-7.72-1.63-1.89-3.13-3.92-4.93-5.63-2.36-2.23-4.98-4.18-7.46-6.28-.65-.55-1.16-1.25-1.8-1.8-1.46-1.27-2.96-2.48-4.43-3.73l-8.83-7.58Zm-77.26-26.4 30.47 46.58.5-.34c-9.8-15.79-19.18-31.85-30.98-46.24h.01Zm-21.5-19.25 1.1-.73-24.56-36.73-.64.43 24.1 37.03Zm-53.51-47.72-.56-.73-10.99 7.81 2.48 4.45 9.06-11.53h.01Zm90.18 107.25.7-.48-19.82-33.64-.73.43c6.62 11.23 13.24 22.45 19.85 33.69ZM399.08 83.88c1.9-1.5 2.5-1.37 5.59 1.46-.64-3.48-1.23-6.62-1.91-10.39l-3.68 8.92v.01ZM629.4 192.22l.43-.45-8.93-10.15-.71.63c2.46 3.86 6.13 6.66 9.21 9.97ZM459.59 61.35l-.77.4c2 3.51 4 7.01 5.99 10.53-.43-4.29-3.43-7.3-5.23-10.92l.01-.01Zm-72.95 98.24c-1.73 3.79-.03 6.6 1.2 9.47-.36-2.93-.74-5.87-1.2-9.47Zm-8.27 23.45-.78-.17-3.18 10.42.65.2 3.3-10.45Zm215.94 149 .63-.26-3.43-8.99-.58.22 3.38 9.04Zm88.65-53.16-.54.49 5.16 6.84.46-.36-5.1-6.97h.01Z" fill="#fff"/>
  <path d="m748.74 524.24-1.96 2.15c-.36-3.3-.99-6.22-.96-9.13.1-9.06.52-18.1.6-27.16.03-2.47 1.43-3.68 3.15-4.6 1.55-.83 2.73.01 2.96 1.72.44 3.52.94 7.05 1.07 10.6.25 6.4.31 12.8.26 19.2-.01 2.64-.38 5.3-.89 7.9-.2 1-1.23 1.86-1.9 2.78l-1.76-2.58-.58-.88Zm1.23-5.78h.5v-8.69h-.5v8.7ZM159.81 414.68c0-1.52-.23-3.09.06-4.54.39-1.91 1.43-3.7 1.75-5.62.52-3.11.69-6.28.98-9.42.04-.4-.1-.85 0-1.22.28-.85.66-1.66 1-2.5.72.77 2 1.49 2.06 2.3.21 2.96.12 5.96-.04 8.93-.28 5.17-.65 10.34-1.06 15.5-.13 1.46-1.06 2.57-2.6 2.19a3.48 3.48 0 0 1-2.1-2c-.37-1.09-.1-2.4-.1-3.6h.05v-.02ZM6.78 479.28c-.27-.65-.69-1.23-.74-1.83-.37-4.31-.8-8.62-.92-12.94-.06-1.96.55-3.93.84-5.78l-2-1.33 1.8-1.4c.56-.45 1.14-.87 1.9-1.46 1.65 2.96 3.35 5.7 3.02 9.23-.36 3.7-.43 7.44-.8 11.15-.19 1.81.08 4.14-3.1 4.36ZM479.89 479.82c1.82.72 4.11-1.81 5.34.54l7.39-.58c.13.2.28.38.42.58-.4.39-.79 1.08-1.22 1.12-3.36.28-6.74.52-10.11.56-.8 0-1.6-.84-2.39-1.29l.56-.92v-.01ZM505 480.5c-1.11.41-2.2 1.14-3.32 1.15-2.49.05-4.99-.25-7.48-.45-.09 0-.13-.53-.26-1.06h10.8l.25.36ZM732.28 504.9c.94 2.25 1.9 4.5 2.85 6.73-2.5-1.35-3.6-4.7-2.84-6.74l-.01.01ZM181.17 398.37l-4.38 8.33-.43-.2 3.91-8.49.9.36ZM255.34 146.42l-3.04 4.15c-.25-.3-.74-.78-.68-.87 1.15-1.56 2.37-3.06 4-5.12l-.27 1.84ZM366.4 41.93c-.35-2.48 1.69-3.06 3.24-4.03-1 1.4-.64 3.92-3.29 3.97l.07.06h-.01Z" fill="#fff"/>
</svg>