<svg
    fill="none"
    xmlns="http://www.w3.org/2000/svg"
    viewBox="0 0 436 341"
>
    <path
    d="M435.1 15.04c-.45.35-.85.94-1.34 1.01-4.75.66-9.53 1.94-14.25 1.7-15.23-.73-30.44-1.94-45.65-3.13-16.02-1.26-32.01-2.82-48.04-4.02-19.62-1.45-39.27-2.79-58.91-3.91-13.57-.77-27.17-1.23-40.76-1.57-14.56-.36-29.14-.4-43.7-.61-10.5-.16-20.98-.46-31.47-.54-10.13-.08-20.25.05-30.37.07-10.87 0-21.74 0-32.61-.05-9.42-.05-18.84-.25-28.25-.23-8.85.02-17.68.2-26.52.4-6.86.14-13.72.37-20.58.6-.8.02-1.57.22-2.56.37.69 14.97 1.37 29.7 2.03 44.44.64 13.9 1.51 27.8 1.85 41.73.28 11.66-.04 23.34-.16 35.01-.12 11.98-.16 23.96-.54 35.93a2057.2 2057.2 0 0 1-1.89 41.9c-.55 10.2-1.4 20.4-1.99 30.59-.39 6.71-.42 13.45-.8 20.17-.55 9.18-1.32 18.36-1.94 27.55-.75 11.05-1.59 22.11-2.08 33.17-.24 5.14.09 10.31.4 15.46.23 4.08 2.05 5.39 6.14 4.73 10-1.6 19.95-3.6 30-4.82a1443.8 1443.8 0 0 1 51.59-5.4c12.52-1.07 25.1-1.51 37.67-1.97 9.52-.36 19.04-.31 28.57-.39 15.18-.11 30.38-.25 45.56-.23 7.2.02 14.41.4 21.62.62 9.45.28 18.91.48 28.37.9 7.42.35 14.82 1.02 22.24 1.5 11.17.72 22.34 1.32 33.51 2.1 11.02.78 22 2.02 33.04 2.53 13.84.65 27.7.86 41.55 1.03 9.9.12 19.82-.2 29.73-.15 3.95.02 6.63-1.68 9.57-4.3 3.8-3.35 4.04-7.34 4.18-11.62.36-11.19.83-22.38.86-33.56.01-9.06-.62-18.12-.87-27.18-.2-7.44-.18-14.9-.42-22.33-.27-8.34-.78-16.67-1.11-25.01-.33-8.14-.6-16.27-.85-24.41-.38-11.53-.86-23.06-1.07-34.6-.27-15.26-.36-30.51-.45-45.77-.04-6.66-.2-13.35.28-20 .68-9.4 1.89-18.78 2.88-28.16 0-.03.17-.03 1.03-.2l-.14 9.34c-.1 8.23-.19 16.47-.3 24.7-.08 5.9-.28 11.8-.25 17.71.06 8.15.3 16.3.45 24.45.15 7.76.19 15.53.46 23.28.28 7.5.85 15 1.22 22.5.32 6.59.56 13.18.82 19.76.19 4.94.3 9.88.53 14.81.29 6.68.7 13.36.96 20.05.36 9.5.66 19 .9 28.5.2 7.44.48 14.9.34 22.34-.2 10.5-.75 20.97-1.14 31.46-.13 3.52-.08 7.06-.51 10.55-.18 1.39-1.34 2.73-2.28 3.92-1.14 1.44-2.74 2.55-3.74 4.08-2.38 3.66-6.11 3.96-9.8 4.13-6.15.28-12.3.36-18.46.34-9.05-.04-18.09-.2-27.14-.4-7.69-.17-15.38-.3-23.06-.7-10.54-.56-21.06-1.37-31.6-2.09-13.75-.94-27.5-1.97-41.26-2.82-9.22-.56-18.46-.94-27.7-1.3-10.85-.4-21.7-.7-32.56-.96-10.88-.25-21.78-.54-32.68-.56-8.07-.02-16.15.4-24.22.56-7.5.14-15 .07-22.5.36-10.78.4-21.56.84-32.31 1.59-15.8 1.1-31.6 2.28-47.38 3.82-8.13.78-16.17 2.38-24.25 3.63-6.75 1.04-13.47 2.46-20.25 3.05-6.14.53-8.22-.32-9.63-6.43a38.25 38.25 0 0 1-1.09-10.1c.38-9.51 1.17-19.01 1.75-28.52.46-7.46.82-14.93 1.3-22.39.39-6.28.96-12.56 1.32-18.86.55-10.01.93-20.05 1.5-30.06.43-7.67 1.18-15.32 1.6-22.98.57-10.6 1.05-21.22 1.42-31.84.4-11.37.68-22.74.88-34.12.15-7.86.1-15.73.1-23.59-.01-6.98.02-13.97-.13-20.96-.14-6.69-.49-13.38-.77-20.07-.4-9.57-.73-19.14-1.22-28.7-.36-7-1.01-13.98-1.37-21-.26-5.16-.36-10.33-.34-15.5C6.08 2.34 8.12.99 10.9.87 16.12.65 21.36.54 26.6.46 33.95.33 41.3.2 48.67.17 53.71.15 58.75.34 63.8.35 71.6.37 79.38.3 87.17.31c5.24.01 10.47.13 15.72.16 8.22.04 16.43.02 24.63.07 5.54.02 11.08.16 16.62.2l26.19.27c5.44.05 10.9.1 16.33.18 10.22.18 20.44.32 30.64.61 7.92.23 15.83.68 23.75.98 9.74.36 19.5.54 29.23 1.06 9.89.54 19.76 1.35 29.64 2.12 10.44.81 20.89 1.68 31.32 2.59 23.16 2 46.29 4.3 69.46 5.98 10.09.73 20.28 1.78 30.4-.45 1.2-.26 2.52-.01 3.78-.01.08.31.14.64.2.96l.02.01Z"
    fill="#fff"
    />
</svg>