<svg width="2048" height="2048" viewBox="0 0 2048 2048" fill="none" xmlns="http://www.w3.org/2000/svg">
<rect width="2048" height="2048" fill="white"/>
<path d="M1350.86 1394.61C1302.38 1448.37 1248.99 1491.51 1175.12 1490.22C1193.27 1482.63 1213.88 1474.02 1234.49 1465.43C1233.91 1463.81 1233.35 1462.18 1232.77 1460.58C1195.02 1477.51 1156.88 1492.96 1115.3 1493.52C1154.49 1473.66 1193.88 1453.88 1233.06 1433.73C1245.33 1427.41 1257.14 1420.17 1269.02 1413.12C1285.3 1403.45 1301.96 1398.11 1324.48 1396.21C1311.84 1410.92 1296.93 1420.3 1281.52 1428.76C1269.14 1435.54 1256.08 1441.03 1243.48 1447.37C1240.75 1448.75 1238.67 1451.39 1236.3 1453.45C1236.99 1454.4 1237.68 1455.34 1238.36 1456.3C1253.67 1448.98 1268.89 1441.47 1284.35 1434.46C1291.02 1431.44 1296.03 1423.67 1305.39 1427.22C1307.04 1427.85 1310.51 1424.23 1312.9 1422.29C1337.3 1402.51 1362.07 1383.17 1385.84 1362.69C1398.36 1351.91 1410.73 1340.31 1420.4 1327.06C1447.5 1289.96 1474.71 1252.71 1490.55 1208.89C1502.18 1176.76 1506.03 1143.15 1508.94 1109.37C1510.46 1091.65 1512.33 1073.98 1515.01 1056.38C1548.87 1176.45 1436.4 1389.79 1312.07 1443.26C1325.65 1428.78 1339.19 1414.39 1352.62 1399.89C1352.94 1399.56 1352.04 1398.08 1350.86 1394.63V1394.61Z" fill="black"/>
<path d="M671.879 1529.34C625.313 1508.79 593.618 1474.64 573.319 1432.42C552.48 1389.1 537.984 1342.74 520.805 1297.7C519.994 1295.55 520.015 1293.1 521.159 1290.11C529.894 1304.81 540.646 1318.68 547.031 1334.32C575.981 1405.2 616.308 1468.59 668.239 1524.76C669.133 1525.74 669.903 1526.84 671.9 1529.34H671.879Z" fill="black"/>
<path d="M1515.47 1253.94C1521 1231.23 1525.87 1208.31 1532.36 1185.89C1535.21 1176.06 1542.61 1167.57 1545.86 1157.77C1557.77 1121.75 1556.98 1084.44 1556.13 1047.09C1555.44 1017.52 1555.98 987.921 1555.98 958.347C1557.15 958.18 1558.29 958.014 1559.46 957.848C1562.81 973.758 1568.09 989.564 1569.11 1005.64C1571.6 1044.55 1572.44 1083.59 1573.12 1122.59C1573.27 1130.59 1571.04 1139.24 1567.73 1146.63C1551.43 1182.77 1534.38 1218.59 1517.59 1254.52C1516.88 1254.34 1516.18 1254.15 1515.49 1253.96L1515.47 1253.94Z" fill="black"/>
<path d="M1469.17 728.282C1491.24 750.577 1514.78 771.625 1534.71 795.708C1544.06 807.001 1547.18 823.847 1551.8 838.593C1568.94 893.332 1579.17 949.589 1587.8 1006.18C1589.76 1018.97 1591.09 1031.84 1591.65 1044.76C1587.03 1021.86 1583.66 998.609 1577.42 976.148C1571.43 954.664 1563.61 933.513 1554.44 913.152C1546.08 894.559 1539.05 876.528 1536.68 855.647C1532.04 814.884 1510 781.628 1483.59 751.222C1477.76 744.505 1471.94 737.787 1466.12 731.069C1467.13 730.133 1468.15 729.198 1469.17 728.262V728.282Z" fill="black"/>
<path d="M639.103 1285.28C585.279 1207.98 567.455 1121.17 573.986 1028.14C575.837 1001.79 579.206 992.203 585.112 988.168C583.241 1000.44 581.618 1012.19 579.664 1023.88C575.296 1049.94 577.771 1075.85 585.237 1100.68C596.343 1137.66 610.34 1173.79 622.091 1210.58C629.806 1234.72 635.775 1259.45 642.535 1283.91C641.391 1284.37 640.226 1284.82 639.082 1285.28H639.103Z" fill="black"/>
<path d="M680.634 852.297C677.452 862.696 676.183 874.238 670.755 883.327C641.347 932.596 628.328 986.358 623.441 1042.84C621.777 1062.04 617.555 1081.03 614.414 1100.1C614.102 1101.95 613.187 1103.72 612.044 1106.96C605.451 1072.56 603.745 1039.56 606.678 1006.37C606.886 1004.06 609.506 1002 610.879 999.751C612.563 996.985 614.685 994.344 615.621 991.328C624.792 962.025 633.153 932.471 642.99 903.396C649.354 884.637 659.42 867.625 674.852 854.46C676.1 853.399 677.473 852.463 678.783 851.465C679.407 851.756 680.01 852.047 680.634 852.338V852.297Z" fill="black"/>
<path d="M479.648 1086.82C479.232 1181.99 501.007 1272.7 528.273 1362.51C527.316 1362.9 526.359 1363.3 525.402 1363.69C511.884 1336.03 498.386 1308.37 484.868 1280.71L487.634 1279.11C489.943 1282.5 491.939 1286.14 494.684 1289.13C495.974 1290.55 498.636 1290.72 500.695 1291.44C501.069 1289.3 502.421 1286.7 501.652 1285.12C498.782 1279.24 494.622 1273.93 492.022 1267.94C484.015 1249.33 473.471 1231.09 469.644 1211.58C466.005 1193.05 468.979 1173.06 470.164 1153.81C471.266 1135.92 473.721 1118.1 475.925 1100.29C476.487 1095.72 478.358 1091.31 479.627 1086.82H479.648Z" fill="black"/>
<path d="M784.52 1584.39C759.729 1573.2 733.774 1563.95 710.522 1550.14C694.903 1540.86 682.424 1525.74 669.738 1512.14C639.893 1480.18 614.25 1445.01 592.87 1406.8C591.934 1405.12 591.123 1403.37 591.581 1400.79C602.063 1412 612.295 1423.44 623.068 1434.36C633.509 1444.94 644.989 1454.53 655.159 1465.35C670.258 1481.38 685.502 1497.4 699.125 1514.66C721.794 1543.4 747.458 1567.73 782.731 1580.15C783.958 1580.59 785.019 1581.48 786.142 1582.15C785.601 1582.89 785.06 1583.64 784.54 1584.39H784.52Z" fill="black"/>
<path d="M1507.04 1239.93C1499.04 1261.85 1490.03 1283.45 1483.31 1305.77C1477.62 1324.65 1465.51 1337.94 1451.72 1350.78C1433.5 1367.73 1416.43 1385.97 1397.65 1402.23C1369.36 1426.69 1337.75 1446.17 1302.5 1459.44C1323.05 1445.03 1344.45 1431.68 1363.92 1415.94C1383.74 1399.9 1402.99 1382.7 1420.05 1363.82C1436.85 1345.22 1451.47 1324.43 1465.45 1303.55C1479.47 1282.58 1491.53 1260.31 1504.42 1238.62C1505.3 1239.05 1506.17 1239.51 1507.04 1239.95V1239.93Z" fill="black"/>
<path d="M681.739 1359.55C690.287 1365.36 700.02 1369.99 707.195 1377.17C754.53 1424.4 806.233 1465.37 868.085 1492.24C874.324 1494.94 880.813 1497.05 887.052 1499.79C844.147 1492.66 804.299 1477.29 767.882 1453.45C731.632 1429.7 704.783 1396.76 678.682 1363.23C679.701 1362.01 680.699 1360.78 681.718 1359.57L681.739 1359.55Z" fill="black"/>
<path d="M674.168 672.672C692.012 657.177 709.004 640.56 727.93 626.501C744.505 614.189 762.766 603.894 781.109 594.265C801.283 583.658 823.162 578.043 845.852 577.502C846.559 589.523 837.117 590.771 829.942 594.577C781.047 620.428 732.214 646.404 683.34 672.339C681.094 673.524 678.764 674.543 676.456 675.625C675.707 674.647 674.937 673.649 674.189 672.672H674.168Z" fill="black"/>
<path d="M799.93 1537.39C884.451 1558.54 962.879 1594.21 1047.15 1609.27C1020.38 1624.1 837.823 1571.71 799.93 1537.39Z" fill="black"/>
<path d="M833.268 1435.34C836.616 1435.69 838.321 1435.61 839.86 1436.09C866.252 1444.07 892.749 1451.75 918.953 1460.34C928.666 1463.52 937.401 1469.61 947.093 1473C957.699 1476.71 968.868 1478.77 979.766 1481.57C991.059 1484.48 1002.29 1487.54 1013.6 1490.39C1022.57 1492.66 1031.57 1494.72 1040.68 1496.9C1023.23 1504.57 1005.49 1501.79 987.939 1497.73C955.703 1490.29 923.591 1482.4 891.459 1474.54C888.485 1473.82 885.199 1472.63 883.078 1470.61C871.369 1459.38 857.476 1451.89 842.814 1445.36C839.403 1443.85 837.198 1439.58 833.309 1435.36L833.268 1435.34Z" fill="black"/>
<path d="M1050.62 1556.31C967.85 1557.58 885.928 1553.9 809.477 1517.46C809.622 1516.57 809.768 1515.68 809.913 1514.78C814.031 1515.53 818.212 1516.07 822.267 1517.07C868.354 1528.57 915.128 1535.52 962.401 1540.03C992.246 1542.88 1021.86 1548.14 1051.58 1552.32C1051.25 1553.65 1050.94 1554.98 1050.6 1556.29L1050.62 1556.31Z" fill="black"/>
<path d="M1476.72 1408.32C1463.78 1429.68 1451.2 1451.27 1437.6 1472.19C1434.48 1476.97 1430.01 1484.54 1420.96 1478.97C1419.67 1478.18 1415.55 1481.07 1413.25 1482.92C1403.55 1490.72 1394.03 1498.75 1384.46 1506.69C1372.07 1516.99 1357.28 1520.65 1342.04 1522.56C1386.4 1484.36 1430.74 1446.17 1475.1 1407.99C1475.64 1408.09 1476.18 1408.22 1476.72 1408.32Z" fill="black"/>
<path d="M534.949 944.369C507.892 1027.58 497.888 1112.79 500.883 1199.7C481.271 1103.55 492.564 1019.55 534.949 944.369Z" fill="black"/>
<path d="M929.02 498.802C998.712 467.336 1069.51 445.644 1147.58 476.05C1072.65 475.072 1000.13 480.189 929.02 498.802Z" fill="black"/>
<path d="M1063.54 545.351C1116.76 540.901 1210.68 563.695 1265.46 594.35C1243.33 590.732 1222.43 590.004 1203.79 583.12C1194.6 579.73 1185.97 572.305 1175.36 571.39C1157.19 569.83 1138.93 569.019 1120.69 568.187C1112.49 567.813 1104.28 568.125 1095.92 568.125C1097.71 556.977 1097.75 556.873 1087.45 553.192C1080.13 550.592 1072.69 548.325 1063.54 545.351Z" fill="black"/>
<path d="M553.395 1091.89C559.073 1159.67 576.73 1224.32 596.53 1288.53L593.348 1290.25C585.382 1277.42 575.15 1265.44 569.867 1251.59C552.543 1206.15 547.302 1158.67 551.004 1110.23C551.482 1104.09 552.584 1097.98 553.416 1091.87L553.395 1091.89Z" fill="black"/>
<path d="M567.351 1318.1C557.659 1311.9 554.415 1314.69 553.916 1322.59C525.984 1243.73 503.461 1164.84 521.534 1084.46C524.425 1120.79 525.839 1161.14 531.329 1200.93C536.778 1240.42 545.035 1279.75 567.351 1318.1Z" fill="black"/>
<path d="M1221.97 1523.29C1295.14 1495.17 1364.13 1459.44 1428 1408.73C1410.42 1450.41 1286.88 1518.48 1221.97 1523.29Z" fill="black"/>
<path d="M640.953 830.293C650.874 768.961 692.801 737.66 745.96 716.967C727.721 735.352 709.003 753.3 691.408 772.268C674 791.048 657.716 810.909 640.953 830.293Z" fill="black"/>
<path d="M869.521 1603.94C851.365 1601.01 835.746 1598.47 820.127 1595.96C820.501 1595.31 820.897 1594.69 821.271 1594.04C818.442 1591.17 816.092 1587.28 812.682 1585.62C791.052 1575.2 768.112 1567.01 747.752 1554.59C733.214 1545.71 722.004 1531.38 709.297 1519.48C709.817 1518.8 710.358 1518.11 710.878 1517.43C716.285 1519.36 721.734 1521.15 727.058 1523.29C729.928 1524.43 732.59 1526.1 735.294 1527.64C779.197 1552.59 823.08 1577.55 869.521 1603.96V1603.94Z" fill="black"/>
<path d="M851.027 567.789C929.164 541.335 1007.67 541.459 1086.58 563.38C1051.85 561.487 1017.1 558.097 982.364 558.201C957.698 558.285 933.074 563.151 908.408 565.709C889.316 567.685 870.182 569.411 851.069 571.241C851.069 570.098 851.048 568.933 851.027 567.789Z" fill="black"/>
<path d="M1369.24 657.572C1319.31 640.788 1271.91 624.878 1224.53 608.968C1264.01 595.491 1330.58 618.493 1369.24 657.572Z" fill="black"/>
<path d="M1336.93 753.574C1378.19 780.112 1412.38 814.054 1436.07 857.104C1443.93 871.392 1445.59 889.07 1448.53 905.896C1420.64 848.037 1377.94 801.575 1336.93 753.574Z" fill="black"/>
<path d="M1435.96 709.273C1480.05 753.489 1524.25 797.642 1531.05 864.964C1515.39 839.071 1505.2 810.204 1485.79 786.162C1466.58 762.349 1449.77 736.622 1431.89 711.748C1433.24 710.916 1434.59 710.105 1435.94 709.273H1435.96Z" fill="black"/>
<path d="M1489.39 989.52C1509.84 1021.82 1494.7 1124.75 1463.94 1161.02C1471.32 1124.06 1479.28 1087.21 1485.81 1050.1C1488.56 1034.55 1488.33 1018.47 1489.35 1002.64C1489.58 999.086 1489.39 995.488 1489.39 989.52Z" fill="black"/>
<path d="M951.793 505.331C1019.47 484.804 1174.78 478.523 1207.42 494.163C1189.82 492.957 1173.2 490.149 1156.77 491.002C1118.17 493.019 1079.68 496.638 1041.16 499.924C1016.1 502.066 991.1 504.894 966.039 507.016C961.381 507.411 956.556 505.934 951.793 505.31V505.331Z" fill="black"/>
<path d="M1094.76 540.251C1070.63 540.251 1046.51 540.604 1022.4 539.96C1017.62 539.835 1013.04 534.22 1008.2 533.908C993.078 532.93 977.771 532.036 962.735 533.408C934.949 535.967 907.33 540.168 879.648 543.682C879.378 542.622 879.087 541.561 878.816 540.5C889.194 537.09 899.406 533.034 909.992 530.372C939.504 522.989 969.494 522.719 999.629 525.422C1004.1 525.817 1008.72 525.277 1013.09 526.15C1017.74 527.086 1022.09 529.603 1026.75 530.601C1031.37 531.599 1036.21 532.14 1040.91 531.89C1059.3 530.954 1077.45 531.121 1094.78 540.23L1094.76 540.251Z" fill="black"/>
<path d="M470.35 987.4C466.232 1001.33 462.343 1014.46 458.475 1027.56L456 1027.41C457.081 1012.32 457.768 997.196 459.286 982.139C464.028 935.032 475.175 889.61 496.971 847.266C499.072 843.211 502.919 840.05 505.935 836.473L508.68 838.344C505.498 844.896 502.316 851.426 499.134 857.977C500.07 858.518 501.006 859.038 501.963 859.579C507.828 850.968 513.672 842.358 519.537 833.748C520.41 834.247 521.284 834.746 522.157 835.245C521.679 836.951 521.45 838.781 520.66 840.32C510.76 859.287 501.048 878.38 490.711 897.097C477.255 921.493 467.771 947.136 463.154 974.693C461.969 981.785 460.617 987.151 470.35 987.38V987.4Z" fill="black"/>
<path d="M719.941 1381.2C775.928 1417.22 831.936 1453.24 887.923 1489.26L885.698 1492.65C821.205 1469.27 768.753 1427.66 719.941 1381.2Z" fill="black"/>
<path d="M564.002 786.185C558.325 801.076 553.77 816.528 546.761 830.775C522.178 880.689 496.722 930.208 472.576 977.959C475.821 954.894 483.287 930.873 495.641 908.183C515.918 870.914 535.51 833.291 555.454 795.835C557.389 792.216 559.676 788.784 561.798 785.27C562.526 785.561 563.274 785.873 564.002 786.164V786.185Z" fill="black"/>
<path d="M1641.21 1044.28C1645.53 1098.27 1635.63 1149.18 1607.93 1195.37C1605.29 1186.64 1632.47 1061.48 1641.21 1044.28Z" fill="black"/>
<path d="M973.797 1534.04C899.404 1530.69 827.756 1517.24 764.303 1475.48C764.635 1474.56 764.968 1473.65 765.301 1472.71C768.13 1474 771.062 1475.14 773.786 1476.62C818.418 1500.95 866.814 1512.7 916.79 1518.61C936.694 1520.96 956.389 1523.27 973.797 1534.04Z" fill="black"/>
<path d="M635.525 726.638C644.531 712.995 652.247 698.707 667.179 690.014C696.753 672.794 725.849 654.741 756.255 638.686C719.215 672.461 680.178 703.324 635.525 726.638Z" fill="black"/>
<path d="M1432.28 943.705C1458.78 998.923 1471.15 1055.12 1444.84 1114.16C1447.73 1056.78 1449.98 999.463 1432.28 943.705Z" fill="black"/>
<path d="M1017.14 1516.57C1060.07 1514.47 1101.6 1512.35 1143.13 1510.65C1145.9 1510.54 1148.81 1513.68 1152.45 1515.8C1107.07 1534.96 1062.81 1534.77 1017.14 1516.57Z" fill="black"/>
<path d="M683.108 1425.63C679.78 1423.84 678.886 1423.32 677.95 1422.86C650.726 1409.38 634.005 1387.59 625.603 1358.58C621.505 1344.45 615.703 1330.81 610.67 1316.96C611.627 1316.27 612.583 1315.59 613.54 1314.9C619.571 1322.16 626.642 1328.79 631.447 1336.78C647.794 1363.96 663.35 1391.62 679.198 1419.08C680.03 1420.51 680.882 1421.92 683.087 1425.63H683.108Z" fill="black"/>
<path d="M1593.84 857.229C1568.57 821.083 1534.9 789.471 1529.7 739.785C1564.35 773.54 1579.11 815.384 1593.84 857.229Z" fill="black"/>
<path d="M759.729 673.003C800.325 633.383 849.449 613.043 899.634 603.705C860.056 624.315 817.275 646.714 774.37 668.801C769.94 671.089 764.637 671.651 759.729 673.003Z" fill="black"/>
<path d="M1490.51 691.594C1472.28 679.718 1455.33 668.425 1438.02 657.735C1434.88 655.801 1430.16 656.446 1426.17 655.864C1424.55 655.635 1422.76 655.635 1421.34 654.928C1394.01 641.014 1366.75 627.017 1339.48 613C1338.32 612.397 1337.36 611.44 1336.07 610.483C1363.38 606.49 1482.38 668.363 1490.54 691.615L1490.51 691.594Z" fill="black"/>
<path d="M1511.6 1046.09C1504.82 1007.22 1500.52 966.539 1490.16 927.481C1479.89 888.736 1463.52 851.612 1450.42 813.012C1456.24 822.079 1463.81 830.461 1467.64 840.298C1490.7 899.717 1506.82 961.028 1514.41 1024.38C1515.35 1032.16 1512.43 1040.37 1511.62 1046.09H1511.6Z" fill="black"/>
<path d="M1225.51 1636.64C1194.31 1652.11 1066.07 1649.01 1030.78 1632.75C1096.92 1634.41 1161.02 1643.25 1225.51 1636.64Z" fill="black"/>
<path d="M934.929 580.041C910.7 587.508 880.793 595.411 851.884 606.018C823.308 616.52 795.751 629.768 767.404 641.956C795.814 608.534 891.42 574.925 934.929 580.021V580.041Z" fill="black"/>
<path d="M1422.46 736.58C1390.83 707.817 1360.03 679.2 1320.03 663.019C1320.87 661.605 1321.68 660.17 1322.51 658.756C1350.31 670.735 1378.87 681.3 1405.45 695.526C1413.56 699.873 1416.58 714.14 1421.28 724.164C1422.69 727.18 1422 731.194 1422.44 736.601L1422.46 736.58Z" fill="black"/>
<path d="M1290.36 799.908C1324.09 818.397 1341.41 845.392 1347.38 879.667C1344.82 881.31 1341.79 883.286 1337.65 885.948C1317.52 861.407 1309.32 828.838 1290.36 799.908Z" fill="black"/>
<path d="M1356.14 726.14C1315.59 697.002 1264.82 684.919 1228.07 649.521C1278.21 662.499 1318.89 691.47 1356.14 726.14Z" fill="black"/>
<path d="M497.303 951.004C484.346 1009.61 471.161 1069.32 457.455 1131.32C459.743 1066.78 466.585 1005.68 497.303 951.004Z" fill="black"/>
<path d="M664.228 571.719C636.525 598.693 609.405 625.626 581.578 651.81C575.901 657.155 567.581 659.713 559.699 662.396C592.289 629.578 616.601 587.442 664.228 571.74V571.719Z" fill="black"/>
<path d="M1452.87 973.154C1436.63 932.204 1420.38 891.274 1404.16 850.324L1407.76 848.889C1429.43 887.655 1457.67 923.801 1455.43 972.114C1454.58 972.468 1453.72 972.801 1452.87 973.154Z" fill="black"/>
<path d="M1544.98 654.595C1518.28 639.954 1494.19 621.839 1473.27 599.606C1472.56 598.858 1471.17 597.943 1471.29 597.34C1474.66 580.14 1457.86 582.345 1450.37 575.689C1447.38 573.027 1443.51 571.363 1438.68 568.41C1455.65 568.785 1466.76 577.291 1477.22 586.858C1500.85 608.404 1524.33 630.096 1547.89 651.725C1546.91 652.682 1545.96 653.659 1544.98 654.616V654.595Z" fill="black"/>
<path d="M1186.55 1570.02C1137.74 1587.22 1090.45 1579.82 1040.24 1576.34C1089.95 1570.81 1136.43 1562.95 1186.55 1570.02Z" fill="black"/>
<path d="M1469.92 1358.6C1498.48 1312.72 1527.03 1266.84 1555.59 1220.96C1534.81 1271.52 1511.31 1320.45 1473.6 1360.84C1472.38 1360.09 1471.15 1359.34 1469.92 1358.6Z" fill="black"/>
<path d="M611.005 1306.95C608.946 1303.42 605.951 1300.11 604.973 1296.28C591.704 1244.02 577.687 1191.9 566.082 1139.26C560.633 1114.49 559.51 1088.7 557.326 1063.31C556.536 1054.22 558.366 1044.88 561.028 1035.61C562.463 1053.37 563.773 1071.13 565.333 1088.87C568.162 1120.79 568.12 1153.3 579.746 1183.71C590.581 1212.03 590.103 1242.88 600.772 1271.14C605.098 1282.62 608.717 1294.37 612.648 1306C612.086 1306.31 611.524 1306.64 610.984 1306.95H611.005Z" fill="black"/>
<path d="M1453.08 1156.94C1448.92 1215.82 1407.47 1254.71 1378.5 1300.26C1377.64 1299.82 1376.79 1299.39 1375.94 1298.97C1380.68 1289.26 1383.99 1278.48 1390.39 1270.04C1414.71 1237.95 1433.65 1203.05 1448.46 1165.74C1449.67 1162.68 1451.54 1159.88 1453.08 1156.94Z" fill="black"/>
<path d="M1366.98 602.897C1322.03 589.753 1276.4 578.377 1235.79 551.236C1282.54 562.467 1326.59 577.961 1366.98 602.897Z" fill="black"/>
<path d="M1521.4 765.366C1504.45 747.751 1485.56 731.549 1471.23 712.02C1461.46 698.689 1451.37 687.895 1436.87 680.408C1428.58 676.124 1421.15 670.197 1412.19 664.249C1414.83 663.645 1415.68 663.146 1416.06 663.396C1443.05 681.822 1470.05 700.228 1496.92 718.842C1512.29 729.511 1518.4 745.962 1523.72 762.808C1522.96 763.661 1522.19 764.493 1521.42 765.345L1521.4 765.366Z" fill="black"/>
<path d="M542.643 1133.77C538.462 1084.36 533.617 1034.92 545.783 985.986C547.343 986.028 548.924 986.09 550.483 986.132C548.757 1035.3 547.031 1084.48 545.305 1133.65L542.622 1133.77H542.643Z" fill="black"/>
<path d="M1621.78 968.348C1630.1 978.746 1631.29 990.476 1629.31 1002.68C1622.99 1041.74 1616.52 1080.78 1609.99 1119.82C1609.68 1121.73 1608.43 1123.5 1608.72 1122.85C1612.92 1073.06 1617.33 1020.94 1621.78 968.348Z" fill="black"/>
<path d="M743.631 1254.42C715.929 1224.08 698.002 1189.78 701.288 1148.37C716.137 1182.46 731.527 1217.8 746.897 1253.13C745.794 1253.57 744.713 1253.98 743.611 1254.42H743.631Z" fill="black"/>
<path d="M1451.12 1238.67C1455.72 1228.4 1460.44 1218.19 1464.78 1207.83C1465.74 1205.54 1465.39 1202.69 1465.64 1200.11C1462.98 1199.89 1460.31 1199.66 1457.51 1199.43C1469.92 1173.68 1482.53 1147.52 1495.11 1121.38C1497.25 1166.61 1469.73 1200.95 1451.12 1238.67Z" fill="black"/>
<path d="M553.143 745.878C542.785 759.23 532.158 772.395 522.133 785.997C515.582 794.898 508.449 803.799 504.227 813.824C497.676 829.38 486.736 838.823 471.408 843.752C473.176 828.923 520.636 770.399 553.143 745.857V745.878Z" fill="black"/>
<path d="M858.537 405.254C815.091 431.854 770.709 456.541 722.625 473.907C765.156 445.518 810.827 423.348 858.537 405.254Z" fill="black"/>
<path d="M566 997.795C577.147 952.456 585.279 906.036 614.334 867.27C615.29 867.623 616.247 867.956 617.183 868.309C600.94 911.756 584.697 955.222 568.454 998.669C567.643 998.377 566.811 998.086 566 997.774V997.795Z" fill="black"/>
<path d="M448.514 979.916C450.073 962.092 451.321 944.227 453.297 926.445C455.044 910.681 458.476 895.062 459.62 879.255C460.867 862.264 471.204 853.758 488.175 845.709C466.046 889.758 455.46 934.223 448.514 979.895V979.916Z" fill="black"/>
<path d="M817.195 1408.34C789.513 1403.85 735.834 1359.55 718.344 1326.94C751.745 1354.43 783.69 1380.74 817.195 1408.34Z" fill="black"/>
<path d="M1549.52 994.68C1543.61 960.967 1522.98 930.727 1526.08 893.188C1551.24 924.113 1550.35 959.407 1549.52 994.68Z" fill="black"/>
<path d="M430.667 917.127C424.303 979.748 426.798 1042.25 429.564 1104.74C420.642 1042.02 416.171 979.353 430.667 917.127Z" fill="black"/>
<path d="M568.576 710.878C537.879 744.965 507.182 779.053 476.484 813.161C501.129 773.708 525.962 734.379 566.413 708.965C567.141 709.61 567.848 710.254 568.576 710.878Z" fill="black"/>
<path d="M1556.38 1337.11C1566 1309.97 1568.81 1279.91 1590.44 1256.58C1594.93 1282.7 1580.73 1316.35 1556.38 1337.11Z" fill="black"/>
<path d="M1513.02 602.83C1552.91 614.394 1572.43 647.42 1586.51 683.837C1562.08 656.883 1536.87 629.118 1513.02 602.83Z" fill="black"/>
<path d="M689.015 717.676C685.064 722.168 682.547 726.598 678.762 729.094C650.664 747.708 624.792 768.755 603.6 796.415C604.224 773.85 662.477 719.943 689.015 717.676Z" fill="black"/>
<path d="M1425.92 826.883C1401.6 793.128 1369.78 767.36 1334.84 742.549C1382.74 753.426 1407.72 786.515 1425.92 826.883Z" fill="black"/>
<path d="M668.344 1062.9C670.611 1110.67 662.895 1158.94 680.802 1206.32C671.173 1201.01 668.032 1195.54 667.159 1183.15C666.826 1178.34 667.908 1173.41 667.242 1168.67C666.431 1162.93 664.434 1157.34 662.958 1151.7C662.521 1150.04 661.856 1148.39 661.731 1146.71C659.568 1118.4 662.022 1090.45 668.344 1062.88V1062.9Z" fill="black"/>
<path d="M1618.38 762.723C1596.06 734.543 1573.75 706.362 1550.74 677.287C1589.16 694.279 1604.53 728.012 1618.38 762.723Z" fill="black"/>
<path d="M560.635 1250.86C575.651 1285.78 590.666 1320.72 605.869 1356.12C577.065 1326.63 564.815 1290.29 560.635 1250.86Z" fill="black"/>
<path d="M1199.8 1711.78C1231.6 1701.09 1263.42 1690.38 1295.22 1679.69C1295.7 1680.64 1296.18 1681.58 1296.64 1682.54C1296.08 1683.6 1295.79 1685.26 1294.93 1685.64C1273.18 1694.99 1251.67 1705.04 1229.42 1713.05C1220.6 1716.23 1210.12 1714.79 1200.41 1715.46L1199.83 1711.82L1199.8 1711.78Z" fill="black"/>
<path d="M1649.47 872.225C1632.66 836.765 1615.88 801.284 1599.08 765.824C1621.08 798.768 1647.89 829.382 1652.03 870.997C1651.17 871.413 1650.32 871.829 1649.47 872.245V872.225Z" fill="black"/>
<path d="M1121.94 704.658C1157.42 704.804 1191.82 705.199 1214.26 737.102C1184.31 726.579 1153.55 715.785 1121.94 704.658Z" fill="black"/>
<path d="M1428.97 1239.95C1433.65 1256.67 1397.96 1305.71 1364.42 1329.23C1386.07 1299.3 1407.34 1269.85 1428.97 1239.95Z" fill="black"/>
<path d="M1545.36 1073.79C1539.37 1031.82 1533.67 991.809 1527.91 951.42C1541.14 968.349 1550.06 1029.93 1545.36 1073.79Z" fill="black"/>
<path d="M1243.94 1623.09C1205.57 1628.65 1166.99 1629.64 1128.31 1628.11C1128.16 1626.88 1128.01 1625.65 1127.85 1624.42C1137.44 1622.97 1147 1620.43 1156.63 1620.24C1185.66 1619.68 1214.72 1620.04 1243.75 1620.04C1243.81 1621.05 1243.88 1622.07 1243.94 1623.09Z" fill="black"/>
<path d="M541.707 884.719C546.365 901.066 536.362 916.332 536.84 932.367C535.883 931.743 534.947 931.119 533.991 930.495C530.58 933.219 525.838 935.237 524.029 938.772C517.602 951.313 512.195 964.353 506.392 977.206C505.436 976.853 504.479 976.478 503.543 976.125C514.982 945.407 526.441 914.689 537.88 883.971L541.686 884.719H541.707Z" fill="black"/>
<path d="M1291.5 1479.06C1260.2 1497.11 1228.26 1513.58 1191.94 1519.32C1191.51 1518.26 1191.07 1517.18 1190.63 1516.12C1223.72 1502.47 1256.81 1488.83 1289.9 1475.19C1290.44 1476.48 1290.96 1477.77 1291.5 1479.06Z" fill="black"/>
<path d="M1473.19 1089.72C1476.1 1041.25 1479.01 992.766 1482.05 942.27C1489.39 993.348 1486.12 1041.89 1473.19 1089.72Z" fill="black"/>
<path d="M654.89 1032.01C651.104 1071.36 647.319 1110.69 643.596 1149.37C630.619 1109.48 643.222 1070.86 654.89 1032.01Z" fill="black"/>
<path d="M1423.21 1299.22C1444.59 1262.45 1465.31 1226.82 1485.52 1192.03C1476.6 1233.33 1454.49 1268.19 1423.21 1299.22Z" fill="black"/>
<path d="M955.664 445.102C941.792 451.195 928.148 457.913 913.964 463.216C890.546 471.993 866.796 479.875 842.92 487.425C877.777 466.045 915.129 451.091 955.664 445.102Z" fill="black"/>
<path d="M734.769 1491.13C707.878 1482.77 686.103 1466.2 673.021 1443.4C685.438 1449.68 697.334 1454.36 707.733 1461.31C718.88 1468.78 728.572 1478.36 738.908 1487.01C737.536 1488.39 736.142 1489.76 734.769 1491.13Z" fill="black"/>
<path d="M1388.99 719.922C1391.97 722.459 1395 724.892 1397.9 727.534C1408.54 737.309 1419 747.312 1429.82 756.942C1440.59 766.529 1448.45 777.614 1450.51 792.297C1420.44 776.242 1410.39 743.361 1387.1 721.856C1387.75 721.211 1388.37 720.567 1389.01 719.922H1388.99Z" fill="black"/>
<path d="M1302.09 1559.64C1270.93 1571.73 1239.76 1583.81 1208.6 1595.89C1208.25 1595 1207.89 1594.08 1207.56 1593.19C1223.41 1578.36 1268.71 1560.64 1301.05 1556.61C1301.4 1557.62 1301.75 1558.62 1302.09 1559.64Z" fill="black"/>
<path d="M945.389 477.051C918.914 489.072 893.999 506.209 861.014 500.136C887.468 482.354 917.354 482.604 945.389 477.051Z" fill="black"/>
<path d="M817.006 411.16C858.039 389.717 899.343 368.857 944.058 355.963C905.624 383.457 858.351 390.424 817.006 411.16Z" fill="black"/>
<path d="M659.631 562.671C687.708 536.383 718.675 518.58 753.012 506.393C722.772 525.36 696.588 550.941 659.631 562.671Z" fill="black"/>
<path d="M599.484 966.6C589.48 1029.84 591.622 1092.45 610.589 1154.11C581.39 1093.01 590.249 1029.8 599.484 966.6Z" fill="black"/>
<path d="M630.14 801.16C624.462 835.767 597.966 851.948 577.771 876.135C579.726 867.421 580.6 861.161 582.7 855.338C583.595 852.842 587.047 851.282 589.335 849.286C591.602 847.31 594.202 845.584 596.094 843.275C606.971 830.027 617.682 816.634 630.14 801.181V801.16Z" fill="black"/>
<path d="M1358.39 1003.79C1356.85 999.006 1354.56 994.306 1353.92 989.397C1352.04 975.026 1351.61 960.447 1349.13 946.18C1346.68 932.017 1342.46 918.166 1339.67 904.023C1360.65 934.097 1361.8 968.475 1361.47 1003.17C1360.43 1003.37 1359.41 1003.58 1358.37 1003.79H1358.39Z" fill="black"/>
<path d="M1491.37 571.221C1462.02 567.581 1442.47 546.825 1419.24 530.479C1437.48 531.435 1477.97 554.645 1491.37 571.221Z" fill="black"/>
<path d="M1656.65 1068.22V949.631C1657.83 949.444 1659.02 949.236 1660.2 949.049C1661.72 957.264 1664.88 965.562 1664.51 973.694C1663.01 1005.24 1660.39 1036.75 1658.16 1068.28C1657.67 1068.26 1657.15 1068.24 1656.65 1068.22Z" fill="black"/>
<path d="M1403.58 1092.37C1402.29 1122.5 1402.73 1152.95 1380.6 1178.97C1381.41 1147.19 1396.28 1120.67 1403.58 1092.37Z" fill="black"/>
<path d="M913.005 1297.72C892.208 1300.15 842.647 1271.83 831.604 1250.82C859.139 1266.69 885.948 1282.14 913.005 1297.72Z" fill="black"/>
<path d="M1664.88 1098.15C1667.23 1070.36 1669.58 1042.58 1672.24 1011.32C1675.61 1015.85 1678.73 1018.14 1679.04 1020.76C1682.2 1047.8 1676.84 1073.48 1664.88 1098.15Z" fill="black"/>
<path d="M468.293 1291.9C472.723 1304.4 481.687 1317.29 480.584 1329.29C478.775 1349.13 492.917 1360.88 497.534 1376.98C497.888 1378.23 498.158 1379.48 498.99 1382.95C474.969 1355.95 464.321 1326.65 468.293 1291.9Z" fill="black"/>
<path d="M1127.43 533.578C1166.01 534.68 1203.09 541.772 1237.03 561.447C1200.49 552.15 1163.95 542.875 1127.43 533.578Z" fill="black"/>
<path d="M1530.17 1128.95C1527.91 1088.71 1525.64 1048.46 1523.37 1008.24C1524.33 1008.2 1525.27 1008.16 1526.22 1008.12C1534.19 1048.11 1536.14 1088.39 1530.17 1128.95Z" fill="black"/>
<path d="M687.667 1126.74C692.138 1156.32 696.63 1185.91 701.102 1215.49C685.421 1187.49 679.556 1158.1 687.667 1126.74Z" fill="black"/>
<path d="M763.014 1072.85C766.757 1094.19 770.521 1115.51 774.598 1138.72C755.152 1124.83 751.617 1104.22 763.014 1072.85Z" fill="black"/>
<path d="M1386.57 888.051C1375.8 866.297 1365.02 844.521 1354.25 822.767C1355.14 822.33 1356.02 821.894 1356.91 821.457C1375.96 839.093 1387.48 860.515 1386.57 888.051Z" fill="black"/>
<path d="M1307.16 1387.46C1327.69 1373.28 1346.2 1360.47 1364.73 1347.66C1353.54 1371.05 1337.26 1387.09 1307.16 1387.46Z" fill="black"/>
<path d="M1438.87 731.193C1458.3 758.917 1477.7 786.66 1497.13 814.384C1475.68 798.785 1445.17 755.963 1436.79 732.878C1437.48 732.316 1438.19 731.755 1438.87 731.193Z" fill="black"/>
<path d="M675 927.317C682.799 892.69 692.137 859.164 718.176 832.189C703.472 864.571 689.226 895.955 675 927.317Z" fill="black"/>
<path d="M468.268 744.296C455.769 775.263 455.956 811.097 430.375 837.053C442.042 805.773 453.71 774.473 465.377 743.193C466.334 743.568 467.311 743.942 468.268 744.296Z" fill="black"/>
<path d="M580.848 1286.49C609.631 1305.15 607.552 1338.88 622.193 1364.67C621.091 1365.19 619.989 1365.71 618.886 1366.25C606.2 1339.67 593.534 1313.07 580.848 1286.49Z" fill="black"/>
<path d="M534.553 800.289C539.003 772.545 559.135 755.533 577.333 737.189C578.144 737.751 578.956 738.313 579.787 738.853C565.645 759.963 551.503 781.072 537.36 802.182C536.424 801.558 535.489 800.913 534.553 800.289Z" fill="black"/>
<path d="M1136.75 1467.76C1101.7 1481.18 1066.89 1481.88 1031.68 1478.93C1031.59 1478.06 1031.51 1477.18 1031.43 1476.31C1065.99 1473.5 1100.56 1470.71 1136.75 1467.78V1467.76Z" fill="black"/>
<path d="M585.34 1506.7C556.369 1494.8 542.892 1478.65 536.965 1450.21C552.958 1468.89 568.39 1486.9 585.34 1506.7Z" fill="black"/>
<path d="M646.526 1339.65C669.383 1354.62 679.844 1380.04 696.96 1399.82C695.899 1400.73 694.818 1401.65 693.757 1402.56C676.62 1382.84 659.483 1363.13 642.346 1343.41C643.739 1342.16 645.133 1340.9 646.505 1339.65H646.526Z" fill="black"/>
<path d="M1198.22 460.512C1230.69 459.077 1257.25 476.297 1288.53 484.991C1269.5 487.112 1230.67 476.214 1198.22 460.512Z" fill="black"/>
<path d="M1513.08 1350.92C1524.83 1327.89 1533.92 1303.04 1559.56 1289.48C1545.13 1310.65 1530.71 1331.85 1516.28 1353.02C1515.22 1352.31 1514.14 1351.6 1513.08 1350.92Z" fill="black"/>
<path d="M1596.2 965.419C1594.17 963.485 1590.78 961.842 1590.3 959.575C1586.08 939.796 1582.39 919.914 1578.09 897.723C1597.02 917.938 1594.83 941.668 1598.85 963.651C1597.97 964.254 1597.08 964.836 1596.2 965.439V965.419Z" fill="black"/>
<path d="M549.527 1232.83C538.296 1196.52 533.367 1159.25 536.009 1121.09C540.522 1158.34 545.014 1195.58 549.527 1232.83Z" fill="black"/>
<path d="M1183.19 1444.53C1154.2 1457.57 1123.08 1461.36 1091.39 1462.56C1121.63 1455.43 1151.87 1448.3 1182.13 1441.18C1182.48 1442.31 1182.85 1443.43 1183.21 1444.55L1183.19 1444.53Z" fill="black"/>
<path d="M1029.6 1541.88C1063.71 1551.7 1098.4 1547.71 1132.94 1547.06C1097.86 1561 1063.75 1550.76 1029.6 1541.88Z" fill="black"/>
<path d="M700.203 1247.85C712.661 1267 725.139 1286.15 737.597 1305.33C713.555 1293.97 703.427 1273.24 700.203 1247.85Z" fill="black"/>
<path d="M1023.75 359.791C988.541 369.941 953.33 380.09 918.973 390.01C932.2 378.634 1001.56 357.587 1023.75 359.791Z" fill="black"/>
<path d="M1493.93 847.222C1510.54 863.839 1521.88 882.765 1519.44 909.012C1509.46 887.964 1500 868.02 1490.54 848.075C1491.66 847.784 1492.78 847.492 1493.9 847.201L1493.93 847.222Z" fill="black"/>
<path d="M1017.93 1397.63H1096.67C1096.67 1398.59 1096.67 1399.57 1096.67 1400.52C1070.44 1408.88 1044.17 1402.29 1017.93 1397.63Z" fill="black"/>
<path d="M1229.67 787.828C1247.45 802.906 1273.01 813.18 1281.14 841.236C1263.49 822.914 1245.83 804.591 1229.67 787.828Z" fill="black"/>
<path d="M1329.71 537.336C1360.03 551.208 1394.74 555.575 1421.74 581.406C1389.4 567.076 1358.91 553.6 1328.42 540.102C1328.85 539.187 1329.27 538.251 1329.71 537.336Z" fill="black"/>
<path d="M927.796 1403.99C926.673 1404.87 925.321 1406.66 924.448 1406.45C904.232 1401.75 884.412 1395.99 867.92 1382.47C887.366 1387.09 908.163 1387.56 924.552 1401.21C925.633 1402.14 926.715 1403.06 927.775 1403.99H927.796Z" fill="black"/>
<path d="M1585.29 1198.81C1579.38 1219.52 1574.2 1240.48 1567.15 1260.8C1564.59 1268.17 1557.56 1273.99 1552.59 1280.52C1551.7 1279.94 1550.78 1279.33 1549.89 1278.75C1561.45 1252.01 1573.02 1225.24 1584.6 1198.49C1584.83 1198.6 1585.08 1198.7 1585.31 1198.81H1585.29Z" fill="black"/>
<path d="M1319.45 1203.36C1299.95 1239.55 1274.57 1270.95 1244.5 1298.61C1269.48 1266.86 1294.48 1235.12 1319.45 1203.36Z" fill="black"/>
<path d="M1605.21 832.77C1618.63 860.014 1633.81 887.176 1631.21 921.783C1622.14 890.691 1613.68 861.72 1605.21 832.77Z" fill="black"/>
<path d="M1403.74 1603.51C1409.57 1599.14 1412.75 1588.97 1423.36 1594.65C1424.29 1595.15 1426.72 1592.8 1428.47 1591.76C1444.59 1582.25 1460.71 1572.75 1476.83 1563.24L1478.14 1565.61C1457.51 1586.31 1431.38 1596.41 1403.72 1603.51H1403.74Z" fill="black"/>
<path d="M596.034 1223.2C606.058 1248.58 619.036 1273.07 615.875 1302.4C608.138 1276.3 600.422 1250.2 592.686 1224.08L596.034 1223.18V1223.2Z" fill="black"/>
<path d="M1460.25 1448.75C1476 1425.27 1484.21 1397.15 1506.78 1377.83C1492.82 1402.35 1478.87 1426.87 1464.91 1451.39C1463.35 1450.52 1461.81 1449.63 1460.25 1448.75Z" fill="black"/>
<path d="M1449.94 1364.56C1430.47 1391.18 1408.51 1415.2 1376.4 1429.7C1401.54 1407.43 1425.75 1386 1449.94 1364.56Z" fill="black"/>
<path d="M690.012 1416.72C709.957 1433.19 730.463 1450.12 750.969 1467.05C725.513 1455.76 701.866 1442.35 690.012 1416.72Z" fill="black"/>
<path d="M1363.27 1115.43C1357.39 1148.64 1345.74 1179.55 1328.46 1208.67C1327.21 1207.71 1326.46 1207.27 1326.5 1207.15C1338.73 1176.55 1351 1145.98 1363.27 1115.41V1115.43Z" fill="black"/>
<path d="M872.599 1367.25C842.734 1356.39 813.347 1344.66 790.969 1320.58C818.172 1336.14 845.396 1351.69 872.599 1367.25Z" fill="black"/>
<path d="M807.085 1173.5C789.968 1164.66 772.186 1115.87 776.595 1091.3C778.259 1121.79 794.585 1146.94 807.085 1173.5Z" fill="black"/>
<path d="M1110.27 1695.99C1138.24 1694.08 1165.86 1692.19 1193.48 1690.29C1160.87 1702.48 1136 1703.77 1110.27 1695.99Z" fill="black"/>
<path d="M771.793 1391.41C738.288 1369.68 712.104 1341.48 694.426 1305.73C716.721 1337.49 741.719 1366.81 771.793 1391.41Z" fill="black"/>
<path d="M1426.21 1311.63C1409.8 1329.19 1393.39 1346.72 1376.98 1364.27C1378.21 1351.5 1406.91 1320.24 1424 1309.39L1426.23 1311.66L1426.21 1311.63Z" fill="black"/>
<path d="M1276.26 1704.58C1288.38 1699.13 1300.45 1693.54 1312.65 1688.32C1324.86 1683.08 1337.24 1678.23 1350.32 1675.11C1326.26 1686.43 1304.04 1702.3 1277.4 1707.33C1277.01 1706.41 1276.63 1705.5 1276.24 1704.56L1276.26 1704.58Z" fill="black"/>
<path d="M1154.44 519.604C1124.04 517.004 1093.63 514.425 1063.22 511.826C1063.25 511.285 1063.27 510.723 1063.29 510.183C1079.95 509.288 1096.63 508.373 1113.28 507.5C1114.3 507.437 1115.82 507.167 1116.3 507.708C1126.78 519.334 1142.03 514.155 1154.42 519.604H1154.44Z" fill="black"/>
<path d="M1323.09 948.756C1317.52 929.123 1311.94 909.47 1305.97 888.443C1320.24 897.158 1328.33 923.3 1325.77 948.07C1324.88 948.299 1323.99 948.527 1323.09 948.735V948.756Z" fill="black"/>
<path d="M1206.96 715.971C1230.83 719.693 1247.95 731.839 1257.08 756.214C1239.63 742.196 1223.28 729.094 1206.96 715.971Z" fill="black"/>
<path d="M646.711 1237.72C659.356 1258.29 672.022 1278.86 684.666 1299.45C669.38 1291.25 647.21 1255.08 646.711 1237.72Z" fill="black"/>
<path d="M937.984 1393.27C964.085 1399.57 990.186 1405.89 1019.18 1412.9C988.689 1412.94 962.38 1407.22 937.152 1396.39C937.423 1395.35 937.714 1394.31 937.984 1393.27Z" fill="black"/>
<path d="M1066.38 1345.53C1044.71 1356.16 1023.79 1344.2 1002.52 1342.47C1002.56 1341.35 1002.6 1340.21 1002.64 1339.08C1013.1 1339.89 1023.56 1341.04 1034.04 1341.43C1044.73 1341.85 1055.45 1341.52 1066.14 1341.52C1066.22 1342.85 1066.3 1344.18 1066.38 1345.53Z" fill="black"/>
<path d="M1473.09 997.53C1469.82 968.912 1466.58 940.295 1463.21 910.804C1469.07 907.663 1470.13 913.695 1470.65 917.937C1472.07 929.542 1473.15 941.231 1473.5 952.898C1473.98 967.664 1473.61 982.451 1473.61 997.238C1473.42 997.342 1473.25 997.447 1473.07 997.53H1473.09Z" fill="black"/>
<path d="M1069.01 1588.99C1059.98 1594.31 1008.03 1588.18 971.885 1576.76C1003.83 1580.8 1035.77 1584.81 1069.01 1588.99Z" fill="black"/>
<path d="M420.748 1196.83C416.734 1167.57 412.74 1138.31 408.727 1109.05C409.891 1108.88 411.056 1108.69 412.221 1108.53C416.754 1137.64 421.267 1166.74 425.801 1195.85C424.117 1196.19 422.432 1196.5 420.727 1196.83H420.748Z" fill="black"/>
<path d="M1380.16 1555.57C1393.93 1544.55 1407.72 1533.53 1421.48 1522.5C1422.11 1523.27 1422.73 1524.04 1423.36 1524.83C1411.98 1538.81 1404.16 1557.17 1380.16 1555.59V1555.57Z" fill="black"/>
<path d="M1286.22 1231.25C1271.72 1250.95 1255.15 1268.52 1234.56 1281.91C1233.62 1280.96 1232.66 1280 1231.73 1279.04C1248.28 1261.49 1264.84 1243.94 1281.39 1226.4C1283.02 1228.03 1284.62 1229.63 1286.24 1231.25H1286.22Z" fill="black"/>
<path d="M1462.94 1504.05C1448.9 1517.91 1447.01 1539.45 1425.63 1543.01C1438.02 1518.95 1448.65 1507.01 1462.94 1504.05Z" fill="black"/>
<path d="M759.271 1019.43C760.671 1033.63 755.5 1049.18 743.756 1066.08C741.239 1047.67 749.538 1034.74 759.271 1019.43Z" fill="black"/>
<path d="M1540.1 712.83C1526.39 700.871 1512.69 688.933 1498.98 676.975C1521.69 678.534 1532.49 694.008 1540.1 712.83Z" fill="black"/>
<path d="M1301.01 925.697C1286.49 903.922 1273.43 884.372 1260.51 864.739C1260.1 864.095 1261.22 862.452 1262.82 857.855C1274.39 882.272 1294.5 898.286 1301.01 925.697Z" fill="black"/>
<path d="M1145.13 605.516C1165.24 604.539 1185.31 603.936 1202.76 618.411C1183.39 615 1164.03 611.569 1144.67 608.158C1144.81 607.284 1144.98 606.39 1145.13 605.516Z" fill="black"/>
<path d="M1380.39 675.103C1358.47 666.368 1336.53 657.633 1314.63 648.857C1313.09 648.254 1311.7 647.297 1310.55 645.82C1335.36 651.893 1359.47 659.63 1382.14 670.84C1381.56 672.254 1380.97 673.689 1380.39 675.103Z" fill="black"/>
<path d="M1173.6 1320.33C1190.55 1312.22 1207.5 1304.13 1225.78 1295.39C1216.36 1309.91 1192.63 1322.41 1174.95 1323.11C1174.52 1322.18 1174.06 1321.24 1173.62 1320.33H1173.6Z" fill="black"/>
<path d="M881.184 1641.52C907.285 1644.93 933.365 1648.32 959.466 1651.74C959.258 1653.17 959.05 1654.58 958.842 1656.02C932.595 1652.46 906.349 1648.91 880.123 1645.35C880.477 1644.08 880.851 1642.81 881.204 1641.54L881.184 1641.52Z" fill="black"/>
<path d="M672.107 830.709C661.771 847.763 651.434 864.796 641.098 881.85C639.788 881.039 638.478 880.228 637.146 879.438C648.003 862.716 652.391 841.981 669.591 829.17C670.423 829.69 671.275 830.21 672.107 830.73V830.709Z" fill="black"/>
<path d="M713.85 725.371C724.248 704.948 745.275 702.577 762.599 693.904C763.265 695.069 763.951 696.234 764.616 697.419C747.687 706.736 730.758 716.054 713.85 725.371Z" fill="black"/>
<path d="M1606.94 920.514C1605.59 916.022 1604.59 911.363 1602.8 907.037C1596.37 891.439 1589.65 875.966 1583.08 860.43C1582.44 858.912 1581.98 857.331 1581.09 854.814C1595.81 867.875 1608.73 899.28 1606.94 920.514Z" fill="black"/>
<path d="M767.984 1277.96C781.815 1289.55 795.666 1301.13 809.496 1312.72C808.748 1313.63 807.999 1314.55 807.271 1315.48C792.692 1304.73 773.704 1299.55 765.031 1281.29C766.03 1280.19 767.007 1279.09 768.005 1277.98L767.984 1277.96Z" fill="black"/>
<path d="M438.697 1021.36V933.012C440.028 933.053 441.359 933.074 442.69 933.116C441.131 967.764 439.55 1002.41 438.697 1021.36Z" fill="black"/>
<path d="M1352.23 1551.22C1366.93 1540.64 1381.64 1530.05 1396.34 1519.45C1396.99 1520.36 1397.63 1521.28 1398.26 1522.21C1385.28 1535.31 1372.86 1549.23 1354 1553.8C1353.42 1552.95 1352.81 1552.1 1352.23 1551.22Z" fill="black"/>
<path d="M806.541 700.686C794.624 709.816 789.467 727.556 771.955 728.991C782.562 718.239 789.571 702.89 806.541 700.686Z" fill="black"/>
<path d="M1271.26 526.316C1249.72 520.638 1228.17 514.96 1206.62 509.262C1229.59 509.366 1252.19 510.78 1271.26 526.316Z" fill="black"/>
<path d="M1332.12 515.588C1353.31 512.551 1369.43 521.265 1382.99 536.094C1366.04 529.252 1349.07 522.409 1332.12 515.588Z" fill="black"/>
<path d="M1658.91 1395.87C1658 1410.82 1658.33 1424.82 1643.13 1433.59C1645.35 1422.61 1646.62 1412.88 1649.56 1403.66C1650.6 1400.4 1655.67 1398.44 1658.91 1395.89V1395.87Z" fill="black"/>
<path d="M1258.02 1588.45C1278.83 1578.84 1298.61 1569.71 1318.39 1560.58C1300.9 1574.37 1283.87 1589.13 1258.02 1588.45Z" fill="black"/>
<path d="M845.541 473.991C826.719 482.518 812.452 499.405 791.342 503.71C790.822 502.754 790.282 501.818 789.762 500.861C807.772 490.816 825.804 480.791 843.815 470.746C844.397 471.828 844.958 472.909 845.541 474.011V473.991Z" fill="black"/>
<path d="M516.435 1231.38C521.281 1249.22 525.815 1265.96 530.349 1282.68C519.95 1267.52 507.659 1252.86 516.435 1231.38Z" fill="black"/>
<path d="M1438.23 1169.32C1445.36 1148.35 1452.49 1127.41 1460.36 1104.32C1463.14 1130.76 1449.52 1149.56 1438.23 1169.32Z" fill="black"/>
<path d="M629.448 916.586C623.063 938.964 616.657 961.363 610.168 984.053C606.986 969.391 616.948 932.746 629.448 916.586Z" fill="black"/>
<path d="M969.016 1520.46C984.053 1523.79 999.089 1527.1 1014.11 1530.42C1013.83 1531.78 1013.59 1533.13 1013.31 1534.48C996.843 1538.64 983.075 1528.18 968.08 1524.46C968.392 1523.12 968.704 1521.79 969.016 1520.44V1520.46Z" fill="black"/>
<path d="M1551.95 1092.97C1547.85 1116.66 1543.77 1140.35 1539.67 1164.03C1538.32 1163.8 1536.97 1163.56 1535.62 1163.33C1539.97 1139.66 1544.29 1115.97 1548.64 1092.3C1549.74 1092.53 1550.84 1092.74 1551.95 1092.97Z" fill="black"/>
<path d="M936.816 400.846C954.785 386.038 976.81 382.94 998.128 377.74C998.44 378.635 998.752 379.529 999.064 380.444C978.308 387.245 957.572 394.046 936.816 400.846Z" fill="black"/>
<path d="M538.773 636.193C529.206 648.422 519.639 660.651 510.052 672.88C509.095 672.131 508.138 671.383 507.182 670.634C513.504 655.868 522.114 642.869 536.381 634.238C537.172 634.883 537.962 635.528 538.752 636.193H538.773Z" fill="black"/>
<path d="M1145.34 794.106C1129.03 787.326 1112.7 780.567 1096.4 773.787C1096.79 772.831 1097.21 771.874 1097.6 770.938C1117.74 769.025 1130.96 783.5 1146.79 791.777C1146.31 792.547 1145.81 793.337 1145.34 794.106Z" fill="black"/>
<path d="M924.777 889.736C940.875 878.318 957.97 868.98 977.728 866.941C978.123 867.981 978.497 869.021 978.893 870.061C960.861 876.612 942.83 883.163 924.798 889.715L924.777 889.736Z" fill="black"/>
<path d="M1507.71 919.623C1512.97 942.376 1518.24 965.107 1523.5 987.86C1522 988.193 1520.52 988.546 1519.03 988.879L1504.7 920.746C1505.7 920.372 1506.69 919.997 1507.69 919.623H1507.71Z" fill="black"/>
<path d="M1135.67 599.217C1121.57 594.932 1109.48 591.251 1097.4 587.57C1112.21 581.996 1131.84 587.32 1135.67 599.217Z" fill="black"/>
<path d="M724.601 1250.82C737.059 1259.58 752.782 1264.67 756.13 1283.68C744.817 1273.64 733.503 1263.59 722.168 1253.54C722.979 1252.63 723.79 1251.74 724.58 1250.82H724.601Z" fill="black"/>
<path d="M589.709 739.994C600.295 725.56 608.011 708.881 623.214 698.107C624.046 698.752 624.857 699.376 625.689 700.021C614.916 714.205 604.122 728.389 593.349 742.573C592.142 741.72 590.936 740.846 589.73 739.994H589.709Z" fill="black"/>
<path d="M917.043 401.492C904.648 418.9 885.036 416.841 868.543 423.122C868.21 422.248 867.878 421.354 867.545 420.48C884.037 414.158 900.551 407.835 917.043 401.513V401.492Z" fill="black"/>
<path d="M673.997 581.973C656.59 598.049 639.182 614.126 621.775 630.203C620.901 629.267 620.028 628.31 619.154 627.374C636.52 611.298 653.886 595.221 671.252 579.145L673.997 581.973Z" fill="black"/>
<path d="M765.886 581.1C780.049 574.798 794.233 568.475 808.396 562.174C809.103 563.754 809.81 565.335 810.518 566.916C796.167 573.405 781.817 579.873 767.467 586.361C766.926 584.614 766.406 582.867 765.865 581.1H765.886Z" fill="black"/>
<path d="M1328.6 1287.16C1314.08 1304.48 1299.59 1321.78 1285.07 1339.11C1284.2 1338.38 1283.32 1337.65 1282.43 1336.92C1296.86 1319.48 1311.3 1302.03 1325.75 1284.6C1326.69 1285.45 1327.64 1286.3 1328.6 1287.16Z" fill="black"/>
<path d="M1064.12 715.681C1074.31 709.129 1078.03 709.421 1102.12 718.01C1097.94 724.499 1091.18 724.125 1064.12 715.681Z" fill="black"/>
<path d="M688.766 1356.64C673.376 1352.85 666.616 1341.7 664.994 1326.09C673.688 1335.59 682.402 1345.12 691.095 1354.62C690.326 1355.29 689.535 1355.97 688.766 1356.64Z" fill="black"/>
<path d="M1485.84 1495.3C1482.26 1512 1472.3 1520.17 1460.11 1526.51C1467.31 1515.99 1470.63 1502.39 1485.84 1495.3Z" fill="black"/>
<path d="M1531.9 1244.77C1543.05 1222.12 1554.2 1199.49 1565.34 1176.85L1568.52 1178.41C1557.27 1200.99 1546.04 1223.6 1534.79 1246.18C1533.83 1245.71 1532.88 1245.23 1531.9 1244.77Z" fill="black"/>
<path d="M1281.33 809.516C1272.76 799.595 1264.2 789.696 1255.63 779.775C1273.35 781.502 1278.55 794.479 1283.54 807.644C1282.81 808.268 1282.06 808.892 1281.33 809.516Z" fill="black"/>
<path d="M732.713 555.703C719.132 564.604 705.552 573.485 691.971 582.386C702.39 568.743 713.6 556.348 732.713 555.703Z" fill="black"/>
<path d="M857.042 1323.72C848.599 1329.81 833.042 1319.93 825.68 1305.46C826.241 1304.62 826.824 1303.79 827.385 1302.96C837.118 1309.78 846.852 1316.6 857.022 1323.72H857.042Z" fill="black"/>
<path d="M866.938 340.181C853.461 348.104 839.984 356.028 826.507 363.952L824.012 361.477C826.279 358.524 827.922 354.219 830.917 352.846C842.355 347.647 854.21 343.383 865.919 338.787C866.252 339.265 866.584 339.723 866.917 340.201L866.938 340.181Z" fill="black"/>
<path d="M1098.02 596.511C1082.15 593.038 1066.26 589.565 1049.75 585.946C1058.59 580.913 1072.08 583.18 1098.41 593.537C1098.29 594.535 1098.14 595.534 1098.02 596.511Z" fill="black"/>
<path d="M1263.19 1005.77C1258.22 991.311 1253.25 976.877 1248.26 962.423C1249.07 962.132 1249.9 961.841 1250.72 961.57C1257.56 975.484 1268.56 987.858 1266.25 1005.08L1263.17 1005.77H1263.19Z" fill="black"/>
<path d="M982.383 350.743C972.92 354.778 963.457 358.792 953.433 363.076C951.769 360.269 950.292 357.794 948.088 354.092C959.651 351.846 970.508 349.745 981.385 347.645C981.718 348.684 982.05 349.703 982.383 350.743Z" fill="black"/>
<path d="M1388.35 505.003C1374.12 497.599 1359.9 490.216 1345.67 482.812C1346.4 481.418 1347.11 480.046 1347.84 478.652C1362 486.16 1376.16 493.668 1390.33 501.176C1389.66 502.445 1389.02 503.734 1388.35 505.003Z" fill="black"/>
<path d="M1291.58 1057.22V1017.14C1299.88 1032.24 1299.65 1044.66 1291.58 1057.22Z" fill="black"/>
<path d="M524.781 796.314C525.093 818.755 520.476 826.45 505.918 827.802C512.157 817.382 517.773 808.044 524.781 796.314Z" fill="black"/>
<path d="M571.887 910.345C573.384 889.027 589.752 880.396 598.757 866.898C599.672 867.502 600.567 868.105 601.482 868.708C592.081 881.935 582.681 895.183 571.887 910.345Z" fill="black"/>
<path d="M598.757 759.481C607.45 745.9 616.144 732.319 624.837 718.738L628.872 721.4C619.887 734.836 610.903 748.271 601.918 761.706C600.858 760.957 599.797 760.229 598.736 759.481H598.757Z" fill="black"/>
<path d="M1087.64 1485.81C1069.17 1495.69 1052.7 1490.18 1036.19 1485.81H1087.64Z" fill="black"/>
<path d="M1203.3 1583.39C1188.18 1588.53 1176.08 1601.72 1157.71 1598.24C1172.6 1592.19 1187.47 1586.14 1202.36 1580.09C1202.68 1581.19 1202.99 1582.29 1203.3 1583.39Z" fill="black"/>
<path d="M1597.81 1096.74C1595.6 1114.14 1593.38 1131.55 1591.17 1148.96C1589.95 1148.79 1588.7 1148.65 1587.47 1148.48C1589.61 1130.97 1591.78 1113.46 1593.92 1095.95C1595.23 1096.22 1596.52 1096.47 1597.81 1096.74Z" fill="black"/>
<path d="M1619.23 1223.93C1614.3 1235.72 1609.39 1247.52 1604.46 1259.33C1601.36 1244.31 1605.46 1232.13 1619.23 1223.93Z" fill="black"/>
<path d="M1186.37 1380.66C1198.02 1373.78 1209.66 1366.91 1221.31 1360.03L1223.1 1363.02C1211.76 1370.53 1202.92 1382.07 1188.03 1383.78C1187.47 1382.74 1186.93 1381.7 1186.37 1380.66Z" fill="black"/>
<path d="M568.911 957.222C566.956 939.752 570.721 924.175 584.53 909.533C578.852 926.837 573.882 942.04 568.911 957.222Z" fill="black"/>
<path d="M1507.09 1396.4C1515.49 1381.85 1523.92 1367.27 1532.32 1352.71C1530.24 1370.91 1521.19 1385.11 1507.09 1396.4Z" fill="black"/>
<path d="M1408.17 936.281C1403.58 921.972 1398.98 907.684 1394.38 893.375L1398.58 892.023C1403.14 906.249 1407.67 920.475 1412.23 934.679C1410.88 935.22 1409.52 935.74 1408.17 936.281Z" fill="black"/>
<path d="M1298.87 1378.39C1288.9 1384.97 1278.94 1391.56 1268.98 1398.13C1268 1396.61 1267 1395.09 1266.03 1393.58C1276.07 1386.96 1286.12 1380.37 1296.14 1373.76C1297.04 1375.29 1297.95 1376.83 1298.85 1378.39H1298.87Z" fill="black"/>
<path d="M1153.11 1508.48C1167.73 1506.09 1180.82 1503.97 1195.25 1501.62C1179.67 1512.54 1162.35 1515.68 1153.11 1508.48Z" fill="black"/>
<path d="M1037.54 592.308H976.684C976.684 591.518 976.684 590.728 976.684 589.938H1037.58C1037.58 590.728 1037.54 591.518 1037.54 592.308Z" fill="black"/>
<path d="M685.379 1038.89C688.415 1022.13 691.452 1005.39 694.467 988.625C695.902 988.875 697.358 989.145 698.793 989.395C695.549 1005.95 692.325 1022.5 689.081 1039.04C687.854 1039 686.606 1038.93 685.379 1038.89Z" fill="black"/>
<path d="M1390.44 1565.43C1381.74 1580.55 1368.37 1579.88 1354.48 1584.33C1364.02 1570.5 1377.81 1572.02 1390.44 1565.43Z" fill="black"/>
<path d="M1224.24 809.145C1236.35 819.585 1248.45 830.004 1260.53 840.445C1259.95 841.152 1259.35 841.88 1258.77 842.587C1246.33 832.542 1233.89 822.517 1221.48 812.472C1222.41 811.37 1223.33 810.247 1224.26 809.145H1224.24Z" fill="black"/>
<path d="M1071.36 689.724H1021.63C1021.61 689.142 1021.59 688.539 1021.55 687.956C1038.23 687.208 1054.91 686.438 1071.59 685.689C1071.5 687.041 1071.44 688.372 1071.36 689.724Z" fill="black"/>
<path d="M1667.83 1238.16C1671.47 1227.17 1675.13 1216.21 1679.71 1202.43C1683.01 1218.61 1679.85 1229.8 1667.83 1238.16Z" fill="black"/>
<path d="M1372.74 914.82C1366.48 896.394 1360.24 877.988 1353.98 859.561C1354.97 859.208 1355.99 858.875 1356.99 858.521C1363.36 877.218 1369.72 895.895 1376.08 914.592C1374.96 914.675 1373.84 914.737 1372.72 914.82H1372.74Z" fill="black"/>
<path d="M750.246 1291.29C760.374 1298.93 770.482 1306.56 780.61 1314.17C779.737 1315.27 778.863 1316.38 777.99 1317.48C766.801 1311.11 755.84 1304.48 748.166 1293.83C748.852 1292.98 749.539 1292.13 750.246 1291.27V1291.29Z" fill="black"/>
<path d="M1609.33 1287.76C1605 1298.88 1600.66 1310.01 1596.33 1321.14C1594.71 1320.47 1593.09 1319.83 1591.46 1319.16C1596 1308.22 1600.53 1297.28 1605.07 1286.34C1606.48 1286.82 1607.89 1287.28 1609.33 1287.76Z" fill="black"/>
<path d="M1477.68 459.182C1470.42 450.905 1463.14 442.606 1455.01 433.352C1468.07 435.182 1475.97 443.48 1477.68 459.182Z" fill="black"/>
<path d="M1410.78 1207.94C1401.46 1224.39 1392.14 1240.84 1382.83 1257.29C1381.85 1256.75 1380.89 1256.21 1379.91 1255.69C1389.21 1239.22 1398.51 1222.74 1407.8 1206.29C1408.8 1206.85 1409.8 1207.4 1410.78 1207.96V1207.94Z" fill="black"/>
<path d="M755.276 945.224L733.252 989.751C732.191 989.232 731.11 988.732 730.049 988.212C737.37 973.238 744.669 958.285 751.99 943.311C753.092 943.955 754.195 944.579 755.276 945.224Z" fill="black"/>
<path d="M646.633 1429.45C636.525 1418.53 626.417 1407.59 616.289 1396.67C617.163 1395.86 618.036 1395.07 618.91 1394.26C627.52 1406.55 644.179 1411.54 646.612 1429.45H646.633Z" fill="black"/>
<path d="M1289.36 836.721C1295.51 845.269 1301.65 853.796 1307.8 862.343C1295.2 860.451 1289.84 852.797 1289.36 836.721Z" fill="black"/>
<path d="M1036.65 1457.38C1051.79 1455.14 1066.93 1452.87 1082.07 1450.62C1082.22 1451.71 1082.36 1452.79 1082.51 1453.87C1068.11 1461.59 1052.2 1458.26 1036.63 1457.41L1036.65 1457.38Z" fill="black"/>
<path d="M1337.36 1611.93C1325.01 1623.83 1309.76 1626.07 1293.69 1625.55C1308.24 1621.02 1322.8 1616.48 1337.36 1611.93Z" fill="black"/>
<path d="M1120.11 1429C1102.04 1430.2 1083.94 1431.41 1065.87 1432.64C1065.83 1431.97 1065.76 1431.31 1065.72 1430.64C1083.63 1428.81 1101.52 1426.96 1119.42 1425.13C1119.65 1426.42 1119.88 1427.73 1120.11 1429.02V1429Z" fill="black"/>
<path d="M1393.93 1030.87V981.139L1397.3 981.222C1396.57 997.652 1395.82 1014.08 1395.09 1030.51C1394.7 1030.64 1394.32 1030.74 1393.93 1030.87Z" fill="black"/>
<path d="M827.299 825.241C813.822 836.305 800.345 847.39 786.889 858.454C786.182 857.623 785.475 856.77 784.768 855.938C798.099 844.811 811.43 833.664 824.761 822.537L827.319 825.262L827.299 825.241Z" fill="black"/>
<path d="M1448.46 709.253C1435.5 699.436 1422.53 689.641 1409.57 679.824C1410.4 678.722 1411.23 677.62 1412.06 676.518C1424.88 686.563 1437.67 696.608 1450.48 706.674C1449.81 707.527 1449.15 708.4 1448.46 709.253Z" fill="black"/>
<path d="M1349.27 1560.98C1339.27 1566.84 1329.29 1572.73 1319.28 1578.59C1318.64 1577.49 1318.02 1576.39 1317.37 1575.28C1327.6 1569.82 1334.92 1559.23 1347.8 1558.42L1349.25 1560.98H1349.27Z" fill="black"/>
<path d="M679.574 1031.37C684.42 1045.53 685.751 1059.5 675.955 1074.27C677.265 1058.71 678.409 1045.03 679.574 1031.37Z" fill="black"/>
<path d="M1285.11 966.914C1289.86 978.415 1294.6 989.895 1299.34 1001.4C1298.07 1001.94 1296.8 1002.46 1295.55 1003L1280.96 968.682C1282.35 968.099 1283.72 967.517 1285.11 966.935V966.914Z" fill="black"/>
<path d="M1335.26 1046.32L1333.24 1007.22C1334.45 1007.18 1335.66 1007.12 1336.86 1007.07L1338.59 1046.22C1337.49 1046.26 1336.38 1046.3 1335.26 1046.34V1046.32Z" fill="black"/>
<path d="M640.954 1199.66C636.669 1184.48 632.364 1169.3 628.08 1154.11C629.162 1153.8 630.243 1153.49 631.345 1153.2C635.671 1168.4 639.976 1183.58 644.302 1198.79L640.954 1199.66Z" fill="black"/>
<path d="M1514.47 1467.12C1521.94 1456.32 1529.4 1445.55 1536.87 1434.76C1538.08 1435.59 1539.28 1436.44 1540.49 1437.27C1532.86 1447.94 1525.2 1458.61 1517.57 1469.28C1516.55 1468.55 1515.51 1467.85 1514.49 1467.12H1514.47Z" fill="black"/>
<path d="M1397.26 668.571C1384.9 659.295 1372.57 649.999 1360.22 640.723C1360.78 639.933 1361.34 639.163 1361.9 638.373C1374.42 647.399 1386.96 656.446 1399.48 665.472C1398.73 666.512 1398.01 667.531 1397.26 668.571Z" fill="black"/>
<path d="M962.211 1629.29C976.541 1631.64 990.85 1634.01 1005.18 1636.36L1004.66 1639.67C990.226 1637.34 975.792 1635.03 961.338 1632.7L962.191 1629.29H962.211Z" fill="black"/>
<path d="M1241.54 918.932C1246.58 928.665 1251.61 938.419 1257.87 950.482C1245.27 943.805 1241.92 937.566 1241.54 918.932Z" fill="black"/>
<path d="M1024 448.224C1010.46 449.763 996.924 451.281 983.385 452.82C983.239 452.029 983.094 451.218 982.969 450.428C996.466 447.974 1009.96 445.499 1023.46 443.045C1023.65 444.771 1023.82 446.497 1024 448.224Z" fill="black"/>
<path d="M1082.92 655.303C1068.57 654.596 1054.24 653.889 1039.89 653.182C1039.93 652.745 1039.97 652.329 1039.99 651.893H1083.09C1083.02 653.036 1082.96 654.159 1082.92 655.303Z" fill="black"/>
<path d="M863.074 1407.18C852.509 1402.37 841.943 1397.57 831.357 1392.74C831.94 1391.48 832.543 1390.19 833.125 1388.92C843.67 1393.78 854.214 1398.65 864.758 1403.52C864.197 1404.72 863.635 1405.95 863.074 1407.16V1407.18Z" fill="black"/>
<path d="M927.792 1403.99C926.71 1403.06 925.629 1402.14 924.568 1401.21C923.716 1400.19 922.863 1399.17 920.367 1396.2C934.884 1402 947.196 1406.91 959.529 1411.81C959.3 1412.67 959.071 1413.52 958.822 1414.35C948.485 1410.9 938.149 1407.45 927.813 1403.97L927.792 1403.99Z" fill="black"/>
<path d="M876.421 1404.47C888.463 1408.76 900.484 1413.04 912.526 1417.33C912.151 1418.43 911.777 1419.53 911.423 1420.63C899.215 1416.6 887.007 1412.56 874.799 1408.53C875.34 1407.18 875.88 1405.83 876.421 1404.47Z" fill="black"/>
<path d="M1338.86 1088.6C1336.2 1101.73 1333.51 1114.85 1330.85 1127.95C1329.81 1127.74 1328.75 1127.52 1327.71 1127.31C1330.14 1114.14 1332.56 1100.98 1334.99 1087.81C1336.28 1088.08 1337.57 1088.33 1338.86 1088.6Z" fill="black"/>
<path d="M1149.58 505.709C1163.87 507.726 1178.15 509.744 1192.46 511.761L1192 514.985C1177.65 512.947 1163.32 510.929 1148.97 508.891C1149.18 507.83 1149.37 506.77 1149.58 505.709Z" fill="black"/>
<path d="M1255.1 642.244C1266.89 649.024 1278.71 655.804 1290.5 662.584C1290.02 663.458 1289.56 664.331 1289.09 665.225C1277.11 658.903 1265.11 652.581 1253.13 646.258C1253.79 644.927 1254.44 643.575 1255.1 642.244Z" fill="black"/>
<path d="M1323.91 766.3C1333.97 775.992 1344.06 785.705 1354.13 795.396C1353.31 796.228 1352.52 797.039 1351.71 797.871C1343.29 786.516 1334.87 775.16 1326.44 763.805C1325.59 764.637 1324.76 765.468 1323.91 766.3Z" fill="black"/>
<path d="M1085.13 1501.95H1129.36C1115.43 1502.97 1100.35 1504.07 1085.29 1505.18C1085.23 1504.1 1085.19 1503.03 1085.13 1501.95Z" fill="black"/>
<path d="M1105.28 1414.6C1122.68 1409.86 1140.09 1405.12 1157.48 1400.38C1157.73 1401.44 1157.98 1402.5 1158.25 1403.56C1140.72 1407.76 1123.16 1411.98 1105.63 1416.19C1105.51 1415.67 1105.4 1415.12 1105.28 1414.6Z" fill="black"/>
<path d="M1470.8 627.562C1482.11 636.588 1493.42 645.635 1504.74 654.661C1504.18 655.389 1503.64 656.117 1503.07 656.845C1491.51 648.214 1479.93 639.583 1468.36 630.952C1469.17 629.808 1469.99 628.685 1470.8 627.541V627.562Z" fill="black"/>
<path d="M776.801 1323.01C785.349 1330.1 793.896 1337.2 802.444 1344.29C801.529 1345.39 800.614 1346.51 799.678 1347.62C791.151 1340.46 782.603 1333.29 774.076 1326.13L776.801 1323.01Z" fill="black"/>
<path d="M1210.18 623.107C1220.68 626.206 1231.19 629.305 1241.69 632.425C1241.19 633.964 1240.69 635.482 1240.19 637.021C1229.83 633.506 1219.48 629.991 1209.12 626.456C1209.47 625.333 1209.83 624.23 1210.18 623.107Z" fill="black"/>
<path d="M523.927 1452.2C518.02 1441.18 512.114 1430.16 506.207 1419.13C507.309 1418.55 508.412 1417.95 509.514 1417.37C515.296 1428.31 521.056 1439.27 526.838 1450.21C525.861 1450.87 524.904 1451.54 523.927 1452.2Z" fill="black"/>
<path d="M687.956 1074.81C684.899 1086.5 681.821 1098.19 678.764 1109.88C677.786 1109.65 676.788 1109.44 675.811 1109.21C678.348 1097.48 680.906 1085.77 683.443 1074.04C684.941 1074.29 686.459 1074.54 687.956 1074.79V1074.81Z" fill="black"/>
<path d="M944.18 717.945C933.636 721.71 923.091 725.495 912.547 729.259C912.152 728.302 911.756 727.325 911.361 726.368C921.594 721.793 931.805 717.197 942.038 712.621L944.159 717.966L944.18 717.945Z" fill="black"/>
<path d="M673.129 843.083C678.765 833.994 684.401 824.926 690.037 815.838C691.077 816.462 692.117 817.107 693.157 817.73C687.625 826.944 682.072 836.178 676.54 845.391C675.396 844.622 674.273 843.831 673.129 843.062V843.083Z" fill="black"/>
<path d="M1191.09 1528.72L1161.39 1532.73C1161.16 1531.3 1160.95 1529.84 1160.72 1528.41C1170.69 1526.87 1180.65 1525.33 1190.61 1523.77C1190.78 1525.41 1190.92 1527.06 1191.09 1528.72Z" fill="black"/>
<path d="M1576.05 881.6C1572.1 869.974 1568.17 858.349 1564.21 846.723C1565.11 846.369 1566 846.016 1566.92 845.662C1571.33 856.955 1575.76 868.248 1580.17 879.521C1578.79 880.207 1577.42 880.893 1576.05 881.58V881.6Z" fill="black"/>
<path d="M558.389 994.014V954.041H560.531V994.055L558.389 994.014Z" fill="black"/>
<path d="M695.736 604.765C684.755 612.065 673.753 619.344 662.772 626.644C662.168 625.708 661.565 624.773 660.941 623.857C671.923 616.537 682.883 609.237 693.864 601.916C694.488 602.873 695.112 603.829 695.736 604.786V604.765Z" fill="black"/>
<path d="M723.728 1239.8C709.565 1235.18 707.215 1225.16 706.445 1211.12C712.789 1221.66 717.801 1229.96 723.728 1239.8Z" fill="black"/>
<path d="M650.292 1334.24C634.964 1329.27 636.607 1316.23 633.592 1305.95C638.854 1314.88 644.136 1323.82 650.292 1334.24Z" fill="black"/>
<path d="M920.305 644.612C936.069 640.91 951.813 637.208 967.578 633.506C967.765 634.275 967.952 635.066 968.118 635.835C952.375 639.6 936.631 643.364 920.887 647.128C920.7 646.296 920.492 645.444 920.305 644.612Z" fill="black"/>
<path d="M855.46 514.133C846.267 516.275 837.054 518.397 827.862 520.539C827.529 519.145 827.196 517.731 826.863 516.338C836.201 514.175 845.519 511.991 854.857 509.828C855.065 511.263 855.252 512.719 855.46 514.154V514.133Z" fill="black"/>
<path d="M1481.38 815.072C1489.24 825.471 1497.09 835.87 1504.95 846.269C1504.11 846.893 1503.28 847.516 1502.43 848.14C1494.44 837.846 1486.48 827.551 1478.49 817.277L1481.36 815.093L1481.38 815.072Z" fill="black"/>
<path d="M1715.83 1145.69C1716.89 1136.47 1717.97 1127.28 1719.03 1118.07C1720.26 1118.19 1721.49 1118.34 1722.72 1118.46C1725 1127.86 1721.03 1136.68 1718.97 1145.66C1717.93 1145.66 1716.87 1145.66 1715.83 1145.66V1145.69Z" fill="black"/>
<path d="M1321.74 1346.18C1329.96 1338.42 1338.17 1330.66 1346.39 1322.91C1346.89 1323.36 1347.36 1323.8 1347.86 1324.26C1340 1332.45 1332.14 1340.67 1324.28 1348.86C1323.45 1347.97 1322.59 1347.07 1321.76 1346.18H1321.74Z" fill="black"/>
<path d="M971.196 1443.62H1019.3C1019.3 1444.2 1019.3 1444.8 1019.28 1445.38H971.154C971.154 1444.8 971.175 1444.2 971.196 1443.62Z" fill="black"/>
<path d="M749.848 1091.93C743.588 1078.83 749.994 1070.47 756.836 1062.19C754.652 1071.49 752.469 1080.78 749.848 1091.93Z" fill="black"/>
<path d="M705.448 723.001C696.838 730.925 688.248 738.849 679.638 746.752C678.91 745.962 678.162 745.151 677.434 744.361C686.002 736.395 694.55 728.409 703.119 720.443C703.909 721.296 704.678 722.149 705.469 723.001H705.448Z" fill="black"/>
<path d="M1023.03 1474.42C1011.94 1473.75 1000.86 1473.11 989.771 1472.44C989.855 1471.2 989.938 1469.93 990.021 1468.68C1001.21 1469.66 1012.4 1470.61 1023.59 1471.59C1023.4 1472.55 1023.21 1473.48 1023.03 1474.44V1474.42Z" fill="black"/>
<path d="M1187.95 1561.04C1198.53 1558.73 1209.12 1556.4 1219.71 1554.09C1219.93 1555.15 1220.16 1556.24 1220.39 1557.3C1209.83 1559.56 1199.28 1561.81 1188.72 1564.08C1188.47 1563.06 1188.2 1562.06 1187.95 1561.04Z" fill="black"/>
<path d="M578.229 1356.68C573.342 1348.9 562.881 1344.12 566.25 1329.4C571.803 1339.32 576.274 1347.3 580.746 1355.31C579.914 1355.77 579.061 1356.23 578.229 1356.68Z" fill="black"/>
<path d="M1405.88 1034.69C1404.72 1048.15 1403.58 1061.63 1402.41 1075.08C1401.41 1075 1400.41 1074.92 1399.42 1074.81C1400.62 1061.36 1401.83 1047.9 1403.03 1034.45C1403.97 1034.53 1404.93 1034.61 1405.86 1034.69H1405.88Z" fill="black"/>
<path d="M1397.77 437.447C1404.06 440.982 1410.32 444.518 1416.6 448.053C1415.89 449.322 1415.16 450.611 1414.45 451.88C1408.15 448.386 1401.85 444.892 1395.57 441.398C1396.32 440.067 1397.05 438.757 1397.8 437.426L1397.77 437.447Z" fill="black"/>
<path d="M589.105 828.985C597.154 817.193 605.203 805.38 613.272 793.588C614.021 794.087 614.79 794.586 615.539 795.065C607.595 807.023 599.629 818.982 591.684 830.94C590.832 830.296 589.958 829.63 589.105 828.985Z" fill="black"/>
<path d="M1217.36 730.402C1224.72 735.934 1232.06 741.467 1239.42 747.02C1238.65 748.039 1237.89 749.079 1237.12 750.098C1229.82 744.503 1222.5 738.908 1215.2 733.335C1215.92 732.357 1216.65 731.401 1217.38 730.423L1217.36 730.402Z" fill="black"/>
<path d="M1654.79 1104.86C1653.09 1119.36 1651.36 1133.86 1649.65 1148.35L1647.8 1148.14C1649.36 1133.63 1650.94 1119.13 1652.5 1104.62C1653.27 1104.7 1654.04 1104.78 1654.79 1104.86Z" fill="black"/>
<path d="M576.254 775.41C580.476 766.966 584.698 758.543 588.92 750.1C590.043 750.661 591.187 751.223 592.31 751.784C588.067 760.186 583.824 768.589 579.581 776.991C578.479 776.471 577.356 775.93 576.254 775.41Z" fill="black"/>
<path d="M1171.35 947.136C1175.53 955.06 1179.73 963.005 1183.91 970.928C1182.69 971.552 1181.48 972.176 1180.25 972.8C1176.39 964.71 1172.52 956.62 1168.67 948.509L1171.35 947.115V947.136Z" fill="black"/>
<path d="M640.517 843.545C636.191 851.178 631.865 858.81 627.54 866.464L624.066 864.467C628.475 856.876 632.905 849.285 637.314 841.715C638.375 842.339 639.457 842.942 640.517 843.566V843.545Z" fill="black"/>
<path d="M1272.76 1087.6C1271.22 1095.63 1269.66 1103.66 1268.12 1111.68C1266.48 1111.29 1264.86 1110.89 1263.21 1110.5C1265.46 1102.55 1267.69 1094.61 1269.93 1086.69C1270.87 1087 1271.83 1087.31 1272.76 1087.62V1087.6Z" fill="black"/>
<path d="M1429.41 427.256C1439.27 426.369 1444.75 430.348 1445.86 439.194C1440.35 435.201 1435.84 431.915 1429.41 427.256Z" fill="black"/>
<path d="M1297.01 759.854C1303.52 765.49 1310.01 771.105 1316.52 776.741L1313.65 780.048C1307.16 774.266 1300.67 768.505 1294.18 762.724L1296.99 759.854H1297.01Z" fill="black"/>
<path d="M642.93 1302.4L657.8 1328.92C656.864 1329.44 655.949 1329.98 655.013 1330.5L639.852 1304.15C640.871 1303.57 641.911 1302.98 642.93 1302.42V1302.4Z" fill="black"/>
<path d="M1354.02 1212.45C1348.28 1221.85 1342.54 1231.25 1336.8 1240.65C1335.88 1240.09 1334.97 1239.55 1334.05 1238.99C1339.86 1229.63 1345.66 1220.27 1351.46 1210.89C1352.31 1211.41 1353.17 1211.93 1354.02 1212.45Z" fill="black"/>
<path d="M841.752 1366C832.352 1361.48 822.951 1356.99 813.551 1352.48C814.112 1351.33 814.674 1350.19 815.235 1349.05C824.469 1353.87 833.724 1358.7 842.959 1363.52C842.543 1364.35 842.147 1365.19 841.732 1366.02L841.752 1366Z" fill="black"/>
<path d="M1621.33 927.486C1623.47 935.618 1625.63 943.75 1627.77 951.882C1626.67 952.194 1625.57 952.485 1624.47 952.797C1622.18 944.582 1619.87 936.367 1617.58 928.152C1618.83 927.944 1620.08 927.715 1621.33 927.507V927.486Z" fill="black"/>
<path d="M1216.86 832.728C1224.76 838.551 1232.66 844.395 1240.57 850.219C1239.94 851.071 1239.3 851.945 1238.68 852.797C1230.81 846.974 1222.93 841.172 1215.07 835.348C1215.67 834.475 1216.26 833.581 1216.86 832.707V832.728Z" fill="black"/>
<path d="M847.246 1430.68C838.199 1426.69 829.152 1422.72 820.105 1418.72C820.48 1417.85 820.875 1416.98 821.249 1416.1C830.296 1420.07 839.364 1424.05 848.411 1428.02C848.016 1428.91 847.641 1429.81 847.246 1430.68Z" fill="black"/>
<path d="M519.058 1405.18L536.674 1429.89L534.199 1431.61C528.292 1423.4 522.407 1415.18 516.5 1406.97C517.353 1406.37 518.205 1405.78 519.058 1405.18Z" fill="black"/>
<path d="M1411.52 1006.2C1412.38 1020.74 1413.25 1035.26 1414.1 1049.79C1413.29 1049.84 1412.48 1049.9 1411.67 1049.94C1410.82 1035.4 1409.94 1020.89 1409.09 1006.35C1409.9 1006.31 1410.71 1006.24 1411.52 1006.2Z" fill="black"/>
<path d="M765.469 1024.8C768.11 1016.98 770.772 1009.16 773.413 1001.34C774.703 1001.77 775.992 1002.23 777.303 1002.67C774.412 1010.4 771.521 1018.14 768.63 1025.88C767.569 1025.52 766.529 1025.15 765.469 1024.8Z" fill="black"/>
<path d="M849.51 1617.15C838.799 1614.01 828.109 1610.87 817.398 1607.73C817.606 1606.96 817.814 1606.17 818.002 1605.4C828.692 1608.42 839.402 1611.45 850.092 1614.47C849.905 1615.36 849.697 1616.26 849.51 1617.13V1617.15Z" fill="black"/>
<path d="M1053.31 1250.18C1044.76 1251.38 1036.19 1252.61 1027.64 1253.82C1027.5 1252.9 1027.35 1251.99 1027.21 1251.07C1035.82 1249.45 1044.43 1247.85 1053.06 1246.22C1053.14 1247.53 1053.22 1248.87 1053.31 1250.18Z" fill="black"/>
</svg>
