<svg width="2048" height="2048" viewBox="0 0 2048 2048" fill="none" xmlns="http://www.w3.org/2000/svg">
<rect width="2048" height="2048" fill="white"/>
<path d="M1223.9 699.399C1196.6 692.827 1169.81 686.276 1142.96 680.078C1140.19 679.433 1136.97 680.868 1133.95 681.347C1136.3 683.676 1138.28 687.337 1141.07 688.127C1173.95 697.465 1207.04 706.117 1239.88 715.58C1245.91 717.327 1251.83 721.049 1256.66 725.209C1290.79 754.721 1321.8 787.165 1347.63 824.309C1348.56 825.661 1349.35 827.138 1348.86 830.59C1340.93 825.723 1331.32 822.333 1325.37 815.699C1299.86 787.29 1267.97 768.322 1234.61 751.123C1190.48 728.37 1143.56 712.522 1095.6 701.416C1070.19 695.531 1042.74 698.214 1016.18 697.506C998.791 697.049 981.362 697.423 963.83 696.279C985.501 681.472 1008.88 672.071 1034.83 670.075C1096.81 665.291 1156.83 675.253 1215.54 694.595C1217.83 695.344 1220.06 696.363 1222.24 697.382C1222.8 697.652 1223.11 698.422 1223.88 699.42L1223.9 699.399Z" fill="black"/>
<path d="M1361.98 1166.22C1357.6 1173.21 1354.02 1178.95 1350.42 1184.67C1349.59 1184.3 1348.76 1183.9 1347.93 1183.53C1371.36 1143.57 1387.69 1101.58 1389.44 1054.69C1391.21 1007.1 1373.92 965.526 1351.02 925.054C1392.27 1000.86 1397.32 1077.48 1357.26 1154.99C1346.8 1175.23 1336.55 1196.05 1314.17 1210.31C1325.92 1190.39 1338.05 1173.4 1346.3 1154.68C1352.71 1140.16 1354.6 1123.57 1357.85 1107.76C1363.94 1078.23 1361.78 1049.01 1355.37 1019.6C1352.31 1005.58 1353.33 990.712 1351.73 976.32C1348.53 947.474 1338.71 920.666 1325.26 895.106C1324.74 894.107 1323.45 893.483 1321.51 893.171C1331.95 920.333 1344.16 946.85 1345.14 976.487C1334.26 935.827 1319.08 897.123 1294.75 862.287C1317.79 877.906 1339.07 895.334 1355.62 917.629C1376.06 945.145 1394.8 973.845 1399.4 1008.81C1404.91 1050.88 1400.17 1092.12 1386.17 1132.2C1382.99 1141.31 1379.31 1150.25 1375.4 1159.07C1372.86 1164.79 1369.51 1170.24 1361.98 1166.2V1166.22Z" fill="black"/>
<path d="M1156.15 1140.35C1158.21 1137.42 1160.22 1134.44 1162.35 1131.53C1191.94 1090.64 1202.05 1046.3 1189.24 996.554C1181.42 966.148 1175.57 935.306 1158 908.331L1160.66 905.939C1168.46 912.595 1177.05 918.522 1183.87 926.051C1198.08 941.753 1212.24 957.684 1224.59 974.842C1229.92 982.246 1232.35 992.769 1233.22 1002.15C1236.38 1035.95 1229.83 1068.08 1213.05 1097.84C1211.89 1099.9 1209.83 1101.44 1207.1 1102.73C1217.13 1073.55 1224.51 1044.64 1213.05 1014.59C1213.05 1029.83 1214.98 1045.39 1212.51 1060.22C1210.01 1075.21 1205.58 1091.04 1197.51 1103.62C1189.36 1116.33 1175.72 1125.52 1164.4 1136.17C1162.28 1138.17 1159.83 1139.79 1157.54 1141.58C1157.06 1141.16 1156.61 1140.74 1156.13 1140.33L1156.15 1140.35Z" fill="black"/>
<path d="M883.426 957.144C892.182 931.085 905.263 908.956 925.624 890.53C951.496 867.132 981.569 862.952 1014.39 865.115C1048.41 867.361 1081.34 874.12 1113.3 885.829C1115.42 886.599 1117.44 887.639 1119.5 888.533C1119.21 889.677 1118.92 890.821 1118.6 891.965C1108.87 889.76 1098.49 888.97 1089.51 885.039C1070.71 876.803 1051.66 872.061 1033.27 874.1C1047.77 877.115 1064.34 880.547 1080.9 883.999C1080.98 885.621 1081.04 887.265 1081.13 888.887C1007.38 889.261 937.583 900.741 883.426 957.144Z" fill="black"/>
<path d="M1292.81 954.028C1284.43 939.366 1276.07 924.704 1267.68 910.021C1266.85 910.437 1266.02 910.853 1265.19 911.269C1276.11 935.539 1287 959.831 1297.92 984.102C1296.9 984.559 1295.86 985.038 1294.85 985.495C1284.84 959.124 1266.85 938.41 1248.07 918.194C1231.87 900.766 1217.02 881.923 1199.59 865.847C1179.81 847.587 1155.42 836.647 1129.46 828.952C1116.32 825.063 1103.84 818.886 1091.22 813.375C1089.41 812.584 1088.53 809.673 1087.24 807.759C1089.59 806.948 1092.05 805.18 1094.25 805.471C1132.46 810.567 1168.23 822.817 1199.78 845.091C1221.76 860.606 1243.85 876.495 1263.11 895.109C1275.36 906.943 1282.85 923.872 1291.7 938.971C1294.08 943.006 1293.68 948.663 1294.55 953.592C1293.95 953.737 1293.37 953.904 1292.77 954.049L1292.81 954.028Z" fill="black"/>
<path d="M1206.21 778.809C1223.41 784.632 1240.71 790.122 1257.77 796.362C1275.24 802.747 1292.33 810.192 1309.82 816.535C1321.18 820.653 1329.7 827.163 1334.26 838.581C1335.3 841.181 1337.34 843.406 1338.9 845.798C1339.67 845.423 1340.46 845.049 1341.23 844.674C1339.44 840.203 1337.65 835.711 1335.86 831.198C1363.92 837.479 1389.08 879.698 1390.91 918.423C1389.96 918.048 1388.85 917.965 1388.48 917.404C1357.89 871.212 1313.86 842.387 1264.01 821.069C1258.62 818.761 1252.69 817.159 1248.01 813.811C1233.45 803.391 1219.39 792.285 1205.15 781.45C1205.5 780.576 1205.88 779.682 1206.23 778.809H1206.21Z" fill="black"/>
<path d="M1089.54 717.682C1108.79 718.077 1127.01 719.637 1144.5 727.207C1151.22 730.119 1157.79 736.899 1166.55 730.826C1167.84 729.931 1171.81 731.886 1173.95 733.363C1188.49 743.387 1202.86 753.641 1217.11 763.686C1219.81 758.944 1217.56 755.658 1199.53 741.266C1240.38 758.84 1280.27 778.057 1312.19 811.021C1304.77 808.172 1297.45 805.073 1289.9 802.536C1256.62 791.388 1223.28 780.449 1189.99 769.364C1186.72 768.282 1183.6 766.785 1180.48 765.308C1152.14 751.727 1123.81 738.126 1095.48 724.503C1093.65 723.63 1091.82 722.694 1090.12 721.592C1089.76 721.363 1089.91 720.323 1089.56 717.682H1089.54Z" fill="black"/>
<path d="M1000.31 1172.98C989.434 1167.56 978.536 1162.13 966.369 1156.03C982.217 1156.03 995.777 1156.85 1009.19 1155.79C1021.09 1154.85 1033.19 1153.1 1044.53 1149.52C1061.87 1144.06 1078.7 1136.9 1095.58 1130.06C1109.64 1124.36 1121.21 1115.38 1129.94 1102.71C1139.28 1089.17 1149.03 1075.9 1160.14 1062.99C1159.27 1066.77 1158.58 1070.6 1157.48 1074.3C1140.17 1133.51 1097.31 1163.23 1039.45 1173.48C1027.95 1175.52 1014.89 1169.16 1002.62 1166.29C999.645 1165.6 997.025 1163.46 994.217 1161.98C993.302 1163.13 992.366 1164.27 991.451 1165.41C994.633 1167.64 997.836 1169.86 1001.02 1172.11C1000.77 1172.4 1000.54 1172.67 1000.29 1172.94L1000.31 1172.98Z" fill="black"/>
<path d="M1149.55 760.693C1076.83 754.953 1005.66 740.727 935.318 766.308C934.965 765.102 934.611 763.875 934.258 762.669C956.012 753.289 977.454 743.077 999.645 734.841C1014.7 729.247 1030.72 726.21 1046.42 722.529C1050.25 721.635 1054.97 721.677 1058.59 723.07C1087.52 734.321 1116.3 746.01 1145.1 757.615C1146.25 758.072 1147.2 759.05 1149.55 760.672V760.693Z" fill="black"/>
<path d="M1056.21 1001.29C1048.99 1000.48 1041.78 999.673 1034.56 998.861C1045.73 1010.7 1053.3 1022.32 1046.98 1037.71C1042.84 1047.78 1033.38 1045.72 1024.6 1044.03C1031.28 1051.62 1039.43 1051.69 1045.58 1046.09C1059.81 1033.18 1053.15 1018.81 1045.31 1004.77C1058.64 1007.22 1063.74 1012.09 1062.97 1023.61C1062.41 1032.24 1062.12 1042.47 1057.44 1048.92C1044.02 1067.41 1017.49 1063.27 1006.32 1040.52C1000.56 1028.79 998.644 1014.94 996.543 1001.79C995.982 998.279 1000.56 991.021 1003.78 990.355C1016.74 987.714 1030.15 985.593 1043.25 986.258C1048.35 986.529 1053.05 994.702 1057.92 999.277C1057.33 999.943 1056.75 1000.63 1056.17 1001.29H1056.21Z" fill="black"/>
<path d="M1133.58 887.784C1080.72 866.279 1026.35 855.693 968.576 861.35C986.712 840.948 1061.85 824.663 1080.38 836.019C1077.78 837.329 1075 838.743 1072.23 840.137C1074.73 842.112 1076.93 844.754 1079.76 845.96C1101.31 855.069 1121.87 865.343 1133.6 887.784H1133.58Z" fill="black"/>
<path d="M884.551 1047.22C896.531 1068.85 908.656 1090.4 920.385 1112.17C922.902 1116.83 924.004 1122.24 925.772 1127.29L923.318 1128.31C945.051 1143.39 966.91 1158.3 988.373 1173.75C991.264 1175.83 992.179 1180.7 994.05 1184.36C923.547 1176.81 873.487 1115.4 884.551 1047.22Z" fill="black"/>
<path d="M1088.21 917.404C1064.58 901.182 1037.29 902.305 1010.19 902.575C1010.21 901.597 1010.23 900.62 1010.26 899.643C1023.65 897.625 1036.98 895.233 1050.44 893.757C1058.65 892.842 1067.12 894.027 1075.33 893.05C1090.91 891.199 1104.66 895.525 1115.22 906.339C1133.94 925.515 1152.34 945.127 1169.44 965.758C1181.92 980.836 1175.35 998.14 1171.15 1017.21C1159.81 968.774 1130.51 938.534 1089.66 917.944C1089.18 917.757 1088.7 917.591 1088.23 917.404H1088.21Z" fill="black"/>
<path d="M724.581 802.203C691.18 876.534 653.807 947.204 646.631 1030.02C624.732 975.613 667.263 852.013 724.581 802.203Z" fill="black"/>
<path d="M816.333 1152.89C814.17 1148.59 812.028 1144.3 809.865 1140L806.808 1141.12L809.137 1151.1C796.305 1133.34 785.99 1114.04 781.581 1092.72C777.4 1072.45 775.799 1051.57 774.052 1030.85C772.346 1010.62 783.785 994.248 791.376 974.449C793.997 1006.39 794.87 1036.01 799.258 1065.09C803.688 1094.28 811.633 1122.96 818.039 1151.87C817.456 1152.21 816.895 1152.56 816.312 1152.89H816.333Z" fill="black"/>
<path d="M1031.18 718.952C961.089 736.547 900.131 772.215 842.48 814.683C862.529 781.886 889.15 756.991 923.196 738.481C957.47 719.847 992.66 712.401 1031.18 718.952Z" fill="black"/>
<path d="M1085.16 1010.24C1093.34 1024.88 1093.26 1040.34 1090.51 1056.68C1086.83 1078.65 1077.05 1096.93 1061.98 1113C1047.94 1127.96 1031.76 1130.35 1010.92 1122.47C1025.58 1111.61 1039.1 1101.59 1052.62 1091.58C1052.3 1090.83 1051.99 1090.1 1051.68 1089.36C1042.65 1092.95 1033.9 1097.61 1024.56 1099.82C1014.99 1102.08 1004.84 1101.94 994.966 1102.85C994.633 1101.46 994.321 1100.09 993.988 1098.69C1006.38 1095.53 1018.63 1090.73 1031.22 1089.61C1049.98 1087.92 1072.67 1069.18 1077.2 1048.59C1079.99 1035.95 1082.48 1023.24 1085.19 1010.24H1085.16Z" fill="black"/>
<path d="M842.605 1054.69C847.908 1068.2 852.13 1079 856.394 1089.77C863.527 1107.8 874.841 1122.71 888.859 1136.09C895.68 1142.6 900.485 1151.21 906.245 1158.84C913.233 1168.12 920.284 1177.35 928.332 1187.96C919.452 1185.31 909.282 1185.04 903.604 1179.87C897.843 1174.58 896.554 1164.46 893.309 1156.43C892.457 1156.55 891.583 1156.7 890.73 1156.82C891.729 1163.54 892.727 1170.24 894.12 1179.74C887.195 1175.56 879.937 1173.34 875.943 1168.43C849.676 1136.17 840.109 1098.69 842.605 1054.71V1054.69Z" fill="black"/>
<path d="M1088.2 917.401C1088.68 917.588 1089.18 917.775 1089.64 917.941C1105.67 932.832 1121.85 947.557 1137.66 962.698C1146.02 970.705 1148.56 980.687 1144.54 993.79C1140.13 985.616 1136.41 978.67 1132.67 971.745C1131.69 972.015 1130.71 972.264 1129.73 972.535C1138.51 991.835 1144.75 1011.36 1136.85 1034.7C1129.28 1006.16 1120.02 980.604 1102.09 959.578C1084.67 939.113 1065.18 920.832 1039.79 909.976C1040.12 909.061 1040.45 908.146 1040.78 907.23C1056.59 910.62 1072.4 914.011 1088.2 917.401Z" fill="black"/>
<path d="M1323.15 951.218C1283.51 905.068 1243.85 858.919 1203.15 811.562C1231.18 828.013 1259.01 844.048 1280.85 867.03C1302.85 890.177 1315.46 919.731 1323.13 951.218H1323.15Z" fill="black"/>
<path d="M911.049 894.834C893.6 917.358 878.231 941.608 874.175 970.1C871.617 988.007 875.652 1006.83 876.588 1025.23C876.941 1032.01 877.607 1038.9 876.858 1045.6C873.967 1071.09 877.648 1095.16 890.792 1117.47C892.997 1121.24 895.139 1125.04 897.905 1129.89C872.615 1114.98 856.435 1066.83 856.518 1011.59C856.58 963.944 878.605 926.925 911.07 894.834H911.049Z" fill="black"/>
<path d="M1239.21 1143.99C1245.72 1125.17 1253.42 1106.72 1258.43 1087.55C1266.46 1056.85 1263.53 1026.48 1250.17 997.514C1237.65 970.332 1221.41 945.749 1200.84 923.662C1185.53 907.232 1172.47 888.68 1157.67 870.129C1204.59 893.547 1233.97 930.691 1251.84 978.859C1273.7 1037.84 1268.95 1107.82 1239.21 1143.95V1143.99Z" fill="black"/>
<path d="M1156.52 1170.07C1142.27 1190.85 1122.56 1200.74 1100.2 1206.67C1100.76 1208.17 1101.3 1209.67 1101.86 1211.16C1109.37 1209.23 1116.88 1207.3 1125.07 1205.17C1112.01 1221.23 1094.02 1226.14 1075.99 1227.89C1041.86 1231.17 1007.77 1229.32 974.414 1217.88C980.425 1217.26 986.435 1215.99 992.446 1216.09C1049.81 1216.97 1103.48 1204.7 1151.67 1172.34C1152.71 1171.63 1153.98 1171.23 1156.54 1170.07H1156.52Z" fill="black"/>
<path d="M1036.62 950.696C1055.67 946.37 1071.12 948.72 1083.81 961.885C1116.57 995.91 1115.57 1037.96 1094.4 1075.54C1094.17 1075.96 1093.29 1076.02 1090.84 1077C1113.84 1017.58 1079.51 982.849 1036.64 950.696H1036.62Z" fill="black"/>
<path d="M1012.68 943.669C976.08 961.909 946.922 984.994 927.872 1019.54C926.956 1019.31 926.041 1019.1 925.105 1018.87C926.187 1010.43 925.501 1001.24 928.703 993.666C937.896 971.912 949.751 951.531 970.153 938.054C973.813 935.641 979.595 934.601 983.921 935.412C993.238 937.18 1002.26 940.549 1012.7 943.648L1012.68 943.669Z" fill="black"/>
<path d="M1050.6 1190.35C1111.72 1165.62 1160.93 1128.42 1185.05 1064.55C1185.87 1064.84 1186.7 1065.15 1187.51 1065.44C1182.99 1078.61 1180.37 1092.83 1173.64 1104.71C1155.13 1137.38 1132.85 1166.77 1098 1184.76C1082.46 1192.78 1067.34 1193.35 1050.62 1190.35H1050.6Z" fill="black"/>
<path d="M922.216 1229.24C923.007 1230.76 923.797 1232.25 924.65 1233.88C881.432 1233.85 819.622 1184.04 816.336 1118.39C829.584 1137.54 842.562 1157.78 857.141 1176.81C865.397 1187.58 875.505 1197.27 886.153 1205.76C897.342 1214.66 910.154 1221.54 922.258 1229.3H922.237L922.216 1229.24Z" fill="black"/>
<path d="M1369.8 846.028C1342.7 802.124 1308.74 764.127 1270.68 729.624C1271.22 728.792 1271.76 727.939 1272.3 727.107C1282.85 732.827 1294.14 737.548 1303.83 744.494C1334.86 766.727 1358.61 795.219 1373.23 830.7C1374.94 834.86 1373.46 840.309 1373.46 845.175C1372.25 845.466 1371.03 845.737 1369.82 846.028H1369.8Z" fill="black"/>
<path d="M826.023 1216.18C830.1 1222.02 834.176 1227.85 838.939 1234.67C822.03 1230.63 820.616 1215.14 812.942 1203.89C811.153 1205.37 809.76 1206.53 807.576 1208.34C802.501 1200.83 797.364 1193.24 792.248 1185.67C792.664 1185.15 793.08 1184.63 793.496 1184.13C795.409 1184.92 797.427 1185.55 799.194 1186.56C808.2 1191.74 816.81 1197.67 826.169 1202.12C841.206 1209.28 852.852 1219.47 863.293 1232.63C871.632 1243.15 883.154 1255.13 895.134 1257.71C907.841 1260.44 915.141 1268.92 925.81 1272.77C879.827 1275.81 853.268 1246.63 829.621 1212.64C828.415 1213.83 827.23 1214.99 826.023 1216.18Z" fill="black"/>
<path d="M956.074 1061.24C949.439 1048.61 942.659 1036.05 936.274 1023.28C935.338 1021.43 935.588 1018.21 936.607 1016.29C943.865 1002.57 953.557 990.856 967.949 979.459C965.869 986.759 964.58 991.251 963.29 995.744C972.712 983.265 977.162 965.775 997.128 964.506C988.767 979.147 982.694 995.099 972.108 1007.06C958.715 1022.18 957.925 1038.57 958.944 1056.45C959.006 1057.68 958.673 1058.95 958.528 1060.17C957.696 1060.53 956.885 1060.88 956.053 1061.21L956.074 1061.24Z" fill="black"/>
<path d="M942.865 922.851C919.031 952.716 894.76 982.332 882.947 1021.91C874.753 991.316 873.151 965.985 894.843 951.135C910.005 940.757 924.896 929.943 939.891 919.336C940.889 920.501 941.866 921.686 942.865 922.851Z" fill="black"/>
<path d="M1277.73 839.221C1330.47 860.642 1401.99 917.711 1398.6 979.646C1373.17 917.607 1329.24 875.076 1277.73 839.221Z" fill="black"/>
<path d="M739.32 1173.92C749.594 1187.77 760.409 1202.29 771.161 1216.82C784.493 1234.88 797.782 1252.95 810.219 1271.65C771.453 1260.6 740.007 1215.78 739.32 1173.92Z" fill="black"/>
<path d="M1204.31 1428.87C1226.86 1415.75 1249.42 1402.69 1271.91 1389.52C1284.7 1382.04 1296.97 1373.53 1310.21 1367.02C1319.84 1362.3 1330.7 1360.07 1341.45 1357.85C1328.27 1370.95 1314.42 1382.47 1295.74 1386.26C1290.87 1387.24 1285.03 1387.67 1286.26 1395.68C1286.48 1397.26 1283.3 1400.13 1281.1 1401.17C1261.15 1410.47 1241.19 1419.74 1220.97 1428.4C1216.15 1430.45 1210.32 1430.18 1204.94 1430.97C1204.73 1430.29 1204.52 1429.58 1204.29 1428.89L1204.31 1428.87Z" fill="black"/>
<path d="M1238.22 1125.71C1221.35 1188.54 1159.27 1221.02 1108.77 1232.69C1158.44 1202.18 1206.31 1173.62 1238.22 1125.71Z" fill="black"/>
<path d="M810.619 762.789C766.694 803.303 744.025 858.063 713.973 907.831C726.909 846.645 756.192 796.336 810.619 762.789Z" fill="black"/>
<path d="M1253.61 1069.27C1245.16 1117.1 1215.3 1150.29 1178.13 1179.6C1193.33 1135.3 1229.94 1106.78 1253.61 1069.27Z" fill="black"/>
<path d="M889.479 879.153C906.47 861.33 920.612 839.097 946.318 833.606C970.443 828.469 995.359 827.034 1020.21 825.475C976.246 842.799 929.659 852.865 889.479 879.153Z" fill="black"/>
<path d="M1167.44 1344.4C1121.46 1363.67 1072.98 1360.06 1024.87 1359.25C985.753 1358.58 950.044 1346.35 917.059 1325.68C998.835 1355.21 1082.09 1363.2 1167.44 1344.37V1344.4Z" fill="black"/>
<path d="M1120.79 801.078C1142.46 803.907 1164.15 806.569 1185.78 809.771C1188.88 810.229 1192 812.87 1194.39 815.22C1213.82 834.313 1233.06 853.571 1251.34 874.098C1211.32 843.568 1170.29 815.449 1120.04 804.385C1120.29 803.283 1120.54 802.18 1120.79 801.078Z" fill="black"/>
<path d="M1418.61 1111.96C1433.61 1043.6 1433.06 975.551 1414.43 907.834C1415.53 907.605 1416.61 907.356 1417.72 907.127C1422.04 923.079 1427.3 938.864 1430.51 955.045C1439.14 998.823 1439.32 1043.12 1434.42 1087.28C1433.42 1096.26 1426.01 1104.54 1421.56 1113.15C1420.59 1112.75 1419.61 1112.38 1418.63 1111.98L1418.61 1111.96Z" fill="black"/>
<path d="M1295.62 707.928C1365.66 750.854 1421.27 805.489 1439.87 889.906C1438.29 886.849 1436.64 883.813 1435.15 880.714C1424.14 858.086 1413.6 835.209 1402.06 812.851C1387.5 784.608 1363.25 765.891 1337.81 748.005C1321.94 736.836 1307.89 723.068 1293.02 710.486C1293.89 709.633 1294.76 708.78 1295.64 707.928H1295.62Z" fill="black"/>
<path d="M1109.66 990.961C1121.27 1010.93 1129.05 1032.24 1127.07 1055.64C1126.51 1062.38 1122.25 1069.22 1118.42 1075.19C1107.21 1092.7 1091.53 1105.22 1072.44 1113.77C1088.6 1097.47 1101.01 1078.98 1108.48 1057.24C1116.01 1035.32 1116.76 1013.42 1109.66 990.961Z" fill="black"/>
<path d="M1024.66 435.563C1069.48 414.35 1114.45 420.839 1159.47 435.563H1024.66Z" fill="black"/>
<path d="M839.482 1138.33C813.048 1113.79 792.334 1026.86 821.513 991.814C814.629 1042.79 820.951 1091.27 839.482 1138.33Z" fill="black"/>
<path d="M791.543 802.621C825.339 763.958 858.012 723.59 914.082 715.25C906.845 720.949 900.106 727.5 892.245 732.179C856.972 753.206 821.034 773.192 791.543 802.621Z" fill="black"/>
<path d="M921.988 960.432C919.742 984.91 916.04 1006.75 916.248 1028.54C916.456 1050.36 920.574 1072.14 922.904 1093.31C911.049 1085.74 906.058 1071.99 905.454 1058.16C904.373 1033.81 905.995 1009.33 906.765 984.91C906.848 982.144 908.74 979.42 911.361 977.028C910.883 980.896 910.404 984.786 909.905 988.654C910.342 988.8 910.779 988.966 911.215 989.111C914.543 980.272 917.871 971.434 922.009 960.432H921.988Z" fill="black"/>
<path d="M911.318 1204.51C918.098 1209.25 924.795 1214.12 931.7 1218.67C934.175 1220.3 937.003 1221.88 939.852 1222.31C959.818 1225.43 979.805 1228.43 999.833 1231.09C1016.18 1233.25 1032.65 1234.65 1049 1236.85C1054.63 1237.62 1060.08 1239.83 1067.76 1241.99C1047.36 1247.11 1029.66 1244.82 1011.67 1241.28C998.543 1238.7 984.65 1239.83 971.652 1236.94C948.92 1231.86 925.419 1227.33 909.717 1207.24L911.339 1204.51H911.318Z" fill="black"/>
<path d="M632.571 925.596C622.277 986.2 623.608 1046.35 642.263 1108.45C613.084 1070.03 608.633 978.463 632.571 925.596Z" fill="black"/>
<path d="M1064.49 938.406C1052.31 940.361 1040.93 942.379 1029.47 943.855C1026.58 944.23 1023.34 943.169 1020.45 942.254C1008.36 938.386 996.341 934.33 984.424 930.379C997.339 912.784 1040.31 911.515 1064.49 938.406Z" fill="black"/>
<path d="M873.234 1295.39C834.717 1293.54 810.592 1274.08 797.947 1239.03C827.355 1251.49 850.378 1272.33 873.234 1295.39Z" fill="black"/>
<path d="M973.315 1016.98C968.033 1046.14 986.085 1064.34 1005.8 1083.76C997.233 1088.36 990.536 1091.96 983.506 1095.72C964.684 1076.07 955.18 1043.52 973.315 1017V1016.98Z" fill="black"/>
<path d="M1210.26 1112.98C1232.97 1078.62 1241.62 1040.88 1238.26 997.367C1247.97 1017.08 1255.35 1034.66 1254.33 1054.71C1254.27 1056.02 1253.77 1057.49 1253.02 1058.55C1239.84 1077.44 1226.59 1096.28 1213.36 1115.12C1212.34 1114.42 1211.3 1113.69 1210.28 1112.98H1210.26Z" fill="black"/>
<path d="M741.88 919.002C728.486 967.19 715.363 1014.42 702.219 1061.65C707.813 1012.32 707.293 961.283 741.88 919.002Z" fill="black"/>
<path d="M777.857 1213.53C748.45 1183.59 730.169 1149.08 734.806 1105.2C749.157 1141.3 763.507 1177.43 777.857 1213.53Z" fill="black"/>
<path d="M879.808 1230.99C924.294 1245.57 967.865 1259.71 1014.01 1263.95C1014.14 1265.03 1014.28 1266.12 1014.41 1267.2C1006.8 1268.44 999.103 1271.04 991.616 1270.55C984.69 1270.09 978.076 1265.91 971.151 1264.08C966.139 1262.75 960.419 1255.45 955.657 1264.76C955.511 1265.03 953.764 1264.58 952.786 1264.35C928.266 1258.36 904.495 1250.52 883.863 1235.31C882.304 1234.15 881.139 1232.44 879.787 1230.99H879.808Z" fill="black"/>
<path d="M1152.9 987.24C1172.41 1016.11 1165.53 1050.07 1136.74 1079.06C1142.09 1048.72 1147.41 1018.39 1152.9 987.24Z" fill="black"/>
<path d="M809.014 857.008C794.476 890.284 780.313 922.707 765.131 957.46C759.266 922.978 782.206 872.107 809.014 857.008Z" fill="black"/>
<path d="M1322.76 1059.18C1326.83 1015.79 1315.54 975.197 1300.02 935.328C1328.56 959.62 1342.14 1019.75 1322.76 1059.18Z" fill="black"/>
<path d="M1199.9 1322.99C1222.61 1306.5 1246.86 1287.74 1272.36 1270.83C1283.65 1263.33 1297.42 1259.54 1310.94 1253.7C1296.57 1272.75 1223.72 1320.46 1199.9 1322.99Z" fill="black"/>
<path d="M1315.38 696.24C1273.93 678.749 1232.5 661.258 1190.74 643.643C1239.74 644.017 1277.98 669.473 1315.38 696.24Z" fill="black"/>
<path d="M1519.38 938.035C1527.32 951.158 1527.76 963.034 1526.7 975.096C1524.12 1004.5 1521.39 1033.91 1517.78 1063.24C1510.77 1022.18 1515.15 981.419 1519.38 938.056V938.035Z" fill="black"/>
<path d="M1162.2 794.633C1149.97 793.885 1137.72 792.782 1125.47 792.47C1109.94 792.096 1094.36 793.094 1078.87 792.179C1065.06 791.368 1051.37 788.789 1037.88 784.796C1079.91 780.969 1121.63 780.075 1162.18 794.633H1162.2Z" fill="black"/>
<path d="M1413.89 1456.98C1428.55 1429.73 1455.19 1416.8 1475.82 1395.87C1470.19 1432.29 1443.88 1445.66 1413.89 1456.98Z" fill="black"/>
<path d="M586.191 1078.04C592.68 1107.66 599.168 1137.27 605.72 1167.18C590.142 1158.24 583.154 1147.07 582.946 1130.22C582.738 1113 582.905 1095.78 582.905 1078.58C584.007 1078.4 585.089 1078.23 586.191 1078.04Z" fill="black"/>
<path d="M964.479 1095.95C965.54 1104.92 966.289 1111.45 966.996 1117.44C944.763 1114.84 932.056 1095.93 926.295 1053.32C932.472 1061.64 937.713 1069.91 944.181 1077.07C950.878 1084.45 958.781 1090.73 964.458 1095.95H964.479Z" fill="black"/>
<path d="M1027.81 757.199C1011.31 763.189 993.074 771.591 973.919 776.208C959.715 779.64 944.324 778.142 929.309 776.978C961.524 762.232 995.341 757.282 1027.81 757.199Z" fill="black"/>
<path d="M1310.9 989.26C1321.66 1021.72 1318.58 1098.01 1303.96 1121.45C1306.35 1076.11 1308.74 1030.44 1310.9 989.26Z" fill="black"/>
<path d="M1107.88 1291.53C1058.19 1315.22 1010.28 1309.33 963.896 1281.32C967.702 1282.13 971.633 1282.59 975.294 1283.85C990.767 1289.22 1005.82 1297.62 1021.69 1299.56C1038.04 1301.55 1055.2 1297.81 1071.9 1295.71C1083.82 1294.21 1095.54 1291.24 1107.36 1288.93C1107.55 1289.8 1107.71 1290.68 1107.9 1291.55L1107.88 1291.53Z" fill="black"/>
<path d="M1097.95 1373.59C1137.49 1365.07 1179.04 1356.12 1218.33 1347.66C1182.47 1371.68 1140.11 1377.34 1097.95 1373.59Z" fill="black"/>
<path d="M1092.05 1194.86C1128.15 1174.71 1160.24 1149.58 1188.05 1118.95C1188.84 1119.51 1189.63 1120.09 1190.42 1120.65C1184.74 1130.26 1180.94 1141.89 1173.06 1149.08C1149.78 1170.36 1122.1 1184.9 1092.05 1194.88V1194.86Z" fill="black"/>
<path d="M986.877 1333.85H1141.65C1141.65 1335.04 1141.65 1336.22 1141.63 1337.41C1090.64 1343.79 1039.72 1343.56 986.877 1333.85Z" fill="black"/>
<path d="M1355.78 1083.1C1352.94 1128.06 1335.15 1166.62 1309.12 1202C1314.17 1190.35 1318.99 1178.58 1324.34 1167.06C1329.7 1155.54 1335.61 1144.24 1341.41 1132.55C1334.7 1125.15 1342.58 1095.58 1355.78 1083.1Z" fill="black"/>
<path d="M1108.96 892.902C1119 894.69 1128.4 896.292 1137.76 898.101C1139.36 898.413 1141.46 899.286 1142.17 900.534C1151.18 916.403 1159.97 932.396 1166.73 949.138C1147.89 930.795 1129.07 912.451 1108.96 892.881V892.902Z" fill="black"/>
<path d="M722.225 1027.8C730.46 1003.8 738.28 979.65 747.161 955.899C749.885 948.62 755.521 942.443 758.454 937.93C758.454 944.294 758.579 953.569 758.371 962.845C758.308 965.507 757.788 968.461 756.52 970.769C746.038 990.069 735.348 1009.27 724.72 1028.48C723.888 1028.25 723.057 1028.02 722.225 1027.8Z" fill="black"/>
<path d="M1250.61 1278.22C1225.34 1299.66 1198.32 1318.11 1167.15 1329.01C1159.45 1331.69 1149.99 1329.4 1141.09 1327.9C1181.54 1319.67 1215.61 1297.93 1250.63 1278.24L1250.61 1278.22Z" fill="black"/>
<path d="M1145 645.163C1138.18 644.498 1131.31 643.042 1124.51 643.333C1104.88 644.144 1085.29 645.662 1065.68 646.91C1056.05 647.534 1046.42 648.803 1036.81 648.761C997.129 648.511 959.152 657.746 921.446 668.685C919.554 669.226 917.578 669.517 914.854 670.078C932.906 650.217 1117.46 632.872 1145 645.184V645.163Z" fill="black"/>
<path d="M933.217 968.147C939.83 933.665 969.217 908.354 1001.2 911.744C987.79 920.271 974.23 927.134 962.853 936.597C951.664 945.914 942.68 957.873 933.217 968.147Z" fill="black"/>
<path d="M1040.91 1067.43C1034.03 1071.16 1027.12 1074.86 1020.26 1078.62C1013.19 1082.49 1007.84 1080.87 1003.68 1073.19C1006.24 1072.55 1008.65 1072.34 1010.65 1071.32C1011.92 1070.68 1013.35 1068.72 1013.25 1067.5C1013.12 1066.29 1011.11 1064.25 1009.98 1064.31C994.032 1065.06 993.076 1053.08 991.266 1042.21C990.143 1035.51 990.039 1028.65 990.497 1021.3C1001.83 1042.41 1006.89 1070.07 1041.45 1064.31C1041.28 1065.35 1041.1 1066.39 1040.93 1067.41L1040.91 1067.43Z" fill="black"/>
<path d="M703.59 884.767C691.797 926.383 680.005 967.999 668.213 1009.61C667.319 1009.37 666.445 1009.12 665.551 1008.87C673.87 966.085 679.88 922.681 703.59 884.746V884.767Z" fill="black"/>
<path d="M687.869 821.235C702.781 790.309 722.289 764.249 759.101 752.936C734.268 776.749 711.058 799.002 687.869 821.235Z" fill="black"/>
<path d="M932.343 1024.72C945.529 1046.58 958.444 1068 971.796 1090.15C947.422 1085.05 920.759 1039.15 932.343 1024.72Z" fill="black"/>
<path d="M993.99 1311.5C964.852 1301.72 935.694 1291.95 906.557 1282.19C906.848 1281.3 907.139 1280.43 907.451 1279.53C940.415 1277.79 968.679 1290.24 994.988 1308.52C994.655 1309.52 994.322 1310.52 993.99 1311.5Z" fill="black"/>
<path d="M1486.22 766.016C1466.28 746.841 1447.39 726.979 1442.55 698.383C1467.17 714.251 1476.88 739.999 1486.22 766.016Z" fill="black"/>
<path d="M1517.67 1184.02C1527.3 1152.1 1536.91 1120.15 1546.54 1088.23C1547.39 1088.48 1548.25 1088.75 1549.12 1089C1545.96 1122.75 1541.92 1156.26 1517.67 1184.02Z" fill="black"/>
<path d="M899.733 600.281C872.529 614.923 847.822 635.117 813.922 638.133C839.524 616.753 868.703 606.5 899.733 600.281Z" fill="black"/>
<path d="M867.35 933.75C859.198 959.331 851.607 983.144 843.911 1007.29C832.577 981.668 840.23 956.814 867.35 933.75Z" fill="black"/>
<path d="M922.236 1229.26C926.541 1230.07 931.054 1230.28 935.089 1231.8C960.711 1241.47 987.228 1246.73 1014.41 1249.31C1024.6 1250.29 1034.65 1252.6 1044.32 1254.22C1027.89 1264.06 955.304 1249.46 922.215 1229.26H922.236Z" fill="black"/>
<path d="M573.357 1314.93C597.483 1322.29 600.769 1344.86 612.457 1362.37C589.642 1355.36 583.153 1347.37 573.357 1314.93Z" fill="black"/>
<path d="M1223.2 1496.43C1249.4 1484.64 1275.61 1472.82 1301.81 1461.03C1281.16 1485.14 1254.02 1494.87 1223.2 1496.43Z" fill="black"/>
<path d="M699.077 1247.96C683.104 1222.59 674.244 1197.44 671.416 1170.14C687.201 1192.81 697.101 1217.58 699.077 1247.96Z" fill="black"/>
<path d="M982.506 1382.06C949.188 1379.56 913.832 1380.81 891.309 1351.82C920.259 1361.43 951.746 1371.85 982.506 1382.06Z" fill="black"/>
<path d="M756.209 1024.3C753.692 1053.4 751.197 1082.49 748.68 1111.59C738.094 1081.66 743.876 1052.71 752.902 1023.97C754.004 1024.07 755.107 1024.2 756.209 1024.3Z" fill="black"/>
<path d="M721.85 1101.79C727.279 1134.55 732.707 1167.3 738.489 1202.31C720.083 1169.42 717.296 1136.04 721.85 1101.79Z" fill="black"/>
<path d="M1439.87 928.816C1461.64 974.072 1458.52 1020.74 1448.58 1067.83C1452.03 1021.05 1455.19 974.321 1439.87 928.816Z" fill="black"/>
<path d="M1179.48 1289.55C1148.27 1313.93 1111.56 1318.67 1073.08 1316.38C1086.68 1313.47 1100.45 1307.61 1113.85 1308.36C1136.04 1309.6 1153.19 1297.37 1172.7 1291.72C1174.97 1291.05 1177.22 1290.28 1179.48 1289.58V1289.55Z" fill="black"/>
<path d="M1299.48 620.85C1324.34 632.371 1347.82 645.703 1365.77 671.159C1338.92 657.599 1317.37 641.71 1299.48 620.85Z" fill="black"/>
<path d="M800.611 1011.72C798.573 981.562 795.558 951.197 819.412 928.195C813.277 955.482 806.934 983.6 800.611 1011.72Z" fill="black"/>
<path d="M819.828 1183.55C800.466 1175.31 776.653 1130.97 778.691 1108.86C792.126 1133.24 805.707 1157.9 819.828 1183.55Z" fill="black"/>
<path d="M900.064 1063.3C881.575 1042.56 881.45 1021.14 900.064 996.809V1063.3Z" fill="black"/>
<path d="M835.43 924.016C835.076 947.725 829.316 968.585 811.014 986.824C816.442 963.718 817.357 941.028 835.43 924.016Z" fill="black"/>
<path d="M806.226 660.637C783.786 677.587 760.784 694.953 738.322 711.903C740.797 693.746 774.073 668.373 806.226 660.637Z" fill="black"/>
<path d="M895.825 1364.68C871.429 1359.58 853.772 1344.04 835.512 1326.87C863.464 1329.01 876.836 1351.18 895.825 1364.68Z" fill="black"/>
<path d="M932.284 781.24C907.493 794.758 882.806 808.214 858.12 821.691C857.725 820.901 857.35 820.131 856.955 819.341C880.498 803.119 899.944 778.806 932.284 781.24Z" fill="black"/>
<path d="M781.482 603.127C760.58 620.784 739.679 638.441 718.777 656.078C717.945 655.079 717.113 654.06 716.281 653.062C735.165 632.847 753.239 611.654 781.482 603.127Z" fill="black"/>
<path d="M1269.95 1116.54C1274.55 1142.12 1260.4 1159.05 1246.12 1175.92C1244.97 1175.4 1243.85 1174.86 1242.71 1174.34C1251.79 1155.08 1260.86 1135.8 1269.95 1116.54Z" fill="black"/>
<path d="M835.74 1081.99C828.294 1056.87 825.445 1031.5 831.247 1003.78C842.104 1030.46 835.033 1056.5 835.74 1081.99Z" fill="black"/>
<path d="M984.421 1436.34C956.448 1440.96 934.798 1425.63 911.297 1417.33C928.642 1416.81 973.398 1428.58 984.421 1436.34Z" fill="black"/>
<path d="M1045.9 774.21C1081.49 768.74 1114.37 766.577 1146.5 780.387C1113.6 778.369 1081.01 776.373 1045.9 774.21Z" fill="black"/>
<path d="M908.342 1187.23C931.261 1193.78 951.767 1199.62 973.501 1205.84C959.545 1214.04 919.676 1203.08 908.342 1187.23Z" fill="black"/>
<path d="M851.461 714.107C872.924 698.217 898.463 692.041 925.625 683.098C910.796 695.181 869.347 712.547 851.461 714.107Z" fill="black"/>
<path d="M1339.5 1208.88C1332.63 1228.63 1320.14 1242.3 1297.32 1244.88C1310.46 1231.9 1323.59 1218.92 1336.73 1205.94C1337.65 1206.92 1338.58 1207.9 1339.5 1208.88Z" fill="black"/>
<path d="M982.758 1279.96H1060.92C1049.39 1289.66 1031.3 1291.67 1015.33 1284.35C1013.97 1283.73 1011.96 1283.67 1010.54 1284.17C999.521 1288.12 998.023 1288.01 982.758 1279.96Z" fill="black"/>
<path d="M705.838 1133.49C711.661 1155.26 717.485 1177.04 723.329 1198.83C722.31 1199.1 721.27 1199.37 720.23 1199.65C708.001 1179.45 700.181 1158.07 705.838 1133.49Z" fill="black"/>
<path d="M1163.59 863.181C1143.23 854.592 1122.89 846.003 1102.53 837.434C1103.09 836.124 1103.65 834.834 1104.22 833.524C1128.47 833.399 1145.25 850.017 1164.61 860.873C1164.28 861.642 1163.93 862.433 1163.59 863.202V863.181Z" fill="black"/>
<path d="M743.586 1246.6C767.066 1256.69 777.923 1275.24 788.592 1294C770.935 1281.83 757.167 1265.95 743.586 1246.6Z" fill="black"/>
<path d="M1031.53 1148.15C1003.35 1150.34 974.835 1155.06 949.316 1137.55C949.504 1136.44 949.67 1135.32 949.857 1134.22C954.682 1135.26 960.173 1135.15 964.228 1137.5C983.549 1148.65 1003.64 1147.51 1024.25 1142.81C1026.75 1142.25 1029.53 1142.89 1032.17 1142.97C1031.97 1144.7 1031.74 1146.45 1031.53 1148.17V1148.15Z" fill="black"/>
<path d="M1196.56 1268.82C1214.46 1255.82 1232.37 1242.82 1251.63 1228.85C1239.5 1252.51 1220.16 1263.76 1196.56 1268.82Z" fill="black"/>
<path d="M1461.56 754.246C1479.34 764.79 1496.87 788.853 1498.29 804.139C1483.1 788.479 1470.6 772.631 1461.56 754.246Z" fill="black"/>
<path d="M1592.83 770.405C1576.42 752.248 1576.07 727.603 1566.61 706.66C1583.64 724.567 1585.99 748.401 1592.83 770.405Z" fill="black"/>
<path d="M1267.06 1328.55C1247.03 1343.84 1228.38 1361.43 1199.16 1367C1222.84 1351.99 1243.95 1338.59 1265.06 1325.2C1265.73 1326.32 1266.39 1327.43 1267.06 1328.55Z" fill="black"/>
<path d="M1116.05 1282.05C1135.81 1273.52 1155.55 1264.99 1175.3 1256.49C1175.76 1257.57 1176.24 1258.67 1176.7 1259.75C1157.17 1269.19 1140.53 1285.44 1116.76 1284.92L1116.05 1282.07V1282.05Z" fill="black"/>
<path d="M1106.96 1426.55C1131.17 1420.31 1155.36 1414.05 1179.57 1407.81C1156.27 1417.56 1134.37 1432.5 1106.96 1426.55Z" fill="black"/>
<path d="M1599.57 1054.44C1599.32 1086.26 1589.69 1115.85 1580.46 1145.57C1579.65 1145.38 1578.82 1145.2 1578 1144.99C1585.2 1114.81 1592.4 1084.61 1599.57 1054.44Z" fill="black"/>
<path d="M862.984 922.703C869.848 901.115 889.418 883.936 909.841 880.588C894.222 894.626 879.498 907.853 862.984 922.703Z" fill="black"/>
<path d="M1296.13 1197.34C1290.39 1219.4 1273.69 1237.89 1255.81 1241.45C1269.24 1226.75 1282.7 1212.04 1296.13 1197.34Z" fill="black"/>
<path d="M1453.84 816.804C1437.02 795.382 1421.04 775.022 1405.07 754.682C1421.75 762.689 1448.14 797.233 1453.84 816.804Z" fill="black"/>
<path d="M1278.71 1203.95C1293.31 1183.32 1307.91 1162.71 1321.92 1142.89C1317.31 1168.84 1298.07 1186.56 1280.87 1205.59C1280.16 1205.05 1279.43 1204.51 1278.73 1203.95H1278.71Z" fill="black"/>
<path d="M1405.84 1081.33C1406.07 1104.91 1405.99 1128.43 1388.16 1147.32C1394.05 1125.31 1399.96 1103.33 1405.84 1081.33Z" fill="black"/>
<path d="M775.239 724.086C767.378 746.215 747.142 746.88 733.457 756.509C741.755 739.996 758.289 734.256 775.239 724.086Z" fill="black"/>
<path d="M1493.88 870.336C1507.4 884.915 1514.05 900.971 1504.65 922.683C1500.79 903.882 1497.33 887.12 1493.88 870.336Z" fill="black"/>
<path d="M790.465 1276C804.462 1283.96 818.438 1291.95 832.434 1299.91C810.909 1304.22 798.929 1292.65 790.465 1276Z" fill="black"/>
<path d="M1092.24 824.874C1073.27 819.362 1054.3 813.851 1033.23 807.716C1057.13 801.768 1074.49 814.267 1093.32 820.527C1092.96 821.962 1092.59 823.418 1092.24 824.853V824.874Z" fill="black"/>
<path d="M833.391 867.009C848.531 848.811 868.913 837.58 888.483 825.289C889.003 825.975 889.544 826.662 890.064 827.369C871.887 841.532 853.689 855.716 835.512 869.879C834.805 868.922 834.098 867.966 833.391 867.009Z" fill="black"/>
<path d="M974.456 521C956.591 523.953 938.705 526.907 920.84 529.86C936.854 515.426 956.029 518.962 974.394 517.984C974.414 518.983 974.435 520.002 974.456 521Z" fill="black"/>
<path d="M759.375 850.124C773.559 833.839 786.204 819.302 798.87 804.785L801.22 806.803C787.66 820.674 785.081 843.864 759.396 850.124H759.375Z" fill="black"/>
<path d="M702.656 1470.51C717.298 1474.78 735.329 1471.72 743.981 1490.83C727.26 1488.69 714.844 1479.73 702.656 1470.51Z" fill="black"/>
<path d="M1139.76 1199.71C1154.81 1183.26 1169.87 1166.81 1184.91 1150.36C1175.71 1171.99 1161.14 1188.94 1139.76 1199.71Z" fill="black"/>
<path d="M865.543 759.672C848.178 774.75 830.812 789.828 812.094 806.071C821.016 789.288 846.472 766.327 865.543 759.672Z" fill="black"/>
<path d="M1406.88 857.984C1396.78 840.598 1386.67 823.211 1376.54 805.824C1391.22 820.466 1405.2 835.565 1409.67 856.591L1406.88 857.984Z" fill="black"/>
<path d="M1009.05 1194.55C992.948 1205.68 976.809 1204.51 960.441 1194.55H1009.05Z" fill="black"/>
<path d="M1089.74 1244.73C1112.08 1237.97 1135.08 1231.01 1157.63 1224.19C1136.79 1236.27 1115.68 1249.12 1089.74 1244.73Z" fill="black"/>
<path d="M1275.38 618.603C1257.18 611.49 1240.69 605.043 1221.7 597.618C1243.68 597.098 1261.38 600.426 1275.38 618.603Z" fill="black"/>
<path d="M667.651 827.452C655.151 851.036 642.652 874.641 630.153 898.226C629.196 897.726 628.218 897.227 627.262 896.728C639.636 873.061 651.99 849.414 664.365 825.746C665.446 826.308 666.548 826.89 667.63 827.452H667.651Z" fill="black"/>
<path d="M723.036 1313.95C702.8 1311.35 697.746 1296.71 694.959 1280.21C704.318 1291.47 713.677 1302.7 723.036 1313.95Z" fill="black"/>
<path d="M617.947 1221.09C609.752 1206.7 601.579 1192.28 593.385 1177.89C609.482 1187.52 617.822 1201.75 617.947 1221.09Z" fill="black"/>
<path d="M802.109 885.999C806.269 870.11 830.831 841.825 847.344 835.648C831.434 853.368 816.626 869.86 802.109 885.999Z" fill="black"/>
<path d="M1469.88 872.477C1458.42 850.286 1447.66 829.426 1436.37 807.506C1448.79 817.031 1467.92 854.092 1469.88 872.477Z" fill="black"/>
<path d="M1675.36 1392.98C1678.75 1378.29 1677.86 1363.88 1693.12 1355.11C1690.52 1369.5 1690.69 1383.37 1675.36 1392.98Z" fill="black"/>
<path d="M1379.78 1317.94C1371.44 1332.75 1362.33 1346.99 1340.04 1346.76C1354.37 1336.37 1367.08 1327.15 1379.78 1317.94Z" fill="black"/>
<path d="M811.074 592.044C831.331 579.898 851.588 567.753 871.845 555.586C872.489 556.667 873.134 557.749 873.779 558.81C853.584 571.059 833.39 583.309 813.196 595.559C812.488 594.394 811.802 593.209 811.095 592.044H811.074Z" fill="black"/>
<path d="M1080.46 1123.98C1095.13 1111.19 1109.87 1098.34 1123.89 1086.11C1122.91 1099.55 1099.66 1120.3 1080.46 1123.98Z" fill="black"/>
<path d="M856.642 1317.98C876.566 1316.78 892.809 1326.66 908.948 1336.99C891.291 1331.54 873.634 1326.09 855.977 1320.65L856.642 1317.98Z" fill="black"/>
<path d="M959.505 1188.94C940.808 1190.25 922.465 1179.51 914.541 1162.15C929.328 1170.95 945.197 1180.41 959.505 1188.94Z" fill="black"/>
<path d="M784.103 1500.88C769.336 1498.2 753.821 1497.01 744.629 1477.96C759.749 1485.28 772.726 1491.58 785.725 1497.86C785.184 1498.86 784.643 1499.88 784.103 1500.88Z" fill="black"/>
<path d="M1291.54 1168.05C1300.17 1153.37 1308.78 1138.67 1317.41 1123.98C1318.87 1124.84 1320.34 1125.67 1321.8 1126.52C1313.4 1141.29 1304.97 1156.07 1296.57 1170.84C1294.89 1169.93 1293.2 1168.99 1291.54 1168.08V1168.05Z" fill="black"/>
<path d="M855.102 896.936C858.928 879.445 874.818 873.226 887.941 864.408C877.958 876.2 867.954 888.013 857.972 899.806C857.015 898.849 856.058 897.892 855.122 896.936H855.102Z" fill="black"/>
<path d="M676.409 1048.2V1110.07C672.312 1089.46 666.405 1068.85 676.409 1048.2Z" fill="black"/>
<path d="M1034.25 980.107C1028.14 980.107 1021.73 979.545 1015.45 980.273C1009.44 980.959 1003.58 982.977 998.105 984.287C1004.18 964.613 1016.01 965.756 1034.25 980.107Z" fill="black"/>
<path d="M1031.71 1392.62C1048.81 1391.87 1065.89 1391.13 1083.73 1390.34C1077.43 1398.16 1045.75 1399.9 1031.71 1392.62Z" fill="black"/>
<path d="M1181.1 1016.13C1178.44 1035.7 1175.78 1055.25 1173.12 1074.82C1171.7 1074.63 1170.27 1074.42 1168.85 1074.24C1171.27 1054.64 1173.7 1035.03 1176.11 1015.44L1181.1 1016.13Z" fill="black"/>
<path d="M951.414 1124.38C937.73 1126.83 928.537 1119.8 920.135 1097.92C930.263 1106.49 940.392 1115.06 951.414 1124.38Z" fill="black"/>
<path d="M807.726 748.422C795.58 758.675 783.456 768.949 770.457 779.93C775.116 759.341 791.754 754.287 807.726 748.422Z" fill="black"/>
<path d="M850.734 1375.26C868.474 1380.85 886.235 1386.43 903.976 1392.02L902.977 1395.12C885.258 1389.05 865.833 1388.38 849.299 1378.61C849.777 1377.48 850.256 1376.36 850.734 1375.24V1375.26Z" fill="black"/>
<path d="M1223.09 1322.45L1278 1295.15C1278.37 1295.9 1278.77 1296.64 1279.14 1297.39C1261.13 1307.11 1244.87 1320.23 1224.22 1324.8C1223.84 1324.01 1223.47 1323.24 1223.09 1322.45Z" fill="black"/>
<path d="M1321.15 1112.67C1326.92 1095.6 1332.68 1078.52 1338.42 1061.45C1337.46 1080 1336.65 1098.59 1321.15 1112.67Z" fill="black"/>
<path d="M1219.31 682.807C1242.27 685.552 1260.88 695.805 1277.35 710.571C1258.22 701.42 1239.11 692.27 1219.31 682.807Z" fill="black"/>
<path d="M1389.18 1169.63C1381.11 1181.3 1373.06 1192.95 1364.99 1204.62C1363.73 1203.78 1362.44 1202.95 1361.17 1202.12C1368.59 1190.08 1376.02 1178.02 1383.46 1165.97C1385.38 1167.2 1387.29 1168.43 1389.2 1169.63H1389.18Z" fill="black"/>
<path d="M547.647 833.94C539.12 852.845 530.593 871.77 522.066 890.675C523.418 868.547 537.685 852.034 545.235 832.588C546.046 833.045 546.836 833.482 547.647 833.94Z" fill="black"/>
<path d="M596.63 1274.2C580.304 1270.21 581.572 1255.17 574.834 1241.57C590.099 1249.6 590.203 1263.83 596.63 1274.2Z" fill="black"/>
<path d="M1282.39 1060.05C1283.95 1043.06 1285.51 1026.09 1287.07 1009.1L1289.29 1009.2C1288.23 1026.28 1287.17 1043.33 1286.11 1060.41C1284.86 1060.28 1283.63 1060.18 1282.39 1060.05Z" fill="black"/>
<path d="M947.173 794.053C933.696 799.003 920.219 803.974 906.742 808.924C906.16 807.281 905.557 805.658 904.975 804.015C918.618 799.211 932.282 794.407 945.925 789.582C946.341 791.059 946.757 792.556 947.173 794.033V794.053Z" fill="black"/>
<path d="M1169.68 662.091C1149.2 659.887 1128.71 657.661 1108.21 655.457C1108.33 654.271 1108.46 653.086 1108.6 651.9C1129.21 654.126 1149.82 656.351 1170.45 658.597C1170.2 659.762 1169.95 660.927 1169.68 662.112V662.091Z" fill="black"/>
<path d="M1145 880.695C1157.17 890.72 1169.35 900.744 1181.52 910.769L1179.75 912.973C1168.09 902.179 1148.91 900.911 1145 880.695Z" fill="black"/>
<path d="M1017.72 1202.1C1031.07 1195.41 1044.71 1191.66 1059.69 1199.86C1045.79 1201.6 1031.9 1203.35 1018.01 1205.1C1017.9 1204.1 1017.82 1203.1 1017.72 1202.1Z" fill="black"/>
<path d="M970.404 822.107C990.308 814.495 1010.79 812.873 1032.13 819.32C1011.11 820.277 990.578 821.192 970.404 822.107Z" fill="black"/>
<path d="M1517.42 1125.42C1520.77 1108.82 1524.14 1092.2 1527.49 1075.61C1528.78 1075.88 1530.09 1076.13 1531.38 1076.4C1528.07 1093.04 1524.78 1109.67 1521.48 1126.29C1520.13 1126 1518.77 1125.71 1517.42 1125.42Z" fill="black"/>
<path d="M1352.56 1036.35C1354.57 1051.42 1361.92 1066.36 1347.4 1081.58C1349.31 1064.78 1350.93 1050.55 1352.56 1036.35Z" fill="black"/>
<path d="M532.762 836.354C535.673 820.132 540.935 805.178 551.937 793.303C552.956 793.843 553.975 794.384 554.994 794.946C547.59 808.755 540.166 822.544 532.762 836.354Z" fill="black"/>
<path d="M1001.04 1172.13C1017.61 1178.51 1034.61 1180.95 1052.49 1177.14C1036.35 1188.64 1021.52 1187.39 1000.31 1172.98C1000.56 1172.71 1000.79 1172.42 1001.04 1172.15V1172.13Z" fill="black"/>
<path d="M851.319 794.217C840.442 808.588 829.565 822.959 818.709 837.33C817.502 836.415 816.296 835.479 815.09 834.564C826.321 820.38 837.53 806.217 848.761 792.033L851.319 794.217Z" fill="black"/>
<path d="M633.898 1311.16C626.369 1298.77 618.82 1286.39 611.291 1274C627.492 1281 628.615 1297.39 636.581 1309.5C635.687 1310.06 634.792 1310.6 633.919 1311.16H633.898Z" fill="black"/>
<path d="M1417.49 865.949C1423.87 879.884 1430.26 893.839 1436.62 907.773C1435.46 908.335 1434.29 908.875 1433.13 909.437C1426.43 895.586 1419.74 881.735 1413.02 867.883C1414.49 867.239 1415.99 866.594 1417.47 865.949H1417.49Z" fill="black"/>
<path d="M1211.53 891.197C1197.01 879.509 1182.48 867.821 1167.96 856.112C1168.58 855.301 1169.21 854.49 1169.83 853.699C1184.53 865.159 1199.24 876.639 1213.94 888.098C1213.13 889.138 1212.34 890.157 1211.53 891.176V891.197Z" fill="black"/>
<path d="M1542.61 1060.09C1543.85 1045.84 1545.1 1031.62 1546.35 1017.37C1547.89 1017.52 1549.45 1017.66 1550.99 1017.83C1549.59 1032.18 1548.22 1046.53 1546.83 1060.88C1545.41 1060.61 1544.02 1060.36 1542.61 1060.09Z" fill="black"/>
<path d="M850.274 1009.06C852.562 1028.15 854.704 1046.14 856.847 1064.15C851.564 1046.49 841.394 1029.4 850.274 1009.06Z" fill="black"/>
<path d="M1335.05 586.41C1318.2 579.422 1301.38 572.455 1284.53 565.467C1304.25 565.405 1319.33 576.698 1335.05 586.41Z" fill="black"/>
<path d="M609.482 1396.57C620.713 1404.52 631.923 1412.46 643.154 1420.39C629.552 1415.83 614.765 1413.09 609.482 1396.57Z" fill="black"/>
<path d="M523.213 1081.58C525.064 1063.13 526.894 1044.68 528.745 1026.24C529.931 1026.36 531.095 1026.49 532.281 1026.61C530.305 1045.06 528.308 1063.51 526.333 1081.95C525.293 1081.83 524.253 1081.72 523.213 1081.6V1081.58Z" fill="black"/>
<path d="M1500.12 1205.36C1493.9 1219.36 1487.66 1233.36 1481.44 1247.35C1480.25 1246.83 1479.09 1246.31 1477.9 1245.79C1484.12 1231.8 1490.36 1217.8 1496.58 1203.8C1497.77 1204.32 1498.93 1204.84 1500.12 1205.36Z" fill="black"/>
<path d="M1082.88 517.236C1101.7 513.055 1117.34 524.452 1134.95 526.179C1134.76 527.114 1134.56 528.05 1134.37 528.986C1117.21 525.076 1100.05 521.145 1082.88 517.236Z" fill="black"/>
<path d="M617.094 1184.54C613.101 1169.63 609.087 1154.72 605.094 1139.81L607.839 1139C612.643 1153.68 617.447 1168.34 622.252 1183.03C620.526 1183.55 618.82 1184.05 617.094 1184.57V1184.54Z" fill="black"/>
<path d="M645.965 1393.88C658.443 1402.28 670.901 1410.66 683.38 1419.06C682.589 1420.25 681.799 1421.41 680.988 1422.6C668.426 1414.09 655.864 1405.56 643.303 1397.06L645.944 1393.9L645.965 1393.88Z" fill="black"/>
<path d="M1076.31 1027.02C1072.67 1015.44 1069.26 1004.6 1065.89 993.934C1078.28 1001.32 1082.46 1013.48 1076.31 1027.02Z" fill="black"/>
<path d="M797.039 699.963C787.431 706.182 777.822 712.421 768.235 718.64C767.424 717.496 766.633 716.331 765.822 715.187C775.098 708.553 784.353 701.918 793.629 695.305C794.772 696.865 795.916 698.424 797.06 699.984L797.039 699.963Z" fill="black"/>
<path d="M1015.74 1271.54C1028.16 1268.99 1040.55 1266.43 1052.97 1263.87C1053.3 1265.55 1053.61 1267.24 1053.95 1268.92L1016.49 1275.47C1016.24 1274.16 1015.99 1272.85 1015.74 1271.54Z" fill="black"/>
<path d="M1361.38 1193.05L1341.18 1227.74C1339.96 1227.01 1338.71 1226.28 1337.48 1225.58C1344.05 1213.78 1350.6 1201.99 1357.18 1190.18C1358.57 1191.13 1359.98 1192.09 1361.38 1193.05Z" fill="black"/>
<path d="M1268.41 1257.23C1277.94 1249.31 1287.46 1241.38 1296.99 1233.46C1297.9 1234.56 1298.82 1235.64 1299.73 1236.75L1271.51 1260.87L1268.41 1257.23Z" fill="black"/>
<path d="M770.662 1097.45C768.457 1080.75 766.253 1064.05 764.027 1047.35C765.026 1047.22 766.024 1047.08 767.022 1046.95L774.655 1096.91L770.662 1097.45Z" fill="black"/>
<path d="M990.493 999.529C988.725 1013.26 986.978 1027 985.127 1041.5C981.488 1026.71 981.072 1012.86 987.561 999.55C988.538 999.55 989.516 999.55 990.493 999.55V999.529Z" fill="black"/>
<path d="M959.133 1278.49C948.235 1274.75 937.316 1271 926.418 1267.26C926.813 1266.03 927.187 1264.82 927.583 1263.6C938.605 1266.76 949.628 1269.92 960.651 1273.08C960.152 1274.89 959.632 1276.68 959.133 1278.49Z" fill="black"/>
<path d="M918.389 1350.87C932.095 1354.72 945.78 1358.56 959.485 1362.43C959.049 1363.85 958.633 1365.26 958.196 1366.68C944.574 1362.37 930.951 1358.09 917.35 1353.78C917.703 1352.82 918.057 1351.85 918.41 1350.89L918.389 1350.87Z" fill="black"/>
<path d="M1509.62 527.512C1498.5 517.466 1487.37 507.421 1476.24 497.355L1478.05 495.213C1489.49 504.905 1500.93 514.596 1512.37 524.288C1511.45 525.369 1510.54 526.43 1509.62 527.512Z" fill="black"/>
<path d="M1400.64 660.053C1409.94 670.223 1419.26 680.372 1428.55 690.542C1427.51 691.499 1426.47 692.435 1425.43 693.391C1416.2 683.18 1406.96 672.947 1397.71 662.736C1398.69 661.841 1399.66 660.947 1400.62 660.053H1400.64Z" fill="black"/>
<path d="M1539.94 878.902C1543.69 896.04 1547.41 913.198 1551.15 930.335C1550.09 930.564 1549.03 930.792 1547.97 931.021C1544.29 913.863 1540.59 896.705 1536.91 879.568C1537.93 879.339 1538.95 879.131 1539.94 878.902Z" fill="black"/>
<path d="M1094.61 1254.24C1083.75 1255.88 1072.89 1257.54 1060.35 1259.44C1067.69 1250.68 1069.94 1250.31 1094.61 1254.24Z" fill="black"/>
<path d="M831.934 1527.93C819.997 1524.52 808.059 1521.11 796.121 1517.72C796.495 1516.45 796.87 1515.16 797.244 1513.89C809.14 1517.43 821.037 1520.96 832.954 1524.52C832.621 1525.66 832.267 1526.81 831.934 1527.95V1527.93Z" fill="black"/>
<path d="M1274.74 981.418C1276.69 998.285 1278.67 1015.13 1280.62 1032C1279.69 1032.12 1278.75 1032.23 1277.81 1032.35C1275.67 1015.75 1273.53 999.138 1271.41 982.541C1272.51 982.167 1273.63 981.792 1274.74 981.418Z" fill="black"/>
<path d="M626.604 804.513C633.966 794.052 641.349 783.612 648.711 773.15C649.668 773.795 650.604 774.44 651.561 775.085C644.406 785.712 637.252 796.34 630.097 806.967C628.933 806.156 627.768 805.345 626.604 804.513Z" fill="black"/>
<path d="M888.668 1283C882.096 1290.16 874.588 1286.56 863.066 1270.09C871.281 1274.25 879.517 1278.39 888.668 1283Z" fill="black"/>
<path d="M1006.63 541.527H956.926C956.926 540.841 956.926 540.134 956.926 539.447H1006.65C1006.65 540.134 1006.65 540.841 1006.65 541.527H1006.63Z" fill="black"/>
<path d="M764.32 895.792C757.748 908.458 751.176 921.103 744.625 933.769L742.254 932.625C748.327 919.73 754.4 906.836 760.493 893.941C761.783 894.565 763.072 895.189 764.341 895.792H764.32Z" fill="black"/>
<path d="M963.938 709.387C953.436 712.049 942.933 714.732 931.848 717.561C939.314 708.493 944.368 706.996 963.938 709.387Z" fill="black"/>
<path d="M777.506 662.254C789.568 656.597 801.631 650.94 813.694 645.283L815.212 648.424C803.357 654.33 791.503 660.237 779.648 666.143C778.941 664.833 778.213 663.543 777.506 662.233V662.254Z" fill="black"/>
<path d="M777.339 1138.75C781.228 1147.3 785.138 1155.85 789.526 1165.48C779.023 1160.28 774.573 1151.13 777.339 1138.75Z" fill="black"/>
<path d="M1471.77 1285.27C1478.9 1273.98 1486.06 1262.66 1493.19 1251.37C1494.29 1252.08 1495.42 1252.79 1496.52 1253.49C1489.14 1264.64 1481.75 1275.79 1474.37 1286.93C1473.5 1286.37 1472.62 1285.83 1471.77 1285.27Z" fill="black"/>
<path d="M721.458 1331.86C731.004 1338.07 740.55 1344.29 750.117 1350.51C749.369 1351.63 748.599 1352.76 747.85 1353.88C738.283 1347.68 728.717 1341.48 719.129 1335.29C719.898 1334.14 720.689 1333 721.458 1331.88V1331.86Z" fill="black"/>
<path d="M1495.12 1403.25C1502.36 1394.74 1503.42 1381.91 1513.86 1375.65C1514.8 1376.32 1515.74 1376.96 1516.69 1377.63C1510.27 1386.63 1503.84 1395.66 1497.41 1404.66L1495.12 1403.25Z" fill="black"/>
<path d="M977.519 1407.18C987.98 1409.36 998.441 1411.57 1008.9 1413.75C1008.57 1415.17 1008.22 1416.58 1007.88 1417.97L976.604 1410.88C976.915 1409.64 977.207 1408.41 977.519 1407.16V1407.18Z" fill="black"/>
<path d="M1350.27 762.707C1361.65 773.043 1373.04 783.359 1384.42 793.695C1383.84 794.34 1383.25 794.985 1382.67 795.63C1371.25 785.335 1359.86 775.019 1348.44 764.724C1349.04 764.059 1349.65 763.373 1350.25 762.707H1350.27Z" fill="black"/>
<path d="M567.204 903.297C564.209 913.821 561.214 924.323 558.219 934.847C556.951 934.473 555.661 934.098 554.393 933.724C557.512 923.242 560.653 912.781 563.772 902.299C564.916 902.632 566.06 902.964 567.204 903.297Z" fill="black"/>
<path d="M1019.42 1109.05C1007.23 1119.08 1004.49 1118.99 995.338 1109.05H1019.42Z" fill="black"/>
<path d="M530.18 1222.77C527.123 1213.66 524.087 1204.53 521.029 1195.42C522.111 1195.05 523.192 1194.69 524.274 1194.32C532.468 1201.77 529.556 1213.08 533.425 1222.02C532.343 1222.27 531.241 1222.5 530.159 1222.75L530.18 1222.77Z" fill="black"/>
<path d="M811.8 1347.6C821.7 1353.07 831.599 1358.56 841.499 1364.03C840.979 1365.01 840.48 1365.97 839.96 1366.94C829.811 1361.64 819.682 1356.32 809.533 1351.01C810.282 1349.89 811.051 1348.75 811.8 1347.62V1347.6Z" fill="black"/>
<path d="M1409.21 1218.18C1415.87 1208.53 1422.52 1198.9 1429.18 1189.25C1430.14 1189.89 1431.09 1190.54 1432.05 1191.18C1425.41 1201 1418.78 1210.82 1412.15 1220.63C1411.17 1219.82 1410.19 1218.99 1409.21 1218.18Z" fill="black"/>
<path d="M883.656 1199.85C875.878 1191.64 868.12 1183.42 860.342 1175.21C860.529 1175.04 860.716 1174.9 860.903 1174.73C869.701 1181.82 878.477 1188.91 887.275 1196.01C886.068 1197.3 884.862 1198.56 883.656 1199.85Z" fill="black"/>
<path d="M1095.13 1402.15C1109.62 1400.32 1124.12 1398.49 1138.61 1396.66L1138.97 1399.86C1124.43 1401.38 1109.89 1402.92 1095.38 1404.44C1095.29 1403.67 1095.21 1402.92 1095.13 1402.15Z" fill="black"/>
<path d="M729.982 1056.04C729.317 1068.95 728.631 1081.85 727.965 1094.76C727.736 1094.76 727.487 1094.74 727.258 1094.72V1055.1C728.173 1055.41 729.067 1055.72 729.982 1056.06V1056.04Z" fill="black"/>
<path d="M1072.87 1547.67C1061.04 1546.76 1049.19 1545.82 1037.35 1544.9C1037.41 1543.99 1037.48 1543.09 1037.54 1542.18C1049.39 1543.01 1061.23 1543.86 1073.08 1544.7C1073.02 1545.69 1072.94 1546.67 1072.87 1547.67Z" fill="black"/>
<path d="M1360.76 1384.76C1368.37 1377.71 1376 1370.66 1383.61 1363.61C1384.38 1364.47 1385.17 1365.32 1385.94 1366.19C1378.29 1373.1 1370.61 1380.02 1362.96 1386.93C1362.23 1386.22 1361.48 1385.49 1360.76 1384.79V1384.76Z" fill="black"/>
<path d="M1214.59 1334.41C1203.63 1337.97 1192.69 1341.55 1181.73 1345.1C1181.42 1344.19 1181.1 1343.3 1180.79 1342.38C1191.65 1338.59 1202.51 1334.81 1213.36 1331C1213.78 1332.13 1214.17 1333.27 1214.59 1334.39V1334.41Z" fill="black"/>
<path d="M636.498 1226.64C642.509 1231.17 652.637 1234.27 644.38 1246.67C641.385 1239.06 638.952 1232.86 636.498 1226.64Z" fill="black"/>
<path d="M606.841 995.954C608.027 985.077 609.233 974.221 610.418 963.344C611.666 963.489 612.914 963.635 614.141 963.78C612.623 974.616 611.105 985.452 609.586 996.266C608.671 996.162 607.735 996.038 606.82 995.934L606.841 995.954Z" fill="black"/>
<path d="M741.235 1229.7C736.514 1220.15 731.793 1210.61 727.051 1201.08C727.966 1200.62 728.86 1200.19 729.775 1199.73C734.891 1209.09 739.987 1218.43 745.103 1227.78C743.814 1228.43 742.524 1229.07 741.214 1229.72L741.235 1229.7Z" fill="black"/>
<path d="M743.131 1386.95C734.729 1382.39 726.327 1377.84 717.945 1373.3C718.652 1372.06 719.339 1370.83 720.046 1369.58C728.427 1374.41 736.788 1379.25 745.169 1384.08L743.152 1386.95H743.131Z" fill="black"/>
<path d="M551.248 1216.28L563.456 1240.97C562.458 1241.47 561.459 1241.99 560.461 1242.49C556.198 1234.36 551.934 1226.2 547.691 1218.07C548.877 1217.47 550.062 1216.87 551.269 1216.28H551.248Z" fill="black"/>
<path d="M834.575 563.866C824.031 570.334 813.487 576.781 802.963 583.249C802.485 582.459 802.006 581.689 801.549 580.899C811.906 574.41 822.263 567.921 832.62 561.453C833.265 562.264 833.931 563.075 834.575 563.866Z" fill="black"/>
<path d="M1034.65 956.415C1025.25 957.164 1017.76 957.746 1010.29 958.329C1017.38 953.067 1024.41 947.306 1034.65 956.415Z" fill="black"/>
<path d="M995.109 791.949C1002.99 793.322 1010.87 794.674 1018.76 796.046C1018.63 797.107 1018.53 798.189 1018.4 799.249C1010.37 798.438 1002.35 797.627 994.34 796.816C994.61 795.194 994.86 793.571 995.13 791.949H995.109Z" fill="black"/>
<path d="M819.39 1365.53C826.399 1369.04 836.132 1367.46 839.231 1378.32C832.16 1374.84 825.089 1371.37 818.018 1367.9C818.475 1367.11 818.933 1366.32 819.39 1365.53Z" fill="black"/>
<path d="M645.525 1273.62C651.556 1279.22 657.588 1284.81 663.619 1290.39C662.371 1291.65 661.123 1292.92 659.875 1294.19C653.886 1288.68 647.896 1283.17 641.906 1277.68C643.113 1276.33 644.319 1274.97 645.525 1273.62Z" fill="black"/>
<path d="M936.751 550.842C927.621 553.088 918.47 555.313 909.34 557.559C909.111 556.582 908.862 555.583 908.633 554.606C917.784 552.422 926.935 550.238 936.086 548.055C936.314 548.991 936.543 549.926 936.751 550.862V550.842Z" fill="black"/>
<path d="M958.902 810.628C967.346 807.487 975.79 804.326 984.234 801.186C984.671 802.371 985.087 803.556 985.523 804.742C976.955 807.55 968.386 810.336 959.838 813.144C959.526 812.312 959.235 811.46 958.923 810.628H958.902Z" fill="black"/>
<path d="M607.341 1055.95C610.315 1067.56 613.289 1079.16 616.242 1090.77C615.452 1090.98 614.683 1091.18 613.892 1091.39C610.69 1079.75 607.508 1068.1 604.305 1056.45C605.303 1056.29 606.322 1056.12 607.32 1055.95H607.341Z" fill="black"/>
<path d="M1357.84 1380.17C1351.35 1385.99 1344.84 1391.81 1338.35 1397.62C1337.65 1396.83 1336.94 1396.04 1336.23 1395.27C1342.74 1389.44 1349.23 1383.6 1355.74 1377.78C1356.45 1378.57 1357.15 1379.38 1357.84 1380.17Z" fill="black"/>
<path d="M783.537 850.56C788.924 844.945 794.31 839.309 799.697 833.693C795.724 840.931 796.036 852.141 785.471 853.181C784.827 852.307 784.182 851.454 783.537 850.581V850.56Z" fill="black"/>
<path d="M784.163 1333.88C791.983 1339.64 799.803 1345.4 807.623 1351.16C806.874 1352.16 806.126 1353.15 805.398 1354.15C797.682 1348.27 789.966 1342.36 782.25 1336.47C782.895 1335.6 783.539 1334.73 784.184 1333.88H784.163Z" fill="black"/>
<path d="M977.351 1100.88C982.28 1105.49 986.918 1109.84 992.076 1114.69C978.391 1113.56 973.254 1109.13 977.351 1100.88Z" fill="black"/>
</svg>
