<svg width="2048" height="2048" viewBox="0 0 2048 2048" fill="none" xmlns="http://www.w3.org/2000/svg">
<rect width="2048" height="2048" fill="white"/>
<path d="M1452.39 1514.12C1382.96 1591.11 1306.47 1652.9 1200.65 1651.07C1226.67 1640.22 1256.18 1627.88 1285.69 1615.55C1284.86 1613.24 1284.05 1610.91 1283.22 1608.6C1229.15 1632.85 1174.53 1654.98 1114.99 1655.79C1171.1 1627.34 1227.52 1599.02 1283.64 1570.15C1301.21 1561.1 1318.12 1550.75 1335.13 1540.64C1358.47 1526.79 1382.3 1519.13 1414.58 1516.41C1396.46 1537.48 1375.1 1550.91 1353.04 1563.02C1335.32 1572.73 1316.6 1580.57 1298.55 1589.68C1294.66 1591.63 1291.66 1595.42 1288.27 1598.37C1289.25 1599.72 1290.23 1601.1 1291.21 1602.45C1313.15 1591.97 1334.94 1581.19 1357.07 1571.17C1366.62 1566.84 1373.81 1555.72 1387.23 1560.79C1389.6 1561.69 1394.55 1556.51 1397.98 1553.72C1432.92 1525.39 1468.38 1497.67 1502.47 1468.35C1520.4 1452.91 1538.14 1436.3 1551.99 1417.33C1590.79 1364.19 1629.75 1310.82 1652.46 1248.06C1669.12 1202.03 1674.63 1153.91 1678.79 1105.53C1680.97 1080.16 1683.64 1054.83 1687.48 1029.62C1735.98 1201.6 1574.88 1507.15 1396.82 1583.75C1416.28 1563.02 1435.67 1542.41 1454.9 1521.65C1455.36 1521.15 1454.07 1519.07 1452.37 1514.12H1452.39Z" fill="black"/>
<path d="M479.897 1707.12C413.22 1677.67 367.798 1628.8 338.723 1568.32C308.878 1506.28 288.122 1439.87 263.498 1375.34C262.333 1372.28 262.354 1368.76 264.018 1364.48C276.538 1385.53 291.907 1405.41 301.079 1427.81C342.529 1529.34 400.325 1620.12 474.676 1700.57C475.966 1701.96 477.068 1703.54 479.917 1707.12H479.897Z" fill="black"/>
<path d="M1688.15 1312.65C1696.07 1280.13 1703.04 1247.31 1712.36 1215.18C1716.43 1201.07 1727.04 1188.93 1731.68 1174.89C1748.75 1123.31 1747.63 1069.86 1746.38 1016.37C1745.4 974.027 1746.17 931.642 1746.17 889.277C1747.84 889.049 1749.48 888.799 1751.14 888.57C1755.95 911.364 1763.5 933.992 1764.97 957.015C1768.53 1012.75 1769.76 1068.66 1770.71 1124.52C1770.92 1136 1767.74 1148.39 1762.98 1158.94C1739.62 1210.72 1715.21 1262.01 1691.14 1313.49C1690.14 1313.21 1689.13 1312.94 1688.13 1312.67L1688.15 1312.65Z" fill="black"/>
<path d="M1621.84 559.761C1653.44 591.685 1687.17 621.863 1715.7 656.324C1729.1 672.505 1733.57 696.63 1740.18 717.739C1764.72 796.146 1779.39 876.737 1791.76 957.764C1794.55 976.087 1796.46 994.534 1797.27 1013C1790.66 980.204 1785.85 946.887 1776.89 914.734C1768.32 883.974 1757.09 853.651 1743.99 824.514C1732.01 797.872 1721.94 772.042 1718.55 742.156C1711.92 683.777 1680.33 636.151 1642.52 592.6C1634.18 582.992 1625.84 573.363 1617.5 563.754C1618.95 562.423 1620.43 561.071 1621.89 559.74L1621.84 559.761Z" fill="black"/>
<path d="M432.929 1357.54C355.833 1246.81 330.314 1122.46 339.673 989.234C342.335 951.487 347.16 937.76 355.625 931.979C352.963 949.573 350.633 966.398 347.826 983.141C341.566 1020.47 345.122 1057.6 355.812 1093.14C371.722 1146.11 391.75 1197.83 408.617 1250.53C419.681 1285.14 428.229 1320.54 437.9 1355.58C436.257 1356.25 434.593 1356.89 432.95 1357.56L432.929 1357.54Z" fill="black"/>
<path d="M492.434 737.396C487.88 752.287 486.049 768.821 478.292 781.82C436.177 852.386 417.522 929.379 410.534 1010.3C408.163 1037.8 402.09 1064.98 397.597 1092.31C397.161 1094.97 395.85 1097.49 394.207 1102.12C384.765 1052.85 382.332 1005.58 386.512 958.017C386.804 954.71 390.547 951.757 392.523 948.533C394.935 944.582 397.972 940.776 399.324 936.471C412.468 894.501 424.426 852.157 438.527 810.541C447.636 783.671 462.049 759.317 484.157 740.454C485.946 738.915 487.9 737.583 489.793 736.148C490.687 736.564 491.561 736.98 492.455 737.396H492.434Z" fill="black"/>
<path d="M204.556 1073.26C203.953 1209.58 235.17 1339.51 274.207 1468.12C272.834 1468.68 271.461 1469.24 270.11 1469.8C250.768 1430.18 231.405 1390.58 212.064 1350.96L216.015 1348.68C219.322 1353.52 222.192 1358.74 226.102 1363.05C227.953 1365.09 231.78 1365.32 234.712 1366.36C235.253 1363.3 237.166 1359.58 236.064 1357.31C231.946 1348.86 225.977 1341.29 222.275 1332.7C210.795 1306.04 195.717 1279.92 190.226 1251.97C185.027 1225.43 189.269 1196.81 190.975 1169.22C192.555 1143.59 196.07 1118.07 199.231 1092.56C200.043 1086 202.725 1079.68 204.535 1073.23L204.556 1073.26Z" fill="black"/>
<path d="M641.219 1785.95C605.697 1769.91 568.531 1756.66 535.234 1736.86C512.856 1723.57 494.991 1701.94 476.814 1682.46C434.075 1636.66 397.347 1586.29 366.712 1531.57C365.36 1529.16 364.195 1526.64 364.861 1522.96C379.856 1539.02 394.518 1555.41 409.95 1571.02C424.924 1586.16 441.333 1599.91 455.933 1615.41C477.563 1638.37 499.4 1661.31 518.887 1686.03C551.352 1727.21 588.123 1762.07 638.64 1779.85C640.387 1780.48 641.905 1781.75 643.527 1782.72C642.758 1783.78 641.988 1784.86 641.219 1785.93V1785.95Z" fill="black"/>
<path d="M1676.09 1292.57C1664.61 1323.95 1651.73 1354.92 1642.1 1386.86C1633.95 1413.92 1616.58 1432.95 1596.85 1451.31C1570.75 1475.58 1546.31 1501.71 1519.38 1525C1478.86 1560.02 1433.59 1587.93 1383.09 1606.94C1412.52 1586.31 1443.17 1567.18 1471.06 1544.63C1499.45 1521.67 1527.03 1497.05 1551.47 1469.99C1575.53 1443.35 1596.47 1413.59 1616.5 1383.66C1636.59 1353.65 1653.83 1321.75 1672.34 1290.67C1673.59 1291.3 1674.84 1291.94 1676.09 1292.57Z" fill="black"/>
<path d="M494.016 1463.91C506.266 1472.23 520.179 1478.86 530.495 1489.14C598.316 1556.77 672.334 1615.48 760.932 1653.96C769.854 1657.83 779.171 1660.84 788.093 1664.77C726.637 1654.54 669.547 1632.56 617.408 1598.39C565.497 1564.38 527.042 1517.19 489.648 1469.17C491.104 1467.43 492.56 1465.68 493.995 1463.93L494.016 1463.91Z" fill="black"/>
<path d="M483.156 480.087C508.696 457.896 533.07 434.104 560.149 413.972C583.879 396.335 610.042 381.59 636.309 367.801C665.197 352.619 696.539 344.57 729.046 343.801C730.065 361.042 716.526 362.81 706.252 368.238C636.206 405.278 566.263 442.485 496.28 479.609C493.077 481.314 489.707 482.749 486.442 484.309C485.361 482.895 484.259 481.481 483.177 480.087H483.156Z" fill="black"/>
<path d="M663.289 1718.62C784.331 1748.93 896.679 1799.99 1017.39 1821.57C979.058 1842.81 717.571 1767.77 663.289 1718.62Z" fill="black"/>
<path d="M711.055 1572.48C715.859 1573 718.292 1572.88 720.476 1573.54C758.286 1584.96 796.241 1595.98 833.76 1608.27C847.674 1612.83 860.194 1621.56 874.045 1626.41C889.227 1631.71 905.221 1634.65 920.86 1638.68C937.02 1642.86 953.138 1647.23 969.319 1651.3C982.151 1654.55 995.066 1657.5 1008.11 1660.62C983.128 1671.62 957.693 1667.61 932.549 1661.81C886.378 1651.16 840.374 1639.85 794.349 1628.59C790.106 1627.55 785.385 1625.87 782.349 1622.96C765.565 1606.88 745.683 1596.13 724.677 1586.79C719.79 1584.61 716.649 1578.51 711.076 1572.46L711.055 1572.48Z" fill="black"/>
<path d="M1022.35 1745.74C903.808 1747.57 786.447 1742.29 676.969 1690.09C677.177 1688.8 677.385 1687.53 677.593 1686.24C683.499 1687.32 689.468 1688.07 695.271 1689.52C761.282 1706 828.271 1715.94 895.988 1722.43C938.748 1726.52 981.154 1734.05 1023.73 1740.04C1023.27 1741.93 1022.81 1743.85 1022.33 1745.74H1022.35Z" fill="black"/>
<path d="M1632.66 1533.75C1614.13 1564.34 1596.12 1595.27 1576.63 1625.24C1572.18 1632.1 1565.75 1642.94 1552.8 1634.93C1550.95 1633.79 1545.04 1637.94 1541.75 1640.59C1527.86 1651.75 1514.24 1663.26 1500.53 1674.63C1482.77 1689.38 1461.58 1694.62 1439.76 1697.36C1503.3 1642.65 1566.81 1587.95 1630.33 1533.25C1631.1 1533.42 1631.87 1533.56 1632.64 1533.73L1632.66 1533.75Z" fill="black"/>
<path d="M283.769 869.252C245.023 988.422 230.693 1110.46 234.978 1234.96C206.88 1097.26 223.061 976.921 283.769 869.252Z" fill="black"/>
<path d="M848.197 231.056C948.026 185.988 1049.43 154.917 1161.24 198.467C1053.93 197.073 950.022 204.373 848.197 231.056Z" fill="black"/>
<path d="M1040.87 297.734C1117.09 291.37 1251.63 324.022 1330.08 367.926C1298.4 362.747 1268.45 361.707 1241.77 351.828C1228.6 346.962 1216.25 336.334 1201.05 335.045C1175.01 332.798 1148.87 331.655 1122.75 330.448C1111.02 329.908 1099.24 330.365 1087.26 330.365C1089.82 314.413 1089.89 314.247 1075.14 308.985C1064.66 305.242 1053.99 302.039 1040.87 297.755V297.734Z" fill="black"/>
<path d="M310.184 1080.53C318.316 1177.6 343.606 1270.23 371.974 1362.19L367.398 1364.67C355.98 1346.28 341.339 1329.15 333.768 1309.29C308.957 1244.21 301.428 1176.2 306.732 1106.82C307.397 1098.02 308.999 1089.29 310.184 1080.53Z" fill="black"/>
<path d="M330.172 1404.54C316.28 1395.65 311.662 1399.65 310.935 1410.96C270.92 1298.01 238.684 1185.02 264.535 1069.9C268.695 1121.94 270.691 1179.73 278.574 1236.72C286.393 1293.29 298.206 1349.61 330.172 1404.54Z" fill="black"/>
<path d="M1267.79 1698.44C1372.59 1658.17 1471.38 1606.99 1562.86 1534.34C1537.7 1594.03 1360.77 1691.53 1267.79 1698.44Z" fill="black"/>
<path d="M435.594 705.844C449.798 618.016 509.841 573.156 586.002 543.52C559.88 569.87 533.051 595.555 507.865 622.737C482.929 649.649 459.615 678.08 435.594 705.844Z" fill="black"/>
<path d="M762.97 1813.95C736.952 1809.73 714.595 1806.11 692.217 1802.49C692.757 1801.58 693.319 1800.66 693.86 1799.75C689.804 1795.65 686.456 1790.06 681.547 1787.69C650.559 1772.75 617.72 1761.02 588.541 1743.22C567.702 1730.51 551.646 1709.97 533.469 1692.93C534.217 1691.95 534.987 1690.98 535.736 1690C543.472 1692.77 551.292 1695.34 558.925 1698.4C563.022 1700.05 566.849 1702.42 570.717 1704.62C633.588 1740.35 696.459 1776.1 762.97 1813.93V1813.95Z" fill="black"/>
<path d="M736.494 329.886C848.427 292.013 960.858 292.18 1073.87 323.584C1024.12 320.86 974.356 316.014 924.608 316.159C889.294 316.263 854 323.251 818.665 326.932C791.316 329.782 763.905 332.236 736.536 334.856C736.536 333.213 736.515 331.549 736.494 329.906V329.886Z" fill="black"/>
<path d="M1478.74 458.499C1407.22 434.478 1339.33 411.684 1271.45 388.889C1327.98 369.589 1423.33 402.533 1478.74 458.499Z" fill="black"/>
<path d="M1432.42 595.973C1491.51 633.991 1540.49 682.594 1574.41 744.259C1585.66 764.724 1588.05 790.055 1592.25 814.139C1552.32 731.282 1491.16 664.729 1432.42 595.973Z" fill="black"/>
<path d="M1574.28 532.537C1637.45 595.866 1700.75 659.111 1710.47 755.529C1688.03 718.446 1673.43 677.08 1645.66 642.66C1618.15 608.573 1594.06 571.72 1568.46 536.073C1570.4 534.887 1572.33 533.723 1574.28 532.537Z" fill="black"/>
<path d="M1650.79 933.93C1680.08 980.183 1658.41 1127.62 1614.34 1179.57C1624.92 1126.64 1636.32 1073.86 1645.68 1020.7C1649.61 998.423 1649.28 975.4 1650.73 952.71C1651.06 947.594 1650.77 942.457 1650.77 933.93H1650.79Z" fill="black"/>
<path d="M880.809 240.417C977.725 211.01 1200.2 202.025 1246.93 224.424C1221.72 222.698 1197.93 218.684 1174.41 219.911C1119.13 222.802 1063.97 228.001 1008.8 232.681C972.9 235.738 937.108 239.794 901.211 242.851C894.535 243.412 887.609 241.291 880.809 240.417Z" fill="black"/>
<path d="M1085.58 290.433C1051.04 290.433 1016.47 290.932 981.947 289.997C975.105 289.809 968.553 281.782 961.607 281.324C939.957 279.931 918.015 278.641 896.49 280.617C856.704 284.277 817.126 290.288 777.486 295.321C777.091 293.803 776.696 292.284 776.301 290.766C791.171 285.879 805.792 280.055 820.953 276.27C863.214 265.684 906.182 265.31 949.316 269.199C955.721 269.781 962.335 269.012 968.574 270.239C975.25 271.57 981.489 275.189 988.165 276.624C994.758 278.059 1001.73 278.828 1008.46 278.475C1034.79 277.123 1060.81 277.352 1085.6 290.413L1085.58 290.433Z" fill="black"/>
<path d="M191.266 930.898C185.36 950.864 179.807 969.644 174.254 988.424L170.697 988.216C172.236 966.587 173.235 944.916 175.418 923.369C182.219 855.881 198.192 790.847 229.388 730.202C232.383 724.378 237.894 719.865 242.241 714.728L246.172 717.411C241.617 726.791 237.062 736.15 232.508 745.529C233.859 746.299 235.19 747.048 236.542 747.817C244.924 735.484 253.326 723.151 261.707 710.818C262.955 711.525 264.203 712.253 265.451 712.961C264.744 715.394 264.453 718.035 263.309 720.24C249.125 747.401 235.211 774.729 220.403 801.579C201.124 836.519 187.564 873.268 180.93 912.742C179.224 922.912 177.29 930.586 191.245 930.919L191.266 930.898Z" fill="black"/>
<path d="M548.732 1494.92C628.928 1546.52 709.123 1598.12 789.339 1649.69L786.157 1654.56C693.775 1621.08 618.675 1561.45 548.753 1494.92H548.732Z" fill="black"/>
<path d="M325.39 642.704C317.258 664.042 310.728 686.17 300.682 706.573C265.451 778.075 229.035 848.994 194.428 917.377C199.086 884.33 209.776 849.93 227.454 817.445C256.488 764.078 284.564 710.171 313.14 656.534C315.906 651.355 319.192 646.447 322.229 641.414C323.289 641.851 324.329 642.267 325.39 642.704Z" fill="black"/>
<path d="M1868.28 1012.36C1874.48 1089.68 1860.31 1162.6 1820.61 1228.76C1816.85 1216.24 1855.78 1036.96 1868.28 1012.36Z" fill="black"/>
<path d="M912.337 1713.84C805.791 1709.04 703.176 1689.76 612.291 1629.96C612.769 1628.65 613.248 1627.32 613.726 1626.01C617.782 1627.86 621.962 1629.48 625.872 1631.63C689.804 1666.46 759.101 1683.31 830.707 1691.75C859.22 1695.12 887.401 1698.43 912.337 1713.84Z" fill="black"/>
<path d="M427.834 557.39C440.728 537.84 451.772 517.396 473.173 504.918C515.537 480.252 557.216 454.401 600.745 431.398C547.69 479.774 491.786 523.989 427.834 557.369V557.39Z" fill="black"/>
<path d="M1569.02 868.293C1606.96 947.365 1624.68 1027.87 1587.01 1112.44C1591.17 1030.24 1594.37 948.135 1569.02 868.293Z" fill="black"/>
<path d="M974.4 1688.82C1035.88 1685.82 1095.36 1682.77 1154.86 1680.33C1158.83 1680.17 1162.99 1684.7 1168.21 1687.72C1103.22 1715.15 1039.81 1714.88 974.4 1688.82Z" fill="black"/>
<path d="M495.993 1558.56C491.231 1556.01 489.941 1555.26 488.61 1554.59C449.615 1535.27 425.656 1504.07 413.635 1462.52C407.77 1442.28 399.451 1422.76 392.234 1402.91C393.607 1401.94 394.98 1400.96 396.352 1399.96C405.004 1410.36 415.132 1419.84 422.016 1431.3C445.435 1470.24 467.709 1509.83 490.42 1549.18C491.605 1551.24 492.832 1553.26 495.993 1558.56Z" fill="black"/>
<path d="M1800.39 744.425C1764.21 692.639 1715.98 647.383 1708.53 576.193C1758.15 624.548 1779.31 684.465 1800.39 744.425Z" fill="black"/>
<path d="M605.697 480.583C663.847 423.827 734.205 394.689 806.06 381.316C749.366 410.849 688.117 442.898 626.64 474.552C620.296 477.817 612.705 478.628 605.676 480.583H605.697Z" fill="black"/>
<path d="M1652.42 507.184C1626.28 490.192 1602.03 473.991 1577.24 458.684C1572.75 455.918 1565.97 456.833 1560.25 456.001C1557.92 455.668 1555.36 455.689 1553.34 454.67C1514.2 434.746 1475.14 414.676 1436.08 394.606C1434.42 393.754 1433.03 392.381 1431.2 391.009C1470.3 385.289 1640.77 473.908 1652.42 507.204V507.184Z" fill="black"/>
<path d="M1682.62 1014.94C1672.91 959.263 1666.73 901.009 1651.9 845.043C1637.17 789.555 1613.76 736.376 1594.98 681.096C1603.34 694.073 1614.15 706.094 1619.62 720.195C1652.65 805.299 1675.73 893.106 1686.61 983.846C1687.94 994.972 1683.78 1006.76 1682.62 1014.94Z" fill="black"/>
<path d="M1272.84 1860.79C1228.15 1882.94 1044.51 1878.51 993.928 1855.21C1088.66 1857.61 1180.48 1870.25 1272.84 1860.79Z" fill="black"/>
<path d="M856.662 347.417C821.951 358.128 779.129 369.421 737.721 384.624C696.791 399.661 657.338 418.649 616.721 436.119C657.422 388.243 794.353 340.097 856.662 347.417Z" fill="black"/>
<path d="M1554.94 571.66C1509.62 530.481 1465.51 489.489 1408.25 466.3C1409.44 464.262 1410.62 462.224 1411.81 460.186C1451.64 477.344 1492.53 492.463 1530.61 512.845C1542.23 519.063 1546.54 539.507 1553.3 553.858C1555.33 558.184 1554.36 563.924 1554.96 571.681L1554.94 571.66Z" fill="black"/>
<path d="M1365.74 662.338C1414.06 688.813 1438.89 727.497 1447.42 776.579C1443.76 778.95 1439.41 781.757 1433.48 785.584C1404.63 750.416 1392.93 703.787 1365.72 662.338H1365.74Z" fill="black"/>
<path d="M1459.96 556.703C1401.87 514.962 1329.16 497.679 1276.52 446.975C1348.34 465.568 1406.61 507.038 1459.96 556.703Z" fill="black"/>
<path d="M229.865 878.732C211.314 962.692 192.43 1048.19 172.797 1137C176.062 1044.57 185.879 957.056 229.865 878.732Z" fill="black"/>
<path d="M468.936 335.521C429.255 374.163 390.405 412.722 350.557 450.22C342.404 457.874 330.508 461.534 319.215 465.361C365.885 418.358 400.72 358.004 468.936 335.521Z" fill="black"/>
<path d="M1598.49 910.492C1575.24 851.843 1551.97 793.194 1528.71 734.565L1533.87 732.527C1564.92 788.036 1605.35 839.822 1602.15 909.015C1600.92 909.515 1599.72 910.014 1598.49 910.513V910.492Z" fill="black"/>
<path d="M1730.43 454.216C1692.18 433.231 1657.7 407.297 1627.73 375.456C1626.71 374.374 1624.72 373.085 1624.9 372.211C1629.73 347.587 1605.65 350.727 1594.94 341.202C1590.65 337.396 1585.12 335.004 1578.19 330.762C1602.51 331.302 1618.42 343.49 1633.41 357.175C1667.23 388.038 1700.9 419.089 1734.61 450.077C1733.22 451.45 1731.85 452.843 1730.45 454.216H1730.43Z" fill="black"/>
<path d="M1217.06 1765.35C1147.14 1790 1079.43 1779.37 1007.51 1774.42C1078.7 1766.49 1145.29 1755.22 1217.06 1765.35Z" fill="black"/>
<path d="M1622.91 1462.52C1663.8 1396.8 1704.7 1331.1 1745.59 1265.38C1715.83 1337.82 1682.18 1407.91 1628.17 1465.75C1626.4 1464.66 1624.65 1463.6 1622.89 1462.52H1622.91Z" fill="black"/>
<path d="M392.714 1388.59C389.761 1383.51 385.476 1378.77 384.083 1373.3C365.074 1298.45 344.983 1223.81 328.387 1148.4C320.567 1112.92 318.986 1076 315.846 1039.61C314.723 1026.57 317.343 1013.21 321.149 999.924C323.188 1025.36 325.08 1050.79 327.326 1076.21C331.361 1121.92 331.319 1168.49 347.978 1212.06C363.493 1252.61 362.828 1296.79 378.093 1337.28C384.291 1353.71 389.469 1370.56 395.106 1387.2C394.315 1387.65 393.504 1388.11 392.714 1388.57V1388.59Z" fill="black"/>
<path d="M1598.78 1173.71C1592.81 1258.04 1533.46 1313.74 1491.95 1378.98C1490.72 1378.35 1489.51 1377.75 1488.29 1377.13C1495.07 1363.23 1499.83 1347.8 1508.98 1335.7C1543.81 1289.71 1570.96 1239.74 1592.15 1186.31C1593.9 1181.92 1596.54 1177.91 1598.78 1173.71Z" fill="black"/>
<path d="M1475.45 380.155C1411.08 361.333 1345.72 345.048 1287.57 306.178C1354.54 322.254 1417.62 344.445 1475.45 380.155Z" fill="black"/>
<path d="M1696.63 612.857C1672.36 587.629 1645.33 564.44 1624.8 536.467C1610.78 517.375 1596.35 501.923 1575.59 491.191C1563.72 485.056 1553.07 476.57 1540.21 468.043C1543.98 467.17 1545.23 466.483 1545.75 466.837C1584.39 493.25 1623.09 519.58 1661.55 546.263C1683.57 561.528 1692.33 585.113 1699.94 609.238C1698.84 610.444 1697.74 611.65 1696.63 612.857Z" fill="black"/>
<path d="M294.796 1140.54C288.806 1069.76 281.881 998.968 299.309 928.859C301.555 928.943 303.802 929.005 306.048 929.088C303.573 999.509 301.098 1069.95 298.644 1140.37L294.817 1140.56L294.796 1140.54Z" fill="black"/>
<path d="M1840.43 903.59C1852.37 918.481 1854.03 935.285 1851.2 952.776C1842.16 1008.72 1832.88 1064.63 1823.54 1120.53C1823.08 1123.27 1821.32 1125.81 1821.71 1124.88C1827.74 1053.56 1834.04 978.919 1840.43 903.59Z" fill="black"/>
<path d="M582.654 1313.34C542.972 1269.89 517.308 1220.75 522.029 1161.45C543.284 1210.29 565.329 1260.89 587.375 1311.51C585.815 1312.13 584.234 1312.73 582.674 1313.36L582.654 1313.34Z" fill="black"/>
<path d="M1595.99 1290.79C1602.56 1276.09 1609.32 1261.47 1615.56 1246.6C1616.93 1243.31 1616.41 1239.26 1616.77 1235.55C1612.94 1235.22 1609.14 1234.91 1605.12 1234.58C1622.9 1197.7 1640.94 1160.25 1658.99 1122.79C1662.07 1187.59 1622.65 1236.74 1595.97 1290.79H1595.99Z" fill="black"/>
<path d="M309.851 584.949C295.001 604.083 279.798 622.926 265.448 642.434C256.068 655.183 245.836 667.952 239.784 682.303C230.383 704.577 214.723 718.116 192.781 725.166C195.298 703.932 263.285 620.097 309.83 584.949H309.851Z" fill="black"/>
<path d="M747.243 97.0762C685.017 135.177 621.439 170.533 552.578 195.407C613.515 154.748 678.923 122.99 747.243 97.0762Z" fill="black"/>
<path d="M328.236 945.787C344.188 880.857 355.855 814.367 397.471 758.838C398.844 759.337 400.196 759.836 401.569 760.335C378.296 822.582 355.024 884.809 331.772 947.056C330.607 946.64 329.422 946.203 328.257 945.787H328.236Z" fill="black"/>
<path d="M159.967 920.141C162.192 894.602 163.981 869.021 166.809 843.565C169.326 820.979 174.213 798.621 175.877 775.994C177.666 751.64 192.453 739.494 216.765 727.951C185.069 791.03 169.908 854.733 159.967 920.141Z" fill="black"/>
<path d="M688.017 1533.77C648.357 1527.33 571.468 1463.89 546.428 1417.2C594.262 1456.59 640.017 1494.26 688.017 1533.77Z" fill="black"/>
<path d="M1736.92 941.314C1728.47 893.043 1698.9 849.701 1703.33 795.939C1739.37 840.238 1738.1 890.797 1736.92 941.314Z" fill="black"/>
<path d="M134.404 830.236C125.295 919.915 128.872 1009.45 132.845 1098.96C120.054 1009.14 113.669 919.375 134.404 830.236Z" fill="black"/>
<path d="M331.939 534.825C287.973 583.658 244.007 632.491 200.041 681.323C235.334 624.796 270.898 568.497 328.84 532.08C329.88 532.995 330.899 533.91 331.939 534.825Z" fill="black"/>
<path d="M1746.76 1431.78C1760.57 1392.89 1764.56 1349.88 1795.55 1316.44C1801.97 1353.85 1781.65 1402.06 1746.76 1431.78Z" fill="black"/>
<path d="M1684.63 380.09C1741.77 396.665 1769.74 443.938 1789.89 496.119C1754.89 457.519 1718.78 417.733 1684.63 380.09Z" fill="black"/>
<path d="M504.432 544.58C498.775 551.007 495.177 557.35 489.749 560.948C449.506 587.61 412.445 617.767 382.08 657.365C382.974 625.046 466.393 547.845 504.432 544.58Z" fill="black"/>
<path d="M1559.89 700.999C1525.05 652.666 1479.51 615.75 1429.45 580.207C1498.04 595.784 1533.83 643.182 1559.89 700.999Z" fill="black"/>
<path d="M474.818 1039C478.083 1107.44 466.998 1176.57 492.662 1244.44C478.853 1236.85 474.381 1229.03 473.113 1211.26C472.613 1204.38 474.173 1197.31 473.217 1190.55C472.052 1182.31 469.203 1174.33 467.102 1166.24C466.478 1163.87 465.521 1161.5 465.334 1159.08C462.215 1118.55 465.75 1078.51 474.818 1039.02V1039Z" fill="black"/>
<path d="M1835.56 609.072C1803.59 568.704 1771.65 528.336 1738.69 486.699C1793.72 511.032 1815.7 559.366 1835.56 609.072Z" fill="black"/>
<path d="M320.564 1308.25C342.069 1358.27 363.574 1408.31 385.349 1458.99C344.086 1416.75 326.533 1364.71 320.564 1308.25Z" fill="black"/>
<path d="M1236.03 1968.4C1281.57 1953.07 1327.14 1937.75 1372.69 1922.42C1373.37 1923.77 1374.04 1925.14 1374.73 1926.49C1373.94 1928.01 1373.5 1930.38 1372.27 1930.92C1341.12 1944.32 1310.3 1958.73 1278.43 1970.19C1265.81 1974.72 1250.79 1972.69 1236.86 1973.62L1236.03 1968.4Z" fill="black"/>
<path d="M1880.09 765.928C1856.02 715.12 1831.96 664.332 1807.92 613.523C1839.43 660.692 1877.84 704.575 1883.75 764.16C1882.52 764.742 1881.31 765.346 1880.09 765.928Z" fill="black"/>
<path d="M1124.49 525.926C1175.32 526.134 1224.59 526.716 1256.72 572.388C1213.82 557.309 1169.79 541.836 1124.49 525.926Z" fill="black"/>
<path d="M1564.26 1292.61C1570.96 1316.57 1519.86 1386.8 1471.79 1420.49C1502.78 1377.63 1533.27 1335.45 1564.26 1292.61Z" fill="black"/>
<path d="M1730.97 1054.62C1722.4 994.493 1714.21 937.195 1705.97 879.357C1724.92 903.587 1737.69 991.789 1730.97 1054.62Z" fill="black"/>
<path d="M1299.25 1841.39C1244.31 1849.33 1189.05 1850.77 1133.64 1848.57C1133.43 1846.82 1133.21 1845.05 1133 1843.3C1146.75 1841.22 1160.45 1837.58 1174.22 1837.31C1215.79 1836.52 1257.41 1837.02 1299 1837.02C1299.09 1838.48 1299.17 1839.93 1299.25 1841.39Z" fill="black"/>
<path d="M293.439 783.813C300.115 807.231 285.786 829.089 286.472 852.05C285.12 851.156 283.768 850.261 282.396 849.367C277.529 853.256 270.707 856.168 268.129 861.222C258.936 879.17 251.179 897.867 242.88 916.273C241.508 915.753 240.156 915.233 238.783 914.713C255.172 870.705 271.581 826.719 287.969 782.711L293.418 783.792L293.439 783.813Z" fill="black"/>
<path d="M1367.35 1635.08C1322.51 1660.93 1276.77 1684.54 1224.76 1692.75C1224.13 1691.23 1223.51 1689.69 1222.89 1688.18C1270.28 1668.63 1317.68 1649.1 1365.06 1629.55C1365.83 1631.4 1366.58 1633.25 1367.35 1635.1V1635.08Z" fill="black"/>
<path d="M1627.61 1077.43C1631.77 1008.01 1635.95 938.569 1640.29 866.256C1650.82 939.422 1646.12 1008.95 1627.61 1077.43Z" fill="black"/>
<path d="M455.561 994.764C450.133 1051.1 444.705 1107.47 439.38 1162.87C420.787 1105.74 438.84 1050.44 455.561 994.764Z" fill="black"/>
<path d="M1556.02 1377.5C1586.64 1324.84 1616.29 1273.82 1645.28 1223.99C1632.51 1283.16 1600.84 1333.08 1556.02 1377.5Z" fill="black"/>
<path d="M886.363 154.168C866.48 162.882 846.952 172.511 826.653 180.123C793.107 192.706 759.082 203.978 724.891 214.793C774.826 184.158 828.317 162.737 886.363 154.168Z" fill="black"/>
<path d="M569.968 1652.38C531.471 1640.4 500.254 1616.67 481.516 1584.02C499.277 1593 516.352 1599.72 531.222 1609.68C547.174 1620.37 561.087 1634.1 575.874 1646.52C573.898 1648.47 571.923 1650.45 569.947 1652.4L569.968 1652.38Z" fill="black"/>
<path d="M1507 547.784C1511.24 551.403 1515.63 554.918 1519.73 558.682C1534.99 572.7 1549.97 587.029 1565.44 600.797C1580.89 614.545 1592.13 630.413 1595.08 651.419C1551.99 628.437 1537.62 581.31 1504.26 550.53C1505.17 549.615 1506.09 548.7 1507 547.764V547.784Z" fill="black"/>
<path d="M1382.53 1750.48C1337.9 1767.78 1293.27 1785.09 1248.63 1802.39C1248.13 1801.1 1247.64 1799.81 1247.14 1798.5C1269.85 1777.27 1334.72 1751.9 1381.03 1746.11C1381.53 1747.57 1382.03 1749 1382.53 1750.46V1750.48Z" fill="black"/>
<path d="M871.636 199.924C833.702 217.144 798.034 241.665 750.803 232.992C788.696 207.515 831.476 207.889 871.636 199.924Z" fill="black"/>
<path d="M687.766 105.563C746.54 74.8452 805.688 44.9592 869.744 26.5117C814.672 65.9023 746.997 75.8643 687.766 105.563Z" fill="black"/>
<path d="M462.34 322.544C502.562 284.9 546.903 259.381 596.089 241.953C552.788 269.136 515.27 305.76 462.34 322.544Z" fill="black"/>
<path d="M376.197 901.117C361.867 991.711 364.946 1081.37 392.107 1169.7C350.283 1082.18 362.991 991.67 376.197 901.117Z" fill="black"/>
<path d="M420.101 664.145C411.969 713.705 374.034 736.894 345.084 771.522C347.892 759.044 349.14 750.08 352.155 741.74C353.445 738.184 358.374 735.917 361.639 733.068C364.883 730.218 368.606 727.764 371.31 724.457C386.887 705.469 402.236 686.294 420.08 664.165L420.101 664.145Z" fill="black"/>
<path d="M1463.16 954.371C1460.95 947.508 1457.69 940.791 1456.77 933.761C1454.09 913.171 1453.47 892.291 1449.93 871.868C1446.42 851.569 1440.39 831.728 1436.37 811.492C1466.44 854.585 1468.07 903.792 1467.61 953.477C1466.13 953.768 1464.66 954.08 1463.18 954.371H1463.16Z" fill="black"/>
<path d="M1653.63 334.792C1611.57 329.571 1583.6 299.852 1550.32 276.434C1576.45 277.785 1634.45 311.041 1653.63 334.792Z" fill="black"/>
<path d="M1890.37 1046.63V876.777C1892.07 876.507 1893.76 876.216 1895.46 875.945C1897.64 887.717 1902.16 899.592 1901.62 911.239C1899.47 956.432 1895.71 1001.56 1892.55 1046.71C1891.82 1046.67 1891.09 1046.65 1890.37 1046.61V1046.63Z" fill="black"/>
<path d="M1527.9 1081.22C1526.05 1124.38 1526.7 1167.99 1495 1205.26C1496.17 1159.75 1517.46 1121.78 1527.9 1081.22Z" fill="black"/>
<path d="M825.261 1375.36C795.479 1378.85 724.476 1338.25 708.67 1308.18C748.102 1330.91 786.515 1353.02 825.261 1375.36Z" fill="black"/>
<path d="M1902.15 1089.5C1905.52 1049.71 1908.89 1009.91 1912.7 965.129C1917.52 971.618 1922 974.904 1922.43 978.647C1926.97 1017.35 1919.27 1054.16 1902.15 1089.48V1089.5Z" fill="black"/>
<path d="M188.289 1367C194.653 1384.88 207.464 1403.37 205.904 1420.55C203.305 1448.98 223.561 1465.81 230.196 1488.85C230.716 1490.62 231.069 1492.45 232.276 1497.4C197.856 1458.73 182.632 1416.76 188.309 1367H188.289Z" fill="black"/>
<path d="M1132.38 280.887C1187.63 282.447 1240.75 292.617 1289.38 320.797C1237.05 307.487 1184.7 294.197 1132.38 280.887Z" fill="black"/>
<path d="M1709.21 1133.63C1705.97 1076 1702.72 1018.37 1699.46 960.741C1700.81 960.678 1702.18 960.616 1703.54 960.574C1714.95 1017.87 1717.74 1075.56 1709.21 1133.65V1133.63Z" fill="black"/>
<path d="M502.501 1130.47C508.907 1172.84 515.334 1215.2 521.739 1257.56C499.278 1217.47 490.896 1175.37 502.501 1130.47Z" fill="black"/>
<path d="M610.417 1053.27C615.783 1083.82 621.169 1114.37 627.013 1147.6C599.145 1127.7 594.112 1098.19 610.417 1053.27Z" fill="black"/>
<path d="M1503.55 788.578C1488.12 757.403 1472.69 726.227 1457.26 695.051C1458.52 694.428 1459.79 693.804 1461.06 693.18C1488.37 718.428 1504.84 749.104 1503.53 788.578H1503.55Z" fill="black"/>
<path d="M1389.81 1503.89C1419.19 1483.57 1445.73 1465.23 1472.25 1446.88C1456.23 1480.39 1432.9 1503.37 1389.81 1503.89Z" fill="black"/>
<path d="M1578.46 563.921C1606.27 603.645 1634.07 643.368 1661.88 683.07C1631.16 660.734 1587.47 599.381 1575.49 566.313C1576.49 565.502 1577.46 564.711 1578.46 563.9V563.921Z" fill="black"/>
<path d="M484.359 844.836C495.528 795.234 508.901 747.212 546.211 708.57C525.164 754.97 504.762 799.892 484.359 844.836Z" fill="black"/>
<path d="M188.25 582.681C170.364 627.043 170.593 678.35 133.969 715.516C150.669 670.697 167.39 625.899 184.091 581.08C185.484 581.6 186.857 582.141 188.25 582.661V582.681Z" fill="black"/>
<path d="M349.512 1359.28C390.732 1386.01 387.758 1434.3 408.722 1471.28C407.142 1472.02 405.582 1472.77 404.001 1473.52C385.845 1435.44 367.668 1397.36 349.512 1359.28Z" fill="black"/>
<path d="M283.211 662.879C289.596 623.135 318.421 598.781 344.501 572.514C345.666 573.304 346.831 574.115 348.016 574.905C327.759 605.145 307.502 635.364 287.266 665.604C285.915 664.688 284.584 663.794 283.232 662.879H283.211Z" fill="black"/>
<path d="M1145.73 1618.91C1095.54 1638.12 1045.67 1639.12 995.234 1634.9C995.11 1633.65 995.006 1632.38 994.881 1631.14C1044.4 1627.12 1093.9 1623.11 1145.73 1618.91Z" fill="black"/>
<path d="M355.962 1674.66C314.47 1657.61 295.149 1634.48 286.664 1593.76C309.583 1620.52 331.67 1646.31 355.962 1674.66Z" fill="black"/>
<path d="M443.582 1435.4C476.318 1456.84 491.292 1493.24 515.833 1521.59C514.294 1522.9 512.776 1524.21 511.237 1525.54C486.696 1497.3 462.154 1469.05 437.613 1440.81C439.61 1439 441.586 1437.21 443.582 1435.4Z" fill="black"/>
<path d="M1233.76 176.233C1280.25 174.174 1318.31 198.86 1363.1 211.276C1335.84 214.334 1280.25 198.694 1233.76 176.233Z" fill="black"/>
<path d="M1684.71 1451.54C1701.56 1418.56 1714.58 1382.97 1751.29 1363.55C1730.64 1393.89 1709.96 1424.21 1689.31 1454.56C1687.77 1453.56 1686.25 1452.54 1684.71 1451.54Z" fill="black"/>
<path d="M1803.8 899.387C1800.89 896.621 1796.05 894.25 1795.36 891.006C1789.33 862.679 1784.03 834.187 1777.87 802.408C1804.97 831.338 1801.85 865.362 1807.61 896.829C1806.34 897.682 1805.07 898.534 1803.82 899.387H1803.8Z" fill="black"/>
<path d="M304.653 1282.42C288.577 1230.4 281.506 1177.02 285.291 1122.36C291.738 1175.71 298.206 1229.07 304.653 1282.42Z" fill="black"/>
<path d="M1212.24 1585.62C1170.72 1604.32 1126.15 1609.73 1080.73 1611.43C1124.05 1601.22 1167.38 1591.01 1210.7 1580.8C1211.22 1582.4 1211.72 1584 1212.24 1585.62Z" fill="black"/>
<path d="M992.242 1725.06C1041.1 1739.14 1090.78 1733.4 1140.24 1732.49C1089.97 1752.43 1041.14 1737.79 992.242 1725.06Z" fill="black"/>
<path d="M520.469 1303.92C538.334 1331.35 556.178 1358.8 574.043 1386.23C539.623 1369.97 525.107 1340.27 520.469 1303.92Z" fill="black"/>
<path d="M983.86 31.9578C933.426 46.4953 882.991 61.0328 833.764 75.2375C852.731 58.9322 952.06 28.7758 983.86 31.9578Z" fill="black"/>
<path d="M1657.3 730.117C1681.1 753.91 1697.34 781.009 1693.87 818.632C1679.56 788.475 1666.02 759.92 1652.48 731.365C1654.1 730.949 1655.7 730.533 1657.32 730.117H1657.3Z" fill="black"/>
<path d="M975.538 1518.47H1088.3C1088.3 1519.85 1088.3 1521.24 1088.3 1522.61C1050.74 1534.57 1013.12 1525.15 975.518 1518.47H975.538Z" fill="black"/>
<path d="M1278.81 645.031C1304.29 666.64 1340.87 681.344 1352.54 721.545C1327.25 695.299 1301.96 669.052 1278.81 645.031Z" fill="black"/>
<path d="M1422.11 286.252C1465.53 306.114 1515.26 312.374 1553.92 349.373C1507.59 328.866 1463.93 309.524 1420.28 290.203C1420.9 288.893 1421.51 287.562 1422.13 286.252H1422.11Z" fill="black"/>
<path d="M846.433 1527.55C844.81 1528.8 842.897 1531.38 841.649 1531.09C812.678 1524.37 784.31 1516.09 760.705 1496.73C788.553 1503.34 818.335 1504.01 841.816 1523.58C843.355 1524.91 844.894 1526.24 846.453 1527.57L846.433 1527.55Z" fill="black"/>
<path d="M1788.16 1233.68C1779.7 1263.34 1772.28 1293.37 1762.19 1322.49C1758.53 1333.03 1748.46 1341.37 1741.33 1350.73C1740.04 1349.88 1738.73 1349.02 1737.44 1348.19C1754.02 1309.88 1770.57 1271.55 1787.15 1233.24C1787.48 1233.39 1787.83 1233.56 1788.16 1233.7V1233.68Z" fill="black"/>
<path d="M1407.4 1240.2C1379.47 1292.02 1343.14 1337.01 1300.05 1376.61C1335.84 1331.15 1371.63 1285.66 1407.4 1240.2Z" fill="black"/>
<path d="M1816.68 709.424C1835.9 748.461 1857.63 787.352 1853.91 836.913C1840.91 792.385 1828.8 750.894 1816.68 709.424Z" fill="black"/>
<path d="M1528.13 1813.31C1536.47 1807.05 1541.03 1792.49 1556.21 1800.62C1557.54 1801.33 1561.06 1797.96 1563.55 1796.49C1586.64 1782.88 1609.72 1769.26 1632.81 1755.66L1634.7 1759.05C1605.15 1788.71 1567.75 1803.18 1528.13 1813.31Z" fill="black"/>
<path d="M371.267 1268.62C385.617 1304.98 404.21 1340.06 399.677 1382.05C388.612 1344.66 377.527 1307.27 366.463 1269.89L371.267 1268.62Z" fill="black"/>
<path d="M1609.06 1591.66C1631.62 1558.01 1643.35 1517.76 1675.69 1490.08C1655.71 1525.21 1635.72 1560.32 1615.71 1595.44C1613.49 1594.17 1611.26 1592.93 1609.06 1591.66Z" fill="black"/>
<path d="M1594.29 1471.11C1566.42 1509.24 1534.96 1543.66 1488.95 1564.41C1524.97 1532.51 1559.62 1501.81 1594.29 1471.11Z" fill="black"/>
<path d="M505.873 1545.81C534.449 1569.4 563.815 1593.65 593.181 1617.9C556.702 1601.72 522.865 1582.5 505.873 1545.81Z" fill="black"/>
<path d="M1470.17 1114.27C1461.74 1161.83 1445.06 1206.11 1420.29 1247.83C1418.5 1246.46 1417.42 1245.83 1417.51 1245.67C1435 1201.85 1452.59 1158.07 1470.17 1114.29V1114.27Z" fill="black"/>
<path d="M767.379 1474.93C724.598 1459.39 682.504 1442.57 650.455 1408.09C689.43 1430.36 728.404 1452.66 767.379 1474.93Z" fill="black"/>
<path d="M673.539 1197.43C649.039 1184.79 623.541 1114.91 629.864 1079.72C632.256 1123.4 655.632 1159.42 673.539 1197.43Z" fill="black"/>
<path d="M1107.79 1945.78C1147.85 1943.03 1187.41 1940.33 1226.96 1937.62C1180.25 1955.07 1144.63 1956.95 1107.79 1945.78Z" fill="black"/>
<path d="M622.979 1509.55C574.999 1478.44 537.501 1438.05 512.17 1386.82C544.115 1432.31 579.887 1474.3 622.979 1509.55Z" fill="black"/>
<path d="M1560.31 1395.29C1536.8 1420.41 1513.3 1445.56 1489.78 1470.68C1491.53 1452.4 1532.67 1407.62 1557.12 1392.06L1560.31 1395.31V1395.29Z" fill="black"/>
<path d="M1345.53 1958.1C1362.89 1950.3 1380.18 1942.3 1397.67 1934.79C1415.16 1927.3 1432.88 1920.33 1451.62 1915.88C1417.15 1932.1 1385.33 1954.82 1347.19 1962.03C1346.63 1960.72 1346.07 1959.39 1345.53 1958.08V1958.1Z" fill="black"/>
<path d="M1171.06 260.881C1127.51 257.179 1083.96 253.456 1040.41 249.754C1040.45 248.964 1040.47 248.173 1040.51 247.404C1064.39 246.114 1088.27 244.825 1112.14 243.556C1113.62 243.473 1115.78 243.078 1116.47 243.847C1131.46 260.485 1153.32 253.081 1171.06 260.901V260.881Z" fill="black"/>
<path d="M1412.6 875.554C1404.62 847.415 1396.63 819.297 1388.08 789.182C1408.53 801.681 1420.11 839.096 1416.43 874.597C1415.16 874.93 1413.87 875.242 1412.6 875.575V875.554Z" fill="black"/>
<path d="M1246.29 542.125C1280.5 547.47 1305 564.857 1318.08 599.755C1293.08 579.685 1269.68 560.905 1246.29 542.125Z" fill="black"/>
<path d="M443.852 1289.42C461.966 1318.89 480.102 1348.36 498.216 1377.83C476.317 1366.1 444.559 1314.3 443.852 1289.42Z" fill="black"/>
<path d="M861.029 1512.21C898.423 1521.26 935.796 1530.28 977.329 1540.33C933.654 1540.39 895.99 1532.2 859.844 1516.66C860.239 1515.18 860.634 1513.69 861.05 1512.21H861.029Z" fill="black"/>
<path d="M1044.92 1443.82C1013.89 1459.05 983.902 1441.93 953.434 1439.44C953.496 1437.81 953.558 1436.21 953.621 1434.59C968.616 1435.75 983.59 1437.4 998.606 1437.96C1013.91 1438.54 1029.24 1438.08 1044.57 1438.08C1044.69 1440 1044.8 1441.91 1044.92 1443.82Z" fill="black"/>
<path d="M1627.46 945.389C1622.8 904.397 1618.12 863.405 1613.32 821.165C1621.72 816.652 1623.24 825.304 1623.99 831.377C1626.02 847.994 1627.54 864.715 1628.08 881.457C1628.75 902.609 1628.25 923.801 1628.25 944.973C1628 945.119 1627.73 945.264 1627.48 945.389H1627.46Z" fill="black"/>
<path d="M1048.68 1792.53C1035.75 1800.14 961.334 1791.37 909.59 1775.02C955.344 1780.78 1001.12 1786.54 1048.68 1792.53Z" fill="black"/>
<path d="M120.22 1230.86C114.48 1188.95 108.74 1147.04 103 1105.12C104.664 1104.87 106.348 1104.62 108.012 1104.37C114.501 1146.07 120.99 1187.74 127.458 1229.44C125.045 1229.9 122.612 1230.38 120.2 1230.84L120.22 1230.86Z" fill="black"/>
<path d="M1494.36 1744.66C1514.09 1728.87 1533.81 1713.07 1553.55 1697.28C1554.44 1698.38 1555.33 1699.49 1556.23 1700.61C1539.94 1720.64 1528.75 1746.92 1494.36 1744.66Z" fill="black"/>
<path d="M1359.8 1280.17C1339.04 1308.39 1315.29 1333.54 1285.8 1352.73C1284.45 1351.36 1283.09 1350.01 1281.74 1348.63C1305.45 1323.49 1329.16 1298.37 1352.87 1273.22C1355.18 1275.53 1357.49 1277.84 1359.82 1280.17H1359.8Z" fill="black"/>
<path d="M1612.9 1670.89C1592.79 1690.74 1590.09 1721.6 1559.47 1726.69C1577.24 1692.23 1592.46 1675.14 1612.9 1670.89Z" fill="black"/>
<path d="M605.076 976.773C607.087 997.113 599.676 1019.39 582.844 1043.6C579.246 1017.22 591.121 998.694 605.076 976.773Z" fill="black"/>
<path d="M1723.42 537.612C1703.79 520.496 1684.16 503.379 1664.52 486.242C1697.05 488.468 1712.5 510.638 1723.42 537.612Z" fill="black"/>
<path d="M1380.99 842.506C1360.19 811.31 1341.49 783.337 1323.01 755.198C1322.4 754.283 1324.02 751.912 1326.31 745.34C1342.87 780.321 1371.69 803.261 1380.99 842.485V842.506Z" fill="black"/>
<path d="M1157.71 383.939C1186.54 382.546 1215.26 381.672 1240.24 402.407C1212.51 397.52 1184.77 392.612 1157.04 387.724C1157.27 386.455 1157.48 385.208 1157.71 383.939Z" fill="black"/>
<path d="M1494.69 483.604C1463.28 471.084 1431.88 458.584 1400.5 446.022C1398.31 445.149 1396.32 443.776 1394.67 441.676C1430.22 450.369 1464.72 461.454 1497.21 477.51C1496.37 479.548 1495.54 481.586 1494.71 483.624L1494.69 483.604Z" fill="black"/>
<path d="M1198.51 1407.74C1222.78 1396.13 1247.07 1384.53 1273.24 1372.01C1259.76 1392.78 1225.78 1410.69 1200.43 1411.73C1199.78 1410.4 1199.16 1409.07 1198.51 1407.74Z" fill="black"/>
<path d="M779.687 1867.77C817.06 1872.63 854.433 1877.52 891.806 1882.39C891.494 1884.42 891.203 1886.46 890.891 1888.52C853.31 1883.43 815.729 1878.33 778.127 1873.24C778.647 1871.41 779.167 1869.6 779.666 1867.77H779.687Z" fill="black"/>
<path d="M480.229 706.443C465.421 730.86 450.613 755.276 435.805 779.672C433.913 778.507 432.041 777.363 430.148 776.198C445.705 752.24 451.986 722.541 476.61 704.197C477.816 704.946 479.002 705.674 480.208 706.423L480.229 706.443Z" fill="black"/>
<path d="M539.996 555.584C554.887 526.322 585.023 522.932 609.834 510.516C610.791 512.179 611.768 513.864 612.725 515.528C588.475 528.88 564.246 542.232 539.996 555.563V555.584Z" fill="black"/>
<path d="M1819.18 835.082C1817.24 828.635 1815.81 821.98 1813.25 815.782C1804.04 793.446 1794.43 771.275 1785.03 749.022C1784.11 746.859 1783.42 744.571 1782.16 740.994C1803.22 759.712 1821.73 804.697 1819.18 835.082Z" fill="black"/>
<path d="M617.53 1347.07C637.35 1363.67 657.17 1380.25 676.99 1396.84C675.929 1398.15 674.848 1399.48 673.787 1400.79C652.886 1385.38 625.724 1377.98 613.287 1351.82C614.701 1350.24 616.116 1348.65 617.53 1347.07Z" fill="black"/>
<path d="M145.924 979.522V852.969C147.837 853.01 149.73 853.073 151.643 853.114C149.397 902.737 147.151 952.36 145.924 979.501V979.522Z" fill="black"/>
<path d="M1454.36 1738.44C1475.43 1723.28 1496.48 1708.1 1517.55 1692.94C1518.46 1694.25 1519.38 1695.58 1520.29 1696.89C1501.7 1715.65 1483.92 1735.57 1456.9 1742.12C1456.05 1740.9 1455.22 1739.67 1454.36 1738.44Z" fill="black"/>
<path d="M672.774 520.205C655.72 533.266 648.316 558.681 623.234 560.74C638.417 545.329 648.462 523.366 672.774 520.205Z" fill="black"/>
<path d="M1338.38 270.485C1307.51 262.353 1276.65 254.2 1245.79 246.068C1278.67 246.214 1311.05 248.252 1338.38 270.485Z" fill="black"/>
<path d="M1425.56 255.121C1455.9 250.753 1478.99 263.252 1498.43 284.508C1474.14 274.712 1449.85 264.916 1425.56 255.121Z" fill="black"/>
<path d="M1893.61 1515.93C1892.3 1537.35 1892.78 1557.4 1871 1569.96C1874.18 1554.24 1876.01 1540.28 1880.21 1527.08C1881.69 1522.42 1888.97 1519.59 1893.61 1515.93Z" fill="black"/>
<path d="M1319.43 1791.75C1349.23 1778.01 1377.58 1764.93 1405.93 1751.84C1380.87 1771.6 1356.47 1792.75 1319.43 1791.75Z" fill="black"/>
<path d="M728.611 195.538C701.658 207.746 681.214 231.933 650.974 238.089C650.225 236.738 649.477 235.365 648.707 234.013C674.517 219.642 700.306 205.271 726.115 190.879C726.947 192.439 727.758 193.978 728.59 195.538H728.611Z" fill="black"/>
<path d="M257.256 1280.32C264.182 1305.88 270.671 1329.86 277.18 1353.81C262.289 1332.08 244.695 1311.1 257.256 1280.32Z" fill="black"/>
<path d="M1577.53 1191.45C1587.74 1161.44 1597.95 1131.43 1609.2 1098.38C1613.17 1136.23 1593.69 1163.16 1577.53 1191.45Z" fill="black"/>
<path d="M419.122 829.465C409.971 861.535 400.799 893.584 391.524 926.111C386.969 905.106 401.236 852.633 419.122 829.465Z" fill="black"/>
<path d="M905.45 1694.37C926.976 1699.13 948.522 1703.88 970.047 1708.64C969.673 1710.57 969.299 1712.51 968.924 1714.46C945.34 1720.41 925.624 1705.46 904.119 1700.11C904.556 1698.2 905.013 1696.28 905.45 1694.37Z" fill="black"/>
<path d="M1740.4 1082.09C1734.53 1116.03 1728.69 1149.95 1722.82 1183.89C1720.89 1183.56 1718.95 1183.21 1717 1182.87C1723.22 1148.97 1729.44 1115.05 1735.65 1081.15C1737.23 1081.46 1738.81 1081.78 1740.4 1082.11V1082.09Z" fill="black"/>
<path d="M859.365 90.7745C885.091 69.5818 916.662 65.1311 947.172 57.6855C947.609 58.975 948.066 60.2644 948.503 61.5539C918.783 71.2872 889.063 81.0412 859.344 90.7745H859.365Z" fill="black"/>
<path d="M289.242 427.844C275.536 445.355 261.831 462.867 248.104 480.378C246.732 479.317 245.359 478.236 243.986 477.175C253.033 456.024 265.366 437.41 285.81 425.057C286.954 425.993 288.077 426.908 289.221 427.844H289.242Z" fill="black"/>
<path d="M1158 654.037C1134.62 644.345 1111.27 634.633 1087.89 624.941C1088.47 623.568 1089.06 622.217 1089.62 620.844C1118.46 618.119 1137.41 638.834 1160.08 650.709C1159.39 651.811 1158.69 652.934 1158 654.037Z" fill="black"/>
<path d="M842.127 791.01C865.171 774.663 889.67 761.27 917.955 758.379C918.516 759.876 919.057 761.374 919.619 762.85C893.788 772.23 867.958 781.631 842.127 791.01Z" fill="black"/>
<path d="M1677.04 833.811C1684.59 866.4 1692.12 898.969 1699.67 931.559C1697.55 932.037 1695.41 932.537 1693.28 933.015C1686.44 900.488 1679.6 867.96 1672.78 835.412C1674.21 834.871 1675.63 834.351 1677.06 833.811H1677.04Z" fill="black"/>
<path d="M1144.17 374.893C1123.97 368.737 1106.67 363.475 1089.34 358.193C1110.56 350.206 1138.68 357.839 1144.17 374.893Z" fill="black"/>
<path d="M555.409 1308.17C573.254 1320.71 595.757 1327.99 600.582 1355.23C584.38 1340.84 568.158 1326.47 551.957 1312.08C553.122 1310.77 554.266 1309.48 555.43 1308.17H555.409Z" fill="black"/>
<path d="M362.199 576.523C377.339 555.871 388.403 531.975 410.178 516.543C411.364 517.458 412.529 518.373 413.714 519.267C398.261 539.587 382.83 559.906 367.377 580.225C365.651 578.998 363.925 577.75 362.178 576.523H362.199Z" fill="black"/>
<path d="M831.041 91.7109C813.301 116.647 785.204 113.715 761.578 122.678C761.099 121.41 760.621 120.162 760.143 118.893C783.769 109.826 807.415 100.779 831.041 91.7109Z" fill="black"/>
<path d="M482.927 350.209C457.991 373.231 433.076 396.254 408.139 419.298C406.891 417.946 405.623 416.594 404.375 415.242C429.249 392.22 454.123 369.197 478.997 346.174L482.927 350.209Z" fill="black"/>
<path d="M614.512 348.934C634.81 339.888 655.109 330.861 675.386 321.814C676.405 324.081 677.424 326.348 678.443 328.594C657.895 337.891 637.347 347.167 616.799 356.463C616.03 353.947 615.281 351.451 614.512 348.934Z" fill="black"/>
<path d="M1420.51 1360.22C1399.73 1385.03 1378.96 1409.82 1358.18 1434.63C1356.93 1433.59 1355.66 1432.55 1354.41 1431.51C1375.09 1406.54 1395.78 1381.54 1416.45 1356.56C1417.8 1357.79 1419.16 1359.01 1420.53 1360.24L1420.51 1360.22Z" fill="black"/>
<path d="M1041.68 541.69C1056.28 532.29 1061.62 532.727 1096.1 545.018C1090.12 554.314 1080.44 553.794 1041.68 541.69Z" fill="black"/>
<path d="M504.083 1459.75C482.037 1454.33 472.346 1438.37 470.037 1416C482.495 1429.62 494.953 1443.24 507.41 1456.86C506.287 1457.84 505.185 1458.8 504.062 1459.77L504.083 1459.75Z" fill="black"/>
<path d="M1645.7 1658.35C1640.58 1682.27 1626.32 1694 1608.85 1703.07C1619.16 1687.99 1623.93 1668.5 1645.7 1658.35Z" fill="black"/>
<path d="M1711.69 1299.51C1727.66 1267.09 1743.62 1234.64 1759.59 1202.22L1764.14 1204.47C1748.05 1236.83 1731.93 1269.19 1715.83 1301.55C1714.46 1300.86 1713.08 1300.2 1711.69 1299.51Z" fill="black"/>
<path d="M1352.81 676.125C1340.54 661.92 1328.27 647.736 1315.98 633.531C1341.37 635.985 1348.8 654.599 1355.95 673.442C1354.89 674.336 1353.85 675.23 1352.79 676.125H1352.81Z" fill="black"/>
<path d="M567.017 312.561C547.571 325.289 528.125 338.038 508.68 350.766C523.592 331.237 539.668 313.455 567.017 312.561Z" fill="black"/>
<path d="M745.085 1412.61C732.981 1421.32 710.706 1407.18 700.162 1386.44C700.973 1385.26 701.805 1384.05 702.616 1382.87C716.571 1392.64 730.506 1402.4 745.085 1412.61Z" fill="black"/>
<path d="M759.267 3.88455C739.967 15.24 720.666 26.5747 701.366 37.9302L697.789 34.3738C701.033 30.1311 703.404 23.975 707.689 22.02C724.077 14.5745 741.069 8.48081 757.832 1.86719C758.31 2.53271 758.788 3.21903 759.267 3.88455Z" fill="black"/>
<path d="M1090.26 371.004C1067.53 366.034 1044.8 361.042 1021.11 355.864C1033.75 348.668 1053.09 351.912 1090.82 366.741C1090.63 368.155 1090.45 369.59 1090.24 371.004H1090.26Z" fill="black"/>
<path d="M1326.83 957.185C1319.7 936.491 1312.59 915.798 1305.45 895.104C1306.62 894.688 1307.8 894.272 1308.97 893.877C1318.76 913.801 1334.51 931.541 1331.22 956.207L1326.81 957.206L1326.83 957.185Z" fill="black"/>
<path d="M924.626 19.0217C911.066 24.7826 897.527 30.5643 883.155 36.6788C880.764 32.6649 878.663 29.1293 875.502 23.8259C892.057 20.6231 907.613 17.6074 923.191 14.5918C923.669 16.0684 924.127 17.5451 924.605 19.0217H924.626Z" fill="black"/>
<path d="M1506.11 239.937C1485.73 229.351 1465.34 218.744 1444.96 208.158C1446 206.162 1447.02 204.186 1448.06 202.189C1468.36 212.942 1488.64 223.694 1508.94 234.446C1508 236.277 1507.06 238.107 1506.11 239.937Z" fill="black"/>
<path d="M1367.47 1030.89V973.465C1379.35 995.074 1379.04 1012.88 1367.47 1030.89Z" fill="black"/>
<path d="M269.195 657.199C269.632 689.331 263.018 700.354 242.158 702.288C251.101 687.376 259.129 673.983 269.195 657.199Z" fill="black"/>
<path d="M336.681 820.523C338.823 789.992 362.262 777.618 375.156 758.297C376.446 759.15 377.756 760.023 379.046 760.876C365.569 779.843 352.113 798.79 336.66 820.523H336.681Z" fill="black"/>
<path d="M375.176 604.413C387.634 584.968 400.091 565.522 412.549 546.076L418.331 549.882C405.457 569.12 392.604 588.358 379.73 607.595C378.212 606.535 376.694 605.474 375.176 604.413Z" fill="black"/>
<path d="M1075.37 1644.75C1048.93 1658.89 1025.31 1651.01 1001.68 1644.75H1075.37Z" fill="black"/>
<path d="M1241.02 1784.51C1219.37 1791.87 1202.03 1810.75 1175.74 1805.78C1197.06 1797.11 1218.38 1788.46 1239.69 1779.79C1240.13 1781.37 1240.59 1782.95 1241.02 1784.51Z" fill="black"/>
<path d="M1806.07 1087.48C1802.91 1112.42 1799.73 1137.36 1796.57 1162.29C1794.8 1162.06 1793.03 1161.83 1791.26 1161.61C1794.34 1136.52 1797.42 1111.44 1800.5 1086.34C1802.37 1086.71 1804.22 1087.09 1806.09 1087.46L1806.07 1087.48Z" fill="black"/>
<path d="M1836.77 1269.67C1829.72 1286.55 1822.67 1303.46 1815.64 1320.35C1811.21 1298.84 1817.07 1281.38 1836.77 1269.67Z" fill="black"/>
<path d="M1216.79 1494.15C1233.47 1484.31 1250.15 1474.45 1266.83 1464.62L1269.41 1468.9C1253.19 1479.65 1240.52 1496.21 1219.18 1498.64C1218.39 1497.14 1217.58 1495.65 1216.79 1494.17V1494.15Z" fill="black"/>
<path d="M332.414 887.675C329.607 862.656 335.014 840.319 354.792 819.355C346.681 844.146 339.548 865.9 332.414 887.675Z" fill="black"/>
<path d="M1676.17 1516.7C1688.21 1495.84 1700.27 1474.98 1712.31 1454.12C1709.34 1480.2 1696.38 1500.54 1676.17 1516.7Z" fill="black"/>
<path d="M1534.47 857.647C1527.88 837.161 1521.31 816.676 1514.71 796.19L1520.75 794.256C1527.26 814.617 1533.77 834.998 1540.3 855.359C1538.36 856.129 1536.43 856.877 1534.47 857.647Z" fill="black"/>
<path d="M1377.91 1490.91C1363.64 1500.33 1349.38 1509.78 1335.11 1519.2C1333.7 1517.01 1332.28 1514.85 1330.87 1512.67C1345.26 1503.2 1359.63 1493.74 1374.02 1484.28C1375.31 1486.48 1376.6 1488.71 1377.91 1490.91Z" fill="black"/>
<path d="M1169.17 1677.21C1190.11 1673.8 1208.85 1670.74 1229.52 1667.38C1207.21 1683.01 1182.4 1687.51 1169.17 1677.21Z" fill="black"/>
<path d="M1003.62 365.016H916.455C916.455 363.872 916.455 362.749 916.455 361.605H1003.68C1003.66 362.749 1003.64 363.872 1003.62 365.016Z" fill="black"/>
<path d="M499.232 1004.64C503.579 980.639 507.926 956.639 512.272 932.639C514.331 933.013 516.411 933.367 518.47 933.741C513.832 957.45 509.194 981.159 504.557 1004.85C502.789 1004.79 501.021 1004.7 499.232 1004.64Z" fill="black"/>
<path d="M1509.08 1758.8C1496.64 1780.45 1477.47 1779.5 1457.56 1785.88C1471.25 1766.08 1490.97 1768.25 1509.08 1758.8Z" fill="black"/>
<path d="M1271.06 675.562C1288.38 690.495 1305.71 705.449 1323.05 720.381C1322.2 721.4 1321.34 722.44 1320.51 723.459C1302.71 709.088 1284.91 694.696 1267.08 680.325C1268.42 678.745 1269.75 677.143 1271.06 675.562Z" fill="black"/>
<path d="M1052.07 504.544H980.842C980.801 503.712 980.78 502.86 980.738 502.028C1004.61 500.946 1028.51 499.865 1052.39 498.783C1052.28 500.717 1052.18 502.631 1052.05 504.565L1052.07 504.544Z" fill="black"/>
<path d="M1906.39 1290.04C1911.61 1274.32 1916.83 1258.62 1923.41 1238.88C1928.15 1262.07 1923.61 1278.09 1906.39 1290.04Z" fill="black"/>
<path d="M1483.73 826.926C1474.77 800.534 1465.82 774.163 1456.86 747.771C1458.29 747.272 1459.75 746.773 1461.19 746.273C1470.29 773.04 1479.42 799.806 1488.53 826.594C1486.93 826.698 1485.33 826.802 1483.71 826.926H1483.73Z" fill="black"/>
<path d="M592.138 1366.15C606.634 1377.07 621.13 1388 635.626 1398.92C634.378 1400.5 633.13 1402.08 631.861 1403.67C615.827 1394.56 600.124 1385.05 589.164 1369.81C590.162 1368.58 591.14 1367.37 592.138 1366.15Z" fill="black"/>
<path d="M1822.58 1361.07C1816.38 1377 1810.16 1392.95 1803.97 1408.88C1801.64 1407.95 1799.33 1406.99 1797 1406.05C1803.49 1390.37 1810 1374.71 1816.49 1359.03C1818.53 1359.69 1820.54 1360.38 1822.58 1361.05V1361.07Z" fill="black"/>
<path d="M1634.04 174.344C1623.64 162.489 1613.22 150.614 1601.57 137.324C1620.29 139.945 1631.6 151.841 1634.04 174.344Z" fill="black"/>
<path d="M1538.2 1246.77C1524.85 1270.33 1511.49 1293.9 1498.16 1317.46C1496.77 1316.69 1495.38 1315.92 1493.98 1315.15C1507.29 1291.57 1520.6 1267.98 1533.91 1244.4C1535.33 1245.19 1536.76 1245.98 1538.18 1246.79L1538.2 1246.77Z" fill="black"/>
<path d="M599.355 870.497L567.805 934.263C566.266 933.535 564.748 932.786 563.209 932.058C573.691 910.616 584.152 889.194 594.634 867.752C596.215 868.667 597.775 869.561 599.355 870.476V870.497Z" fill="black"/>
<path d="M443.725 1564.03C429.25 1548.39 414.754 1532.73 400.279 1517.09C401.527 1515.95 402.796 1514.81 404.044 1513.64C416.356 1531.26 440.231 1538.39 443.725 1564.03Z" fill="black"/>
<path d="M1364.29 715.076C1373.09 727.305 1381.9 739.534 1390.7 751.763C1372.67 749.059 1364.95 738.099 1364.29 715.076Z" fill="black"/>
<path d="M1002.33 1604.03C1024.02 1600.8 1045.71 1597.56 1067.38 1594.34C1067.59 1595.87 1067.8 1597.43 1068.03 1598.97C1047.39 1610.04 1024.62 1605.25 1002.33 1604.03Z" fill="black"/>
<path d="M1433.04 1825.4C1415.34 1842.44 1393.51 1845.64 1370.48 1844.91C1391.34 1838.4 1412.2 1831.91 1433.04 1825.4Z" fill="black"/>
<path d="M1121.89 1563.39C1096 1565.12 1070.11 1566.87 1044.19 1568.59C1044.13 1567.64 1044.05 1566.68 1043.98 1565.72C1069.63 1563.08 1095.25 1560.46 1120.89 1557.82C1121.23 1559.67 1121.56 1561.52 1121.89 1563.39Z" fill="black"/>
<path d="M1514.08 993.123V921.912L1518.88 922.037C1517.82 945.559 1516.78 969.102 1515.72 992.624C1515.16 992.79 1514.62 992.957 1514.05 993.123H1514.08Z" fill="black"/>
<path d="M702.488 698.629C683.187 714.477 663.887 730.346 644.608 746.193C643.589 744.987 642.57 743.781 641.551 742.595C660.643 726.644 679.735 710.692 698.827 694.74L702.488 698.629Z" fill="black"/>
<path d="M1592.17 532.516C1573.6 518.478 1555.02 504.419 1536.45 490.381C1537.64 488.8 1538.84 487.219 1540.03 485.639C1558.37 500.031 1576.69 514.422 1595.04 528.814C1594.08 530.041 1593.12 531.289 1592.15 532.516H1592.17Z" fill="black"/>
<path d="M1450.12 1752.42C1435.81 1760.83 1421.48 1769.25 1407.17 1777.65C1406.25 1776.07 1405.34 1774.49 1404.45 1772.91C1419.11 1765.09 1429.59 1749.91 1448.02 1748.74L1450.12 1752.42Z" fill="black"/>
<path d="M490.913 993.873C497.859 1014.17 499.773 1034.18 485.734 1055.33C487.606 1033.06 489.27 1013.46 490.913 993.873Z" fill="black"/>
<path d="M1358.24 901.531C1365.04 917.981 1371.82 934.453 1378.62 950.904C1376.81 951.673 1375 952.422 1373.19 953.192C1366.22 936.803 1359.26 920.415 1352.29 904.026C1354.26 903.194 1356.26 902.362 1358.24 901.51V901.531Z" fill="black"/>
<path d="M1430.05 1015.27C1429.07 996.594 1428.12 977.939 1427.14 959.263C1428.86 959.2 1430.59 959.117 1432.32 959.055C1433.15 977.731 1433.98 996.428 1434.79 1015.1C1433.21 1015.17 1431.63 1015.23 1430.03 1015.27H1430.05Z" fill="black"/>
<path d="M435.598 1234.91C429.442 1213.18 423.306 1191.42 417.15 1169.69C418.71 1169.25 420.249 1168.81 421.809 1168.36C428.007 1190.11 434.184 1211.89 440.381 1233.64L435.598 1234.91Z" fill="black"/>
<path d="M1686.71 1617.96C1697.4 1602.51 1708.09 1587.06 1718.78 1571.61C1720.51 1572.81 1722.24 1574.02 1723.96 1575.22C1713.02 1590.51 1702.08 1605.78 1691.12 1621.06C1689.65 1620.02 1688.19 1619 1686.71 1617.98V1617.96Z" fill="black"/>
<path d="M1518.86 474.224C1501.18 460.935 1483.5 447.624 1465.82 434.335C1466.61 433.212 1467.42 432.089 1468.21 430.986C1486.16 443.922 1504.11 456.858 1522.06 469.815C1521 471.292 1519.94 472.769 1518.88 474.245L1518.86 474.224Z" fill="black"/>
<path d="M895.742 1850.28C916.248 1853.65 936.776 1857.04 957.282 1860.41L956.533 1865.15C935.86 1861.82 915.167 1858.49 894.494 1855.16L895.721 1850.28H895.742Z" fill="black"/>
<path d="M1295.82 832.811C1303.04 846.766 1310.26 860.721 1319.2 878.004C1301.17 868.458 1296.34 859.494 1295.82 832.811Z" fill="black"/>
<path d="M984.256 158.64C964.873 160.844 945.469 163.028 926.086 165.232C925.878 164.089 925.69 162.945 925.482 161.801C944.824 158.265 964.145 154.75 983.487 151.215C983.757 153.69 984.007 156.165 984.277 158.64H984.256Z" fill="black"/>
<path d="M1068.63 455.257C1048.08 454.238 1027.53 453.219 1007.01 452.221C1007.07 451.618 1007.11 450.994 1007.17 450.391H1068.9C1068.82 452.013 1068.73 453.635 1068.65 455.278L1068.63 455.257Z" fill="black"/>
<path d="M753.734 1532.13C738.594 1525.25 723.453 1518.36 708.312 1511.48C709.165 1509.65 709.997 1507.82 710.85 1505.99C725.949 1512.96 741.048 1519.94 756.147 1526.91C755.336 1528.66 754.546 1530.4 753.734 1532.13Z" fill="black"/>
<path d="M846.429 1527.56C844.89 1526.22 843.351 1524.89 841.791 1523.56C840.564 1522.11 839.337 1520.65 835.76 1516.39C856.537 1524.68 874.194 1531.74 891.83 1538.76C891.497 1539.97 891.164 1541.2 890.832 1542.4C876.024 1537.45 861.216 1532.5 846.408 1527.56H846.429Z" fill="black"/>
<path d="M772.868 1528.26C790.11 1534.4 807.351 1540.53 824.592 1546.67C824.051 1548.25 823.531 1549.83 822.991 1551.41C805.5 1545.63 788.03 1539.87 770.539 1534.09C771.309 1532.15 772.099 1530.22 772.868 1528.28V1528.26Z" fill="black"/>
<path d="M1435.21 1075.81C1431.38 1094.59 1427.56 1113.39 1423.73 1132.17C1422.23 1131.86 1420.74 1131.57 1419.24 1131.26C1422.71 1112.39 1426.18 1093.53 1429.66 1074.67C1431.51 1075.04 1433.36 1075.42 1435.21 1075.79V1075.81Z" fill="black"/>
<path d="M1164.07 240.979C1184.54 243.869 1205.02 246.76 1225.49 249.651L1224.84 254.268C1204.29 251.356 1183.75 248.466 1163.22 245.554C1163.51 244.036 1163.78 242.518 1164.07 240.999V240.979Z" fill="black"/>
<path d="M1315.22 436.517C1332.13 446.229 1349.04 455.942 1365.93 465.654C1365.24 466.902 1364.58 468.171 1363.89 469.419C1346.73 460.372 1329.55 451.304 1312.4 442.257C1313.33 440.344 1314.27 438.43 1315.2 436.496L1315.22 436.517Z" fill="black"/>
<path d="M1413.77 614.212C1428.2 628.105 1442.61 641.998 1457.05 655.89C1455.9 657.076 1454.74 658.24 1453.59 659.426C1441.53 643.162 1429.47 626.898 1417.41 610.635C1416.2 611.82 1414.97 613.006 1413.77 614.212Z" fill="black"/>
<path d="M1071.77 1667.86H1135.14C1115.18 1669.31 1093.59 1670.89 1072 1672.47C1071.92 1670.93 1071.86 1669.39 1071.77 1667.86Z" fill="black"/>
<path d="M1100.66 1542.76C1125.57 1535.98 1150.51 1529.18 1175.43 1522.4C1175.78 1523.92 1176.15 1525.43 1176.51 1526.95C1151.38 1532.98 1126.26 1539.02 1101.14 1545.05C1100.97 1544.3 1100.81 1543.53 1100.64 1542.78L1100.66 1542.76Z" fill="black"/>
<path d="M1624.18 415.49C1640.38 428.426 1656.58 441.383 1672.8 454.319C1672.01 455.359 1671.2 456.42 1670.41 457.46C1653.83 445.106 1637.26 432.731 1620.68 420.378C1621.85 418.755 1623.01 417.133 1624.18 415.49Z" fill="black"/>
<path d="M630.174 1411.59C642.424 1421.76 654.653 1431.91 666.903 1442.08C665.593 1443.66 664.261 1445.26 662.951 1446.84C650.722 1436.58 638.514 1426.33 626.285 1416.06L630.174 1411.59Z" fill="black"/>
<path d="M1250.9 409.105C1265.94 413.556 1280.97 418.007 1296.01 422.437C1295.3 424.641 1294.59 426.825 1293.87 429.03C1279.04 423.997 1264.19 418.943 1249.36 413.91C1249.86 412.308 1250.38 410.707 1250.88 409.105H1250.9Z" fill="black"/>
<path d="M267.964 1596.6C259.5 1580.82 251.035 1565.03 242.57 1549.25C244.151 1548.4 245.732 1547.54 247.291 1546.71C255.569 1562.39 263.846 1578.07 272.103 1593.76C270.709 1594.71 269.337 1595.67 267.943 1596.6H267.964Z" fill="black"/>
<path d="M502.935 1056.07C498.547 1072.82 494.158 1089.56 489.77 1106.3C488.356 1105.99 486.942 1105.68 485.527 1105.34L496.446 1054.97C498.609 1055.33 500.772 1055.68 502.914 1056.05L502.935 1056.07Z" fill="black"/>
<path d="M869.933 544.952C854.834 550.36 839.735 555.767 824.636 561.154C824.074 559.76 823.513 558.388 822.951 556.994C837.593 550.422 852.255 543.871 866.896 537.299L869.933 544.931V544.952Z" fill="black"/>
<path d="M481.684 724.163C489.753 711.164 497.843 698.166 505.913 685.146C507.41 686.062 508.887 686.956 510.384 687.871C502.44 701.077 494.516 714.284 486.571 727.49C484.949 726.367 483.306 725.265 481.684 724.142V724.163Z" fill="black"/>
<path d="M1223.55 1706.2L1181 1711.96C1180.69 1709.91 1180.38 1707.83 1180.04 1705.77C1194.31 1703.56 1208.58 1701.34 1222.84 1699.13C1223.07 1701.48 1223.3 1703.85 1223.53 1706.2H1223.55Z" fill="black"/>
<path d="M1774.93 779.363C1769.28 762.704 1763.64 746.066 1757.98 729.407C1759.27 728.908 1760.56 728.409 1761.85 727.889C1768.18 744.048 1774.5 760.229 1780.84 776.389C1778.87 777.366 1776.91 778.364 1774.93 779.342V779.363Z" fill="black"/>
<path d="M317.34 940.338V883.082H320.418V940.4L317.34 940.338Z" fill="black"/>
<path d="M514.063 382.839C498.32 393.28 482.597 403.72 466.853 414.16C465.979 412.829 465.106 411.498 464.232 410.167C479.955 399.685 495.658 389.224 511.38 378.742C512.275 380.115 513.169 381.467 514.063 382.839Z" fill="black"/>
<path d="M554.159 1292.4C533.882 1285.79 530.492 1271.42 529.41 1251.3C538.499 1266.4 545.674 1278.3 554.159 1292.4Z" fill="black"/>
<path d="M448.968 1427.66C427.027 1420.52 429.356 1401.87 425.051 1387.14C432.6 1399.94 440.15 1412.73 448.968 1427.66Z" fill="black"/>
<path d="M835.721 439.906C858.286 434.603 880.851 429.299 903.417 423.996C903.687 425.119 903.937 426.221 904.207 427.345C881.662 432.731 859.118 438.138 836.553 443.525C836.282 442.319 835.991 441.112 835.721 439.927V439.906Z" fill="black"/>
<path d="M742.837 253.016C729.651 256.073 716.487 259.131 703.301 262.188C702.823 260.17 702.344 258.174 701.887 256.156C715.26 253.037 728.612 249.938 741.984 246.818C742.276 248.877 742.546 250.936 742.837 253.016Z" fill="black"/>
<path d="M1639.34 684.066C1650.59 698.957 1661.84 713.849 1673.09 728.74C1671.89 729.634 1670.7 730.528 1669.5 731.422C1658.08 716.677 1646.64 701.952 1635.22 687.207L1639.34 684.087V684.066Z" fill="black"/>
<path d="M1975.13 1157.61C1976.67 1144.43 1978.19 1131.24 1979.73 1118.05C1981.5 1118.24 1983.24 1118.43 1985.01 1118.62C1988.3 1132.07 1982.6 1144.7 1979.65 1157.59C1978.15 1157.59 1976.65 1157.59 1975.15 1157.61H1975.13Z" fill="black"/>
<path d="M1410.67 1444.76C1422.44 1433.65 1434.19 1422.53 1445.96 1411.42C1446.67 1412.07 1447.35 1412.71 1448.06 1413.36C1436.79 1425.11 1425.54 1436.86 1414.27 1448.61C1413.06 1447.34 1411.87 1446.05 1410.67 1444.78V1444.76Z" fill="black"/>
<path d="M908.612 1584.31H977.494C977.494 1585.16 977.473 1586.01 977.452 1586.85H908.529C908.55 1585.99 908.571 1585.14 908.592 1584.31H908.612Z" fill="black"/>
<path d="M591.58 1080.59C582.616 1061.83 591.788 1049.85 601.604 1038C598.464 1051.31 595.344 1064.64 591.58 1080.59Z" fill="black"/>
<path d="M527.975 552.192C515.642 563.526 503.33 574.882 490.997 586.216C489.936 585.073 488.897 583.929 487.836 582.785C500.086 571.367 512.356 559.949 524.606 548.531C525.729 549.758 526.852 550.965 527.954 552.192H527.975Z" fill="black"/>
<path d="M982.823 1628.43C966.934 1627.5 951.065 1626.54 935.176 1625.61C935.301 1623.82 935.405 1622.01 935.529 1620.22C951.564 1621.61 967.578 1622.98 983.613 1624.38C983.343 1625.73 983.073 1627.08 982.823 1628.45V1628.43Z" fill="black"/>
<path d="M1219.06 1752.5C1234.22 1749.18 1249.39 1745.87 1264.55 1742.54C1264.88 1744.08 1265.21 1745.6 1265.52 1747.14C1250.4 1750.38 1235.28 1753.61 1220.16 1756.85C1219.79 1755.4 1219.42 1753.96 1219.06 1752.5Z" fill="black"/>
<path d="M345.752 1459.82C338.744 1448.69 323.769 1441.83 328.615 1420.74C336.56 1434.95 342.966 1446.41 349.371 1457.85C348.165 1458.49 346.959 1459.16 345.752 1459.8V1459.82Z" fill="black"/>
<path d="M1531.21 998.634C1529.55 1017.91 1527.9 1037.19 1526.24 1056.47C1524.8 1056.35 1523.39 1056.22 1521.96 1056.1C1523.68 1036.82 1525.43 1017.54 1527.15 998.26C1528.51 998.385 1529.86 998.509 1531.21 998.613V998.634Z" fill="black"/>
<path d="M1519.58 143.206C1528.57 148.26 1537.55 153.335 1546.54 158.389C1545.52 160.219 1544.48 162.049 1543.46 163.879C1534.43 158.867 1525.43 153.875 1516.4 148.863C1517.46 146.971 1518.52 145.078 1519.58 143.186V143.206Z" fill="black"/>
<path d="M361.328 703.974C372.871 687.066 384.393 670.178 395.935 653.27C397.017 653.977 398.098 654.684 399.18 655.391C387.803 672.528 376.406 689.644 365.009 706.782C363.782 705.846 362.555 704.91 361.328 703.974Z" fill="black"/>
<path d="M1261.18 562.801C1271.7 570.725 1282.24 578.669 1292.77 586.593C1291.67 588.07 1290.56 589.526 1289.46 591.002C1279 582.995 1268.52 574.988 1258.06 566.981C1259.1 565.588 1260.14 564.194 1261.18 562.801Z" fill="black"/>
<path d="M1887.7 1099.1C1885.25 1119.85 1882.79 1140.61 1880.34 1161.37L1877.68 1161.08C1879.92 1140.3 1882.17 1119.5 1884.41 1098.72C1885.52 1098.85 1886.6 1098.97 1887.7 1099.08V1099.1Z" fill="black"/>
<path d="M342.938 627.25C348.99 615.167 355.021 603.083 361.073 591C362.695 591.811 364.317 592.601 365.94 593.413C359.867 605.454 353.773 617.496 347.7 629.517C346.12 628.768 344.518 627.999 342.938 627.25Z" fill="black"/>
<path d="M1195.28 873.205C1201.29 884.561 1207.28 895.916 1213.29 907.292C1211.55 908.187 1209.8 909.081 1208.05 909.975C1202.52 898.391 1196.99 886.786 1191.46 875.202L1195.3 873.205H1195.28Z" fill="black"/>
<path d="M434.946 724.833C428.749 735.772 422.551 746.712 416.353 757.651L411.383 754.802C417.705 743.925 424.028 733.069 430.371 722.191C431.91 723.065 433.428 723.959 434.967 724.833H434.946Z" fill="black"/>
<path d="M1340.54 1074.42C1338.33 1085.92 1336.11 1097.4 1333.9 1108.9C1331.55 1108.34 1329.23 1107.78 1326.88 1107.2C1330.08 1095.82 1333.28 1084.44 1336.5 1073.07C1337.86 1073.51 1339.21 1073.96 1340.56 1074.4L1340.54 1074.42Z" fill="black"/>
<path d="M1564.88 128.606C1579 127.331 1586.85 133.036 1588.44 145.723C1580.56 140.004 1574.07 135.282 1564.88 128.606Z" fill="black"/>
<path d="M1375.25 604.955C1384.57 613.025 1393.88 621.073 1403.18 629.143L1399.08 633.884C1389.79 625.607 1380.51 617.35 1371.21 609.073L1375.25 604.955Z" fill="black"/>
<path d="M438.423 1382.05C445.515 1394.72 452.627 1407.36 459.719 1420.03C458.388 1420.78 457.057 1421.53 455.726 1422.28C448.489 1409.69 441.251 1397.11 434.014 1384.53C435.49 1383.7 436.946 1382.86 438.423 1382.05Z" fill="black"/>
<path d="M1456.9 1253.24C1448.69 1266.7 1440.45 1280.17 1432.24 1293.63C1430.93 1292.84 1429.61 1292.05 1428.3 1291.24C1436.62 1277.82 1444.92 1264.41 1453.24 1251.01C1454.47 1251.76 1455.7 1252.49 1456.92 1253.24H1456.9Z" fill="black"/>
<path d="M723.201 1473.12C709.745 1466.68 696.269 1460.21 682.812 1453.76C683.624 1452.12 684.435 1450.48 685.246 1448.83C698.494 1455.74 711.721 1462.64 724.969 1469.57C724.387 1470.75 723.804 1471.94 723.222 1473.12H723.201Z" fill="black"/>
<path d="M1839.76 845.062C1842.84 856.709 1845.92 868.356 1849 880.002C1847.42 880.439 1845.84 880.876 1844.28 881.313C1840.99 869.541 1837.7 857.77 1834.42 846.019C1836.21 845.707 1838 845.395 1839.78 845.083L1839.76 845.062Z" fill="black"/>
<path d="M1260.45 709.338C1271.76 717.699 1283.1 726.038 1294.41 734.399C1293.5 735.626 1292.6 736.874 1291.69 738.101C1280.41 729.782 1269.14 721.442 1257.89 713.123C1258.74 711.854 1259.6 710.607 1260.45 709.338Z" fill="black"/>
<path d="M731.063 1565.81C718.106 1560.11 705.15 1554.39 692.172 1548.69C692.713 1547.44 693.274 1546.17 693.815 1544.93C706.793 1550.6 719.749 1556.3 732.727 1561.98C732.166 1563.25 731.604 1564.54 731.043 1565.81H731.063Z" fill="black"/>
<path d="M261 1529.26C269.402 1541.05 277.825 1552.84 286.228 1564.63L282.671 1567.13C274.227 1555.36 265.784 1543.59 257.34 1531.82C258.567 1530.96 259.773 1530.11 261 1529.26Z" fill="black"/>
<path d="M1539.26 957.807C1540.49 978.625 1541.71 999.423 1542.96 1020.24C1541.8 1020.3 1540.63 1020.37 1539.49 1020.45C1538.26 999.631 1537.01 978.833 1535.79 958.015C1536.95 957.952 1538.11 957.89 1539.28 957.807H1539.26Z" fill="black"/>
<path d="M613.934 984.451C617.74 973.262 621.525 962.052 625.331 950.863C627.182 951.508 629.033 952.132 630.884 952.777C626.745 963.862 622.606 974.947 618.447 986.032C616.949 985.512 615.431 984.992 613.934 984.472V984.451Z" fill="black"/>
<path d="M734.308 1832.87C718.98 1828.38 703.652 1823.86 688.324 1819.37C688.615 1818.27 688.907 1817.15 689.198 1816.04C704.525 1820.37 719.832 1824.72 735.16 1829.04C734.869 1830.31 734.599 1831.6 734.308 1832.87Z" fill="black"/>
<path d="M1026.22 1307.27C1013.97 1309.02 1001.7 1310.77 989.452 1312.49C989.244 1311.18 989.036 1309.87 988.828 1308.54C1001.16 1306.23 1013.51 1303.92 1025.85 1301.59C1025.97 1303.49 1026.1 1305.36 1026.22 1307.25V1307.27Z" fill="black"/>
</svg>
