<?xml version="1.0" encoding="UTF-8"?>
<svg id="Calque_1" data-name="Calque 1" xmlns="http://www.w3.org/2000/svg" viewBox="0 0 218.22 218.02">
  <defs>
    <style>
      .cls-1 {
        fill: none;
        stroke: #5E313C;
        stroke-miterlimit: 10;
      }
    </style>
  </defs>
  <path class="cls-1" d="M72.87,1.35c.07,0,.2,0,.36,0,.55,0,.95,0,.97,0,.82,0,3.61-.69,5.33-.81,2.39-.16,3.09.76,6.2.81,3.16.04,4.05-.95,7.13-.81,2.59.12,2.67.71,5.14.81,3.48.14,4.8-.98,8.19-.81,2.08.1,2.03.54,5.09.81.6.05,2.63.22,5.02.07,3.29-.2,3.41-.76,5.89-.88,3.35-.16,4.17.81,8,.81,4.08,0,5.27-1.1,8-.81,1.17.12,5.44.81,5.9.81,0,0-.05,0,.02,0,.13,0,.64,0,.75,0"/>
  <path class="cls-1" d="M144.87,1.35c.07,0,.2,0,.36,0,.55,0,.95,0,.97,0,.82,0,3.61-.69,5.33-.81,2.39-.16,3.09.76,6.2.81,3.16.04,4.05-.95,7.13-.81,2.59.12,2.67.71,5.14.81,3.48.14,4.8-.98,8.19-.81,2.08.1,2.03.54,5.09.81.6.05,2.63.22,5.02.07,3.29-.2,3.41-.76,5.89-.88,3.35-.16,4.17.81,8,.81,4.08,0,5.27-1.1,8-.81,1.17.12,5.44.81,5.9.81,0,0-.05,0,.02,0,.13,0,.64,0,.75,0"/>
  <path class="cls-1" d="M.87,1.35c.07,0,.2,0,.36,0,.55,0,.95,0,.97,0,.82,0,3.61-.69,5.33-.81,2.39-.16,3.09.76,6.2.81,3.16.04,4.05-.95,7.13-.81,2.59.12,2.67.71,5.14.81,3.48.14,4.8-.98,8.19-.81,2.08.1,2.03.54,5.09.81.6.05,2.63.22,5.02.07,3.29-.2,3.41-.76,5.89-.88,3.35-.16,4.17.81,8,.81,4.08,0,5.27-1.1,8-.81,1.17.12,5.44.81,5.9.81,0,0-.05,0,.02,0,.13,0,.64,0,.75,0"/>
  <path class="cls-1" d="M1.35,73.1c0-.07,0-.2,0-.36,0-.55,0-.94,0-.97,0-.81-.69-3.57-.81-5.28-.16-2.37.76-3.07.81-6.15.04-3.14-.95-4.01-.81-7.06.12-2.57.71-2.65.81-5.09.14-3.45-.98-4.75-.81-8.12.1-2.06.54-2.01.81-5.04.05-.6.22-2.61.07-4.97-.2-3.26-.76-3.38-.88-5.83-.16-3.32.81-4.13.81-7.93,0-4.04-1.1-5.22-.81-7.93.12-1.16.81-5.39.81-5.85,0,0,0,.05,0-.02,0-.13,0-.64,0-.74"/>
  <path class="cls-1" d="M1.35,145.1c0-.07,0-.2,0-.36,0-.56,0-.95,0-.98,0-.82-.69-3.62-.81-5.36-.16-2.41.76-3.11.81-6.23.04-3.18-.95-4.07-.81-7.16.12-2.6.71-2.68.81-5.16.14-3.5-.98-4.82-.81-8.23.1-2.09.54-2.04.81-5.12.05-.6.22-2.64.07-5.04-.2-3.3-.76-3.43-.88-5.92-.16-3.36.81-4.19.81-8.04,0-4.1-1.1-5.29-.81-8.04.12-1.18.81-5.47.81-5.93,0,0,0,.05,0-.02,0-.13,0-.65,0-.75"/>
  <path class="cls-1" d="M1.35,217.1c0-.07,0-.2,0-.36,0-.56,0-.95,0-.98,0-.82-.69-3.62-.81-5.36-.16-2.41.76-3.11.81-6.23.04-3.18-.95-4.07-.81-7.16.12-2.6.71-2.68.81-5.16.14-3.5-.98-4.82-.81-8.23.1-2.09.54-2.04.81-5.12.05-.6.22-2.64.07-5.04-.2-3.3-.76-3.43-.88-5.92-.16-3.36.81-4.19.81-8.04,0-4.1-1.1-5.29-.81-8.04.12-1.18.81-5.47.81-5.93,0,0,0,.05,0-.02,0-.13,0-.65,0-.75"/>
  <path class="cls-1" d="M145.35,216.66c-.07,0-.2,0-.36,0-.55,0-.95,0-.97,0-.82,0-3.61.69-5.33.81-2.39.16-3.09-.76-6.2-.81-3.16-.04-4.05.95-7.13.81-2.59-.12-2.67-.71-5.14-.81-3.48-.14-4.8.98-8.19.81-2.08-.1-2.03-.54-5.09-.81-.6-.05-2.63-.22-5.02-.07-3.29.2-3.41.76-5.89.88-3.35.16-4.17-.81-8-.81-4.08,0-5.27,1.1-8,.81-1.17-.12-5.44-.81-5.9-.81,0,0,.05,0-.02,0-.13,0-.64,0-.75,0"/>
  <path class="cls-1" d="M73.35,216.66c-.07,0-.2,0-.36,0-.55,0-.95,0-.97,0-.82,0-3.61.69-5.33.81-2.39.16-3.09-.76-6.2-.81-3.16-.04-4.05.95-7.13.81-2.59-.12-2.67-.71-5.14-.81-3.48-.14-4.8.98-8.19.81-2.08-.1-2.03-.54-5.09-.81-.6-.05-2.63-.22-5.02-.07-3.29.2-3.41.76-5.89.88-3.35.16-4.17-.81-8-.81-4.08,0-5.27,1.1-8,.81-1.17-.12-5.44-.81-5.9-.81,0,0,.05,0-.02,0-.13,0-.64,0-.75,0"/>
  <path class="cls-1" d="M217.35,216.66c-.07,0-.2,0-.36,0-.55,0-.95,0-.97,0-.82,0-3.61.69-5.33.81-2.39.16-3.09-.76-6.2-.81-3.16-.04-4.05.95-7.13.81-2.59-.12-2.67-.71-5.14-.81-3.48-.14-4.8.98-8.19.81-2.08-.1-2.03-.54-5.09-.81-.6-.05-2.63-.22-5.02-.07-3.29.2-3.41.76-5.89.88-3.35.16-4.17-.81-8-.81-4.08,0-5.27,1.1-8,.81-1.17-.12-5.44-.81-5.9-.81,0,0,.05,0-.02,0-.13,0-.64,0-.75,0"/>
  <path class="cls-1" d="M216.86,144.92c0,.07,0,.2,0,.36,0,.55,0,.94,0,.97,0,.81.69,3.57.81,5.28.16,2.37-.76,3.07-.81,6.15-.04,3.14.95,4.01.81,7.06-.12,2.57-.71,2.65-.81,5.09-.14,3.45.98,4.75.81,8.12-.1,2.06-.54,2.01-.81,5.04-.05.6-.22,2.61-.07,4.97.2,3.26.76,3.38.88,5.83.16,3.32-.81,4.13-.81,7.93,0,4.04,1.1,5.22.81,7.93-.12,1.16-.81,5.39-.81,5.85,0,0,0-.05,0,.02,0,.13,0,.64,0,.74"/>
  <path class="cls-1" d="M216.86,72.92c0,.07,0,.2,0,.36,0,.56,0,.95,0,.98,0,.82.69,3.62.81,5.36.16,2.41-.76,3.11-.81,6.23-.04,3.18.95,4.07.81,7.16-.12,2.6-.71,2.68-.81,5.16-.14,3.5.98,4.82.81,8.23-.1,2.09-.54,2.04-.81,5.12-.05.6-.22,2.64-.07,5.04.2,3.3.76,3.43.88,5.92.16,3.36-.81,4.19-.81,8.04,0,4.1,1.1,5.29.81,8.04-.12,1.18-.81,5.47-.81,5.93,0,0,0-.05,0,.02,0,.13,0,.65,0,.75"/>
  <path class="cls-1" d="M216.86.92c0,.07,0,.2,0,.36,0,.56,0,.95,0,.98,0,.82.69,3.62.81,5.36.16,2.41-.76,3.11-.81,6.23-.04,3.18.95,4.07.81,7.16-.12,2.6-.71,2.68-.81,5.16-.14,3.5.98,4.82.81,8.23-.1,2.09-.54,2.04-.81,5.12-.05.6-.22,2.64-.07,5.04.2,3.3.76,3.43.88,5.92.16,3.36-.81,4.19-.81,8.04,0,4.1,1.1,5.29.81,8.04-.12,1.18-.81,5.47-.81,5.93,0,0,0-.05,0,.02,0,.13,0,.65,0,.75"/>
</svg>