<svg width="256" height="256" viewBox="0 0 256 256" fill="none" xmlns="http://www.w3.org/2000/svg">
<path opacity="0.1" d="M42.038 198.577C38.7929 193.857 34.9238 189.467 32.4454 184.335C28.1127 175.385 23.887 166.229 21.0341 156.678C18.6092 148.556 17.6464 139.813 17.058 131.268C16.7014 126.088 18.0654 120.721 19.055 115.522C20.3833 108.566 21.8276 101.609 23.7265 94.8126C27.0072 83.0712 32.5702 72.5519 40.3085 63.3863C43.9013 59.1278 47.1642 54.3617 51.3899 50.9399C59.7433 44.162 68.3018 37.497 77.4308 31.9788C90.3755 24.1481 104.818 21.0271 119.465 17.9719C130.698 15.6312 141.236 18.1411 151.934 19.0248C159.877 19.6828 167.776 23.2833 175.309 26.5641C190.554 33.1915 203.106 44.0304 214.357 56.5426C216.747 59.1936 218.904 62.277 220.446 65.5296C224.583 74.2534 230.841 81.8303 232.107 92.1428C232.865 98.3378 235.789 104.204 236.886 110.389C237.884 116.02 237.991 121.886 238 127.64C238 133.562 237.804 139.55 237.002 145.407C235.174 158.812 230.966 171.193 223.834 182.755C217.923 192.335 211.38 201.256 203.187 208.475C193.969 216.598 184.153 223.968 172.608 228.499C163.39 232.118 154.35 236.226 144.463 237.251C135.058 238.219 125.679 240.438 116.158 237.627C113.679 236.894 110.666 238.238 108.17 237.533C98.2832 234.778 88.2537 232.287 78.7948 228.32C72.581 225.716 67.0537 221.035 61.5798 216.776C55.9188 212.377 50.6589 207.404 45.292 202.6C44.0261 201.472 43.0098 200.024 41.8865 198.727C41.94 198.68 41.9934 198.642 42.0469 198.595L42.038 198.577ZM190.688 202.309C190.75 202.393 190.813 202.487 190.884 202.572C192.016 201.604 193.273 200.767 194.254 199.648C199.246 193.923 204.684 188.715 209.338 182.53C214.848 175.197 218.093 166.972 221.24 158.577C223.103 153.604 224.788 148.415 225.555 143.16C226.714 135.16 227.347 127.038 227.507 118.953C227.596 114.394 226.036 109.825 225.679 105.219C224.699 92.3966 219.207 81.3227 212.77 71.0196C206.253 60.5849 197.686 51.7389 187.719 44.7637C175.648 36.3125 162.382 30.3243 148.27 27.1751C135.602 24.3455 122.505 24.9942 110.087 28.4066C92.9252 33.1163 75.6121 37.9858 61.4283 50.4228C52.7718 58.0091 45.9874 67.1653 40.1837 77.1582C35.5568 85.1393 32.7753 93.9947 30.7426 103.076C29.5034 108.622 27.6313 114.234 27.6669 119.809C27.7115 128.335 28.9329 136.89 30.0651 145.379C31.6609 157.336 36.6355 168.166 42.4214 178.243C46.4242 185.218 52.638 190.849 58.1654 196.772C61.1341 199.949 64.5931 202.666 68.0878 205.213C73.6687 209.293 79.0088 214.464 85.2404 216.635C94.6191 219.897 103.935 223.761 114.214 224.212C122.853 224.598 131.394 227.136 140.059 224.268C141.218 223.883 142.707 224.748 143.982 224.541C146.166 224.193 148.306 223.488 150.454 222.877C151.684 222.529 152.897 222.097 154.118 221.674C159.387 219.85 164.986 218.703 169.835 216.024C177.074 212.019 183.779 206.943 190.715 202.318L190.688 202.309Z" fill="#020103"/>
<path d="M182.778 195.521C176.705 199.587 170.834 204.049 164.495 207.57C160.256 209.925 155.345 210.933 150.732 212.536C149.67 212.908 148.608 213.288 147.523 213.594C145.642 214.131 143.768 214.751 141.855 215.057C140.747 215.238 139.443 214.478 138.42 214.817C130.832 217.337 123.353 215.098 115.788 214.767C106.787 214.371 98.6292 210.974 90.4165 208.107C84.9596 206.198 80.2755 201.653 75.3963 198.067C72.3439 195.827 69.307 193.439 66.7074 190.646C61.8672 185.448 56.4337 180.49 52.9206 174.358C47.854 165.508 43.4979 155.98 42.1005 145.469C41.109 138.015 40.0395 130.487 40.0004 122.992C39.9692 118.092 41.6086 113.158 42.6938 108.283C44.4737 100.3 46.9094 92.5242 50.9611 85.5002C56.0433 76.7078 61.9843 68.6673 69.5646 61.9986C81.9852 51.0659 97.1459 46.7854 112.174 42.6453C123.049 39.6456 134.517 39.0754 145.61 41.5628C157.968 44.3311 169.577 49.595 180.155 57.0239C188.883 63.1555 196.378 70.9315 202.092 80.1041C207.729 89.161 212.545 98.8955 213.396 110.167C213.701 114.216 215.075 118.232 214.997 122.24C214.856 129.347 214.302 136.495 213.287 143.519C212.624 148.138 211.148 152.7 209.509 157.071C206.745 164.45 203.903 171.681 199.087 178.127C195.019 183.564 190.249 188.142 185.878 193.175C185.027 194.158 183.918 194.893 182.927 195.745C182.872 195.67 182.817 195.588 182.755 195.513L182.778 195.521Z" fill="#FAFAFA"/>
<g opacity="0.75">
<g opacity="0.75">
<path fill-rule="evenodd" clip-rule="evenodd" d="M66.7393 96V124.261H88.4059V96H66.7393Z" fill="#020103"/>
<path fill-rule="evenodd" clip-rule="evenodd" d="M66.7393 96V124.261H88.4059V96H66.7393Z" fill="#020103"/>
<path fill-rule="evenodd" clip-rule="evenodd" d="M66.7393 96V124.261H88.4059V96H66.7393Z" fill="#020103"/>
<path fill-rule="evenodd" clip-rule="evenodd" d="M66.7393 96V124.261H88.4059V96H66.7393Z" fill="#020103"/>
</g>
<g opacity="0.5">
<path fill-rule="evenodd" clip-rule="evenodd" d="M102.194 142.748H77.4444V150.049H102.194V142.748ZM66.7393 131.797V161H112.899V131.797H66.7393Z" fill="#020103"/>
<path fill-rule="evenodd" clip-rule="evenodd" d="M102.194 142.748H77.4444V150.049H102.194V142.748ZM66.7393 131.797V161H112.899V131.797H66.7393Z" fill="#020103"/>
<path fill-rule="evenodd" clip-rule="evenodd" d="M102.194 142.748H77.4444V150.049H102.194V142.748ZM66.7393 131.797V161H112.899V131.797H66.7393Z" fill="#020103"/>
<path fill-rule="evenodd" clip-rule="evenodd" d="M102.194 142.748H77.4444V150.049H102.194V142.748ZM66.7393 131.797V161H112.899V131.797H66.7393Z" fill="#020103"/>
</g>
<g opacity="0.5">
<path fill-rule="evenodd" clip-rule="evenodd" d="M120.211 106.598H102.76V113.663H120.211V106.598ZM92.1738 96V124.261H130.797V96H92.1738Z" fill="#020103"/>
<path fill-rule="evenodd" clip-rule="evenodd" d="M120.211 106.598H102.76V113.663H120.211V106.598ZM92.1738 96V124.261H130.797V96H92.1738Z" fill="#020103"/>
<path fill-rule="evenodd" clip-rule="evenodd" d="M120.211 106.598H102.76V113.663H120.211V106.598ZM92.1738 96V124.261H130.797V96H92.1738Z" fill="#020103"/>
<path fill-rule="evenodd" clip-rule="evenodd" d="M120.211 106.598H102.76V113.663H120.211V106.598ZM92.1738 96V124.261H130.797V96H92.1738Z" fill="#020103"/>
</g>
<g opacity="0.9">
<path fill-rule="evenodd" clip-rule="evenodd" d="M131.147 142.748H127.622V150.049H131.147V142.748ZM116.667 131.797V161H142.102V131.797H116.667Z" fill="#020103"/>
<path fill-rule="evenodd" clip-rule="evenodd" d="M131.147 142.748H127.622V150.049H131.147V142.748ZM116.667 131.797V161H142.102V131.797H116.667Z" fill="#020103"/>
<path fill-rule="evenodd" clip-rule="evenodd" d="M131.147 142.748H127.622V150.049H131.147V142.748ZM116.667 131.797V161H142.102V131.797H116.667Z" fill="#020103"/>
<path fill-rule="evenodd" clip-rule="evenodd" d="M131.147 142.748H127.622V150.049H131.147V142.748ZM116.667 131.797V161H142.102V131.797H116.667Z" fill="#020103"/>
</g>
<g opacity="0.6">
<path fill-rule="evenodd" clip-rule="evenodd" d="M177.469 106.598H145.358V113.663H177.469V106.598ZM134.565 96V124.261H188.261V96H134.565Z" fill="#020103"/>
<path fill-rule="evenodd" clip-rule="evenodd" d="M177.469 106.598H145.358V113.663H177.469V106.598ZM134.565 96V124.261H188.261V96H134.565Z" fill="#020103"/>
<path fill-rule="evenodd" clip-rule="evenodd" d="M177.469 106.598H145.358V113.663H177.469V106.598ZM134.565 96V124.261H188.261V96H134.565Z" fill="#020103"/>
<path fill-rule="evenodd" clip-rule="evenodd" d="M177.469 106.598H145.358V113.663H177.469V106.598ZM134.565 96V124.261H188.261V96H134.565Z" fill="#020103"/>
</g>
<g opacity="0.8">
<path fill-rule="evenodd" clip-rule="evenodd" d="M177.374 142.748H155.815V150.049H177.374V142.748ZM144.928 131.797V161H188.261V131.797H144.928Z" fill="#020103"/>
<path fill-rule="evenodd" clip-rule="evenodd" d="M177.374 142.748H155.815V150.049H177.374V142.748ZM144.928 131.797V161H188.261V131.797H144.928Z" fill="#020103"/>
<path fill-rule="evenodd" clip-rule="evenodd" d="M177.374 142.748H155.815V150.049H177.374V142.748ZM144.928 131.797V161H188.261V131.797H144.928Z" fill="#020103"/>
<path fill-rule="evenodd" clip-rule="evenodd" d="M177.374 142.748H155.815V150.049H177.374V142.748ZM144.928 131.797V161H188.261V131.797H144.928Z" fill="#020103"/>
</g>
</g>
</svg>
