<svg width="4096" height="4096" viewBox="0 0 4096 4096" fill="none" xmlns="http://www.w3.org/2000/svg">
<g clip-path="url(#clip0_2670_375)">
<path d="M4096 0H0V4096H4096V0Z" fill="white"/>
<path d="M1567.63 1559.45C1640.95 1374.85 1459.53 1078.34 1428.6 1029.93C1425.71 1025.55 1424.2 1023.15 1424.2 1023.15C1424.2 1023.15 1425.77 1025.5 1428.6 1029.93C1459.26 1076.45 1645.34 1346.85 1832.98 1354.51C2163.87 1368.02 2095 548 2095 548C2095 548 2215.23 1311 2351.03 1336.06C2451 1354.51 2727.13 1092.03 2727.13 1092.03C2727.13 1092.03 2511.61 1367.21 2547.49 1559.45C2594.34 1810.5 3487 1559.45 3487 1559.45C3487 1559.45 2680.87 1952.33 2748.11 2096.33C2815.36 2240.34 3064.26 2352.6 3064.26 2352.6C3064.26 2352.6 2815.55 2274.1 2674.6 2332C2346.44 2466.81 2955.3 3196 2955.3 3196C2955.3 3196 2321 2479.5 2144.82 2607.09C1990.41 2718.93 1969.68 3062.79 1969.68 3062.79C1969.68 3062.79 1968.4 2830.03 1879.92 2727.17C1724.5 2546.5 1234.7 3196 1234.7 3196C1234.7 3196 1742 2452.5 1534.97 2271.75C1373.01 2130.35 996.545 2229.92 959.085 2240.3C957.11 2240.86 956.068 2241.15 956.068 2241.15C956.068 2241.15 957.101 2240.85 959.085 2240.3C990.335 2231.35 1255.08 2151.76 1318 2006.32C1384.9 1851.68 703 1559.45 703 1559.45C703 1559.45 1473.27 1797 1567.63 1559.45Z" fill="black"/>
</g>
<defs>
<clipPath id="clip0_2670_375">
<rect width="4096" height="4096" fill="white"/>
</clipPath>
</defs>
</svg>
